<svg width="384" height="441" viewBox="0 0 384 441" fill="none" xmlns="http://www.w3.org/2000/svg">
    <g opacity="0.5">
    <g filter="url(#filter0_i_51_15798)">
    <path d="M383.5 162.5L369.5 151H309L297.5 154L286.5 155.5L279.5 167L295 170.5L300.5 180.5H322L332 177L347 184L360 182.5L383.5 162.5Z" fill="#050B10"/>
    </g>
    <path d="M334.858 455.515C334.277 463.333 327.749 470.601 315.788 476.744C303.828 482.888 286.762 487.74 265.935 490.917C245.108 494.095 221.09 495.511 195.774 495.054C170.458 494.598 144.536 492.281 120.051 488.286C95.5661 484.292 73.1874 478.729 54.6788 472.036C36.1703 465.343 22.0378 457.703 13.3953 449.718C4.7529 441.733 1.83669 433.621 4.87659 426.022C7.91648 418.423 16.8294 411.545 30.9128 405.929L169.305 443.164L334.858 455.515Z" fill="#050B10"/>
    <path d="M369 414.235V431.11L330.505 443.163L342.534 469.681L332.911 484.146L292.009 479.324L272.761 464.86L243.89 455.217L229.454 474.503L200.582 484.146L176.523 469.681V455.217L195.771 443.163L200.582 419.056L195.771 402.181L190.959 368.431L176.523 315.395L157.275 250.305L118.78 211.733L125.998 190.037L145.245 177.983L166.899 190.037L186.147 170.751V115.304L171.711 108.072L176.523 67.0897H200.582L217.424 86.3755L236.672 81.554L243.89 55.036L265.544 6.82146L275.167 2V67.0897L330.505 38.1609H361.782V47.8038L236.672 115.304V197.269V211.733L243.89 223.787L251.108 240.662H289.603C288.801 251.109 287.678 272.484 289.603 274.412C291.528 276.341 280.781 288.073 275.167 293.698V315.395L369 414.235Z" fill="#050B10" stroke="#050B10" stroke-width="2"/>
    <path d="M195.771 284.056V305.752H219.83V329.859L229.454 334.681L224.642 370.842M311.257 457.628L292.009 438.342M279.979 426.289L292.009 438.342M287.197 452.807L292.009 438.342" stroke="#050B10" stroke-width="2"/>
    <path d="M241.484 416.645V452.806M205.395 397.359H234.266V382.895M325.693 435.931L304.039 411.824M292.009 397.359L270.356 382.895L265.544 361.199M253.514 322.627V344.323H227.048M217.424 262.359L205.395 255.127L210.207 243.073M234.266 199.68H210.207V221.376V180.394M210.207 141.822V123.742M210.207 105.661V123.742M210.207 123.742H193.365M176.523 216.555L178.929 228.608L162.087 247.894M176.523 180.394L178.929 209.323L162.087 190.037M246.296 105.661L241.484 88.7863L258.326 79.1433M270.356 59.8575H258.326V42.9824" stroke="#050B10" stroke-width="2"/>
    </g>
    <defs>
    <filter id="filter0_i_51_15798" x="279.5" y="150" width="105" height="34" filterUnits="userSpaceOnUse" color-interpolation-filters="sRGB">
    <feFlood flood-opacity="0" result="BackgroundImageFix"/>
    <feBlend mode="normal" in="SourceGraphic" in2="BackgroundImageFix" result="shape"/>
    <feColorMatrix in="SourceAlpha" type="matrix" values="0 0 0 0 0 0 0 0 0 0 0 0 0 0 0 0 0 0 127 0" result="hardAlpha"/>
    <feOffset dx="6" dy="-2"/>
    <feGaussianBlur stdDeviation="0.5"/>
    <feComposite in2="hardAlpha" operator="arithmetic" k2="-1" k3="1"/>
    <feColorMatrix type="matrix" values="0 0 0 0 0.0267535 0 0 0 0 0.0647474 0 0 0 0 0.0958333 0 0 0 1 0"/>
    <feBlend mode="normal" in2="shape" result="effect1_innerShadow_51_15798"/>
    </filter>
    </defs>
</svg>
