<svg width="130" height="520" viewBox="0 0 130 520" fill="none" xmlns="http://www.w3.org/2000/svg">
<g clip-path="url(#clip0_24_47)">
<path d="M67.3759 103.591L59.1084 103.216L60.2358 87.4321H67.0001L67.3759 103.591Z" fill="#D9D9D9" stroke="#071118" stroke-width="3"/>
<path d="M43.3248 92.3178C43.9261 90.8146 45.329 84.1756 45.9554 81.0439L62.866 88.184C62.2396 91.3157 60.8367 98.1802 60.2354 100.585C59.6341 102.99 58.2312 104.093 57.6048 104.343C54.8491 103.717 48.4356 101.938 44.828 99.8337C40.3184 97.2031 42.5732 94.1968 43.3248 92.3178Z" fill="#104D6B" stroke="#071118" stroke-width="3"/>
<path d="M67.0002 102.464C67.0002 101.863 65.9981 92.6935 65.4971 88.1839L83.1594 78.7891C82.7836 84.426 84.9326 95.1417 85.4142 96.8272C86.1658 99.4578 84.7378 100.209 83.1594 101.337C80.5289 103.216 71.8856 104.343 69.255 104.719C66.6245 105.095 67.0002 103.216 67.0002 102.464Z" fill="#104D6B" stroke="#071118" stroke-width="3"/>
<path d="M84.2861 90.8147C83.6848 89.3115 83.5345 81.1693 83.5345 77.2861C82.7829 74.5302 82.4071 69.9205 86.9167 73.5281C92.5536 78.0377 95.5599 83.6746 95.5599 87.8083C95.5599 91.9421 92.9294 93.4453 89.5472 93.8211C86.1651 94.1968 85.0377 92.6937 84.2861 90.8147Z" fill="#104D6B" stroke="#071118" stroke-width="3"/>
<path d="M37.688 85.9293C42.1976 86.5306 45.9555 86.3051 46.3313 81.7955L43.325 73.5282C39.3165 71.524 30.7734 69.0938 28.669 75.4072C26.0384 83.2989 32.0511 85.1777 37.688 85.9293Z" fill="#104D6B" stroke="#071118" stroke-width="3"/>
<path d="M32.439 38.2369C28.456 48.5928 29.9482 57.6627 33.4529 64.7389C36.7889 71.4743 41.9397 76.4022 45.9064 79.0385C47.6979 82.4777 51.6381 86.0704 57.9074 86.7161C64.4553 87.3905 73.1949 84.8197 84.3763 76.2421C91.4606 70.8076 95.7249 65.1606 98.0024 59.6339C100.282 54.1019 100.522 48.8084 99.7402 44.1655C98.961 39.5405 97.1703 35.5698 95.3881 32.614C93.7021 29.8176 91.9192 27.761 90.857 26.9171C91.0615 26.9763 91.2869 27.0296 91.5208 27.0611C91.8852 27.1102 92.5006 27.1397 93.1335 26.8377C93.8681 26.4871 94.294 25.8551 94.4722 25.2131C94.6115 24.7112 94.6025 24.2099 94.5528 23.7861C94.4649 18.1852 88.9826 12.9413 78.8028 12.1583C73.7536 11.7699 64.6974 11.8589 55.6377 15.2379C46.5142 18.6407 37.3787 25.3935 32.439 38.2369Z" fill="#104D6B" stroke="#071118" stroke-width="4"/>
<path d="M52.6086 79.1339C55.2436 80.4545 58.3811 80.3445 58.2556 81.1149C62.0204 82.8758 63.6768 82.4356 70.3028 79.7942C78.5852 76.4925 83.8559 70.5494 84.6089 65.2667C85.2112 61.0405 80.5931 47.2173 78.2088 40.834C76.7029 41.1642 71.0558 42.2207 60.5145 43.8055C47.3378 45.7866 43.1965 52.0598 41.3141 59.9839C39.4317 67.908 48.9541 77.3023 52.6086 79.1339Z" fill="#050B10"/>
<path d="M51.5918 63.9008C51.5918 61.7537 53.0908 57.3687 55.7424 57.3687C57.6214 57.7444 57.8489 59.9587 57.9532 60.6371C58.1263 61.7624 58.2274 62.9487 58.1634 64.0999C58.084 65.5298 57.4986 68.9196 55.475 68.4699C53.0588 67.933 51.5918 66.477 51.5918 63.9008Z" fill="#8BF2F2"/>
<path d="M54.5977 65.0566C54.5977 64.3325 55.1105 62.8535 56.0176 62.8535C56.6604 62.9803 56.7382 63.7271 56.7739 63.9559C56.8331 64.3354 56.8677 64.7355 56.8458 65.1238C56.8186 65.6061 56.6184 66.7494 55.9261 66.5977C55.0995 66.4166 54.5977 65.9255 54.5977 65.0566Z" fill="#BDFFFF"/>
<path d="M74.7344 63.9008C74.7344 61.7537 73.2353 57.3687 70.5837 57.3687C68.7048 57.7444 68.4773 59.9587 68.373 60.6371C68.1998 61.7624 68.0988 62.9487 68.1627 64.0999C68.2422 65.5298 68.8276 68.9196 70.8511 68.4699C73.2673 67.933 74.7344 66.477 74.7344 63.9008Z" fill="#8BF2F2"/>
<path d="M71.8848 65.0566C71.8848 64.3325 71.3719 62.8535 70.4648 62.8535C69.822 62.9803 69.7442 63.7271 69.7085 63.9559C69.6493 64.3354 69.6147 64.7355 69.6366 65.1238C69.6638 65.6061 69.864 66.7494 70.5563 66.5977C71.3829 66.4166 71.8848 65.9255 71.8848 65.0566Z" fill="#BDFFFF"/>
<path d="M53.4709 85.9292C48.3601 83.5241 44.4518 79.0396 43.7002 75.7827C48.9613 79.9165 52.7063 80.8282 60.9868 81.4197C71.509 82.1713 78.2733 79.9165 81.2797 77.6617C82.7829 76.5343 84.6618 75.7826 82.4071 79.1649C79.3869 83.6952 73.7638 86.5556 70.0058 87.4324C66.6237 87.9335 58.5817 88.3343 53.4709 85.9292Z" fill="#104D6B" stroke="#071118" stroke-width="2"/>
<circle cx="19.2738" cy="54.3622" r="11.2738" fill="#1F7D97" fill-opacity="0.3"/>
<path d="M11.006 59.999C11.3817 64.1331 13.5112 64.6341 15.5155 64.8847L26.7893 61.1267C28.543 59.9993 30.1715 57.7446 29.4199 55.4897C28.4116 52.4645 24.5345 52.5931 24.5345 55.114C24.5345 55.4898 21.0079 53.235 20.7766 50.2285C20.4008 45.3432 20.0249 43.4644 15.5155 43.4644C11.006 43.4644 7.24806 52.1073 9.87862 49.4768C12.5092 46.8462 14.7638 46.8468 15.8913 47.2223C19.6492 49.1013 15.8913 52.4831 14.0124 53.6105C12.1334 54.7379 10.7318 56.9817 11.006 59.999Z" fill="#03B3E3"/>
<path d="M18.5213 58.4965C15.2143 59.699 17.1434 62.2544 18.5213 63.3818C19.3982 63.1313 21.5278 62.4799 23.031 61.8786C23.4068 59.9996 22.655 56.9933 18.5213 58.4965Z" fill="#BDFFFF"/>
<circle cx="28.2922" cy="44.5916" r="1.50318" fill="#03B3E3"/>
<circle cx="29.0436" cy="30.3116" r="0.75159" fill="#03B3E3"/>
<circle cx="32.8024" cy="42.337" r="0.75159" fill="#03B3E3"/>
<path d="M29.1235 91.5687C28.7992 91.6269 23.5488 77.6309 21.1528 71.2733L26.5602 69.1208C28.0574 76.2996 31.0213 90.7191 30.8985 90.9674C30.7449 91.2777 29.5288 91.4959 29.1235 91.5687Z" fill="#354E4F" stroke="#213D3E" stroke-width="3"/>
<path d="M18.1452 69.7699C17.3936 69.3941 18.1452 68.2668 18.521 67.5152C15.2141 67.8157 15.1399 65.6362 16.2661 65.2605C17.7693 64.7594 21.3018 63.6069 23.4062 63.0056C26.0368 62.254 28.4023 61.4571 28.668 62.2543C29.4196 64.5089 26.7884 64.8846 27.9158 65.6362C28.8177 66.2375 27.1648 67.8912 26.789 68.267C25.2858 68.768 22.2037 69.507 21.1521 69.7699C19.6489 70.1457 18.8968 70.1457 18.1452 69.7699Z" fill="#142839" stroke="#142839" stroke-width="3"/>
<path d="M61.7686 233.591L70.0361 233.216L68.9087 217.432H62.1444L61.7686 233.591Z" fill="#D9D9D9" stroke="#071118" stroke-width="3"/>
<path d="M85.8197 222.318C85.2185 220.815 83.8155 214.176 83.1892 211.044L66.2786 218.184C66.9049 221.316 68.3079 228.18 68.9091 230.585C69.5104 232.99 70.9134 234.093 71.5397 234.343C74.2955 233.717 80.7089 231.938 84.3166 229.834C88.8261 227.203 86.5713 224.197 85.8197 222.318Z" fill="#104D6B" stroke="#071118" stroke-width="3"/>
<path d="M62.1443 232.464C62.1443 231.863 63.1464 222.693 63.6475 218.184L45.9851 208.789C46.3609 214.426 44.2119 225.142 43.7303 226.827C42.9787 229.458 44.4068 230.209 45.9851 231.337C48.6157 233.216 57.2589 234.343 59.8895 234.719C62.5201 235.095 62.1443 233.216 62.1443 232.464Z" fill="#104D6B" stroke="#071118" stroke-width="3"/>
<path d="M44.8584 220.815C45.4597 219.312 45.61 211.169 45.61 207.286C46.3616 204.53 46.7374 199.92 42.2279 203.528C36.591 208.038 33.5846 213.675 33.5846 217.808C33.5846 221.942 36.2152 223.445 39.5973 223.821C42.9795 224.197 44.1069 222.694 44.8584 220.815Z" fill="#104D6B" stroke="#071118" stroke-width="3"/>
<path d="M91.4565 215.929C86.947 216.531 83.189 216.305 82.8132 211.796L85.8196 203.528C89.828 201.524 98.3711 199.094 100.476 205.407C103.106 213.299 97.0934 215.178 91.4565 215.929Z" fill="#104D6B" stroke="#071118" stroke-width="3"/>
<path d="M96.7055 168.237C100.689 178.593 99.1963 187.663 95.6916 194.739C92.3557 201.474 87.2049 206.402 83.2381 209.039C81.4466 212.478 77.5064 216.07 71.2372 216.716C64.6893 217.391 55.9497 214.82 44.7682 206.242C37.6839 200.808 33.4197 195.161 31.1421 189.634C28.8624 184.102 28.6221 178.808 29.4043 174.165C30.1835 169.54 31.9742 165.57 33.7564 162.614C35.4425 159.818 37.2253 157.761 38.2875 156.917C38.083 156.976 37.8576 157.03 37.6238 157.061C37.2593 157.11 36.6439 157.14 36.0111 156.838C35.2764 156.487 34.8505 155.855 34.6723 155.213C34.533 154.711 34.542 154.21 34.5917 153.786C34.6796 148.185 40.1619 142.941 50.3417 142.158C55.391 141.77 64.4472 141.859 73.5068 145.238C82.6303 148.641 91.7658 155.394 96.7055 168.237Z" fill="#104D6B" stroke="#071118" stroke-width="4"/>
<path d="M75.6737 215.929C80.7845 213.524 84.6927 209.04 85.4443 205.783C80.1832 209.916 76.4383 210.828 68.1578 211.42C57.6355 212.171 50.8712 209.916 47.8648 207.662C46.3617 206.534 44.4827 205.783 46.7375 209.165C49.7576 213.695 55.3807 216.556 59.1387 217.432C62.5208 217.933 70.5629 218.334 75.6737 215.929Z" fill="#104D6B" stroke="#071118" stroke-width="2"/>
<circle cx="11.2738" cy="11.2738" r="11.2738" transform="matrix(-1 0 0 1 121.145 173.088)" fill="#1F7D97" fill-opacity="0.3"/>
<path d="M118.139 189.999C117.763 194.133 115.633 194.634 113.629 194.885L102.355 191.127C100.602 189.999 98.9731 187.745 99.7247 185.49C100.733 182.465 104.61 182.593 104.61 185.114C104.61 185.49 108.137 183.235 108.368 180.229C108.744 175.343 109.12 173.464 113.629 173.464C118.139 173.464 121.896 182.107 119.266 179.477C116.635 176.846 114.381 176.847 113.253 177.222C109.495 179.101 113.253 182.483 115.132 183.611C117.011 184.738 118.413 186.982 118.139 189.999Z" fill="#03B3E3"/>
<path d="M110.623 188.496C113.93 189.699 112.001 192.254 110.623 193.382C109.746 193.131 107.617 192.48 106.114 191.879C105.738 190 106.49 186.993 110.623 188.496Z" fill="#BDFFFF"/>
<circle cx="1.50318" cy="1.50318" r="1.50318" transform="matrix(-1 0 0 1 102.355 173.088)" fill="#03B3E3"/>
<circle cx="0.75159" cy="0.75159" r="0.75159" transform="matrix(-1 0 0 1 100.853 159.56)" fill="#03B3E3"/>
<circle cx="0.75159" cy="0.75159" r="0.75159" transform="matrix(-1 0 0 1 97.0938 171.585)" fill="#03B3E3"/>
<path d="M100.021 221.569C100.345 221.627 105.596 207.631 107.992 201.273L102.584 199.121C101.087 206.3 98.1232 220.719 98.2461 220.967C98.3996 221.278 99.6157 221.496 100.021 221.569Z" fill="#354E4F" stroke="#213D3E" stroke-width="3"/>
<path d="M110.999 199.77C111.751 199.394 110.999 198.267 110.624 197.515C113.93 197.816 114.005 195.636 112.878 195.261C111.375 194.759 107.843 193.607 105.738 193.006C103.108 192.254 100.742 191.457 100.477 192.254C99.7249 194.509 102.356 194.885 101.229 195.636C100.327 196.237 101.98 197.891 102.356 198.267C103.859 198.768 106.941 199.507 107.992 199.77C109.496 200.146 110.248 200.146 110.999 199.77Z" fill="#142839" stroke="#142839" stroke-width="3"/>
<path d="M51.9449 324.663C51.9449 326.722 51.7695 328.516 51.121 330.497C49.4707 335.54 47.3043 340.543 44.9707 345.308C44.4131 346.446 43.8187 347.542 43.3612 348.728C42.7866 350.218 42.1596 350.745 43.5049 352.09C45.7449 354.33 48.2605 356.222 51.0922 357.666C57.5797 360.975 64.4207 361.91 71.5837 361.91C75.6139 361.91 79.3418 361.551 83.0413 359.975C84.1461 359.504 84.2899 359.567 84.5357 358.461C84.7602 357.451 84.7318 356.433 84.7082 355.395C84.6785 354.091 84.1909 352.797 84.1909 351.487C84.1909 349.822 83.8613 348.044 83.5873 346.4C82.9595 342.633 82.5708 338.598 81.1828 335.029C80.8489 334.17 80.5491 333.32 80.2248 332.461C79.9098 331.627 79.6259 330.75 79.5446 329.855C79.5069 329.441 79.5949 329.15 79.3626 328.802" stroke="#213D3E" stroke-width="3" stroke-linecap="round"/>
<path d="M79.5352 328.284C81.2958 328.284 83.0885 327.695 84.6318 326.886C86.9989 325.644 89.3538 324.267 90.8395 321.971C93.4456 317.944 93.6752 313.359 93.6752 308.665C93.6752 305.498 93.8592 302.438 93.5411 299.257C93.2862 296.708 92.6786 294.294 92.0466 291.823C91.5104 289.727 90.6056 288.003 89.6229 286.113C89.0047 284.925 88.1308 283.794 87.3333 282.722C86.6215 281.766 86.0705 280.766 85.2257 279.906C83.7971 278.45 82.7337 276.64 81.0872 275.384C79.1133 273.878 77.0909 273.049 74.7932 272.232C71.4509 271.044 68.1557 270 64.5331 270C62.6657 270 60.8895 270.008 59.0534 270.383C56.8978 270.824 54.8503 271.853 52.7115 272.424C49.7103 273.224 47.0358 274.129 44.4344 275.863C42.4799 277.166 40.3292 278.567 38.5332 280.078C36.8575 281.488 34.9623 282.863 33.4942 284.494C32.633 285.451 31.7751 286.378 31.0704 287.435C30.192 288.753 29.7 289.957 29.1449 291.421C28.7475 292.468 28.321 293.317 28.321 294.448C28.321 294.834 28.0979 297.489 28.4168 297.581C29.3717 297.853 30.3161 297.23 31.0896 296.795C31.3878 296.627 34.4671 294.411 34.5288 295.521C34.5761 296.372 33.7256 297.681 33.36 298.452C32.6596 299.931 32.4048 301.682 32.0284 303.271C30.826 308.348 31.8355 313.152 34.6629 317.516C36.3015 320.045 39.0494 321.605 41.9053 322.421C43.944 323.004 46.0237 322.791 48.0556 323.197C49.347 323.456 50.389 322.995 51.581 322.508C52.2355 322.24 52.3528 321.956 52.2804 322.862C52.2313 323.476 52.1175 324.043 52.1175 324.663" stroke="#213D3E" stroke-width="3" stroke-linecap="round"/>
<path d="M80.0523 328.112C80.0523 327.092 78.68 326.351 77.9638 325.774C76.9403 324.95 75.7507 324.31 74.8025 323.399C72.0351 320.738 70.0119 317.258 68.7288 313.665C66.9973 308.817 68.1207 303.582 71.2579 299.573C73.4449 296.779 76.6356 294.841 79.1901 292.417C80.1038 291.55 81.1808 290.836 82.0353 289.907C82.5656 289.331 83.501 288.694 83.501 287.848C83.501 287.474 83.501 287.1 83.501 286.727C83.501 285.925 83.5106 286.22 84.0279 286.64C85.0059 287.435 85.8493 288.664 86.9498 289.275C87.8234 289.76 88.6922 290.668 89.4597 291.296C90.315 291.996 90.6106 293.359 91.0883 294.314" stroke="#213D3E" stroke-width="3" stroke-linecap="round"/>
<path d="M52.6348 322.766C53.0735 322.792 53.6946 323.428 54.0813 323.695C55.6288 324.767 57.3181 325.558 58.9479 326.483C61.1349 327.724 63.6642 327.99 65.9125 329.012C66.3649 329.218 66.8984 329.146 67.3878 329.146C68.7348 329.146 70.1268 329.319 71.5072 329.319C72.5035 329.319 73.4998 329.319 74.4961 329.319C75.2241 329.319 75.9044 328.941 76.6037 328.801" stroke="#213D3E" stroke-width="3" stroke-linecap="round"/>
<path d="M52.6348 323.801C54.5228 325.689 55.7415 328.251 57.5684 330.238C60.1821 333.082 64.7441 334.369 68.4608 335.143C69.6129 335.383 70.756 335.354 71.9287 335.354C73.6173 335.354 75.2934 335.527 76.9869 335.527C78.28 335.527 78.947 335.235 79.8801 334.32C80.3668 333.842 80.5738 333.28 80.953 332.806C81.3966 332.251 81.2486 329.983 80.5698 329.625C79.2836 328.948 78.2695 328.457 76.7762 328.457" stroke="#213D3E" stroke-width="3" stroke-linecap="round"/>
<path d="M59.8778 327.594C58.1858 329.253 56.4919 330.502 55.107 332.48C53.2912 335.074 52.393 337.685 51.3421 340.604C50.1034 344.045 50.1443 348.424 52.2906 351.429C54.2856 354.222 57.3975 356.317 60.8454 355.012C62.2227 354.491 64.758 354.238 65.5013 352.751C66.1485 351.457 66.7301 350.461 67.0819 349.053C67.4803 347.46 67.202 346.265 66.4305 344.915C66.0875 344.314 65.5729 343.863 65.3863 343.21C65.1855 342.507 64.9535 341.815 64.7444 341.083C64.143 338.978 65.315 336.541 65.9132 334.597C66.4152 332.966 66.7754 331.73 66.7754 330.008" stroke="#213D3E" stroke-width="3" stroke-linecap="round"/>
<path d="M62.9811 355.357C63.5145 357.459 64.3693 359.719 65.3569 361.66C65.634 362.205 66.0856 363.548 66.7748 363.624C67.2981 363.682 67.901 363.66 68.4225 363.624C69.5078 363.549 70.4654 362.905 71.4498 362.523C72.5945 362.077 73.1695 361.899 72.6377 360.492C72.0882 359.037 71.9304 357.31 71.6414 355.778C71.144 353.142 70.3815 350.582 69.8116 347.951C69.336 345.756 69.4873 343.409 68.8057 341.255C68.0839 338.974 67.7015 336.589 66.861 334.348C66.4206 333.174 66.0923 331.92 65.4911 330.803C65.2383 330.334 64.5092 330.288 64.0349 330.104C63.3065 329.821 62.7439 329.663 61.9848 329.663C60.6866 329.663 57.4631 329.133 57.4631 331.244C57.4631 334.008 57.0763 336.735 57.5589 339.492C58.0428 342.258 58.8056 345.044 59.1491 347.827C59.3112 349.14 59.805 350.347 60.0401 351.64C60.1901 352.465 60.2627 353.28 60.567 354.073C60.8309 354.761 61.2567 355.462 61.2567 356.219" stroke="#213D3E" stroke-width="3" stroke-linecap="round"/>
<path d="M56.7733 327.939C55.9616 329.563 59.2072 329.822 60.2221 329.836C62.955 329.875 65.2135 329.612 67.4932 327.863C68.5846 327.025 69.2971 325.902 68.7482 324.491C68.0505 322.697 65.4622 322.858 63.9199 322.728C62.4455 322.604 60.5062 322.21 59.1491 322.977C57.5382 323.887 55.6068 324.889 54.5508 326.474C53.1981 328.503 54.8364 330.181 56.9457 330.181" stroke="#213D3E" stroke-width="3" stroke-linecap="round"/>
<path d="M45.1313 345.023C47.3759 342.137 51.1434 330.193 52.7467 324.582L79.6005 330.193C80.4021 332.598 82.1656 338.129 82.8069 341.015C83.6085 344.622 86.0134 359.051 83.6085 360.253C59.5602 366.666 49.1394 357.047 44.7305 353.44C40.3217 349.832 42.3257 348.63 45.1313 345.023Z" fill="#104D6B" stroke="#071118" stroke-width="4"/>
<path d="M70.7828 335.804C56.3538 335.483 52.4793 328.189 52.3457 324.582L58.7586 327.387C63.4347 328.322 74.39 330.273 80.8029 330.594C83.2077 332.598 78.7989 336.205 70.7828 335.804Z" fill="#104D6B" stroke="#071118" stroke-width="4"/>
<path d="M34.3094 296.124C25.652 320.814 42.4591 324.047 51.9448 322.578C55.5521 326.318 66.374 332.838 80.803 328.991C98.8393 324.181 94.0296 306.946 93.228 296.124C92.4264 285.303 82.4062 276.084 73.9893 272.076C55.5523 264.461 33.5078 281.295 29.4997 290.513C26.2933 297.888 28.9653 298.396 30.7021 297.728C31.3701 297.193 34.7104 294.922 34.3094 296.124Z" fill="#104D6B" stroke="#071118" stroke-width="4"/>
<path d="M70.595 313.897C71.4254 321.837 77.6303 326.733 80.6289 328.189C96.1987 325.807 93.0847 303.178 91.3548 296.43C89.9708 291.031 85.9342 287.564 84.0889 286.505C84.2042 287.564 83.2585 290.713 78.5529 294.842C72.325 299.209 69.5571 303.972 70.595 313.897Z" fill="black" stroke="black"/>
<path d="M86.416 309.886C86.695 311.332 86.7071 312.787 86.416 314.21C86.416 314.486 86.0124 315.079 85.8303 315.236C85.3618 315.64 84.8245 316.283 84.1582 316.332C83.5929 316.374 82.8275 316.488 82.4924 315.929C81.0842 312.006 81.7352 309.274 81.8864 308.398C82.2872 307.196 82.6279 306.692 82.9366 306.315C83.2232 305.965 83.5809 305.775 84.1581 305.744C84.4551 305.744 84.9382 306.155 85.0928 306.395C85.2909 306.702 85.2933 306.886 85.4936 307.196C85.7744 307.631 85.8903 308.087 86.0759 308.57C86.2432 309.005 86.3282 309.431 86.416 309.886Z" fill="#8BF2F2"/>
<path d="M86.2274 311.564C86.3164 312.11 86.3203 312.658 86.2274 313.195C86.2274 313.299 86.0986 313.523 86.0405 313.582C85.8911 313.734 85.7197 313.977 85.5071 313.996C85.3267 314.011 85.0826 314.054 84.9756 313.843C84.5264 312.364 84.7341 311.334 84.7823 311.003C84.9102 310.55 85.0189 310.36 85.1174 310.218C85.2088 310.085 85.3229 310.014 85.5071 310.002C85.6018 310.002 85.7559 310.157 85.8052 310.247C85.8685 310.363 85.8692 310.433 85.9331 310.55C86.0227 310.714 86.0597 310.886 86.1189 311.068C86.1723 311.232 86.1994 311.393 86.2274 311.564Z" fill="#BDFFFF"/>
<path d="M70.4594 454.663C70.4594 456.722 70.6348 458.516 71.2833 460.497C72.9336 465.54 75.1 470.543 77.4336 475.308C77.9912 476.446 78.5855 477.542 79.0431 478.728C79.6177 480.218 80.2447 480.745 78.8994 482.09C76.6594 484.33 74.1438 486.222 71.3121 487.666C64.8246 490.975 57.9836 491.91 50.8206 491.91C46.7904 491.91 43.0625 491.551 39.363 489.975C38.2582 489.504 38.1144 489.567 37.8686 488.461C37.6441 487.451 37.6725 486.433 37.6961 485.395C37.7258 484.091 38.2134 482.797 38.2134 481.487C38.2134 479.822 38.543 478.044 38.817 476.4C39.4448 472.633 39.8335 468.598 41.2215 465.029C41.5554 464.17 41.8552 463.32 42.1795 462.461C42.4945 461.627 42.7784 460.75 42.8597 459.855C42.8974 459.441 42.8094 459.15 43.0417 458.802" stroke="#213D3E" stroke-width="3" stroke-linecap="round"/>
<path d="M42.8691 458.284C41.1085 458.284 39.3158 457.695 37.7725 456.886C35.4054 455.644 33.0505 454.267 31.5648 451.971C28.9587 447.944 28.7291 443.359 28.7291 438.665C28.7291 435.498 28.5451 432.438 28.8632 429.257C29.1181 426.708 29.7257 424.294 30.3577 421.823C30.8939 419.727 31.7987 418.003 32.7814 416.113C33.3996 414.925 34.2735 413.794 35.071 412.722C35.7828 411.766 36.3338 410.766 37.1786 409.906C38.6072 408.45 39.6706 406.64 41.3171 405.384C43.291 403.878 45.3134 403.049 47.6111 402.232C50.9534 401.044 54.2486 400 57.8712 400C59.7386 400 61.5148 400.008 63.3509 400.383C65.5065 400.824 67.554 401.853 69.6928 402.424C72.694 403.224 75.3685 404.129 77.9699 405.863C79.9244 407.166 82.0751 408.567 83.8711 410.078C85.5468 411.488 87.442 412.863 88.9101 414.494C89.7713 415.451 90.6292 416.378 91.3339 417.435C92.2123 418.753 92.7043 419.957 93.2594 421.421C93.6567 422.468 94.0833 423.317 94.0833 424.448C94.0833 424.834 94.3064 427.489 93.9875 427.581C93.0326 427.853 92.0882 427.23 91.3147 426.795C91.0165 426.627 87.9371 424.411 87.8755 425.521C87.8282 426.372 88.6786 427.681 89.0443 428.452C89.7447 429.931 89.9995 431.682 90.3759 433.271C91.5783 438.348 90.5688 443.152 87.7414 447.516C86.1028 450.045 83.3549 451.605 80.499 452.421C78.4603 453.004 76.3806 452.791 74.3487 453.197C73.0573 453.456 72.0153 452.995 70.8233 452.508C70.1688 452.24 70.0515 451.956 70.1239 452.862C70.173 453.476 70.2868 454.043 70.2868 454.663" stroke="#213D3E" stroke-width="3" stroke-linecap="round"/>
<path d="M42.352 458.112C42.352 457.092 43.7243 456.351 44.4405 455.774C45.464 454.95 46.6536 454.31 47.6018 453.399C50.3692 450.738 52.3924 447.258 53.6755 443.665C55.407 438.817 54.2836 433.582 51.1464 429.573C48.9594 426.779 45.7687 424.841 43.2142 422.417C42.3005 421.55 41.2235 420.836 40.369 419.907C39.8387 419.331 38.9033 418.694 38.9033 417.848C38.9033 417.474 38.9033 417.1 38.9033 416.727C38.9033 415.925 38.8937 416.22 38.3764 416.64C37.3984 417.435 36.555 418.664 35.4545 419.275C34.5809 419.76 33.7121 420.668 32.9446 421.296C32.0892 421.996 31.7937 423.359 31.316 424.314" stroke="#213D3E" stroke-width="3" stroke-linecap="round"/>
<path d="M69.7695 452.766C69.3308 452.792 68.7097 453.428 68.323 453.695C66.7755 454.767 65.0862 455.558 63.4564 456.483C61.2694 457.724 58.7401 457.99 56.4918 459.012C56.0394 459.218 55.5059 459.146 55.0165 459.146C53.6695 459.146 52.2775 459.319 50.8971 459.319C49.9008 459.319 48.9045 459.319 47.9082 459.319C47.1802 459.319 46.4999 458.941 45.8006 458.801" stroke="#213D3E" stroke-width="3" stroke-linecap="round"/>
<path d="M69.7695 453.801C67.8815 455.689 66.6628 458.251 64.8359 460.238C62.2222 463.082 57.6602 464.369 53.9435 465.143C52.7914 465.383 51.6483 465.354 50.4756 465.354C48.787 465.354 47.1109 465.527 45.4174 465.527C44.1243 465.527 43.4573 465.235 42.5242 464.32C42.0375 463.842 41.8305 463.28 41.4513 462.806C41.0077 462.251 41.1557 459.983 41.8345 459.625C43.1207 458.948 44.1348 458.457 45.6281 458.457" stroke="#213D3E" stroke-width="3" stroke-linecap="round"/>
<path d="M62.5264 457.594C64.2185 459.253 65.9124 460.502 67.2972 462.48C69.1131 465.074 70.0113 467.685 71.0622 470.604C72.3009 474.045 72.26 478.424 70.1137 481.429C68.1187 484.222 65.0068 486.317 61.5589 485.012C60.1816 484.491 57.6463 484.238 56.903 482.751C56.2558 481.457 55.6742 480.461 55.3224 479.053C54.924 477.46 55.2023 476.265 55.9738 474.915C56.3168 474.314 56.8314 473.863 57.018 473.21C57.2188 472.507 57.4508 471.815 57.6599 471.083C58.2613 468.978 57.0893 466.541 56.4911 464.597C55.9891 462.966 55.6289 461.73 55.6289 460.008" stroke="#213D3E" stroke-width="3" stroke-linecap="round"/>
<path d="M59.4232 485.357C58.8898 487.459 58.035 489.719 57.0474 491.66C56.7703 492.205 56.3187 493.548 55.6295 493.624C55.1062 493.682 54.5033 493.66 53.9818 493.624C52.8965 493.549 51.9389 492.905 50.9545 492.523C49.8098 492.077 49.2348 491.899 49.7666 490.492C50.3161 489.037 50.4739 487.31 50.7629 485.778C51.2603 483.142 52.0228 480.582 52.5927 477.951C53.0683 475.756 52.917 473.409 53.5986 471.255C54.3203 468.974 54.7028 466.589 55.5433 464.348C55.9837 463.174 56.312 461.92 56.9132 460.803C57.166 460.334 57.8951 460.288 58.3694 460.104C59.0978 459.821 59.6604 459.663 60.4195 459.663C61.7177 459.663 64.9412 459.133 64.9412 461.244C64.9412 464.008 65.328 466.735 64.8454 469.492C64.3615 472.258 63.5987 475.044 63.2552 477.827C63.0931 479.14 62.5993 480.347 62.3642 481.64C62.2142 482.465 62.1416 483.28 61.8373 484.073C61.5734 484.761 61.1476 485.462 61.1476 486.219" stroke="#213D3E" stroke-width="3" stroke-linecap="round"/>
<path d="M65.631 457.939C66.4427 459.563 63.1971 459.822 62.1822 459.836C59.4493 459.875 57.1908 459.612 54.9111 457.863C53.8197 457.025 53.1072 455.902 53.6561 454.491C54.3538 452.697 56.9421 452.858 58.4844 452.728C59.9588 452.604 61.8981 452.21 63.2552 452.977C64.8661 453.887 66.7975 454.889 67.8535 456.474C69.2062 458.503 67.5679 460.181 65.4586 460.181" stroke="#213D3E" stroke-width="3" stroke-linecap="round"/>
<path d="M77.273 475.023C75.0284 472.137 71.2609 460.193 69.6576 454.582L42.8038 460.193C42.0022 462.598 40.2387 468.129 39.5974 471.015C38.7958 474.622 36.3909 489.051 38.7958 490.253C62.8441 496.666 73.2649 487.047 77.6738 483.44C82.0826 479.832 80.0786 478.63 77.273 475.023Z" fill="#104D6B" stroke="#071118" stroke-width="4"/>
<path d="M51.6215 465.804C66.0505 465.483 69.925 458.189 70.0586 454.582L63.6457 457.387C58.9696 458.322 48.0143 460.273 41.6014 460.594C39.1966 462.598 43.6054 466.205 51.6215 465.804Z" fill="#104D6B" stroke="#071118" stroke-width="4"/>
<path d="M88.0949 426.124C96.7523 450.814 79.9452 454.047 70.4595 452.578C66.8522 456.318 56.0303 462.838 41.6013 458.991C23.565 454.181 28.3747 436.946 29.1763 426.124C29.9779 415.303 39.998 406.084 48.415 402.076C66.852 394.461 88.8965 411.295 92.9046 420.513C96.111 427.888 93.439 428.396 91.7022 427.728C91.0342 427.193 87.6939 424.922 88.0949 426.124Z" fill="#104D6B" stroke="#071118" stroke-width="4"/>
<path d="M51.8093 443.897C50.9789 451.837 44.774 456.733 41.7754 458.189C26.2056 455.807 29.3195 433.178 31.0495 426.43C32.4335 421.031 36.4701 417.564 38.3154 416.505C38.2001 417.564 39.1458 420.713 43.8514 424.842C50.0793 429.209 52.8472 433.972 51.8093 443.897Z" fill="black" stroke="black"/>
<path d="M35.9883 439.886C35.7093 441.332 35.6972 442.787 35.9883 444.21C35.9883 444.486 36.3919 445.079 36.574 445.236C37.0425 445.64 37.5798 446.283 38.2461 446.332C38.8114 446.374 39.5767 446.488 39.9119 445.929C41.3201 442.006 40.6691 439.274 40.5179 438.398C40.1171 437.196 39.7764 436.692 39.4677 436.315C39.1811 435.965 38.8234 435.775 38.2462 435.744C37.9492 435.744 37.4661 436.155 37.3115 436.395C37.1134 436.702 37.111 436.886 36.9107 437.196C36.6299 437.631 36.514 438.087 36.3284 438.57C36.1611 439.005 36.0761 439.431 35.9883 439.886Z" fill="#8BF2F2"/>
<path d="M36.1769 441.564C36.0879 442.11 36.084 442.658 36.1769 443.195C36.1769 443.299 36.3057 443.523 36.3638 443.582C36.5132 443.734 36.6846 443.977 36.8972 443.996C37.0776 444.011 37.3217 444.054 37.4287 443.843C37.8779 442.364 37.6702 441.334 37.622 441.003C37.4941 440.55 37.3854 440.36 37.2869 440.218C37.1955 440.085 37.0814 440.014 36.8972 440.002C36.8025 440.002 36.6484 440.157 36.5991 440.247C36.5358 440.363 36.5351 440.433 36.4712 440.55C36.3816 440.714 36.3446 440.886 36.2854 441.068C36.232 441.232 36.2049 441.393 36.1769 441.564Z" fill="#BDFFFF"/>
</g>
<defs>
<clipPath id="clip0_24_47">
<rect width="130" height="520" fill="white"/>
</clipPath>
</defs>
</svg>
