<svg width="300" height="300" viewBox="0 0 300 300" fill="none" xmlns="http://www.w3.org/2000/svg">
<path d="M114.231 233.139C114.285 233.143 114.339 233.146 114.393 233.146H179.556C179.614 233.146 179.672 233.143 179.729 233.138L195.171 231.796C196.122 231.713 196.882 230.97 196.986 230.021L198.344 217.608C198.395 217.138 198.278 216.665 198.014 216.273L194.959 211.742C194.776 211.469 194.527 211.246 194.236 211.092L188.004 207.797V205.647C188.004 205.502 187.989 205.358 187.958 205.217L187.109 201.36C187.038 201.036 186.888 200.736 186.671 200.484L183.414 196.703L198.178 126.68L199.559 125.439C199.657 125.351 199.746 125.254 199.824 125.149L202.109 122.092H203.992C204.733 122.092 205.413 121.683 205.76 121.027L209.663 113.647C209.914 113.172 209.963 112.616 209.8 112.104C209.637 111.592 209.275 111.168 208.795 110.926L184.271 98.5636V90.4007C184.271 89.6726 183.876 89.0021 183.238 88.65L178.836 86.2185L179.283 84.5412C179.501 83.7206 179.178 82.8514 178.476 82.3735L153.727 65.5236V64.2325C153.727 63.8303 153.605 63.4375 153.379 63.1053L148.458 55.8924C148.072 55.3266 147.423 54.9977 146.738 55.0207C146.054 55.0436 145.429 55.4152 145.082 56.0056L140.839 63.2186C140.659 63.5259 140.563 63.876 140.563 64.2325V64.8472L114.632 82.3696C113.811 82.9245 113.52 83.9972 113.948 84.891L114.65 86.3549L110.394 88.6384C109.63 89.0482 109.218 89.9033 109.372 90.7562L110.798 98.6498L85.1921 110.908C84.7068 111.14 84.3356 111.558 84.1623 112.068C83.989 112.577 84.0281 113.134 84.271 113.615L88.004 120.995C88.3444 121.668 89.0345 122.092 89.7887 122.092H92.4443L93.3314 124.615C93.4831 125.046 93.7778 125.412 94.1666 125.652L96.106 126.851L107.578 197.028L104.395 204.897C104.298 205.135 104.249 205.39 104.249 205.647V207.629L95.5175 210.994C94.8583 211.248 94.382 211.831 94.2645 212.528L93.246 218.567C93.2003 218.838 93.2109 219.116 93.2774 219.382L95.992 230.287C96.1993 231.12 96.9148 231.727 97.7702 231.797L114.231 233.139Z" fill="#071118" stroke="#071118" stroke-width="4" stroke-linejoin="round"/>
<path d="M106.401 206.696L113.002 230.248C113.123 230.68 113.516 230.978 113.965 230.978H178.123C178.57 230.978 178.962 230.683 179.085 230.254L185.831 206.752C185.937 206.385 185.823 205.989 185.539 205.733L180.832 201.503C180.567 201.265 180.449 200.903 180.522 200.554L196.04 126.492C196.127 126.076 195.942 125.651 195.579 125.431L182.168 117.32C181.911 117.165 181.598 117.133 181.315 117.234L178.058 118.393C177.724 118.512 177.353 118.445 177.081 118.218L174.063 115.693C173.572 115.283 172.828 115.432 172.534 116L169.993 120.897C169.821 121.229 169.479 121.437 169.106 121.437H124.937C124.516 121.437 124.14 121.173 123.997 120.778L122.299 116.102C122.076 115.49 121.336 115.25 120.797 115.617L116.901 118.265C116.609 118.463 116.234 118.493 115.915 118.343L113.671 117.292C113.379 117.155 113.04 117.168 112.759 117.325L98.2153 125.451C97.8432 125.659 97.6438 126.079 97.7185 126.499L110.911 200.622C110.967 200.934 110.871 201.254 110.654 201.484L106.637 205.74C106.396 205.995 106.306 206.358 106.401 206.696Z" fill="#153042"/>
<path d="M106.401 206.696L113.002 230.248C113.123 230.68 113.516 230.978 113.965 230.978H178.123C178.57 230.978 178.962 230.683 179.085 230.254L185.831 206.752C185.937 206.385 185.823 205.989 185.539 205.733L180.832 201.503C180.567 201.265 180.449 200.903 180.522 200.554L196.04 126.492C196.127 126.076 195.942 125.651 195.579 125.431L182.168 117.32C181.911 117.165 181.598 117.133 181.315 117.234L178.058 118.393C177.724 118.512 177.353 118.445 177.081 118.218L174.063 115.693C173.572 115.283 172.828 115.432 172.534 116L169.993 120.897C169.821 121.229 169.479 121.437 169.106 121.437H124.937C124.516 121.437 124.14 121.173 123.997 120.778L122.299 116.102C122.076 115.49 121.336 115.25 120.797 115.617L116.901 118.265C116.609 118.463 116.234 118.493 115.915 118.343L113.671 117.292C113.379 117.155 113.04 117.168 112.759 117.325L98.2153 125.451C97.8432 125.659 97.6438 126.079 97.7185 126.499L110.911 200.622C110.967 200.934 110.871 201.254 110.654 201.484L106.637 205.74C106.396 205.995 106.306 206.358 106.401 206.696Z" fill="url(#paint0_linear_25_23152)" fill-opacity="0.27"/>
<path d="M106.401 206.696L113.002 230.248C113.123 230.68 113.516 230.978 113.965 230.978H178.123C178.57 230.978 178.962 230.683 179.085 230.254L185.831 206.752C185.937 206.385 185.823 205.989 185.539 205.733L180.832 201.503C180.567 201.265 180.449 200.903 180.522 200.554L196.04 126.492C196.127 126.076 195.942 125.651 195.579 125.431L182.168 117.32C181.911 117.165 181.598 117.133 181.315 117.234L178.058 118.393C177.724 118.512 177.353 118.445 177.081 118.218L174.063 115.693C173.572 115.283 172.828 115.432 172.534 116L169.993 120.897C169.821 121.229 169.479 121.437 169.106 121.437H124.937C124.516 121.437 124.14 121.173 123.997 120.778L122.299 116.102C122.076 115.49 121.336 115.25 120.797 115.617L116.901 118.265C116.609 118.463 116.234 118.493 115.915 118.343L113.671 117.292C113.379 117.155 113.04 117.168 112.759 117.325L98.2153 125.451C97.8432 125.659 97.6438 126.079 97.7185 126.499L110.911 200.622C110.967 200.934 110.871 201.254 110.654 201.484L106.637 205.74C106.396 205.995 106.306 206.358 106.401 206.696Z" stroke="#071118" stroke-width="0.5" stroke-linejoin="round"/>
<path fill-rule="evenodd" clip-rule="evenodd" d="M111.326 90.6479L112.837 97.4468L86.0533 112.523C85.9139 112.601 85.8606 112.775 85.9321 112.918L88.8764 118.811C88.9494 118.957 89.1259 119.018 89.2735 118.948L114.078 107.166C114.631 106.903 114.926 106.29 114.785 105.693L112.837 97.4468L147.097 82.3609C147.173 82.3274 147.259 82.327 147.336 82.3598L182.063 97.246L181.19 105.296C181.099 106.14 181.55 106.95 182.316 107.316L204.114 117.736C204.216 117.785 204.338 117.74 204.384 117.636L207.137 111.332C207.178 111.239 207.142 111.13 207.054 111.079L182.531 96.8728V90.6031C182.531 90.4899 182.468 90.3864 182.367 90.3353L147.35 72.644C147.266 72.6014 147.166 72.6011 147.081 72.6431L111.485 90.3141C111.362 90.3754 111.296 90.5132 111.326 90.6479Z" fill="#415766"/>
<path fill-rule="evenodd" clip-rule="evenodd" d="M111.326 90.6479L112.837 97.4468L86.0533 112.523C85.9139 112.601 85.8606 112.775 85.9321 112.918L88.8764 118.811C88.9494 118.957 89.1259 119.018 89.2735 118.948L114.078 107.166C114.631 106.903 114.926 106.29 114.785 105.693L112.837 97.4468L147.097 82.3609C147.173 82.3274 147.259 82.327 147.336 82.3598L182.063 97.246L181.19 105.296C181.099 106.14 181.55 106.95 182.316 107.316L204.114 117.736C204.216 117.785 204.338 117.74 204.384 117.636L207.137 111.332C207.178 111.239 207.142 111.13 207.054 111.079L182.531 96.8728V90.6031C182.531 90.4899 182.468 90.3864 182.367 90.3353L147.35 72.644C147.266 72.6014 147.166 72.6011 147.081 72.6431L111.485 90.3141C111.362 90.3754 111.296 90.5132 111.326 90.6479Z" fill="url(#paint1_linear_25_23152)" fill-opacity="0.2"/>
<path d="M107.101 213.904L95.5466 218.679C95.3165 218.774 95.1914 219.024 95.2533 219.265L97.929 229.706C97.983 229.917 98.1673 230.068 98.3846 230.081L111.619 230.842C111.961 230.862 112.22 230.541 112.131 230.212L107.774 214.234C107.695 213.944 107.379 213.789 107.101 213.904Z" fill="#153042"/>
<path d="M95.2061 216.586V211.769C95.2061 211.576 95.3177 211.4 95.4927 211.317L104.219 207.2C104.485 207.075 104.802 207.205 104.902 207.481L106.588 212.103C106.68 212.355 106.557 212.634 106.31 212.736L95.8973 217.048C95.5681 217.185 95.2061 216.943 95.2061 216.586Z" fill="#0E1E2B"/>
<path d="M185.046 213.999L196.6 218.775C196.83 218.87 196.955 219.12 196.893 219.361L194.218 229.801C194.163 230.012 193.979 230.164 193.762 230.177L180.527 230.938C180.186 230.958 179.926 230.637 180.016 230.307L184.372 214.33C184.451 214.039 184.767 213.884 185.046 213.999Z" fill="#153042"/>
<path d="M197.999 217.16L194.922 211.301C194.878 211.216 194.809 211.145 194.726 211.098L187.429 206.98C187.15 206.823 186.798 206.964 186.705 207.271L185.216 212.195C185.142 212.439 185.264 212.7 185.498 212.8L197.36 217.852C197.793 218.036 198.218 217.576 197.999 217.16Z" fill="#0E1E2B"/>
<path d="M187.083 204.883L181.639 200.403C181.532 200.316 181.499 200.166 181.559 200.042L183.232 196.558C183.324 196.367 183.58 196.329 183.724 196.485L187.117 200.179C187.162 200.227 187.19 200.29 187.195 200.355L187.572 204.625C187.596 204.89 187.288 205.052 187.083 204.883Z" fill="#0E1E2B"/>
<path d="M105.651 205.162L104.156 204.493C104.014 204.429 103.944 204.269 103.994 204.122L106.059 198.063C106.125 197.87 106.361 197.797 106.524 197.921L109.296 200.024C109.426 200.122 109.454 200.306 109.358 200.439L106.016 205.064C105.933 205.179 105.78 205.22 105.651 205.162Z" fill="#0E1E2B"/>
<path d="M141.947 63.1884L146.52 56.5864C146.718 56.3013 147.139 56.299 147.339 56.582L152.019 63.1824C152.192 63.4258 152.114 63.7652 151.853 63.9094L147.171 66.4926C147.019 66.5764 146.835 66.5755 146.683 66.4902L142.112 63.9085C141.856 63.7638 141.779 63.4303 141.947 63.1884Z" fill="#415766"/>
<path d="M141.947 63.1884L146.52 56.5864C146.718 56.3013 147.139 56.299 147.339 56.582L152.019 63.1824C152.192 63.4258 152.114 63.7652 151.853 63.9094L147.171 66.4926C147.019 66.5764 146.835 66.5755 146.683 66.4902L142.112 63.9085C141.856 63.7638 141.779 63.4303 141.947 63.1884Z" fill="url(#paint2_angular_25_23152)" fill-opacity="0.47"/>
<g filter="url(#filter0_d_25_23152)">
<path d="M130.744 171.871H128.444V145.35L127.572 144.874V143.724H133.757C134.761 143.724 135.594 143.922 136.254 144.319C136.941 144.689 137.298 145.138 137.325 145.667L136.928 156.648C136.928 157.044 136.743 157.533 136.373 158.115C136.03 158.67 135.382 159.08 134.431 159.344L136.77 163.705L137.602 171.871L134.708 171.99L134.074 164.22L131.893 159.542H130.744V171.871ZM131.299 156.688C131.299 156.767 131.338 156.846 131.418 156.926C131.523 156.978 131.642 157.005 131.775 157.005H133.876C134.034 157.005 134.114 156.926 134.114 156.767L134.351 146.737C134.351 146.367 134.18 146.063 133.836 145.825C133.519 145.561 132.832 145.429 131.775 145.429C131.457 145.535 131.299 145.693 131.299 145.905V156.688Z" fill="#2E4859"/>
<path d="M148.002 171.871H145.069V147.451L144.355 145.548V143.724H148.359L148.002 171.871Z" fill="#2E4859"/>
<path d="M156.396 144.636C156.396 144.372 156.885 144.16 157.863 144.002C158.841 143.817 159.792 143.724 160.717 143.724H162.422C162.766 143.724 163.083 143.803 163.374 143.962C163.691 144.094 163.849 144.292 163.849 144.557L164.285 156.846L162.898 159.304L158.537 159.74L158.22 171.871H155.484L156.396 144.636ZM161.352 156.608C161.51 156.608 161.59 156.529 161.59 156.371V146.103L160.995 145.508L158.775 145.786V156.727L161.352 156.608Z" fill="#2E4859"/>
<path d="M130.744 172.871C131.296 172.871 131.744 172.424 131.744 171.871V161.588L133.092 164.48L133.711 172.072C133.755 172.606 134.213 173.011 134.749 172.989L137.643 172.87C137.919 172.859 138.177 172.735 138.358 172.526C138.538 172.318 138.625 172.044 138.597 171.77L137.764 163.603C137.751 163.473 137.713 163.347 137.651 163.232L135.846 159.866C136.415 159.57 136.892 159.174 137.22 158.647C137.62 158.017 137.922 157.341 137.928 156.669L138.324 145.703C138.325 145.674 138.325 145.645 138.323 145.617C138.272 144.598 137.576 143.9 136.749 143.449C135.896 142.944 134.88 142.724 133.757 142.724H127.572C127.02 142.724 126.572 143.172 126.572 143.724V144.874C126.572 145.24 126.772 145.576 127.093 145.752L127.444 145.943V171.871C127.444 172.424 127.892 172.871 128.444 172.871H130.744ZM133.114 156.767C133.114 156.764 133.114 156.76 133.114 156.756L133.114 156.767ZM133.131 156.005H132.299V146.443C132.54 146.456 132.737 146.48 132.894 146.51C133.126 146.555 133.203 146.602 133.204 146.6C133.204 146.6 133.204 146.6 133.204 146.6C133.224 146.617 133.245 146.633 133.267 146.647C133.303 146.672 133.325 146.692 133.337 146.705C133.343 146.712 133.347 146.716 133.349 146.719C133.35 146.72 133.35 146.721 133.351 146.721C133.351 146.723 133.351 146.726 133.351 146.73L133.131 156.005ZM148.002 172.871C148.55 172.871 148.995 172.431 149.002 171.884L149.359 143.737C149.362 143.469 149.258 143.212 149.071 143.022C148.883 142.831 148.626 142.724 148.359 142.724H144.355C143.803 142.724 143.355 143.172 143.355 143.724V145.548C143.355 145.668 143.377 145.787 143.419 145.899L144.069 147.632V171.871C144.069 172.424 144.516 172.871 145.069 172.871H148.002ZM165.156 157.338C165.247 157.177 165.291 156.995 165.285 156.811L164.849 144.535C164.845 144.193 164.734 143.863 164.511 143.585C164.31 143.334 164.054 143.169 163.808 143.06C163.377 142.835 162.91 142.724 162.422 142.724H160.717C159.73 142.724 158.72 142.823 157.69 143.017C157.182 143.1 156.722 143.207 156.366 143.361C156.188 143.438 155.974 143.553 155.791 143.731C155.599 143.918 155.404 144.216 155.396 144.613L154.485 171.838C154.476 172.109 154.577 172.372 154.766 172.566C154.954 172.761 155.213 172.871 155.484 172.871H158.22C158.762 172.871 159.205 172.439 159.219 171.897L159.514 160.648L162.997 160.299C163.321 160.267 163.609 160.079 163.769 159.796L165.156 157.338ZM160.59 146.567V155.643L159.775 155.68V146.668L160.59 146.567Z" stroke="#071118" stroke-width="2" stroke-linejoin="round"/>
</g>
<path d="M114.666 82.5851L113.173 86.663C113.017 87.0871 113.459 87.4834 113.864 87.2829L146.919 70.907C147.061 70.8365 147.228 70.8378 147.369 70.9104L178.204 86.7714C178.537 86.9426 178.933 86.701 178.933 86.3268V82.6983C178.933 82.5319 178.85 82.3764 178.712 82.2835L153.346 65.2154C153.183 65.1057 152.971 65.1017 152.804 65.2051L147.398 68.5525C147.242 68.649 147.046 68.6524 146.886 68.5615L140.985 65.1888C140.821 65.0947 140.617 65.1019 140.459 65.2074L114.857 82.3415C114.769 82.4004 114.702 82.4857 114.666 82.5851Z" fill="#0E1E2B"/>
<path d="M114.666 82.5851L113.173 86.663C113.017 87.0871 113.459 87.4834 113.864 87.2829L146.919 70.907C147.061 70.8365 147.228 70.8378 147.369 70.9104L178.204 86.7714C178.537 86.9426 178.933 86.701 178.933 86.3268V82.6983C178.933 82.5319 178.85 82.3764 178.712 82.2835L153.346 65.2154C153.183 65.1057 152.971 65.1017 152.804 65.2051L147.398 68.5525C147.242 68.649 147.046 68.6524 146.886 68.5615L140.985 65.1888C140.821 65.0947 140.617 65.1019 140.459 65.2074L114.857 82.3415C114.769 82.4004 114.702 82.4857 114.666 82.5851Z" fill="url(#paint3_angular_25_23152)"/>
<path d="M174.395 113.348L178.132 106.979C178.265 106.752 178.552 106.667 178.787 106.785L201.372 118.085C201.673 118.235 201.743 118.633 201.511 118.877L196.352 124.312C196.19 124.482 195.931 124.517 195.73 124.395L180.565 115.197C180.405 115.1 180.204 115.101 180.045 115.198L178.308 116.257C178.14 116.36 177.926 116.354 177.764 116.241L174.542 114.013C174.327 113.864 174.263 113.574 174.395 113.348Z" fill="#0E1E2B"/>
<path d="M96.8607 124.763L92.9134 120.553C92.6865 120.311 92.7539 119.919 93.0487 119.767L115.226 108.311C115.457 108.192 115.741 108.269 115.879 108.489L119.483 114.232C119.631 114.469 119.557 114.781 119.318 114.926L115.848 117.025C115.713 117.106 115.549 117.12 115.403 117.061L112.971 116.09C112.829 116.033 112.668 116.044 112.535 116.121L97.4763 124.854C97.275 124.971 97.0199 124.933 96.8607 124.763Z" fill="#0E1E2B"/>
<path d="M125.359 118.986L115.729 98.7904C115.606 98.5336 115.722 98.2264 115.984 98.1151L147.132 84.8783C147.258 84.825 147.399 84.8252 147.525 84.8788L178.453 98.1137C178.715 98.2257 178.831 98.5335 178.707 98.7901L168.989 118.987C168.906 119.16 168.731 119.27 168.539 119.27H125.811C125.618 119.27 125.442 119.16 125.359 118.986Z" fill="#153042"/>
<path d="M125.359 118.986L115.729 98.7904C115.606 98.5336 115.722 98.2264 115.984 98.1151L147.132 84.8783C147.258 84.825 147.399 84.8252 147.525 84.8788L178.453 98.1137C178.715 98.2257 178.831 98.5335 178.707 98.7901L168.989 118.987C168.906 119.16 168.731 119.27 168.539 119.27H125.811C125.618 119.27 125.442 119.16 125.359 118.986Z" fill="url(#paint4_linear_25_23152)" fill-opacity="0.2"/>
<g filter="url(#filter1_d_25_23152)">
<path d="M175.659 239.969H188.673H204.998C209.39 239.969 214 235.626 214 230.533C214 226.459 211.144 222.902 209.716 221.633C210.186 217.291 210.432 208.166 207.655 206.407C204.878 204.649 196.122 205.675 192.09 206.407C187.589 206.783 177.86 207.887 174.953 209.302C172.046 210.718 172.477 217.327 173.055 220.454C172.061 221.687 170.008 225.43 169.747 230.533C169.487 235.637 173.58 238.95 175.659 239.969Z" fill="#303B4A"/>
<path d="M175.659 239.969H188.673H204.998C209.39 239.969 214 235.626 214 230.533C214 226.459 211.144 222.902 209.716 221.633C210.186 217.291 210.432 208.166 207.655 206.407C204.878 204.649 196.122 205.675 192.09 206.407C187.589 206.783 177.86 207.887 174.953 209.302C172.046 210.718 172.477 217.327 173.055 220.454C172.061 221.687 170.008 225.43 169.747 230.533C169.487 235.637 173.58 238.95 175.659 239.969Z" fill="url(#paint5_linear_25_23152)" fill-opacity="0.52"/>
<path d="M205.908 180.149L205.858 180.108L205.799 180.082C204.947 179.703 203.861 179.741 202.921 179.995C201.986 180.247 201.059 180.749 200.575 181.446C200.215 181.963 199.299 182.904 198.172 184.063L198.17 184.065C197.144 185.119 195.974 186.325 195.005 187.46C193.2 186.89 191.231 186.905 189.501 187.151C187.877 187.382 186.428 187.821 185.464 188.206C184.679 187.223 183.121 185.33 181.633 183.707C180.537 182.512 179.079 181.685 177.759 181.193C177.097 180.945 176.459 180.778 175.904 180.691C175.363 180.607 174.855 180.591 174.475 180.685C174.02 180.797 173.696 181.117 173.471 181.479C173.246 181.84 173.09 182.286 172.982 182.748C172.765 183.674 172.712 184.774 172.749 185.678C172.82 187.43 173.303 191.133 174.055 195.963C172.465 197.262 171.876 198.998 171.583 200.303C170.913 203.293 171.717 205.757 172.953 207.589C174.163 209.383 175.793 210.584 176.887 211.121C177.177 211.333 177.665 211.549 178.337 211.759C179.064 211.987 180.056 212.224 181.357 212.441C183.961 212.877 187.824 213.24 193.319 213.297C200.264 213.368 203.962 211.354 205.94 208.913C207.758 206.668 208.046 204.142 208.189 202.885C208.2 202.789 208.21 202.7 208.22 202.619C208.506 200.286 208.036 196.697 206.219 193.642C206.764 192.989 207.098 192.204 207.299 191.483C207.532 190.65 207.598 189.861 207.586 189.368C207.585 188.08 207.51 186.091 207.284 184.296C207.171 183.399 207.018 182.534 206.812 181.824C206.709 181.469 206.589 181.141 206.448 180.863C206.31 180.589 206.136 180.331 205.908 180.149Z" fill="#303B4A" stroke="#071118"/>
<ellipse cx="181.921" cy="197.693" rx="4.57695" ry="4.52462" fill="#CBF28B"/>
<ellipse cx="181.921" cy="197.693" rx="4.57695" ry="4.52462" fill="url(#paint6_linear_25_23152)" fill-opacity="0.54" style="mix-blend-mode:overlay"/>
<ellipse cx="181.921" cy="197.359" rx="3.73004" ry="3.68739" fill="#050B10"/>
<ellipse cx="180.58" cy="195.261" rx="0.795593" ry="0.786491" fill="white"/>
<ellipse cx="195.889" cy="197.693" rx="4.57695" ry="4.52462" fill="#CBF28B"/>
<ellipse cx="195.889" cy="197.693" rx="4.57695" ry="4.52462" fill="url(#paint7_linear_25_23152)" fill-opacity="0.6" style="mix-blend-mode:overlay"/>
<ellipse cx="195.89" cy="197.359" rx="3.73004" ry="3.68739" fill="#050B10"/>
<ellipse cx="194.549" cy="195.261" rx="0.795593" ry="0.786491" fill="white"/>
<path d="M181.867 241.559L179.102 234.575L187.703 232.813L186.72 241.559C186.72 242.373 185.405 243.016 184.078 243.016C182.751 243.016 182.051 242.045 181.867 241.559Z" fill="#303B4A"/>
<path d="M181.867 241.559L179.102 234.575L187.703 232.813L186.72 241.559C186.72 242.373 185.405 243.016 184.078 243.016C182.751 243.016 182.051 242.045 181.867 241.559Z" fill="url(#paint8_linear_25_23152)" fill-opacity="0.2"/>
<path d="M193.538 242.543L196.304 235.559L187.702 233.798L188.685 242.543C188.685 243.357 190 244 191.327 244C192.654 244 193.354 243.029 193.538 242.543Z" fill="#303B4A"/>
<path d="M193.538 242.543L196.304 235.559L187.702 233.798L188.685 242.543C188.685 243.357 190 244 191.327 244C192.654 244 193.354 243.029 193.538 242.543Z" fill="url(#paint9_linear_25_23152)" fill-opacity="0.2"/>
<mask id="path-26-outside-1_25_23152" maskUnits="userSpaceOnUse" x="167.735" y="178.301" width="49" height="68" fill="black">
<rect fill="white" x="167.735" y="178.301" width="49" height="68"/>
<path fill-rule="evenodd" clip-rule="evenodd" d="M172.071 200.412C172.368 199.088 172.964 197.386 174.595 196.177C173.815 191.198 173.319 187.411 173.248 185.658C173.177 183.905 173.458 181.451 174.595 181.17C175.731 180.89 179.207 181.801 181.264 184.045C182.91 185.841 184.646 187.972 185.308 188.814C187.105 188.019 191.593 186.752 195.168 188.042C196.178 186.83 197.463 185.509 198.585 184.355L198.585 184.355L198.585 184.355L198.585 184.355C199.67 183.24 200.601 182.282 200.985 181.731C201.765 180.609 204.177 179.908 205.596 180.539C206.788 181.493 207.085 186.827 207.085 189.374C207.109 190.263 206.844 192.348 205.596 193.582C207.511 196.598 208.008 200.244 207.724 202.558C207.714 202.639 207.704 202.727 207.693 202.822L207.693 202.823L207.693 202.823C207.605 203.59 207.468 204.781 206.983 206.076C207.234 206.173 207.459 206.284 207.655 206.407C210.432 208.166 210.186 217.291 209.716 221.633C211.144 222.902 214 226.459 214 230.533C214 235.626 209.39 239.969 204.998 239.969H194.558L193.538 242.543C193.354 243.029 192.654 244 191.327 244C190 244 188.686 243.357 188.686 242.543L188.396 239.969H186.899L186.72 241.559C186.72 242.373 185.405 243.016 184.078 243.016C182.751 243.016 182.052 242.044 181.867 241.559L181.238 239.969H175.659C173.58 238.95 169.487 235.637 169.747 230.533C170.008 225.43 172.061 221.687 173.055 220.454C172.477 217.327 172.046 210.718 174.953 209.302C174.989 209.285 175.026 209.268 175.064 209.25C173.126 207.508 171.157 204.486 172.071 200.412Z"/>
</mask>
<path d="M174.595 196.177L175.786 197.783L176.758 197.062L176.571 195.867L174.595 196.177ZM172.071 200.412L174.023 200.85L174.023 200.85L172.071 200.412ZM174.595 181.17L175.074 183.112L175.074 183.112L174.595 181.17ZM181.264 184.045L179.79 185.397L179.79 185.397L181.264 184.045ZM185.308 188.814L183.736 190.051L184.696 191.271L186.117 190.643L185.308 188.814ZM195.168 188.042L194.489 189.924L195.808 190.4L196.705 189.323L195.168 188.042ZM198.585 184.355L200.019 185.75L200.028 185.74L198.585 184.355ZM198.585 184.355L197.268 182.85L197.203 182.907L197.143 182.97L198.585 184.355ZM198.585 184.355L199.902 185.86L199.974 185.797L200.039 185.728L198.585 184.355ZM198.585 184.355L197.152 182.96L197.142 182.971L197.131 182.982L198.585 184.355ZM200.985 181.731L202.627 182.873L202.627 182.873L200.985 181.731ZM205.596 180.539L206.845 178.977L206.644 178.816L206.409 178.712L205.596 180.539ZM207.085 189.374H205.085V189.401L205.086 189.428L207.085 189.374ZM205.596 193.582L204.19 192.16L203.043 193.293L203.908 194.654L205.596 193.582ZM207.724 202.558L205.739 202.315L205.739 202.315L207.724 202.558ZM207.693 202.822L205.706 202.594L205.706 202.594L207.693 202.822ZM207.693 202.823L205.706 202.596L205.705 202.606L205.704 202.616L207.693 202.823ZM207.693 202.823L209.68 203.051L209.681 203.041L209.682 203.03L207.693 202.823ZM206.983 206.076L205.11 205.374L204.416 207.227L206.26 207.941L206.983 206.076ZM207.655 206.407L208.725 204.718L208.725 204.718L207.655 206.407ZM209.716 221.633L207.727 221.418L207.616 222.443L208.387 223.128L209.716 221.633ZM194.558 239.969V237.969H193.199L192.698 239.232L194.558 239.969ZM193.538 242.543L191.679 241.807L191.673 241.82L191.668 241.834L193.538 242.543ZM188.686 242.543H190.686V242.431L190.673 242.32L188.686 242.543ZM188.396 239.969L190.384 239.745L190.184 237.969H188.396V239.969ZM186.899 239.969V237.969H185.111L184.911 239.745L186.899 239.969ZM186.72 241.559L184.732 241.335L184.72 241.447V241.559H186.72ZM181.867 241.559L183.737 240.85L183.732 240.836L183.727 240.822L181.867 241.559ZM181.238 239.969L183.097 239.232L182.597 237.969H181.238V239.969ZM175.659 239.969L174.779 241.765L175.196 241.969H175.659V239.969ZM169.747 230.533L171.745 230.635L171.745 230.635L169.747 230.533ZM173.055 220.454L174.612 221.709L175.189 220.994L175.022 220.09L173.055 220.454ZM174.953 209.302L174.078 207.504L174.078 207.504L174.953 209.302ZM175.064 209.25L175.897 211.069L178.667 209.8L176.401 207.763L175.064 209.25ZM173.403 194.57C171.202 196.203 170.457 198.472 170.12 199.974L174.023 200.85C174.28 199.704 174.726 198.569 175.786 197.783L173.403 194.57ZM171.25 185.739C171.326 187.628 171.843 191.532 172.619 196.486L176.571 195.867C175.787 190.864 175.312 187.194 175.247 185.577L171.25 185.739ZM174.115 179.228C173.149 179.467 172.544 180.13 172.198 180.685C171.853 181.239 171.65 181.859 171.522 182.405C171.263 183.507 171.21 184.752 171.25 185.739L175.247 185.577C175.216 184.811 175.267 183.953 175.416 183.318C175.491 182.997 175.567 182.841 175.592 182.801C175.616 182.762 175.473 183.013 175.074 183.112L174.115 179.228ZM182.738 182.694C181.439 181.276 179.756 180.337 178.284 179.787C177.538 179.509 176.802 179.314 176.136 179.209C175.525 179.114 174.783 179.063 174.115 179.228L175.074 183.112C174.974 183.136 175.094 183.095 175.518 183.161C175.888 183.219 176.362 183.34 176.885 183.535C177.948 183.932 179.032 184.57 179.79 185.397L182.738 182.694ZM186.879 187.577C186.199 186.712 184.43 184.539 182.738 182.694L179.79 185.397C181.39 187.142 183.092 189.232 183.736 190.051L186.879 187.577ZM195.847 186.161C193.636 185.363 191.257 185.387 189.29 185.666C187.309 185.948 185.56 186.515 184.499 186.985L186.117 190.643C186.852 190.318 188.246 189.854 189.852 189.626C191.472 189.396 193.125 189.431 194.489 189.924L195.847 186.161ZM197.152 182.961C196.043 184.1 194.7 185.479 193.631 186.762L196.705 189.323C197.656 188.181 198.884 186.917 200.019 185.75L197.152 182.961ZM197.143 182.97L197.143 182.97L200.028 185.74L200.028 185.74L197.143 182.97ZM197.268 182.85L197.268 182.85L199.902 185.86L199.902 185.86L197.268 182.85ZM197.131 182.982L197.131 182.982L200.039 185.728L200.04 185.728L197.131 182.982ZM199.343 180.589C199.08 180.967 198.311 181.769 197.152 182.96L200.019 185.749C201.028 184.712 202.123 183.597 202.627 182.873L199.343 180.589ZM206.409 178.712C205.127 178.141 203.657 178.243 202.53 178.546C201.424 178.845 200.111 179.484 199.343 180.589L202.627 182.873C202.613 182.893 202.665 182.817 202.86 182.7C203.044 182.59 203.29 182.485 203.572 182.409C204.2 182.239 204.646 182.305 204.783 182.366L206.409 178.712ZM209.085 189.374C209.085 188.044 209.009 185.986 208.772 184.109C208.654 183.175 208.489 182.223 208.252 181.406C208.134 180.998 207.984 180.575 207.787 180.187C207.602 179.819 207.309 179.349 206.845 178.977L204.346 182.1C204.18 181.968 204.158 181.873 204.217 181.989C204.265 182.085 204.334 182.255 204.411 182.521C204.565 183.052 204.698 183.772 204.803 184.609C205.013 186.274 205.085 188.157 205.085 189.374H209.085ZM207.002 195.004C207.963 194.054 208.472 192.862 208.744 191.886C209.019 190.901 209.102 189.958 209.085 189.321L205.086 189.428C205.093 189.679 205.055 190.223 204.891 190.811C204.725 191.408 204.477 191.875 204.19 192.16L207.002 195.004ZM209.709 202.802C210.043 200.076 209.473 195.956 207.284 192.51L203.908 194.654C205.549 197.239 205.972 200.412 205.739 202.315L209.709 202.802ZM209.68 203.05C209.691 202.953 209.7 202.873 209.709 202.802L205.739 202.315C205.728 202.405 205.717 202.501 205.706 202.594L209.68 203.05ZM209.68 203.05L209.68 203.049L205.706 202.594L205.706 202.596L209.68 203.05ZM209.682 203.03L209.682 203.029L205.704 202.616L205.704 202.617L209.682 203.03ZM208.856 206.778C209.435 205.233 209.591 203.827 209.68 203.051L205.706 202.595C205.619 203.354 205.502 204.329 205.11 205.374L208.856 206.778ZM208.725 204.718C208.398 204.511 208.051 204.345 207.705 204.211L206.26 207.941C206.417 208.002 206.521 208.056 206.585 208.097L208.725 204.718ZM211.704 221.848C211.948 219.596 212.136 216.102 211.897 212.903C211.778 211.308 211.548 209.701 211.126 208.329C210.729 207.039 210.043 205.552 208.725 204.718L206.585 208.097C206.655 208.142 206.98 208.455 207.303 209.506C207.601 210.475 207.8 211.75 207.908 213.2C208.124 216.088 207.954 219.328 207.727 221.418L211.704 221.848ZM216 230.533C216 228.038 215.13 225.785 214.128 224.037C213.127 222.29 211.918 220.915 211.044 220.138L208.387 223.128C208.941 223.621 209.874 224.659 210.658 226.026C211.441 227.393 212 228.955 212 230.533H216ZM204.998 241.969C207.834 241.969 210.573 240.586 212.569 238.566C214.578 236.533 216 233.688 216 230.533H212C212 232.471 211.117 234.344 209.723 235.755C208.316 237.179 206.554 237.969 204.998 237.969V241.969ZM194.558 241.969H204.998V237.969H194.558V241.969ZM195.398 243.28L196.417 240.705L192.698 239.232L191.679 241.807L195.398 243.28ZM191.327 246C193.76 246 195.041 244.221 195.408 243.252L191.668 241.834C191.687 241.784 191.692 241.788 191.666 241.824C191.644 241.855 191.614 241.889 191.58 241.918C191.547 241.945 191.516 241.963 191.485 241.975C191.457 241.986 191.409 242 191.327 242V246ZM186.686 242.543C186.686 244.092 187.877 244.975 188.571 245.343C189.384 245.775 190.372 246 191.327 246V242C191.154 242 190.977 241.979 190.813 241.94C190.648 241.901 190.523 241.851 190.446 241.81C190.361 241.765 190.387 241.76 190.455 241.842C190.532 241.936 190.686 242.178 190.686 242.543H186.686ZM186.409 240.192L186.698 242.766L190.673 242.32L190.384 239.745L186.409 240.192ZM186.899 241.969H188.396V237.969H186.899V241.969ZM188.707 241.782L188.886 240.192L184.911 239.745L184.732 241.335L188.707 241.782ZM184.078 245.016C185.033 245.016 186.021 244.791 186.835 244.359C187.528 243.991 188.72 243.107 188.72 241.559H184.72C184.72 241.194 184.873 240.951 184.95 240.858C185.018 240.775 185.045 240.78 184.959 240.826C184.882 240.867 184.758 240.917 184.592 240.956C184.429 240.994 184.252 241.016 184.078 241.016V245.016ZM179.997 242.268C180.365 243.237 181.645 245.016 184.078 245.016V241.016C183.996 241.016 183.948 241.002 183.92 240.991C183.889 240.979 183.858 240.961 183.825 240.934C183.791 240.905 183.761 240.871 183.739 240.84C183.714 240.803 183.718 240.799 183.737 240.85L179.997 242.268ZM179.378 240.705L180.008 242.295L183.727 240.822L183.097 239.232L179.378 240.705ZM175.659 241.969H181.238V237.969H175.659V241.969ZM167.75 230.432C167.589 233.577 168.781 236.142 170.253 238.018C171.705 239.868 173.493 241.135 174.779 241.765L176.539 238.173C175.746 237.784 174.448 236.885 173.399 235.548C172.37 234.236 171.645 232.594 171.745 230.635L167.75 230.432ZM171.498 219.199C170.249 220.749 168.032 224.892 167.75 230.432L171.745 230.635C171.983 225.967 173.873 222.626 174.612 221.709L171.498 219.199ZM174.078 207.504C172.756 208.148 171.969 209.308 171.501 210.437C171.033 211.568 170.805 212.85 170.704 214.071C170.502 216.518 170.778 219.137 171.089 220.818L175.022 220.09C174.754 218.643 174.526 216.394 174.69 214.401C174.773 213.402 174.946 212.572 175.197 211.968C175.448 211.361 175.697 211.165 175.829 211.101L174.078 207.504ZM174.231 207.432C174.18 207.455 174.129 207.48 174.078 207.504L175.829 211.101C175.85 211.09 175.872 211.08 175.897 211.069L174.231 207.432ZM170.12 199.974C168.993 204.997 171.466 208.705 173.727 210.738L176.401 207.763C174.786 206.311 173.322 203.975 174.023 200.85L170.12 199.974Z" fill="#071118" mask="url(#path-26-outside-1_25_23152)"/>
</g>
<path d="M96.8642 235.344L96.2024 230.439L103.834 228.682L104.649 234.718C105.138 238.34 103.649 239.326 102.844 239.367L99.891 239.75C97.7537 240.027 96.9826 236.928 96.8642 235.344Z" fill="#8B98A7" stroke="#142839"/>
<mask id="mask0_25_23152" style="mask-type:alpha" maskUnits="userSpaceOnUse" x="95" y="228" width="11" height="13">
<path d="M96.8724 235.338L96.206 230.43L103.828 228.679L104.648 234.72C105.14 238.344 103.654 239.33 102.85 239.369L99.9007 239.749C97.766 240.025 96.9924 236.923 96.8724 235.338Z" fill="#8B98A7" stroke="#142839"/>
</mask>
<g mask="url(#mask0_25_23152)">
<rect opacity="0.2" width="4.87674" height="11.6754" transform="matrix(0.991786 -0.127959 0.134416 0.990932 94.3682 230.292)" fill="#104D6B"/>
</g>
<path d="M94.6192 231.929L94.6585 231.93L94.6974 231.925L100.044 231.232L105.672 230.502L105.709 230.497L105.744 230.487C106.638 230.233 107.921 229.615 108.896 228.567C109.887 227.5 110.559 225.985 110.166 224.007C109.694 221.63 108.282 219.56 106.645 217.859C105.004 216.155 103.105 214.788 101.599 213.819C100.252 212.951 98.7223 212.953 97.4123 213.265C96.1034 213.578 94.9505 214.213 94.2768 214.712L94.2581 214.726L94.2407 214.741C93.1673 215.704 91.6056 217.408 90.3801 219.417C89.162 221.414 88.2278 223.792 88.5359 226.075C88.84 228.328 89.9083 229.792 91.1406 230.691C92.3569 231.579 93.7153 231.904 94.6192 231.929Z" fill="#1F7D97" stroke="#104D6B"/>
<g style="mix-blend-mode:screen" filter="url(#filter2_f_25_23152)">
<path d="M94.6305 231.43L99.977 230.736L105.605 230.007C107.259 229.536 110.39 227.696 109.675 224.102C108.783 219.609 104.308 216.156 101.33 214.238C98.9464 212.704 95.8342 214.182 94.576 215.114C92.4902 216.985 88.4613 221.783 89.0318 226.01C89.6023 230.238 93.002 231.385 94.6305 231.43Z" fill="#1F7D97"/>
</g>
<path d="M102.407 217.317C102.867 217.627 103.385 218.061 103.697 218.627C103.884 218.819 104.084 219.16 104.185 219.435C104.248 219.604 104.543 219.964 104.734 220.323C104.864 220.478 105.015 220.706 105.135 220.871C105.478 221.343 105.822 221.825 106.061 222.401C106.185 222.698 106.124 223.337 106.036 223.609C105.912 223.987 105.696 224.33 105.41 224.525C105.155 224.699 104.652 224.652 104.368 224.554C103.838 224.371 103.255 224.113 102.788 223.699C102.25 223.221 101.8 222.505 101.43 221.812C101.002 221.009 100.646 220.166 100.506 219.216C100.431 218.707 100.397 218.194 100.332 217.684C100.315 217.554 100.271 217.386 100.3 217.257C100.363 216.978 100.766 216.99 100.942 216.967C101.444 216.902 101.933 216.998 102.407 217.317Z" fill="#8BF2F2"/>
<path d="M93.6586 226.914C93.4681 226.422 93.456 225.592 93.7274 225.201C93.9416 224.915 94.1314 224.89 94.3079 224.867C94.6183 224.827 94.7806 224.846 95.0487 225.039C95.2628 225.193 95.5546 225.746 95.5215 226.112C95.4767 226.609 95.1792 227.228 94.8122 227.365C94.4114 227.516 93.8836 227.496 93.6586 226.914Z" fill="#8BF2F2"/>
<path d="M92.6677 221.102C93.2217 221.616 91.7863 222.813 91.65 221.803C91.6151 221.544 91.6382 221.329 91.8187 221.163C92.0123 220.986 92.4595 220.909 92.6677 221.102Z" fill="#8BF2F2"/>
<path d="M203.994 202.034C205.547 201.464 207.083 200.861 208.613 200.234C209.753 199.766 211.049 199.396 212.129 198.795C212.326 198.685 212.078 198.639 212.021 198.526" stroke="#071118" stroke-linecap="round"/>
<path d="M203.319 205.793C204.418 205.941 205.426 206.452 206.502 206.693C206.917 206.786 207.296 206.924 207.704 207.046C208.258 207.211 208.817 207.38 209.403 207.38" stroke="#071118" stroke-linecap="round"/>
<path d="M173.661 201.532C173.06 201.235 172.489 200.895 171.905 200.567C171.151 200.144 170.315 199.89 169.511 199.574C169.375 199.521 167.729 198.991 167.765 198.795C167.784 198.69 167.908 198.845 167.915 198.86" stroke="#071118" stroke-linecap="round"/>
<path d="M173.66 204.957C172.469 205.048 171.29 205.592 170.191 206.006C168.998 206.455 167.834 206.933 166.685 207.481C166.562 207.54 165.968 207.636 166.056 207.463" stroke="#071118" stroke-linecap="round"/>
<path d="M186.707 204.846L187.72 206.275C187.842 206.446 188.096 206.443 188.213 206.27L189.185 204.841C189.32 204.642 189.177 204.373 188.937 204.373H186.952C186.708 204.373 186.566 204.647 186.707 204.846Z" stroke="#92A8BA" stroke-width="2"/>
<defs>
<filter id="filter0_d_25_23152" x="125.572" y="139.724" width="40.7129" height="34.2661" filterUnits="userSpaceOnUse" color-interpolation-filters="sRGB">
<feFlood flood-opacity="0" result="BackgroundImageFix"/>
<feColorMatrix in="SourceAlpha" type="matrix" values="0 0 0 0 0 0 0 0 0 0 0 0 0 0 0 0 0 0 127 0" result="hardAlpha"/>
<feOffset dy="-2"/>
<feComposite in2="hardAlpha" operator="out"/>
<feColorMatrix type="matrix" values="0 0 0 0 0.054902 0 0 0 0 0.117647 0 0 0 0 0.168627 0 0 0 1 0"/>
<feBlend mode="normal" in2="BackgroundImageFix" result="effect1_dropShadow_25_23152"/>
<feBlend mode="normal" in="SourceGraphic" in2="effect1_dropShadow_25_23152" result="shape"/>
</filter>
<filter id="filter1_d_25_23152" x="164.735" y="176.301" width="51.2646" height="69.6992" filterUnits="userSpaceOnUse" color-interpolation-filters="sRGB">
<feFlood flood-opacity="0" result="BackgroundImageFix"/>
<feColorMatrix in="SourceAlpha" type="matrix" values="0 0 0 0 0 0 0 0 0 0 0 0 0 0 0 0 0 0 127 0" result="hardAlpha"/>
<feOffset dx="-3" dy="-2"/>
<feComposite in2="hardAlpha" operator="out"/>
<feColorMatrix type="matrix" values="0 0 0 0 0 0 0 0 0 0 0 0 0 0 0 0 0 0 0.25 0"/>
<feBlend mode="normal" in2="BackgroundImageFix" result="effect1_dropShadow_25_23152"/>
<feBlend mode="normal" in="SourceGraphic" in2="effect1_dropShadow_25_23152" result="shape"/>
</filter>
<filter id="filter2_f_25_23152" x="75.4766" y="200.074" width="47.8027" height="44.856" filterUnits="userSpaceOnUse" color-interpolation-filters="sRGB">
<feFlood flood-opacity="0" result="BackgroundImageFix"/>
<feBlend mode="normal" in="SourceGraphic" in2="BackgroundImageFix" result="shape"/>
<feGaussianBlur stdDeviation="6.75" result="effect1_foregroundBlur_25_23152"/>
</filter>
<linearGradient id="paint0_linear_25_23152" x1="146.89" y1="114.894" x2="146.89" y2="230.978" gradientUnits="userSpaceOnUse">
<stop/>
<stop offset="1" stop-opacity="0"/>
</linearGradient>
<linearGradient id="paint1_linear_25_23152" x1="146.527" y1="72.6118" x2="146.527" y2="98.7707" gradientUnits="userSpaceOnUse">
<stop stop-opacity="0"/>
<stop offset="1"/>
</linearGradient>
<radialGradient id="paint2_angular_25_23152" cx="0" cy="0" r="1" gradientUnits="userSpaceOnUse" gradientTransform="translate(146.989 63.514) rotate(-90.8236) scale(14.1961 14.3039)">
<stop stop-opacity="0"/>
<stop offset="1"/>
</radialGradient>
<radialGradient id="paint3_angular_25_23152" cx="0" cy="0" r="1" gradientUnits="userSpaceOnUse" gradientTransform="translate(146.983 70.0922) rotate(-88.7308) scale(3.33994 9.69447)">
<stop stop-color="#142839"/>
<stop offset="1" stop-color="#09141D"/>
</radialGradient>
<linearGradient id="paint4_linear_25_23152" x1="135.679" y1="123.459" x2="135.033" y2="79.6945" gradientUnits="userSpaceOnUse">
<stop stop-opacity="0"/>
<stop offset="1"/>
</linearGradient>
<linearGradient id="paint5_linear_25_23152" x1="187.429" y1="231.554" x2="187.517" y2="206.13" gradientUnits="userSpaceOnUse">
<stop stop-opacity="0"/>
<stop offset="1" stop-color="#09141D"/>
</linearGradient>
<linearGradient id="paint6_linear_25_23152" x1="181.921" y1="193.168" x2="181.921" y2="202.217" gradientUnits="userSpaceOnUse">
<stop stop-opacity="0"/>
<stop offset="1"/>
</linearGradient>
<linearGradient id="paint7_linear_25_23152" x1="195.889" y1="193.168" x2="195.889" y2="202.217" gradientUnits="userSpaceOnUse">
<stop stop-opacity="0"/>
<stop offset="1"/>
</linearGradient>
<linearGradient id="paint8_linear_25_23152" x1="183.111" y1="234.661" x2="183.396" y2="243.016" gradientUnits="userSpaceOnUse">
<stop stop-color="#142839" stop-opacity="0"/>
<stop offset="1" stop-color="#142839"/>
</linearGradient>
<linearGradient id="paint9_linear_25_23152" x1="192.003" y1="235.059" x2="192.003" y2="244" gradientUnits="userSpaceOnUse">
<stop stop-color="#142839" stop-opacity="0"/>
<stop offset="1" stop-color="#142839"/>
</linearGradient>
</defs>
</svg>
