<svg width="750" height="600" viewBox="0 0 750 600" fill="none" xmlns="http://www.w3.org/2000/svg">
<g clip-path="url(#clip0_24_47)">
<g clip-path="url(#clip1_24_47)">
<path d="M76.4924 114.743L68.0264 114.358L69.1808 98.1958H76.1076L76.4924 114.743Z" fill="#D9D9D9" stroke="#071118" stroke-width="3"/>
<path d="M51.8641 103.198C52.4798 101.659 53.9165 94.8606 54.5579 91.6538L71.8746 98.9654C71.2332 102.172 69.7965 109.202 69.1808 111.664C68.5651 114.127 67.1285 115.256 66.4871 115.513C63.6651 114.871 57.0977 113.05 53.4034 110.895C48.7856 108.201 51.0945 105.122 51.8641 103.198Z" fill="#104D6B" stroke="#071118" stroke-width="3"/>
<path d="M76.1076 113.588C76.1076 112.973 75.0815 103.583 74.5684 98.9652L92.6549 89.3447C92.2701 95.117 94.4707 106.09 94.9638 107.816C95.7334 110.51 94.2711 111.279 92.6549 112.434C89.9611 114.358 81.1103 115.512 78.4166 115.897C75.7228 116.282 76.1076 114.358 76.1076 113.588Z" fill="#104D6B" stroke="#071118" stroke-width="3"/>
<path d="M93.8093 101.659C93.1936 100.12 93.0397 91.7821 93.0397 87.8056C92.27 84.9836 91.8852 80.2631 96.503 83.9574C102.275 88.5752 105.354 94.3475 105.354 98.5805C105.354 102.814 102.66 104.353 99.1968 104.738C95.7334 105.122 94.5789 103.583 93.8093 101.659Z" fill="#104D6B" stroke="#071118" stroke-width="3"/>
<path d="M46.0918 96.6565C50.7096 97.2722 54.5578 97.0413 54.9426 92.4235L51.8641 83.9576C47.7594 81.9052 39.0112 79.4167 36.8562 85.8817C34.1624 93.9629 40.3195 95.8868 46.0918 96.6565Z" fill="#104D6B" stroke="#071118" stroke-width="3"/>
<path d="M40.7614 47.8362C36.6882 58.4268 38.2143 67.7004 41.798 74.9361C45.2127 81.8306 50.4871 86.8734 54.5443 89.5673C56.3693 93.0792 60.3925 96.7545 66.8015 97.4146C73.4896 98.1035 82.427 95.4785 93.872 86.6988C101.121 81.1379 105.482 75.3617 107.81 69.7115C110.141 64.056 110.386 58.6446 109.587 53.8979C108.79 49.1691 106.959 45.1087 105.136 42.0858C103.35 39.1238 101.461 36.9771 100.397 36.1791C100.362 36.1529 100.327 36.1268 100.293 36.1009C100.562 36.1903 100.884 36.2815 101.224 36.3272C101.593 36.3768 102.212 36.4062 102.848 36.1027C103.586 35.7506 104.014 35.1159 104.193 34.4695C104.334 33.9627 104.325 33.4553 104.274 33.0243C104.186 27.3238 98.6041 21.963 88.1902 21.1619C83.0236 20.7645 73.7576 20.8558 64.4893 24.3126C55.1571 27.7933 45.814 34.6995 40.7614 47.8362Z" fill="#104D6B" stroke="#071118" stroke-width="4"/>
<path d="M61.3701 89.6977C64.0684 91.0501 67.2812 90.9374 67.1527 91.7263C71.0079 93.5295 72.7041 93.0787 79.4892 90.3739C87.9705 86.9929 93.3678 80.9071 94.1388 75.4975C94.7556 71.1698 90.0267 57.0146 87.5851 50.478C86.043 50.8161 80.2602 51.898 69.4658 53.5209C55.9727 55.5495 51.7319 61.9734 49.8043 70.0878C47.8767 78.2023 57.6278 87.8221 61.3701 89.6977Z" fill="#050B10"/>
<path d="M60.3301 74.0991C60.3301 71.9005 61.8651 67.4102 64.5804 67.4102C66.5045 67.795 66.7374 70.0625 66.8443 70.7571C67.0215 71.9094 67.125 73.1242 67.0595 74.3031C66.9782 75.7673 66.3787 79.2385 64.3066 78.778C61.8323 78.2282 60.3301 76.7372 60.3301 74.0991Z" fill="#8BF2F2"/>
<path d="M63.4082 75.2824C63.4082 74.5408 63.9333 73.0264 64.8622 73.0264C65.5205 73.1562 65.6002 73.9209 65.6367 74.1552C65.6974 74.5439 65.7328 74.9536 65.7103 75.3512C65.6825 75.845 65.4774 77.0158 64.7686 76.8605C63.9221 76.675 63.4082 76.1722 63.4082 75.2824Z" fill="#BDFFFF"/>
<path d="M84.0283 74.0991C84.0283 71.9005 82.4933 67.4102 79.778 67.4102C77.8539 67.795 77.621 70.0625 77.5141 70.7571C77.3369 71.9094 77.2334 73.1242 77.2989 74.3031C77.3802 75.7673 77.9797 79.2385 80.0518 78.778C82.5261 78.2282 84.0283 76.7372 84.0283 74.0991Z" fill="#8BF2F2"/>
<path d="M81.1104 75.2824C81.1104 74.5408 80.5852 73.0264 79.6563 73.0264C78.9981 73.1562 78.9184 73.9209 78.8818 74.1552C78.8212 74.5439 78.7858 74.9536 78.8082 75.3512C78.836 75.845 79.0411 77.0158 79.75 76.8605C80.5964 76.675 81.1104 76.1722 81.1104 75.2824Z" fill="#BDFFFF"/>
<path d="M62.2543 96.6568C57.0208 94.1939 53.0187 89.6017 52.249 86.2666C57.6365 90.4996 61.4714 91.4333 69.9507 92.039C80.7257 92.8086 87.6524 90.4996 90.731 88.1907C92.2703 87.0362 94.1944 86.2665 91.8855 89.73C88.7928 94.3691 83.0346 97.2982 79.1864 98.1961C75.723 98.7092 67.4879 99.1196 62.2543 96.6568Z" fill="#104D6B" stroke="#071118" stroke-width="2"/>
<circle cx="29.5446" cy="64.3317" r="11.5446" fill="#1F7D97" fill-opacity="0.3"/>
<path d="M21.0784 70.1036C21.4631 74.337 23.6438 74.85 25.6961 75.1066L37.2407 71.2584C39.0366 70.1039 40.7041 67.795 39.9345 65.486C38.9019 62.3882 34.9318 62.5198 34.9318 65.1013C34.9318 65.4861 31.3204 63.1772 31.0836 60.0985C30.6988 55.0958 30.3139 53.1719 25.6961 53.1719C21.0784 53.1719 17.2302 62.0224 19.9239 59.3287C22.6177 56.6349 24.9264 56.6356 26.081 57.0201C29.9292 58.9442 26.081 62.4072 24.1569 63.5617C22.2328 64.7161 20.7976 67.0138 21.0784 70.1036Z" fill="#03B3E3"/>
<path d="M28.7741 68.5648C25.3877 69.7963 27.3631 72.413 28.7741 73.5675C29.6721 73.3109 31.8528 72.6439 33.3921 72.0282C33.7769 70.1041 33.0071 67.0256 28.7741 68.5648Z" fill="#BDFFFF"/>
<ellipse cx="38.7805" cy="54.3264" rx="1.53928" ry="1.53928" fill="#03B3E3"/>
<ellipse cx="39.5499" cy="39.7032" rx="0.769639" ry="0.769639" fill="#03B3E3"/>
<ellipse cx="43.3976" cy="52.0177" rx="0.769639" ry="0.769639" fill="#03B3E3"/>
<path d="M39.6304 102.431C39.2983 102.491 33.9218 88.1587 31.4683 81.6485L37.0055 79.4443C38.5387 86.7954 41.5738 101.561 41.448 101.815C41.2908 102.133 40.0455 102.357 39.6304 102.431Z" fill="#354E4F" stroke="#213D3E" stroke-width="3"/>
<path d="M28.3896 80.1093C27.62 79.7244 28.3896 78.57 28.7745 77.8003C25.3881 78.1081 25.3121 75.8762 26.4654 75.4916C28.0047 74.9784 31.622 73.7982 33.777 73.1825C36.4708 72.4129 38.893 71.5968 39.1652 72.4131C39.9348 74.7218 37.2404 75.1066 38.3949 75.8762C39.3184 76.492 37.6259 78.1854 37.2411 78.5702C35.7018 79.0833 32.5456 79.8401 31.4688 80.1093C29.9295 80.4941 29.1593 80.4941 28.3896 80.1093Z" fill="#142839" stroke="#142839" stroke-width="3"/>
<g style="mix-blend-mode:screen">
<circle cx="32.5" cy="66.5" r="32.5" fill="url(#paint0_radial_24_47)"/>
</g>
<path d="M226.492 116.743L218.026 116.358L219.181 100.196H226.108L226.492 116.743Z" fill="#D9D9D9" stroke="#071118" stroke-width="3"/>
<path d="M236.24 103.11C235.624 101.571 235.47 93.2332 235.47 89.2568C234.701 86.4348 234.316 81.7143 238.934 85.4086C244.706 90.0264 247.785 95.7987 247.785 100.032C247.785 104.265 245.091 105.804 241.627 106.189C238.164 106.574 237.01 105.034 236.24 103.11Z" fill="#104D6B" stroke="#071118" stroke-width="3"/>
<path d="M201.864 105.198C202.48 103.659 203.917 96.8606 204.558 93.6538L221.875 100.965C221.233 104.172 219.797 111.202 219.181 113.664C218.565 116.127 217.128 117.256 216.487 117.513C213.665 116.871 207.098 115.05 203.403 112.895C198.786 110.201 201.094 107.122 201.864 105.198Z" fill="#104D6B" stroke="#071118" stroke-width="3"/>
<path d="M226.108 115.588C226.108 114.973 225.081 105.583 224.568 100.965L242.655 91.3447C242.27 97.117 244.471 108.09 244.964 109.816C245.733 112.51 244.271 113.279 242.655 114.434C239.961 116.358 231.11 117.512 228.417 117.897C225.723 118.282 226.108 116.358 226.108 115.588Z" fill="#104D6B" stroke="#071118" stroke-width="3"/>
<path d="M206.071 98.0719C208.353 94.0106 209.564 90.3506 205.417 88.2826L196.413 88.0062C192.987 91.0587 187.434 98.2628 192.641 102.659C199.15 108.155 203.218 103.148 206.071 98.0719Z" fill="#104D6B" stroke="#071118" stroke-width="3"/>
<path d="M190.761 50.8362C186.688 61.4268 188.214 70.7004 191.798 77.9361C195.213 84.8306 200.487 89.8734 204.544 92.5673C206.369 96.0792 210.392 99.7545 216.802 100.415C223.49 101.103 232.427 98.4785 243.872 89.6988C251.121 84.1379 255.482 78.3617 257.81 72.7115C260.141 67.056 260.386 61.6446 259.587 56.8979C258.79 52.1691 256.959 48.1087 255.136 45.0858C253.35 42.1238 251.461 39.9771 250.397 39.1791C250.362 39.1529 250.327 39.1268 250.293 39.1009C250.562 39.1903 250.884 39.2815 251.224 39.3272C251.593 39.3768 252.212 39.4062 252.848 39.1027C253.586 38.7506 254.014 38.1159 254.193 37.4695C254.334 36.9627 254.325 36.4553 254.274 36.0243C254.186 30.3238 248.604 24.963 238.19 24.1619C233.024 23.7645 223.758 23.8558 214.489 27.3126C205.157 30.7933 195.814 37.6995 190.761 50.8362Z" fill="#104D6B" stroke="#071118" stroke-width="4"/>
<path d="M211.37 92.6977C214.068 94.0501 217.281 93.9374 217.153 94.7263C221.008 96.5295 222.704 96.0787 229.489 93.3739C237.971 89.9929 243.368 83.9071 244.139 78.4975C244.756 74.1698 240.027 60.0146 237.585 53.478C236.043 53.8161 230.26 54.898 219.466 56.5209C205.973 58.5495 201.732 64.9734 199.804 73.0878C197.877 81.2023 207.628 90.8221 211.37 92.6977Z" fill="#050B10"/>
<path d="M210.33 77.0991C210.33 74.9005 211.865 70.4102 214.58 70.4102C216.504 70.795 216.737 73.0625 216.844 73.7571C217.022 74.9094 217.125 76.1242 217.06 77.3031C216.978 78.7673 216.379 82.2385 214.307 81.778C211.832 81.2282 210.33 79.7372 210.33 77.0991Z" fill="#8BF2F2"/>
<path d="M213.408 78.2824C213.408 77.5408 213.933 76.0264 214.862 76.0264C215.52 76.1562 215.6 76.9209 215.637 77.1552C215.697 77.5439 215.733 77.9536 215.71 78.3512C215.683 78.845 215.477 80.0158 214.769 79.8605C213.922 79.675 213.408 79.1722 213.408 78.2824Z" fill="#BDFFFF"/>
<path d="M234.028 77.0991C234.028 74.9005 232.493 70.4102 229.778 70.4102C227.854 70.795 227.621 73.0625 227.514 73.7571C227.337 74.9094 227.233 76.1242 227.299 77.3031C227.38 78.7673 227.98 82.2385 230.052 81.778C232.526 81.2282 234.028 79.7372 234.028 77.0991Z" fill="#8BF2F2"/>
<path d="M231.11 78.2824C231.11 77.5408 230.585 76.0264 229.656 76.0264C228.998 76.1562 228.918 76.9209 228.882 77.1552C228.821 77.5439 228.786 77.9536 228.808 78.3512C228.836 78.845 229.041 80.0158 229.75 79.8605C230.596 79.675 231.11 79.1722 231.11 78.2824Z" fill="#BDFFFF"/>
<path d="M212.254 99.6568C207.021 97.1939 203.019 92.6017 202.249 89.2666C207.636 93.4996 211.471 94.4333 219.951 95.039C230.726 95.8086 237.652 93.4996 240.731 91.1907C242.27 90.0362 244.194 89.2665 241.885 92.73C238.793 97.3691 233.035 100.298 229.186 101.196C225.723 101.709 217.488 102.12 212.254 99.6568Z" fill="#104D6B" stroke="#071118" stroke-width="2"/>
<circle cx="190.545" cy="70.4503" r="11.5446" fill="#1F7D97" fill-opacity="0.3"/>
<path d="M182.078 76.2223C182.463 80.4556 184.644 80.9687 186.696 81.2252L198.241 77.3771C200.037 76.2226 201.704 73.9137 200.934 71.6046C199.902 68.5069 195.932 68.6385 195.932 71.2199C195.932 71.6048 192.32 69.2958 192.084 66.2171C191.699 61.2145 191.314 59.2905 186.696 59.2905C182.078 59.2905 178.23 68.1411 180.924 65.4473C183.618 62.7536 185.926 62.7542 187.081 63.1387C190.929 65.0628 187.081 68.5259 185.157 69.6803C183.233 70.8348 181.798 73.1325 182.078 76.2223Z" fill="#03B3E3"/>
<path d="M189.774 74.6835C186.388 75.9149 188.363 78.5317 189.774 79.6861C190.672 79.4296 192.853 78.7626 194.392 78.1469C194.777 76.2228 194.007 73.1442 189.774 74.6835Z" fill="#BDFFFF"/>
<ellipse cx="199.78" cy="60.445" rx="1.53928" ry="1.53928" fill="#03B3E3"/>
<ellipse cx="200.55" cy="45.8219" rx="0.769639" ry="0.769639" fill="#03B3E3"/>
<ellipse cx="204.398" cy="58.1363" rx="0.769639" ry="0.769639" fill="#03B3E3"/>
<path d="M200.63 108.55C200.298 108.609 194.922 94.2774 192.468 87.7671L198.006 85.5629C199.539 92.9141 202.574 107.68 202.448 107.934C202.291 108.252 201.045 108.475 200.63 108.55Z" fill="#354E4F" stroke="#213D3E" stroke-width="3"/>
<path d="M189.39 86.2279C188.62 85.8431 189.39 84.6886 189.774 83.919C186.388 84.2267 186.312 81.9949 187.465 81.6102C189.005 81.0971 192.622 79.9169 194.777 79.3012C197.471 78.5315 199.893 77.7154 200.165 78.5317C200.935 80.8405 198.24 81.2253 199.395 81.9949C200.318 82.6106 198.626 84.304 198.241 84.6888C196.702 85.2019 193.546 85.9587 192.469 86.2279C190.929 86.6127 190.159 86.6127 189.39 86.2279Z" fill="#142839" stroke="#142839" stroke-width="3"/>
<g style="mix-blend-mode:screen">
<circle cx="192.5" cy="72.5" r="32.5" fill="url(#paint1_radial_24_47)"/>
</g>
<path d="M376.492 114.743L368.026 114.358L369.181 98.1958H376.108L376.492 114.743Z" fill="#D9D9D9" stroke="#071118" stroke-width="3"/>
<path d="M351.864 103.198C352.48 101.659 353.917 94.8606 354.558 91.6538L371.875 98.9654C371.233 102.172 369.797 109.202 369.181 111.664C368.565 114.127 367.128 115.256 366.487 115.513C363.665 114.871 357.098 113.05 353.403 110.895C348.786 108.201 351.094 105.122 351.864 103.198Z" fill="#104D6B" stroke="#071118" stroke-width="3"/>
<path d="M390.24 103.058C389.624 101.519 389.47 93.181 389.47 89.2045C388.701 86.3825 388.316 81.6621 392.934 85.3563C398.706 89.9742 401.785 95.7465 401.785 99.9795C401.785 104.212 399.091 105.752 395.627 106.137C392.164 106.521 391.01 104.982 390.24 103.058Z" fill="#104D6B" stroke="#071118" stroke-width="3"/>
<path d="M376.108 113.588C376.108 112.973 375.081 103.583 374.568 98.9652L392.655 89.3447C392.27 95.117 394.471 106.09 394.964 107.816C395.733 110.51 394.271 111.279 392.655 112.434C389.961 114.358 381.11 115.512 378.417 115.897C375.723 116.282 376.108 114.358 376.108 113.588Z" fill="#104D6B" stroke="#071118" stroke-width="3"/>
<path d="M351.405 96.3548C354.988 93.377 357.426 90.3911 354.292 86.9782L345.981 83.5034C341.69 85.1302 333.93 89.8754 337.223 95.8419C341.339 103.3 346.926 100.077 351.405 96.3548Z" fill="#104D6B" stroke="#071118" stroke-width="3"/>
<path d="M340.761 47.8362C336.688 58.4268 338.214 67.7004 341.798 74.9361C345.213 81.8306 350.487 86.8734 354.544 89.5673C356.369 93.0792 360.392 96.7545 366.802 97.4146C373.49 98.1035 382.427 95.4785 393.872 86.6988C401.121 81.1379 405.482 75.3617 407.81 69.7115C410.141 64.056 410.386 58.6446 409.587 53.8979C408.79 49.1691 406.959 45.1087 405.136 42.0858C403.35 39.1238 401.461 36.9771 400.397 36.1791C400.362 36.1529 400.327 36.1268 400.293 36.1009C400.562 36.1903 400.884 36.2815 401.224 36.3272C401.593 36.3768 402.212 36.4062 402.848 36.1027C403.586 35.7506 404.014 35.1159 404.193 34.4695C404.334 33.9627 404.325 33.4553 404.274 33.0243C404.186 27.3238 398.604 21.963 388.19 21.1619C383.024 20.7645 373.758 20.8558 364.489 24.3126C355.157 27.7933 345.814 34.6995 340.761 47.8362Z" fill="#104D6B" stroke="#071118" stroke-width="4"/>
<path d="M361.37 89.6977C364.068 91.0501 367.281 90.9374 367.153 91.7263C371.008 93.5295 372.704 93.0787 379.489 90.3739C387.971 86.9929 393.368 80.9071 394.139 75.4975C394.756 71.1698 390.027 57.0146 387.585 50.478C386.043 50.8161 380.26 51.898 369.466 53.5209C355.973 55.5495 351.732 61.9734 349.804 70.0878C347.877 78.2023 357.628 87.8221 361.37 89.6977Z" fill="#050B10"/>
<path d="M360.33 74.0991C360.33 71.9005 361.865 67.4102 364.58 67.4102C366.504 67.795 366.737 70.0625 366.844 70.7571C367.022 71.9094 367.125 73.1242 367.06 74.3031C366.978 75.7673 366.379 79.2385 364.307 78.778C361.832 78.2282 360.33 76.7372 360.33 74.0991Z" fill="#8BF2F2"/>
<path d="M363.408 75.2824C363.408 74.5408 363.933 73.0264 364.862 73.0264C365.52 73.1562 365.6 73.9209 365.637 74.1552C365.697 74.5439 365.733 74.9536 365.71 75.3512C365.683 75.845 365.477 77.0158 364.769 76.8605C363.922 76.675 363.408 76.1722 363.408 75.2824Z" fill="#BDFFFF"/>
<path d="M384.028 74.0991C384.028 71.9005 382.493 67.4102 379.778 67.4102C377.854 67.795 377.621 70.0625 377.514 70.7571C377.337 71.9094 377.233 73.1242 377.299 74.3031C377.38 75.7673 377.98 79.2385 380.052 78.778C382.526 78.2282 384.028 76.7372 384.028 74.0991Z" fill="#8BF2F2"/>
<path d="M381.11 75.2824C381.11 74.5408 380.585 73.0264 379.656 73.0264C378.998 73.1562 378.918 73.9209 378.882 74.1552C378.821 74.5439 378.786 74.9536 378.808 75.3512C378.836 75.845 379.041 77.0158 379.75 76.8605C380.596 76.675 381.11 76.1722 381.11 75.2824Z" fill="#BDFFFF"/>
<path d="M362.254 96.6568C357.021 94.1939 353.019 89.6017 352.249 86.2666C357.636 90.4996 361.471 91.4333 369.951 92.039C380.726 92.8086 387.652 90.4996 390.731 88.1907C392.27 87.0362 394.194 86.2665 391.885 89.73C388.793 94.3691 383.035 97.2982 379.186 98.1961C375.723 98.7092 367.488 99.1196 362.254 96.6568Z" fill="#104D6B" stroke="#071118" stroke-width="2"/>
<circle cx="334.545" cy="66.3981" r="11.5446" fill="#1F7D97" fill-opacity="0.3"/>
<path d="M326.078 72.17C326.463 76.4034 328.644 76.9165 330.696 77.173L342.241 73.3248C344.037 72.1703 345.704 69.8614 344.934 67.5524C343.902 64.4546 339.932 64.5862 339.932 67.1677C339.932 67.5525 336.32 65.2436 336.084 62.1649C335.699 57.1622 335.314 55.2383 330.696 55.2383C326.078 55.2383 322.23 64.0888 324.924 61.3951C327.618 58.7013 329.926 58.702 331.081 59.0865C334.929 61.0106 331.081 64.4736 329.157 65.6281C327.233 66.7825 325.798 69.0802 326.078 72.17Z" fill="#03B3E3"/>
<path d="M333.774 70.6312C330.388 71.8627 332.363 74.4794 333.774 75.6339C334.672 75.3773 336.853 74.7103 338.392 74.0946C338.777 72.1705 338.007 69.092 333.774 70.6312Z" fill="#BDFFFF"/>
<ellipse cx="343.78" cy="56.3928" rx="1.53928" ry="1.53928" fill="#03B3E3"/>
<ellipse cx="344.55" cy="41.7696" rx="0.769639" ry="0.769639" fill="#03B3E3"/>
<ellipse cx="348.398" cy="54.0841" rx="0.769639" ry="0.769639" fill="#03B3E3"/>
<path d="M344.63 104.498C344.298 104.557 338.922 90.2251 336.468 83.7149L342.006 81.5107C343.539 88.8618 346.574 103.628 346.448 103.882C346.291 104.2 345.045 104.423 344.63 104.498Z" fill="#354E4F" stroke="#213D3E" stroke-width="3"/>
<path d="M333.39 82.1757C332.62 81.7908 333.39 80.6364 333.774 79.8668C330.388 80.1745 330.312 77.9427 331.465 77.558C333.005 77.0448 336.622 75.8646 338.777 75.2489C341.471 74.4793 343.893 73.6632 344.165 74.4795C344.935 76.7883 342.24 77.173 343.395 77.9427C344.318 78.5584 342.626 80.2518 342.241 80.6366C340.702 81.1497 337.546 81.9065 336.469 82.1757C334.929 82.5605 334.159 82.5605 333.39 82.1757Z" fill="#142839" stroke="#142839" stroke-width="3"/>
<g style="mix-blend-mode:screen">
<circle cx="334.5" cy="68.5" r="32.5" fill="url(#paint2_radial_24_47)"/>
</g>
<path d="M526.492 114.743L518.026 114.358L519.181 98.1958H526.108L526.492 114.743Z" fill="#D9D9D9" stroke="#071118" stroke-width="3"/>
<path d="M499.092 96.7229C503.71 97.3386 507.558 97.1077 507.943 92.4899L504.864 84.024C500.759 81.9716 492.011 79.4831 489.856 85.9481C487.162 94.0293 493.319 95.9532 499.092 96.7229Z" fill="#104D6B" stroke="#071118" stroke-width="3"/>
<path d="M501.864 103.198C502.48 101.659 503.917 94.8606 504.558 91.6538L521.875 98.9654C521.233 102.172 519.797 109.202 519.181 111.664C518.565 114.127 517.128 115.256 516.487 115.513C513.665 114.871 507.098 113.05 503.403 110.895C498.786 108.201 501.094 105.122 501.864 103.198Z" fill="#104D6B" stroke="#071118" stroke-width="3"/>
<path d="M526.108 113.588C526.108 112.973 525.081 103.583 524.568 98.9652L542.655 89.3447C542.27 95.117 544.471 106.09 544.964 107.816C545.733 110.51 544.271 111.279 542.655 112.434C539.961 114.358 531.11 115.512 528.417 115.897C525.723 116.282 526.108 114.358 526.108 113.588Z" fill="#104D6B" stroke="#071118" stroke-width="3"/>
<path d="M541.301 97.8179C542.322 95.1571 542.234 90.1977 542.062 88.0506L542.987 85.9632C543.046 85.7567 544.581 84.1128 548.151 86.6201C552.613 89.7542 554.678 94.2675 554.2 97.1341C553.931 98.7481 552.095 104.565 545.957 104.987C539.819 105.408 540.024 101.144 541.301 97.8179Z" fill="#104D6B" stroke="#071118" stroke-width="3"/>
<path d="M490.761 47.8362C486.688 58.4268 488.214 67.7004 491.798 74.9361C495.213 81.8306 500.487 86.8734 504.544 89.5673C506.369 93.0792 510.392 96.7545 516.802 97.4146C523.49 98.1035 532.427 95.4785 543.872 86.6988C551.121 81.1379 555.482 75.3617 557.81 69.7115C560.141 64.056 560.386 58.6446 559.587 53.8979C558.79 49.1691 556.959 45.1087 555.136 42.0858C553.35 39.1238 551.461 36.9771 550.397 36.1791C550.362 36.1529 550.327 36.1268 550.293 36.1009C550.562 36.1903 550.884 36.2815 551.224 36.3272C551.593 36.3768 552.212 36.4062 552.848 36.1027C553.586 35.7506 554.014 35.1159 554.193 34.4695C554.334 33.9627 554.325 33.4553 554.274 33.0243C554.186 27.3238 548.604 21.963 538.19 21.1619C533.024 20.7645 523.758 20.8558 514.489 24.3126C505.157 27.7933 495.814 34.6995 490.761 47.8362Z" fill="#104D6B" stroke="#071118" stroke-width="4"/>
<path d="M511.37 89.6977C514.068 91.0501 517.281 90.9374 517.153 91.7263C521.008 93.5295 522.704 93.0787 529.489 90.3739C537.971 86.9929 543.368 80.9071 544.139 75.4975C544.756 71.1698 540.027 57.0146 537.585 50.478C536.043 50.8161 530.26 51.898 519.466 53.5209C505.973 55.5495 501.732 61.9734 499.804 70.0878C497.877 78.2023 507.628 87.8221 511.37 89.6977Z" fill="#050B10"/>
<path d="M510.33 74.0991C510.33 71.9005 511.865 67.4102 514.58 67.4102C516.504 67.795 516.737 70.0625 516.844 70.7571C517.022 71.9094 517.125 73.1242 517.06 74.3031C516.978 75.7673 516.379 79.2385 514.307 78.778C511.832 78.2282 510.33 76.7372 510.33 74.0991Z" fill="#8BF2F2"/>
<path d="M513.408 75.2824C513.408 74.5408 513.933 73.0264 514.862 73.0264C515.52 73.1562 515.6 73.9209 515.637 74.1552C515.697 74.5439 515.733 74.9536 515.71 75.3512C515.683 75.845 515.477 77.0158 514.769 76.8605C513.922 76.675 513.408 76.1722 513.408 75.2824Z" fill="#BDFFFF"/>
<path d="M534.028 74.0991C534.028 71.9005 532.493 67.4102 529.778 67.4102C527.854 67.795 527.621 70.0625 527.514 70.7571C527.337 71.9094 527.233 73.1242 527.299 74.3031C527.38 75.7673 527.98 79.2385 530.052 78.778C532.526 78.2282 534.028 76.7372 534.028 74.0991Z" fill="#8BF2F2"/>
<path d="M531.11 75.2824C531.11 74.5408 530.585 73.0264 529.656 73.0264C528.998 73.1562 528.918 73.9209 528.882 74.1552C528.821 74.5439 528.786 74.9536 528.808 75.3512C528.836 75.845 529.041 77.0158 529.75 76.8605C530.596 76.675 531.11 76.1722 531.11 75.2824Z" fill="#BDFFFF"/>
<path d="M512.254 96.6568C507.021 94.1939 503.019 89.6017 502.249 86.2666C507.636 90.4996 511.471 91.4333 519.951 92.039C530.726 92.8086 537.652 90.4996 540.731 88.1907C542.27 87.0362 544.194 86.2665 541.885 89.73C538.793 94.3691 533.035 97.2982 529.186 98.1961C525.723 98.7092 517.488 99.1196 512.254 96.6568Z" fill="#104D6B" stroke="#071118" stroke-width="2"/>
<circle cx="482.545" cy="64.3981" r="11.5446" fill="#1F7D97" fill-opacity="0.3"/>
<path d="M474.045 67.17C474.43 71.4034 476.611 71.9165 478.663 72.173L490.208 68.3248C492.003 67.1703 493.671 64.8614 492.901 62.5524C491.869 59.4546 487.899 59.5862 487.899 62.1677C487.899 62.5525 484.287 60.2436 484.05 57.1649C483.666 52.1622 483.281 50.2383 478.663 50.2383C474.045 50.2383 470.197 59.0888 472.891 56.3951C475.584 53.7013 477.893 53.702 479.048 54.0865C482.896 56.0106 479.048 59.4736 477.124 60.6281C475.2 61.7825 473.764 64.0802 474.045 67.17Z" fill="#03B3E3"/>
<path d="M481.741 65.6312C478.354 66.8627 480.33 69.4794 481.741 70.6339C482.639 70.3773 484.82 69.7103 486.359 69.0946C486.744 67.1705 485.974 64.092 481.741 65.6312Z" fill="#BDFFFF"/>
<ellipse cx="491.747" cy="51.3928" rx="1.53928" ry="1.53928" fill="#03B3E3"/>
<ellipse cx="492.517" cy="36.7696" rx="0.769639" ry="0.769639" fill="#03B3E3"/>
<ellipse cx="496.364" cy="49.0841" rx="0.769639" ry="0.769639" fill="#03B3E3"/>
<path d="M492.597 99.4976C492.265 99.5572 486.889 85.2251 484.435 78.7149L489.972 76.5107C491.506 83.8618 494.541 98.6276 494.415 98.8819C494.258 99.1997 493.012 99.4231 492.597 99.4976Z" fill="#354E4F" stroke="#213D3E" stroke-width="3"/>
<path d="M481.356 77.1757C480.587 76.7908 481.356 75.6364 481.741 74.8668C478.355 75.1745 478.279 72.9427 479.432 72.558C480.972 72.0448 484.589 70.8646 486.744 70.2489C489.438 69.4793 491.86 68.6632 492.132 69.4795C492.902 71.7883 490.207 72.173 491.362 72.9427C492.285 73.5584 490.593 75.2518 490.208 75.6366C488.669 76.1497 485.512 76.9065 484.436 77.1757C482.896 77.5605 482.126 77.5605 481.356 77.1757Z" fill="#142839" stroke="#142839" stroke-width="3"/>
<g style="mix-blend-mode:screen">
<circle cx="484.5" cy="64.5" r="32.5" fill="url(#paint3_radial_24_47)"/>
</g>
<path d="M676.492 116.743L668.026 116.358L669.181 100.196H676.108L676.492 116.743Z" fill="#D9D9D9" stroke="#071118" stroke-width="3"/>
<path d="M653.888 99.091C658.506 99.7068 662.354 99.4759 662.739 94.858L659.66 86.3922C655.555 84.3398 646.807 81.8513 644.652 88.3163C641.958 96.3975 648.115 98.3214 653.888 99.091Z" fill="#104D6B" stroke="#071118" stroke-width="3"/>
<path d="M651.864 105.198C652.48 103.659 653.917 96.8606 654.558 93.6538L671.875 100.965C671.233 104.172 669.797 111.202 669.181 113.664C668.565 116.127 667.128 117.256 666.487 117.513C663.665 116.871 657.098 115.05 653.403 112.895C648.786 110.201 651.094 107.122 651.864 105.198Z" fill="#104D6B" stroke="#071118" stroke-width="3"/>
<path d="M676.108 115.588C676.108 114.973 675.081 105.583 674.568 100.965L692.655 91.3447C692.27 97.117 694.471 108.09 694.964 109.816C695.733 112.51 694.271 113.279 692.655 114.434C689.961 116.358 681.11 117.512 678.417 117.897C675.723 118.282 676.108 116.358 676.108 115.588Z" fill="#104D6B" stroke="#071118" stroke-width="3"/>
<circle cx="636.545" cy="61.3981" r="11.5446" fill="#1F7D97" fill-opacity="0.3"/>
<path d="M628.078 67.17C628.463 71.4034 630.644 71.9165 632.696 72.173L644.241 68.3248C646.037 67.1703 647.704 64.8614 646.934 62.5524C645.902 59.4546 641.932 59.5862 641.932 62.1677C641.932 62.5525 638.32 60.2436 638.084 57.1649C637.699 52.1622 637.314 50.2383 632.696 50.2383C628.078 50.2383 624.23 59.0888 626.924 56.3951C629.618 53.7013 631.926 53.702 633.081 54.0865C636.929 56.0106 633.081 59.4736 631.157 60.6281C629.233 61.7825 627.798 64.0802 628.078 67.17Z" fill="#03B3E3"/>
<path d="M635.774 65.6312C632.388 66.8627 634.363 69.4794 635.774 70.6339C636.672 70.3773 638.853 69.7103 640.392 69.0946C640.777 67.1705 640.007 64.092 635.774 65.6312Z" fill="#BDFFFF"/>
<ellipse cx="645.781" cy="51.3928" rx="1.53928" ry="1.53928" fill="#03B3E3"/>
<ellipse cx="646.55" cy="36.7696" rx="0.769639" ry="0.769639" fill="#03B3E3"/>
<ellipse cx="650.398" cy="49.0841" rx="0.769639" ry="0.769639" fill="#03B3E3"/>
<path d="M646.63 99.4976C646.298 99.5572 640.922 85.2251 638.468 78.7149L644.006 76.5107C645.539 83.8618 648.574 98.6276 648.448 98.8819C648.291 99.1997 647.045 99.4231 646.63 99.4976Z" fill="#354E4F" stroke="#213D3E" stroke-width="3"/>
<path d="M635.39 77.1757C634.62 76.7908 635.39 75.6364 635.774 74.8668C632.388 75.1745 632.312 72.9427 633.465 72.558C635.005 72.0448 638.622 70.8646 640.777 70.2489C643.471 69.4793 645.893 68.6632 646.165 69.4795C646.935 71.7883 644.24 72.173 645.395 72.9427C646.318 73.5584 644.626 75.2518 644.241 75.6366C642.702 76.1497 639.546 76.9065 638.469 77.1757C636.929 77.5605 636.159 77.5605 635.39 77.1757Z" fill="#142839" stroke="#142839" stroke-width="3"/>
<g style="mix-blend-mode:screen">
<circle cx="637.5" cy="62.5" r="32.5" fill="url(#paint4_radial_24_47)"/>
</g>
<path d="M686.918 95.7251C689.13 93.928 691.527 89.5853 692.448 87.6385L694.292 86.2908C694.445 86.141 696.596 85.4819 698.44 89.4353C700.744 94.3771 700.283 99.3189 698.44 101.565C697.402 102.83 692.909 106.956 687.379 104.261C681.848 101.565 684.152 97.9713 686.918 95.7251Z" fill="#104D6B" stroke="#071118" stroke-width="3"/>
<path d="M640.761 49.8362C636.688 60.4268 638.214 69.7004 641.798 76.9361C645.213 83.8306 650.487 88.8734 654.544 91.5673C656.369 95.0792 660.392 98.7545 666.802 99.4146C673.49 100.103 682.427 97.4785 693.872 88.6988C701.121 83.1379 705.482 77.3617 707.81 71.7115C710.141 66.056 710.386 60.6446 709.587 55.8979C708.79 51.1691 706.959 47.1087 705.136 44.0858C703.35 41.1238 701.461 38.9771 700.397 38.1791C700.362 38.1529 700.327 38.1268 700.293 38.1009C700.562 38.1903 700.884 38.2815 701.224 38.3272C701.593 38.3768 702.212 38.4062 702.848 38.1027C703.586 37.7506 704.014 37.1159 704.193 36.4695C704.334 35.9627 704.325 35.4553 704.274 35.0243C704.186 29.3238 698.604 23.963 688.19 23.1619C683.024 22.7645 673.758 22.8558 664.489 26.3126C655.157 29.7933 645.814 36.6995 640.761 49.8362Z" fill="#104D6B" stroke="#071118" stroke-width="4"/>
<path d="M661.37 91.6977C664.068 93.0501 667.281 92.9374 667.153 93.7263C671.008 95.5295 672.704 95.0787 679.489 92.3739C687.971 88.9929 693.368 82.9071 694.139 77.4975C694.756 73.1698 690.027 59.0146 687.585 52.478C686.043 52.8161 680.26 53.898 669.466 55.5209C655.973 57.5495 651.732 63.9734 649.804 72.0878C647.877 80.2023 657.628 89.8221 661.37 91.6977Z" fill="#050B10"/>
<path d="M660.33 76.0991C660.33 73.9005 661.865 69.4102 664.58 69.4102C666.504 69.795 666.737 72.0625 666.844 72.7571C667.022 73.9094 667.125 75.1242 667.06 76.3031C666.978 77.7673 666.379 81.2385 664.307 80.778C661.832 80.2282 660.33 78.7372 660.33 76.0991Z" fill="#8BF2F2"/>
<path d="M663.408 77.2824C663.408 76.5408 663.933 75.0264 664.862 75.0264C665.52 75.1562 665.6 75.9209 665.637 76.1552C665.697 76.5439 665.733 76.9536 665.71 77.3512C665.683 77.845 665.477 79.0158 664.769 78.8605C663.922 78.675 663.408 78.1722 663.408 77.2824Z" fill="#BDFFFF"/>
<path d="M684.028 76.0991C684.028 73.9005 682.493 69.4102 679.778 69.4102C677.854 69.795 677.621 72.0625 677.514 72.7571C677.337 73.9094 677.233 75.1242 677.299 76.3031C677.38 77.7673 677.98 81.2385 680.052 80.778C682.526 80.2282 684.028 78.7372 684.028 76.0991Z" fill="#8BF2F2"/>
<path d="M681.11 77.2824C681.11 76.5408 680.585 75.0264 679.656 75.0264C678.998 75.1562 678.918 75.9209 678.882 76.1552C678.821 76.5439 678.786 76.9536 678.808 77.3512C678.836 77.845 679.041 79.0158 679.75 78.8605C680.596 78.675 681.11 78.1722 681.11 77.2824Z" fill="#BDFFFF"/>
<path d="M662.254 98.6568C657.021 96.1939 653.019 91.6017 652.249 88.2666C657.636 92.4996 661.471 93.4333 669.951 94.039C680.726 94.8086 687.652 92.4996 690.731 90.1907C692.27 89.0362 694.194 88.2665 691.885 91.73C688.793 96.3691 683.035 99.2982 679.186 100.196C675.723 100.709 667.488 101.12 662.254 98.6568Z" fill="#104D6B" stroke="#071118" stroke-width="2"/>
</g>
<path d="M54.362 255.078C54.6282 253.298 55.8542 240.218 56.2273 233.849L94.2779 233C94.0292 235.264 93.6064 240.388 93.9049 242.765C94.2779 245.738 97 256 96.5162 257.201C81 267.5 69.5502 265.854 61.9999 263.5C53.999 261.005 54 257.5 54.362 255.078Z" fill="#104D6B" stroke="#071118" stroke-width="3"/>
<path d="M54.9578 248.964C55.55 247.484 55.698 239.464 55.698 235.64C56.4383 232.925 56.8084 228.385 52.3669 231.938C46.8151 236.38 43.8541 241.932 43.8541 246.003C43.8541 250.074 46.4449 251.555 49.776 251.925C53.1072 252.295 54.2175 250.815 54.9578 248.964Z" fill="#104D6B" stroke="#071118" stroke-width="3"/>
<ellipse cx="11.1037" cy="11.1037" rx="11.1037" ry="11.1037" transform="matrix(-1 0 0 1 127.333 200.478)" fill="#1F7D97" fill-opacity="0.3"/>
<path d="M106.618 211.384C104.542 214.906 105.957 216.531 107.416 217.884L118.592 221.359C120.643 221.466 123.241 220.599 123.936 218.364C124.869 215.365 121.695 213.239 120.245 215.255C120.029 215.555 118.505 211.725 120.049 209.187C122.557 205.064 123.336 203.346 119.73 200.753C116.124 198.161 108.15 202.912 111.766 202.321C115.382 201.73 117.184 203.026 117.87 203.975C119.795 207.638 114.846 208.182 112.695 208.003C110.544 207.825 108.133 208.813 106.618 211.384Z" fill="#03B3E3"/>
<path d="M113.492 214.503C110.156 213.563 110.23 216.716 110.683 218.41C111.529 218.713 113.606 219.417 115.154 219.8C116.535 218.513 117.662 215.677 113.492 214.503Z" fill="#BDFFFF"/>
<path d="M110.537 200.513C110.06 201.177 109.135 201.328 108.471 200.851C107.807 200.374 107.656 199.448 108.133 198.785C108.61 198.121 109.535 197.969 110.199 198.447C110.863 198.924 111.014 199.849 110.537 200.513Z" fill="#03B3E3"/>
<circle cx="109.166" cy="192.848" r="0.740247" transform="rotate(35.7106 109.166 192.848)" fill="#03B3E3"/>
<circle cx="114.349" cy="182.485" r="0.740247" transform="rotate(35.7106 114.349 182.485)" fill="#03B3E3"/>
<path d="M106.528 248.227C106.848 248.284 112.019 234.499 114.379 228.237L109.053 226.117C107.578 233.188 104.659 247.39 104.78 247.634C104.931 247.94 106.129 248.155 106.528 248.227Z" fill="#354E4F" stroke="#213D3E" stroke-width="3"/>
<path d="M117.34 226.756C118.081 226.386 117.34 225.276 116.97 224.536C120.227 224.832 120.3 222.685 119.191 222.315C117.711 221.822 114.231 220.686 112.159 220.094C109.568 219.354 107.238 218.569 106.976 219.354C106.236 221.575 108.828 221.945 107.717 222.685C106.829 223.277 108.457 224.906 108.827 225.276C110.307 225.77 113.343 226.498 114.379 226.756C115.859 227.127 116.6 227.127 117.34 226.756Z" fill="#142839" stroke="#142839" stroke-width="3"/>
<g style="mix-blend-mode:screen">
<circle cx="113.5" cy="211.5" r="32.5" fill="url(#paint5_radial_24_47)"/>
</g>
<path d="M100.852 244.152C96.4107 244.744 92.7095 244.522 92.3394 240.081L95.3004 231.938C99.2483 229.964 107.662 227.571 109.735 233.789C112.326 241.561 106.404 243.412 100.852 244.152Z" fill="#104D6B" stroke="#071118" stroke-width="3"/>
<path d="M92.299 237.699L92.1607 237.787L92.0099 237.851C91.7018 237.981 91.3868 238.116 91.0648 238.254C87.177 239.919 82.2843 242.013 76.5363 242.333C70.2015 242.685 63.0053 240.892 54.8499 234.635C47.8691 229.28 43.6655 223.714 41.4199 218.265C39.1722 212.811 38.9352 207.592 39.7065 203.014C40.4747 198.454 42.2401 194.54 43.9968 191.626C45.6007 188.966 47.2948 186.983 48.3551 186.098C48.191 186.141 48.0159 186.178 47.8357 186.202C47.4741 186.251 46.8612 186.281 46.2303 185.98C45.4976 185.63 45.0731 185 44.8957 184.361C44.7572 183.862 44.7662 183.364 44.8152 182.945C44.903 177.407 50.3227 172.236 60.3553 171.465C65.3309 171.082 74.2552 171.169 83.1837 174.5C92.1761 177.853 101.181 184.51 106.05 197.169C109.976 207.377 108.505 216.319 105.05 223.295C101.627 230.207 96.2654 235.187 92.299 237.699Z" fill="#104D6B" stroke="#071118" stroke-width="4"/>
<path d="M85.3075 244.153C90.3411 241.784 94.1904 237.367 94.9307 234.159C89.7489 238.231 86.0605 239.129 77.905 239.711C67.5415 240.451 60.8793 238.231 57.9183 236.01C56.4378 234.899 54.5872 234.159 56.8079 237.49C59.7825 241.952 65.3208 244.769 69.022 245.633C72.3531 246.127 80.2738 246.521 85.3075 244.153Z" fill="#104D6B" stroke="#071118" stroke-width="2"/>
<path d="M212.617 249.665C212.677 248.072 210.123 240.469 208.838 236.867C208.623 234.062 207.446 229.661 204.457 234.5C200.72 240.548 199.796 246.772 201.164 250.607C202.532 254.442 205.469 254.966 208.731 254.195C211.993 253.425 212.541 251.657 212.617 249.665Z" fill="#104D6B" stroke="#071118" stroke-width="3"/>
<path d="M204.362 255.078C204.628 253.298 205.854 240.218 206.227 233.849L244.278 233C244.029 235.264 243.606 240.388 243.905 242.765C244.278 245.738 247 256 246.516 257.201C231 267.5 219.55 265.854 212 263.5C203.999 261.005 204 257.5 204.362 255.078Z" fill="#104D6B" stroke="#071118" stroke-width="3"/>
<path d="M204 266C204 264.8 205.167 247.666 206 238.5C217.667 235.5 241.4 231.4 243 239C245 248.5 243 260 242 262.5C241.413 263.968 241 266 232 266C229 266 222.5 268.5 215 269.5C207.5 270.5 204 267.5 204 266Z" fill="#104D6B" stroke="#071118" stroke-width="3"/>
<path d="M242.299 239.699L242.161 239.787L242.01 239.851C241.702 239.981 241.387 240.116 241.065 240.254C237.177 241.919 232.284 244.013 226.536 244.333C220.202 244.685 213.005 242.892 204.85 236.635C197.869 231.28 193.665 225.714 191.42 220.265C189.172 214.811 188.935 209.592 189.706 205.014C190.475 200.454 192.24 196.54 193.997 193.626C195.601 190.966 197.295 188.983 198.355 188.098C198.191 188.141 198.016 188.178 197.836 188.202C197.474 188.251 196.861 188.281 196.23 187.98C195.498 187.63 195.073 187 194.896 186.361C194.757 185.862 194.766 185.364 194.815 184.945C194.903 179.407 200.323 174.236 210.355 173.465C215.331 173.082 224.255 173.169 233.184 176.5C242.176 179.853 251.181 186.51 256.05 199.169C259.976 209.377 258.505 218.319 255.05 225.295C251.627 232.207 246.265 237.187 242.299 239.699Z" fill="#104D6B" stroke="#071118" stroke-width="4"/>
<path d="M235.307 246.153C240.341 243.784 244.19 239.367 244.931 236.159C239.749 240.231 236.06 241.129 227.905 241.711C217.542 242.451 210.879 240.231 207.918 238.01C206.438 236.899 204.587 236.159 206.808 239.49C209.782 243.952 215.321 246.769 219.022 247.633C222.353 248.127 230.274 248.521 235.307 246.153Z" fill="#104D6B" stroke="#071118" stroke-width="2"/>
<ellipse cx="11.1037" cy="11.1037" rx="11.1037" ry="11.1037" transform="matrix(-0.997291 -0.0735634 -0.0735634 0.997291 271.774 209.828)" fill="#1F7D97" fill-opacity="0.3"/>
<path d="M250.314 219.181C247.984 222.541 249.276 224.265 250.631 225.721L261.521 230.01C263.559 230.267 266.214 229.594 267.072 227.415C268.223 224.493 265.213 222.139 263.619 224.043C263.382 224.327 262.144 220.395 263.87 217.978C266.674 214.051 267.578 212.394 264.172 209.543C260.766 206.693 252.464 210.845 256.114 210.521C259.764 210.197 261.466 211.623 262.08 212.619C263.731 216.414 258.755 216.593 256.623 216.256C254.491 215.92 252.014 216.729 250.314 219.181Z" fill="#03B3E3"/>
<path d="M256.939 222.797C253.681 221.614 253.523 224.764 253.851 226.486C254.671 226.852 256.692 227.706 258.207 228.202C259.679 227.02 261.011 224.275 256.939 222.797Z" fill="#BDFFFF"/>
<path d="M255.021 208.628C254.497 209.255 253.563 209.338 252.936 208.813C252.309 208.288 252.226 207.354 252.751 206.727C253.276 206.1 254.209 206.018 254.836 206.542C255.463 207.067 255.546 208.001 255.021 208.628Z" fill="#03B3E3"/>
<circle cx="254.219" cy="200.883" r="0.740247" transform="rotate(39.9293 254.219 200.883)" fill="#03B3E3"/>
<circle cx="260.148" cy="190.929" r="0.740247" transform="rotate(39.9293 260.148 190.929)" fill="#03B3E3"/>
<path d="M247.513 255.917C247.828 255.997 253.999 242.63 256.813 236.559L251.657 234.053C249.667 240.996 245.711 254.945 245.813 255.198C245.942 255.514 247.12 255.816 247.513 255.917Z" fill="#354E4F" stroke="#213D3E" stroke-width="3"/>
<path d="M259.875 235.3C260.641 234.986 259.984 233.824 259.669 233.059C262.896 233.593 263.127 231.458 262.048 231.007C260.607 230.406 257.221 229.018 255.198 228.275C252.668 227.346 250.403 226.392 250.084 227.156C249.182 229.316 251.739 229.876 250.578 230.532C249.648 231.058 251.152 232.802 251.494 233.198C252.934 233.799 255.908 234.748 256.922 235.083C258.371 235.561 259.11 235.615 259.875 235.3Z" fill="#142839" stroke="#142839" stroke-width="3"/>
<g style="mix-blend-mode:screen">
<circle cx="257.168" cy="219.803" r="32.5" transform="rotate(4.21868 257.168 219.803)" fill="url(#paint6_radial_24_47)"/>
</g>
<path d="M237.183 251.578C235.589 247.39 234 248 237.5 245.5L243 241C245.826 244.391 254.884 254.408 249.306 257.85C242.334 262.153 239.176 256.812 237.183 251.578Z" fill="#104D6B" stroke="#071118" stroke-width="3"/>
<path d="M354.362 255.078C354.628 253.298 355.854 240.218 356.227 233.849L394.278 233C394.029 235.264 393.606 240.388 393.905 242.765C394.278 245.738 397 256 396.516 257.201C381 267.5 369.55 265.854 362 263.5C353.999 261.005 354 257.5 354.362 255.078Z" fill="#104D6B" stroke="#071118" stroke-width="3"/>
<path d="M354.958 248.964C355.55 247.484 355.698 239.464 355.698 235.64C356.438 232.925 356.808 228.385 352.367 231.938C346.815 236.38 343.854 241.932 343.854 246.003C343.854 250.074 346.445 251.555 349.776 251.925C353.107 252.295 354.218 250.815 354.958 248.964Z" fill="#104D6B" stroke="#071118" stroke-width="3"/>
<ellipse cx="11.1037" cy="11.1037" rx="11.1037" ry="11.1037" transform="matrix(-0.991026 -0.133668 -0.133668 0.991026 429.399 205.479)" fill="#1F7D97" fill-opacity="0.3"/>
<path d="M407.413 213.518C404.884 216.731 406.069 218.53 407.334 220.066L417.946 225.004C419.964 225.384 422.655 224.872 423.643 222.75C424.968 219.902 422.106 217.371 420.4 219.175C420.146 219.444 419.148 215.444 421.016 213.136C424.053 209.385 425.055 207.786 421.828 204.735C418.6 201.684 410.063 205.327 413.725 205.224C417.388 205.121 419.001 206.647 419.554 207.679C420.972 211.566 415.994 211.444 413.887 210.98C411.779 210.515 409.258 211.173 407.413 213.518Z" fill="#03B3E3"/>
<path d="M413.808 217.527C410.627 216.15 410.279 219.285 410.502 221.024C411.299 221.438 413.264 222.413 414.747 222.999C416.287 221.909 417.783 219.248 413.808 217.527Z" fill="#BDFFFF"/>
<path d="M412.75 203.268C412.188 203.862 411.251 203.889 410.657 203.327C410.063 202.765 410.036 201.828 410.598 201.234C411.16 200.64 412.097 200.613 412.691 201.175C413.285 201.737 413.311 202.674 412.75 203.268Z" fill="#03B3E3"/>
<circle cx="412.415" cy="195.489" r="0.740247" transform="rotate(43.3922 412.415 195.489)" fill="#03B3E3"/>
<circle cx="418.936" cy="185.911" r="0.740247" transform="rotate(43.3922 418.936 185.911)" fill="#03B3E3"/>
<path d="M402.399 250.017C402.708 250.117 409.675 237.147 412.851 231.257L407.856 228.444C405.45 235.254 400.658 248.938 400.746 249.197C400.855 249.52 402.013 249.893 402.399 250.017Z" fill="#354E4F" stroke="#213D3E" stroke-width="3"/>
<path d="M415.983 230.186C416.766 229.918 416.181 228.718 415.913 227.935C419.101 228.664 419.461 226.546 418.411 226.031C417.009 225.344 413.713 223.754 411.738 222.891C409.27 221.811 407.066 220.721 406.701 221.464C405.671 223.566 408.19 224.279 406.99 224.864C406.031 225.333 407.427 227.164 407.744 227.581C409.145 228.268 412.056 229.395 413.048 229.79C414.466 230.354 415.2 230.453 415.983 230.186Z" fill="#142839" stroke="#142839" stroke-width="3"/>
<g style="mix-blend-mode:screen">
<circle cx="414.217" cy="214.553" r="32.5" transform="rotate(7.68159 414.217 214.553)" fill="url(#paint7_radial_24_47)"/>
</g>
<path d="M394.899 246.578C391.015 244.343 388.214 241.914 390.624 238.165L397.931 233.508C402.265 234.346 410.397 237.57 408.255 243.765C405.578 251.508 399.754 249.371 394.899 246.578Z" fill="#104D6B" stroke="#071118" stroke-width="3"/>
<path d="M392.299 238.699L392.161 238.787L392.01 238.851C391.702 238.981 391.387 239.116 391.065 239.254C387.177 240.919 382.284 243.013 376.536 243.333C370.202 243.685 363.005 241.892 354.85 235.635C347.869 230.28 343.665 224.714 341.42 219.265C339.172 213.811 338.935 208.592 339.706 204.014C340.475 199.454 342.24 195.54 343.997 192.626C345.601 189.966 347.295 187.983 348.355 187.098C348.191 187.141 348.016 187.178 347.836 187.202C347.474 187.251 346.861 187.281 346.23 186.98C345.498 186.63 345.073 186 344.896 185.361C344.757 184.862 344.766 184.364 344.815 183.945C344.903 178.407 350.323 173.236 360.355 172.465C365.331 172.082 374.255 172.169 383.184 175.5C392.176 178.853 401.181 185.51 406.05 198.169C409.976 208.377 408.505 217.319 405.05 224.295C401.627 231.207 396.265 236.187 392.299 238.699Z" fill="#104D6B" stroke="#071118" stroke-width="4"/>
<path d="M385.307 245.153C390.341 242.784 394.19 238.367 394.931 235.159C389.749 239.231 386.06 240.129 377.905 240.711C367.542 241.451 360.879 239.231 357.918 237.01C356.438 235.899 354.587 235.159 356.808 238.49C359.782 242.952 365.321 245.769 369.022 246.633C372.353 247.127 380.274 247.521 385.307 245.153Z" fill="#104D6B" stroke="#071118" stroke-width="2"/>
<ellipse cx="11.1037" cy="11.1037" rx="11.1037" ry="11.1037" transform="matrix(-1 0 0 1 562.333 197.478)" fill="#1F7D97" fill-opacity="0.3"/>
<path d="M541.618 208.384C539.542 211.906 540.957 213.531 542.416 214.884L553.592 218.359C555.643 218.466 558.241 217.599 558.936 215.364C559.869 212.365 556.695 210.239 555.245 212.255C555.029 212.555 553.505 208.725 555.049 206.187C557.557 202.064 558.336 200.346 554.73 197.753C551.124 195.161 543.15 199.912 546.766 199.321C550.382 198.73 552.184 200.026 552.87 200.975C554.795 204.638 549.846 205.182 547.695 205.003C545.544 204.825 543.133 205.813 541.618 208.384Z" fill="#03B3E3"/>
<path d="M548.492 211.503C545.156 210.563 545.23 213.716 545.683 215.41C546.529 215.713 548.606 216.417 550.154 216.8C551.535 215.513 552.662 212.677 548.492 211.503Z" fill="#BDFFFF"/>
<path d="M545.537 197.513C545.06 198.177 544.135 198.328 543.471 197.851C542.807 197.374 542.656 196.448 543.133 195.785C543.61 195.121 544.535 194.969 545.199 195.447C545.863 195.924 546.014 196.849 545.537 197.513Z" fill="#03B3E3"/>
<circle cx="544.166" cy="189.848" r="0.740247" transform="rotate(35.7106 544.166 189.848)" fill="#03B3E3"/>
<circle cx="549.349" cy="179.485" r="0.740247" transform="rotate(35.7106 549.349 179.485)" fill="#03B3E3"/>
<path d="M541.528 245.227C541.848 245.284 547.019 231.499 549.379 225.237L544.053 223.117C542.578 230.188 539.659 244.39 539.78 244.634C539.931 244.94 541.129 245.155 541.528 245.227Z" fill="#354E4F" stroke="#213D3E" stroke-width="3"/>
<path d="M552.34 223.756C553.081 223.386 552.34 222.276 551.97 221.536C555.227 221.832 555.3 219.685 554.191 219.315C552.711 218.822 549.231 217.686 547.159 217.094C544.568 216.354 542.238 215.569 541.976 216.354C541.236 218.575 543.828 218.945 542.717 219.685C541.829 220.277 543.457 221.906 543.827 222.276C545.307 222.77 548.343 223.498 549.379 223.756C550.859 224.127 551.6 224.127 552.34 223.756Z" fill="#142839" stroke="#142839" stroke-width="3"/>
<g style="mix-blend-mode:screen">
<circle cx="548.5" cy="208.5" r="32.5" fill="url(#paint8_radial_24_47)"/>
</g>
<path d="M538.512 251.364C534.071 251.956 530.37 251.734 530 247.293L532.961 239.15C536.908 237.176 545.323 234.783 547.395 241.001C549.986 248.773 544.064 250.624 538.512 251.364Z" fill="#104D6B" stroke="#071118" stroke-width="3"/>
<path d="M543.855 266C543.855 264.8 542.689 247.666 541.855 238.5C530.189 235.5 506.455 231.4 504.855 239C502.855 248.5 504.855 260 505.855 262.5C506.443 263.968 506.855 266 515.855 266C518.855 266 525.355 268.5 532.855 269.5C540.355 270.5 543.855 267.5 543.855 266Z" fill="#104D6B" stroke="#071118" stroke-width="3"/>
<path d="M508.64 256.972C508.81 255.386 506.788 247.625 505.756 243.942C505.736 241.129 504.866 236.657 501.549 241.277C497.402 247.053 496.05 253.198 497.149 257.118C498.248 261.038 501.143 261.764 504.45 261.222C507.757 260.679 508.427 258.953 508.64 256.972Z" fill="#104D6B" stroke="#071118" stroke-width="3"/>
<path d="M542.299 239.699L542.161 239.787L542.01 239.851C541.702 239.981 541.387 240.116 541.065 240.254C537.177 241.919 532.284 244.013 526.536 244.333C520.202 244.685 513.005 242.892 504.85 236.635C497.869 231.28 493.665 225.714 491.42 220.265C489.172 214.811 488.935 209.592 489.706 205.014C490.475 200.454 492.24 196.54 493.997 193.626C495.601 190.966 497.295 188.983 498.355 188.098C498.191 188.141 498.016 188.178 497.836 188.202C497.474 188.251 496.861 188.281 496.23 187.98C495.498 187.63 495.073 187 494.896 186.361C494.757 185.862 494.766 185.364 494.815 184.945C494.903 179.407 500.323 174.236 510.355 173.465C515.331 173.082 524.255 173.169 533.184 176.5C542.176 179.853 551.181 186.51 556.05 199.169C559.976 209.377 558.505 218.319 555.05 225.295C551.627 232.207 546.265 237.187 542.299 239.699Z" fill="#104D6B" stroke="#071118" stroke-width="4"/>
<path d="M535.307 246.153C540.341 243.784 544.19 239.367 544.931 236.159C539.749 240.231 536.06 241.129 527.905 241.711C517.542 242.451 510.879 240.231 507.918 238.01C506.438 236.899 504.587 236.159 506.808 239.49C509.782 243.952 515.321 246.769 519.022 247.633C522.353 248.127 530.274 248.521 535.307 246.153Z" fill="#104D6B" stroke="#071118" stroke-width="2"/>
<ellipse cx="11.1037" cy="11.1037" rx="11.1037" ry="11.1037" transform="matrix(-1 0 0 1 719.333 198.478)" fill="#1F7D97" fill-opacity="0.3"/>
<path d="M698.618 209.384C696.542 212.906 697.957 214.531 699.416 215.884L710.592 219.359C712.643 219.466 715.241 218.599 715.936 216.364C716.869 213.365 713.695 211.239 712.245 213.255C712.029 213.555 710.505 209.725 712.049 207.187C714.557 203.064 715.336 201.346 711.73 198.753C708.124 196.161 700.15 200.912 703.766 200.321C707.382 199.73 709.184 201.026 709.87 201.975C711.795 205.638 706.846 206.182 704.695 206.003C702.544 205.825 700.133 206.813 698.618 209.384Z" fill="#03B3E3"/>
<path d="M705.492 212.503C702.156 211.563 702.23 214.716 702.683 216.41C703.529 216.713 705.606 217.417 707.154 217.8C708.535 216.513 709.662 213.677 705.492 212.503Z" fill="#BDFFFF"/>
<path d="M702.537 198.513C702.06 199.177 701.135 199.328 700.471 198.851C699.807 198.374 699.656 197.448 700.133 196.785C700.61 196.121 701.535 195.969 702.199 196.447C702.863 196.924 703.014 197.849 702.537 198.513Z" fill="#03B3E3"/>
<circle cx="701.166" cy="190.848" r="0.740247" transform="rotate(35.7106 701.166 190.848)" fill="#03B3E3"/>
<circle cx="706.349" cy="180.485" r="0.740247" transform="rotate(35.7106 706.349 180.485)" fill="#03B3E3"/>
<path d="M698.528 246.227C698.848 246.284 704.019 232.499 706.379 226.237L701.053 224.117C699.578 231.188 696.659 245.39 696.78 245.634C696.931 245.94 698.129 246.155 698.528 246.227Z" fill="#354E4F" stroke="#213D3E" stroke-width="3"/>
<path d="M709.34 224.756C710.081 224.386 709.34 223.276 708.97 222.536C712.227 222.832 712.3 220.685 711.191 220.315C709.711 219.822 706.231 218.686 704.159 218.094C701.568 217.354 699.238 216.569 698.976 217.354C698.236 219.575 700.828 219.945 699.717 220.685C698.829 221.277 700.457 222.906 700.827 223.276C702.307 223.77 705.343 224.498 706.379 224.756C707.859 225.127 708.6 225.127 709.34 224.756Z" fill="#142839" stroke="#142839" stroke-width="3"/>
<g style="mix-blend-mode:screen">
<circle cx="705.5" cy="209.5" r="32.5" fill="url(#paint9_radial_24_47)"/>
</g>
<path d="M696.512 249.364C692.071 249.956 688.37 249.734 688 245.293L690.961 237.15C694.908 235.176 703.323 232.783 705.395 239.001C707.986 246.773 702.064 248.624 696.512 249.364Z" fill="#104D6B" stroke="#071118" stroke-width="3"/>
<path d="M654.362 255.078C654.628 253.298 655.854 240.218 656.227 233.849L694.278 233C694.029 235.264 693.606 240.388 693.905 242.765C694.278 245.738 697 256 696.516 257.201C681 267.5 669.55 265.854 662 263.5C653.999 261.005 654 257.5 654.362 255.078Z" fill="#104D6B" stroke="#071118" stroke-width="3"/>
<path d="M654.958 248.964C655.55 247.484 655.698 239.464 655.698 235.64C656.438 232.925 656.808 228.385 652.367 231.938C646.815 236.38 643.854 241.932 643.854 246.003C643.854 250.074 646.445 251.555 649.776 251.925C653.107 252.295 654.218 250.815 654.958 248.964Z" fill="#104D6B" stroke="#071118" stroke-width="3"/>
<path d="M692.299 238.699L692.161 238.787L692.01 238.851C691.702 238.981 691.387 239.116 691.065 239.254C687.177 240.919 682.284 243.013 676.536 243.333C670.202 243.685 663.005 241.892 654.85 235.635C647.869 230.28 643.665 224.714 641.42 219.265C639.172 213.811 638.935 208.592 639.706 204.014C640.475 199.454 642.24 195.54 643.997 192.626C645.601 189.966 647.295 187.983 648.355 187.098C648.191 187.141 648.016 187.178 647.836 187.202C647.474 187.251 646.861 187.281 646.23 186.98C645.498 186.63 645.073 186 644.896 185.361C644.757 184.862 644.766 184.364 644.815 183.945C644.903 178.407 650.323 173.236 660.355 172.465C665.331 172.082 674.255 172.169 683.184 175.5C692.176 178.853 701.181 185.51 706.05 198.169C709.976 208.377 708.505 217.319 705.05 224.295C701.627 231.207 696.265 236.187 692.299 238.699Z" fill="#104D6B" stroke="#071118" stroke-width="4"/>
<path d="M685.307 245.153C690.341 242.784 694.19 238.367 694.931 235.159C689.749 239.231 686.06 240.129 677.905 240.711C667.542 241.451 660.879 239.231 657.918 237.01C656.438 235.899 654.587 235.159 656.808 238.49C659.782 242.952 665.321 245.769 669.022 246.633C672.353 247.127 680.274 247.521 685.307 245.153Z" fill="#104D6B" stroke="#071118" stroke-width="2"/>
<path d="M57.4996 402.5C58.6483 399.053 63.0026 383.675 64.596 378.098L91.2862 383.675C92.0829 386.065 93.8357 391.562 94.4731 394.431C95.2698 398.016 97.66 412.357 95.2698 413.552C71.368 419.926 63.8817 413.586 59.5003 410C58.0007 408.773 56.0001 407 57.4996 402.5Z" fill="#104D6B" stroke="#071118" stroke-width="3"/>
<path d="M82.522 388.252C68.1809 387.933 64.3301 380.683 64.1973 377.098L70.5711 379.886C75.2186 380.816 86.1072 382.754 92.481 383.073C94.8712 385.065 90.4892 388.65 82.522 388.252Z" fill="#104D6B" stroke="#071118" stroke-width="3"/>
<path d="M46.2709 348.399C37.6663 373.495 54.371 376.781 63.7989 375.287C67.3842 379.09 78.1401 385.717 92.4812 381.806C110.408 376.917 105.627 359.399 104.83 348.399C104.034 337.399 94.0747 328.029 85.709 323.955C67.3843 316.215 45.4742 333.325 41.4906 342.696C38.3037 350.192 40.9594 350.708 42.6857 350.029C43.3496 349.486 46.6695 347.177 46.2709 348.399Z" fill="#104D6B" stroke="#071118" stroke-width="4"/>
<path d="M82.3359 365.478C83.1613 373.37 89.3283 378.236 92.3086 379.683C107.784 377.315 104.689 354.825 102.969 348.117C101.594 342.751 97.5816 339.305 95.7475 338.253C95.8621 339.305 94.9222 342.435 90.2453 346.539C84.0554 350.879 81.3043 355.614 82.3359 365.478Z" fill="black" stroke="black"/>
<path d="M98.0605 361.492C98.3378 362.929 98.3499 364.375 98.0605 365.79C98.0605 366.064 97.6594 366.653 97.4783 366.809C97.0127 367.21 96.4787 367.849 95.8164 367.898C95.2546 367.94 94.4939 368.053 94.1608 367.498C92.7612 363.598 93.4082 360.884 93.5585 360.013C93.9568 358.818 94.2955 358.318 94.6023 357.943C94.8872 357.594 95.2426 357.405 95.8164 357.375C96.1116 357.375 96.5917 357.783 96.7453 358.021C96.9423 358.327 96.9446 358.51 97.1437 358.818C97.4228 359.25 97.538 359.704 97.7225 360.184C97.8888 360.616 97.9733 361.04 98.0605 361.492Z" fill="#8BF2F2"/>
<path d="M97.8723 363.16C97.9608 363.702 97.9646 364.247 97.8723 364.781C97.8723 364.884 97.7444 365.107 97.6866 365.165C97.5381 365.317 97.3677 365.558 97.1564 365.576C96.9772 365.592 96.7345 365.634 96.6282 365.425C96.1817 363.954 96.3881 362.931 96.4361 362.602C96.5631 362.151 96.6712 361.963 96.7691 361.821C96.8599 361.69 96.9734 361.619 97.1564 361.607C97.2506 361.607 97.4037 361.761 97.4528 361.851C97.5156 361.966 97.5163 362.035 97.5798 362.151C97.6689 362.314 97.7057 362.486 97.7645 362.666C97.8175 362.829 97.8445 362.989 97.8723 363.16Z" fill="#BDFFFF"/>
<path d="M70.3627 366.575C69.5557 370.901 71.584 372.025 73.5566 372.858L86.1402 372.27C88.254 371.625 90.5645 369.793 90.447 367.276C90.2893 363.9 86.2969 362.915 85.5711 365.487C85.4629 365.87 82.5142 362.554 83.1439 359.42C84.1671 354.328 84.3246 352.303 79.7241 351.005C75.1235 349.706 68.8011 357.442 72.2422 355.516C75.6833 353.589 77.9833 354.239 79.0254 354.947C82.3183 357.946 77.5108 360.314 75.2692 360.923C73.0277 361.532 70.9517 363.418 70.3627 366.575Z" fill="#03B3E3"/>
<path d="M78.4624 367.206C74.7424 367.48 75.9747 370.643 77.0558 372.19C78.0226 372.187 80.3828 372.135 82.0894 371.955C83.0138 370.146 83.1125 366.862 78.4624 367.206Z" fill="#BDFFFF"/>
<ellipse cx="92.4347" cy="355.834" rx="1.59345" ry="1.59345" transform="rotate(15.7604 92.4347 355.834)" fill="#03B3E3"/>
<ellipse cx="78.3267" cy="339.913" rx="0.796726" ry="0.796726" transform="rotate(15.7604 78.3267 339.913)" fill="#03B3E3"/>
<path d="M95.456 351.127C95.3365 351.55 94.8963 351.797 94.4728 351.677C94.0494 351.558 93.803 351.117 93.9225 350.694C94.042 350.27 94.4822 350.024 94.9057 350.144C95.3291 350.263 95.5755 350.703 95.456 351.127Z" fill="#03B3E3"/>
<path d="M79.7559 403.999C79.4083 403.965 78.0816 388.174 77.4678 380.998L83.6042 380.359C83.0647 388.114 81.9367 403.678 81.7399 403.896C81.4939 404.169 80.1904 404.041 79.7559 403.999Z" fill="#354E4F" stroke="#213D3E" stroke-width="3"/>
<path d="M74.8335 378.599C74.1749 377.999 75.2663 377.065 75.8661 376.407C72.4058 375.761 72.9577 373.516 74.2148 373.457C75.8927 373.379 79.8283 373.22 82.1484 373.213C85.0485 373.203 87.6913 373.071 87.7328 373.961C87.8505 376.478 85.0579 376.104 85.9917 377.195C86.7387 378.068 84.5763 379.279 84.0847 379.554C82.4069 379.633 79.0497 379.499 77.9011 379.465C76.2594 379.415 75.4921 379.199 74.8335 378.599Z" fill="#142839" stroke="#142839" stroke-width="3"/>
<path d="M70.1113 398.211C65.6496 394.068 66.9244 387.455 68.1194 384.667L73.2981 386.658C73.4309 387.455 74.4932 389.447 77.6801 391.04C81.6637 393.032 85.6473 397.016 84.0539 399.804C82.4604 402.593 75.6883 403.39 70.1113 398.211Z" fill="#104D6B" stroke="#071118" stroke-width="2"/>
<g style="mix-blend-mode:screen">
<circle cx="79.5" cy="366.5" r="32.5" fill="url(#paint10_radial_24_47)"/>
</g>
<path d="M207 402.5C208.044 399.02 213.002 383.675 214.596 378.098L241.286 383.675C242.082 386.065 243.835 391.562 244.473 394.431C245.094 397.225 247.8 403.603 249.438 407.938C250.106 409.706 249.301 411.643 247.485 412.165C237.019 415.172 215.373 413.624 211 411C208.501 409.5 205.499 407.5 207 402.5Z" fill="#104D6B" stroke="#071118" stroke-width="3"/>
<path d="M232.522 388.252C218.181 387.933 214.33 380.683 214.197 377.098L220.571 379.886C225.219 380.816 236.107 382.754 242.481 383.073C244.871 385.065 240.489 388.65 232.522 388.252Z" fill="#104D6B" stroke="#071118" stroke-width="3"/>
<path d="M196.271 350.399C187.666 375.495 204.371 378.781 213.799 377.287C217.384 381.09 228.14 387.717 242.481 383.806C260.408 378.917 255.627 361.399 254.83 350.399C254.034 339.399 244.075 330.029 235.709 325.955C217.384 318.215 195.474 335.325 191.491 344.696C188.304 352.192 190.959 352.708 192.686 352.029C193.35 351.486 196.669 349.177 196.271 350.399Z" fill="#104D6B" stroke="#071118" stroke-width="4"/>
<path d="M232.336 367.478C233.161 375.37 239.328 380.236 242.309 381.683C257.784 379.315 254.689 356.825 252.969 350.117C251.594 344.751 247.582 341.305 245.748 340.253C245.862 341.305 244.922 344.435 240.245 348.539C234.055 352.879 231.304 357.614 232.336 367.478Z" fill="black" stroke="black"/>
<path d="M248.06 363.492C248.338 364.929 248.35 366.375 248.06 367.79C248.06 368.064 247.659 368.653 247.478 368.809C247.013 369.21 246.479 369.849 245.816 369.898C245.255 369.94 244.494 370.053 244.161 369.498C242.761 365.598 243.408 362.884 243.558 362.013C243.957 360.818 244.296 360.318 244.602 359.943C244.887 359.594 245.243 359.405 245.816 359.375C246.112 359.375 246.592 359.783 246.745 360.021C246.942 360.327 246.945 360.51 247.144 360.818C247.423 361.25 247.538 361.704 247.722 362.184C247.889 362.616 247.973 363.04 248.06 363.492Z" fill="#8BF2F2"/>
<path d="M247.872 365.16C247.961 365.702 247.965 366.247 247.872 366.781C247.872 366.884 247.744 367.107 247.687 367.165C247.538 367.317 247.368 367.558 247.156 367.576C246.977 367.592 246.734 367.634 246.628 367.425C246.182 365.954 246.388 364.931 246.436 364.602C246.563 364.151 246.671 363.963 246.769 363.821C246.86 363.69 246.973 363.619 247.156 363.607C247.251 363.607 247.404 363.761 247.453 363.851C247.516 363.966 247.516 364.035 247.58 364.151C247.669 364.314 247.706 364.486 247.764 364.666C247.818 364.829 247.845 364.989 247.872 365.16Z" fill="#BDFFFF"/>
<path d="M233.344 366.575C232.537 370.901 234.565 372.025 236.538 372.858L249.122 372.27C251.235 371.625 253.546 369.793 253.428 367.276C253.271 363.9 249.278 362.915 248.553 365.487C248.444 365.87 245.496 362.554 246.125 359.42C247.149 354.328 247.306 352.303 242.705 351.005C238.105 349.706 231.783 357.442 235.224 355.516C238.665 353.589 240.965 354.239 242.007 354.947C245.3 357.946 240.492 360.314 238.251 360.923C236.009 361.532 233.933 363.418 233.344 366.575Z" fill="#03B3E3"/>
<path d="M241.444 367.206C237.724 367.48 238.956 370.643 240.037 372.19C241.004 372.187 243.364 372.135 245.071 371.955C245.995 370.146 246.094 366.862 241.444 367.206Z" fill="#BDFFFF"/>
<ellipse cx="251.966" cy="352.966" rx="1.59345" ry="1.59345" transform="rotate(15.7604 251.966 352.966)" fill="#03B3E3"/>
<ellipse cx="245.984" cy="344.983" rx="0.796726" ry="0.796726" transform="rotate(15.7604 245.984 344.983)" fill="#03B3E3"/>
<path d="M242.737 403.999C242.39 403.965 241.063 388.174 240.449 380.998L246.586 380.359C246.046 388.114 244.918 403.678 244.721 403.896C244.475 404.169 243.172 404.041 242.737 403.999Z" fill="#354E4F" stroke="#213D3E" stroke-width="3"/>
<path d="M237.815 378.599C237.156 377.999 238.248 377.065 238.848 376.407C235.387 375.761 235.939 373.516 237.196 373.457C238.874 373.379 242.81 373.22 245.13 373.213C248.03 373.203 250.673 373.071 250.714 373.961C250.832 376.478 248.039 376.104 248.973 377.195C249.72 378.068 247.558 379.279 247.066 379.554C245.388 379.633 242.031 379.499 240.883 379.465C239.241 379.415 238.474 379.199 237.815 378.599Z" fill="#142839" stroke="#142839" stroke-width="3"/>
<path d="M232.815 399.487C226.978 397.756 225.184 391.265 225.016 388.236L230.541 387.721C231.013 388.376 232.85 389.689 236.413 389.701C240.867 389.717 246.205 391.517 246.015 394.723C245.826 397.929 240.112 401.65 232.815 399.487Z" fill="#104D6B" stroke="#071118" stroke-width="2"/>
<path d="M205.772 386.965C206.55 383.427 211.229 381.342 213.472 380.742L209.508 394.4C207.939 393.396 204.995 390.502 205.772 386.965Z" fill="#104D6B" stroke="#071118" stroke-width="3"/>
<g style="mix-blend-mode:screen">
<circle cx="244.5" cy="366.5" r="32.5" fill="url(#paint11_radial_24_47)"/>
</g>
<path d="M358.772 385.965C359.55 382.427 364.229 380.342 366.472 379.742L362.508 393.4C360.939 392.396 357.995 389.502 358.772 385.965Z" fill="#104D6B" stroke="#071118" stroke-width="3"/>
<path d="M357.5 402.5C358.648 399.053 363.003 383.675 364.596 378.098L391.286 383.675C392.083 386.065 393.836 391.562 394.473 394.431C395.097 397.24 397.523 405.207 398.544 409.245C398.877 410.563 398.087 411.748 396.767 412.074C374.395 417.603 363.743 413.472 359.5 410C358.001 408.773 356 407 357.5 402.5Z" fill="#104D6B" stroke="#071118" stroke-width="3"/>
<path d="M382.522 388.252C368.181 387.933 364.33 380.683 364.197 377.098L370.571 379.886C375.219 380.816 386.107 382.754 392.481 383.073C394.871 385.065 390.489 388.65 382.522 388.252Z" fill="#104D6B" stroke="#071118" stroke-width="3"/>
<path d="M346.271 349.399C337.666 374.495 354.371 377.781 363.799 376.287C367.384 380.09 378.14 386.717 392.481 382.806C410.408 377.917 405.627 360.399 404.83 349.399C404.034 338.399 394.075 329.029 385.709 324.955C367.384 317.215 345.474 334.325 341.491 343.696C338.304 351.192 340.959 351.708 342.686 351.029C343.35 350.486 346.669 348.177 346.271 349.399Z" fill="#104D6B" stroke="#071118" stroke-width="4"/>
<path d="M382.336 366.478C383.161 374.37 389.328 379.236 392.309 380.683C407.784 378.315 404.689 355.825 402.969 349.117C401.594 343.751 397.582 340.305 395.748 339.253C395.862 340.305 394.922 343.435 390.245 347.539C384.055 351.879 381.304 356.614 382.336 366.478Z" fill="black" stroke="black"/>
<path d="M398.06 362.492C398.338 363.929 398.35 365.375 398.06 366.79C398.06 367.064 397.659 367.653 397.478 367.809C397.013 368.21 396.479 368.849 395.816 368.898C395.255 368.94 394.494 369.053 394.161 368.498C392.761 364.598 393.408 361.884 393.558 361.013C393.957 359.818 394.296 359.318 394.602 358.943C394.887 358.594 395.243 358.405 395.816 358.375C396.112 358.375 396.592 358.783 396.745 359.021C396.942 359.327 396.945 359.51 397.144 359.818C397.423 360.25 397.538 360.704 397.722 361.184C397.889 361.616 397.973 362.04 398.06 362.492Z" fill="#8BF2F2"/>
<path d="M397.872 364.16C397.961 364.702 397.965 365.247 397.872 365.781C397.872 365.884 397.744 366.107 397.687 366.165C397.538 366.317 397.368 366.558 397.156 366.576C396.977 366.592 396.734 366.634 396.628 366.425C396.182 364.954 396.388 363.931 396.436 363.602C396.563 363.151 396.671 362.963 396.769 362.821C396.86 362.69 396.973 362.619 397.156 362.607C397.251 362.607 397.404 362.761 397.453 362.851C397.516 362.966 397.516 363.035 397.58 363.151C397.669 363.314 397.706 363.486 397.764 363.666C397.818 363.829 397.845 363.989 397.872 364.16Z" fill="#BDFFFF"/>
<path d="M375.344 369.119C374.537 373.445 376.565 374.569 378.538 375.402L391.122 374.814C393.235 374.169 395.546 372.337 395.428 369.82C395.271 366.444 391.278 365.459 390.553 368.031C390.444 368.414 387.496 365.098 388.125 361.964C389.149 356.872 389.306 354.847 384.705 353.549C380.105 352.25 373.783 359.986 377.224 358.06C380.665 356.133 382.965 356.783 384.007 357.491C387.3 360.49 382.492 362.858 380.251 363.467C378.009 364.076 375.933 365.962 375.344 369.119Z" fill="#03B3E3"/>
<path d="M383.444 369.75C379.724 370.024 380.956 373.187 382.037 374.734C383.004 374.731 385.364 374.679 387.071 374.499C387.995 372.69 388.094 369.406 383.444 369.75Z" fill="#BDFFFF"/>
<ellipse cx="397.416" cy="358.377" rx="1.59345" ry="1.59345" transform="rotate(15.7604 397.416 358.377)" fill="#03B3E3"/>
<ellipse cx="383.308" cy="342.457" rx="0.796726" ry="0.796726" transform="rotate(15.7604 383.308 342.457)" fill="#03B3E3"/>
<path d="M400.437 353.671C400.318 354.094 399.878 354.341 399.454 354.221C399.031 354.102 398.784 353.661 398.904 353.238C399.023 352.814 399.464 352.568 399.887 352.687C400.311 352.807 400.557 353.247 400.437 353.671Z" fill="#03B3E3"/>
<path d="M384.737 406.542C384.39 406.508 383.063 390.718 382.449 383.542L388.586 382.903C388.046 390.658 386.918 406.222 386.721 406.44C386.475 406.713 385.172 406.585 384.737 406.542Z" fill="#354E4F" stroke="#213D3E" stroke-width="3"/>
<path d="M379.815 381.143C379.156 380.543 380.248 379.609 380.848 378.951C377.387 378.305 377.939 376.06 379.196 376.001C380.874 375.923 384.81 375.764 387.13 375.757C390.03 375.747 392.673 375.615 392.714 376.505C392.832 379.022 390.039 378.647 390.973 379.739C391.72 380.612 389.558 381.823 389.066 382.098C387.388 382.177 384.031 382.043 382.883 382.009C381.241 381.959 380.474 381.743 379.815 381.143Z" fill="#142839" stroke="#142839" stroke-width="3"/>
<path d="M375.093 400.755C370.631 396.612 371.906 389.999 373.101 387.21L378.28 389.202C378.412 389.999 379.475 391.991 382.662 393.584C386.645 395.576 390.629 399.56 389.035 402.348C387.442 405.137 380.67 405.934 375.093 400.755Z" fill="#104D6B" stroke="#071118" stroke-width="2"/>
<g style="mix-blend-mode:screen">
<circle cx="385.5" cy="371.5" r="32.5" fill="url(#paint12_radial_24_47)"/>
</g>
<path d="M549 397C548.6 393.4 544.167 390.833 542 390L544.5 404C546.167 403.167 549.4 400.6 549 397Z" fill="#104D6B" stroke="#071118" stroke-width="3"/>
<path d="M507.5 402.5C508.648 399.053 513.003 383.675 514.596 378.098L541.286 383.675C542.083 386.065 543.836 391.562 544.473 394.431C545.27 398.016 547.66 412.357 545.27 413.552C521.368 419.926 511.881 411.086 507.5 407.5C506 406.273 506 407 507.5 402.5Z" fill="#104D6B" stroke="#071118" stroke-width="3"/>
<path d="M532.522 388.252C518.181 387.933 514.33 380.683 514.197 377.098L520.571 379.886C525.219 380.816 536.107 382.754 542.481 383.073C544.871 385.065 540.489 388.65 532.522 388.252Z" fill="#104D6B" stroke="#071118" stroke-width="3"/>
<path d="M496.271 349.399C487.666 374.495 504.371 377.781 513.799 376.287C517.384 380.09 528.14 386.717 542.481 382.806C560.408 377.917 555.627 360.399 554.83 349.399C554.034 338.399 544.075 329.029 535.709 324.955C517.384 317.215 495.474 334.325 491.491 343.696C488.304 351.192 490.959 351.708 492.686 351.029C493.35 350.486 496.669 348.177 496.271 349.399Z" fill="#104D6B" stroke="#071118" stroke-width="4"/>
<path d="M532.336 366.478C533.161 374.37 539.328 379.236 542.309 380.683C557.784 378.315 554.689 355.825 552.969 349.117C551.594 343.751 547.582 340.305 545.748 339.253C545.862 340.305 544.922 343.435 540.245 347.539C534.055 351.879 531.304 356.614 532.336 366.478Z" fill="black" stroke="black"/>
<path d="M548.06 362.492C548.338 363.929 548.35 365.375 548.06 366.79C548.06 367.064 547.659 367.653 547.478 367.809C547.013 368.21 546.479 368.849 545.816 368.898C545.255 368.94 544.494 369.053 544.161 368.498C542.761 364.598 543.408 361.884 543.558 361.013C543.957 359.818 544.296 359.318 544.602 358.943C544.887 358.594 545.243 358.405 545.816 358.375C546.112 358.375 546.592 358.783 546.745 359.021C546.942 359.327 546.945 359.51 547.144 359.818C547.423 360.25 547.538 360.704 547.722 361.184C547.889 361.616 547.973 362.04 548.06 362.492Z" fill="#8BF2F2"/>
<path d="M547.872 364.16C547.961 364.702 547.965 365.247 547.872 365.781C547.872 365.884 547.744 366.107 547.687 366.165C547.538 366.317 547.368 366.558 547.156 366.576C546.977 366.592 546.734 366.634 546.628 366.425C546.182 364.954 546.388 363.931 546.436 363.602C546.563 363.151 546.671 362.963 546.769 362.821C546.86 362.69 546.973 362.619 547.156 362.607C547.251 362.607 547.404 362.761 547.453 362.851C547.516 362.966 547.516 363.035 547.58 363.151C547.669 363.314 547.706 363.486 547.764 363.666C547.818 363.829 547.845 363.989 547.872 364.16Z" fill="#BDFFFF"/>
<path d="M522.64 366.751C521.116 370.879 522.926 372.329 524.73 373.482L537.233 375.022C539.425 374.743 542.011 373.327 542.319 370.826C542.733 367.471 538.964 365.827 537.815 368.24C537.643 368.6 535.296 364.835 536.444 361.852C538.311 357.005 538.807 355.035 534.491 352.98C530.175 350.925 522.64 357.485 526.356 356.166C530.073 354.847 532.23 355.875 533.138 356.748C535.879 360.259 530.741 361.783 528.429 362.006C526.117 362.229 523.753 363.738 522.64 366.751Z" fill="#03B3E3"/>
<path d="M530.519 368.737C526.806 368.381 527.488 371.706 528.293 373.413C529.246 373.572 531.581 373.92 533.294 374.029C534.51 372.402 535.161 369.182 530.519 368.737Z" fill="#BDFFFF"/>
<ellipse cx="546.207" cy="359.882" rx="1.59345" ry="1.59345" transform="rotate(25.4602 546.207 359.882)" fill="#03B3E3"/>
<ellipse cx="534.983" cy="341.811" rx="0.796726" ry="0.796726" transform="rotate(25.4602 534.983 341.811)" fill="#03B3E3"/>
<path d="M549.978 355.751C549.789 356.148 549.314 356.317 548.916 356.128C548.519 355.939 548.35 355.463 548.54 355.066C548.729 354.669 549.204 354.5 549.601 354.689C549.999 354.878 550.167 355.354 549.978 355.751Z" fill="#03B3E3"/>
<path d="M525.594 405.222C525.257 405.13 526.61 389.342 527.214 382.165L533.37 382.569C531.532 390.122 527.798 405.274 527.567 405.455C527.279 405.683 526.015 405.337 525.594 405.222Z" fill="#354E4F" stroke="#213D3E" stroke-width="3"/>
<path d="M525.021 379.356C524.473 378.653 525.706 377.917 526.408 377.369C523.106 376.149 524.028 374.03 525.278 374.183C526.945 374.389 530.851 374.895 533.139 375.279C535.999 375.758 538.626 376.073 538.517 376.958C538.209 379.458 535.52 378.619 536.256 379.852C536.846 380.838 534.51 381.668 533.979 381.856C532.312 381.651 529.025 380.953 527.899 380.726C526.289 380.401 525.569 380.058 525.021 379.356Z" fill="#142839" stroke="#142839" stroke-width="3"/>
<path d="M517.062 397.892C513.362 393.056 515.733 386.753 517.381 384.205L522.15 387.041C522.146 387.849 522.858 389.991 525.731 392.099C529.322 394.733 532.577 399.331 530.537 401.811C528.496 404.292 521.687 403.936 517.062 397.892Z" fill="#104D6B" stroke="#071118" stroke-width="2"/>
<g style="mix-blend-mode:screen">
<circle cx="531.5" cy="370.5" r="32.5" fill="url(#paint13_radial_24_47)"/>
</g>
<path d="M700.235 394.871C699.138 391.419 694.288 389.77 692 389.377L697.192 402.617C698.663 401.473 701.332 398.323 700.235 394.871Z" fill="#104D6B" stroke="#071118" stroke-width="3"/>
<path d="M657.027 398.414C659.258 395.546 663.003 383.675 664.596 378.098L691.286 383.675C692.083 386.065 693.836 391.562 694.473 394.431C695.27 398.016 697.66 412.357 695.27 413.552C671.368 419.926 661.011 410.365 656.629 406.78C652.247 403.195 654.239 401.999 657.027 398.414Z" fill="#104D6B" stroke="#071118" stroke-width="3"/>
<path d="M682.522 388.252C668.181 387.933 664.33 380.683 664.197 377.098L670.571 379.886C675.219 380.816 686.107 382.754 692.481 383.073C694.871 385.065 690.489 388.65 682.522 388.252Z" fill="#104D6B" stroke="#071118" stroke-width="3"/>
<path d="M646.271 350.399C637.666 375.495 654.371 378.781 663.799 377.287C667.384 381.09 678.14 387.717 692.481 383.806C710.408 378.917 705.627 361.399 704.83 350.399C704.034 339.399 694.075 330.029 685.709 325.955C667.384 318.215 645.474 335.325 641.491 344.696C638.304 352.192 640.959 352.708 642.686 352.029C643.35 351.486 646.669 349.177 646.271 350.399Z" fill="#104D6B" stroke="#071118" stroke-width="4"/>
<path d="M682.336 367.478C683.161 375.37 689.328 380.236 692.309 381.683C707.784 379.315 704.689 356.825 702.969 350.117C701.594 344.751 697.582 341.305 695.748 340.253C695.862 341.305 694.922 344.435 690.245 348.539C684.055 352.879 681.304 357.614 682.336 367.478Z" fill="black" stroke="black"/>
<path d="M698.06 363.492C698.338 364.929 698.35 366.375 698.06 367.79C698.06 368.064 697.659 368.653 697.478 368.809C697.013 369.21 696.479 369.849 695.816 369.898C695.255 369.94 694.494 370.053 694.161 369.498C692.761 365.598 693.408 362.884 693.558 362.013C693.957 360.818 694.296 360.318 694.602 359.943C694.887 359.594 695.243 359.405 695.816 359.375C696.112 359.375 696.592 359.783 696.745 360.021C696.942 360.327 696.945 360.51 697.144 360.818C697.423 361.25 697.538 361.704 697.722 362.184C697.889 362.616 697.973 363.04 698.06 363.492Z" fill="#8BF2F2"/>
<path d="M697.872 365.16C697.961 365.702 697.965 366.247 697.872 366.781C697.872 366.884 697.744 367.107 697.687 367.165C697.538 367.317 697.368 367.558 697.156 367.576C696.977 367.592 696.734 367.634 696.628 367.425C696.182 365.954 696.388 364.931 696.436 364.602C696.563 364.151 696.671 363.963 696.769 363.821C696.86 363.69 696.973 363.619 697.156 363.607C697.251 363.607 697.404 363.761 697.453 363.851C697.516 363.966 697.516 364.035 697.58 364.151C697.669 364.314 697.706 364.486 697.764 364.666C697.818 364.829 697.845 364.989 697.872 365.16Z" fill="#BDFFFF"/>
<path d="M669.848 363.895C668.018 367.897 669.714 369.479 671.427 370.764L683.778 373.239C685.985 373.124 688.671 371.906 689.166 369.436C689.83 366.121 686.194 364.199 684.868 366.519C684.67 366.865 682.611 362.934 683.98 360.046C686.205 355.353 686.848 353.426 682.698 351.053C678.549 348.68 670.543 354.656 674.347 353.619C678.152 352.583 680.227 353.77 681.067 354.709C683.536 358.415 678.298 359.55 675.976 359.599C673.654 359.647 671.183 360.974 669.848 363.895Z" fill="#03B3E3"/>
<path d="M677.554 366.467C673.878 365.834 674.308 369.2 674.983 370.963C675.922 371.194 678.224 371.715 679.924 371.953C681.259 370.421 682.149 367.259 677.554 366.467Z" fill="#BDFFFF"/>
<ellipse cx="693.863" cy="358.814" rx="1.59345" ry="1.59345" transform="rotate(29.7632 693.863 358.814)" fill="#03B3E3"/>
<ellipse cx="684.027" cy="339.952" rx="0.796726" ry="0.796726" transform="rotate(29.7632 684.027 339.952)" fill="#03B3E3"/>
<path d="M697.933 354.978C697.715 355.36 697.228 355.493 696.846 355.274C696.464 355.056 696.332 354.569 696.55 354.187C696.768 353.805 697.255 353.673 697.637 353.891C698.019 354.109 698.152 354.596 697.933 354.978Z" fill="#03B3E3"/>
<path d="M669.906 402.48C669.577 402.363 672.111 386.721 673.251 379.609L679.36 380.474C676.96 387.868 672.1 402.697 671.856 402.861C671.551 403.065 670.317 402.626 669.906 402.48Z" fill="#354E4F" stroke="#213D3E" stroke-width="3"/>
<path d="M671.276 376.644C670.782 375.902 672.067 375.261 672.808 374.767C669.607 373.303 670.685 371.258 671.919 371.505C673.566 371.835 677.423 372.634 679.676 373.188C682.493 373.88 685.089 374.392 684.914 375.265C684.419 377.735 681.8 376.696 682.442 377.981C682.955 379.009 680.564 379.661 680.021 379.809C678.374 379.479 675.149 378.538 674.043 378.226C672.462 377.781 671.769 377.385 671.276 376.644Z" fill="#142839" stroke="#142839" stroke-width="3"/>
<g style="mix-blend-mode:screen">
<circle cx="677.501" cy="362.5" r="32.5" fill="url(#paint14_radial_24_47)"/>
</g>
<path d="M661.948 394.53C658.621 389.431 661.458 383.323 663.293 380.906L667.836 384.092C667.772 384.897 668.32 387.087 671.027 389.404C674.41 392.301 677.312 397.13 675.091 399.45C672.87 401.77 666.106 400.904 661.948 394.53Z" fill="#104D6B" stroke="#071118" stroke-width="2"/>
<g style="mix-blend-mode:screen">
<circle cx="32.5" cy="32.5" r="32.5" transform="matrix(-1 0 0 1 96 488)" fill="url(#paint15_radial_24_47)"/>
</g>
<path d="M91.8051 552.5C90.6563 549.053 86.3021 533.675 84.7087 528.098L58.0185 533.675C57.2218 536.065 55.469 541.562 54.8316 544.431C54.0349 548.016 51.6447 562.357 54.0349 563.552C77.9367 569.926 85.423 563.586 89.8044 560C91.304 558.773 93.3046 557 91.8051 552.5Z" fill="#104D6B" stroke="#071118" stroke-width="3"/>
<path d="M72.4792 545.952C73.754 542.766 71.948 540.375 70.8857 539.579L80.4465 534.4C82.4383 537.188 85.3065 542.447 85.6252 549.139C86.0236 557.505 77.2595 558.302 74.0726 555.912C70.8857 553.521 70.8857 549.936 72.4792 545.952Z" fill="#104D6B" stroke="#071118" stroke-width="2"/>
<path d="M66.478 538.252C80.8191 537.933 84.6699 530.683 84.8027 527.098L78.4289 529.886C73.7814 530.816 62.8928 532.754 56.519 533.073C54.1288 535.065 58.5108 538.65 66.478 538.252Z" fill="#104D6B" stroke="#071118" stroke-width="3"/>
<path d="M102.729 498.399C111.334 523.495 94.629 526.781 85.2011 525.287C81.6158 529.09 70.8599 535.717 56.5188 531.806C38.5925 526.917 43.3728 509.399 44.1695 498.399C44.9663 487.399 54.9253 478.029 63.291 473.955C81.6157 466.215 103.526 483.325 107.509 492.696C110.696 500.192 108.041 500.708 106.314 500.029C105.65 499.486 102.331 497.177 102.729 498.399Z" fill="#104D6B" stroke="#071118" stroke-width="4"/>
<path d="M66.6641 515.478C65.8387 523.37 59.6717 528.236 56.6914 529.683C41.2165 527.315 44.3114 504.825 46.0309 498.117C47.4064 492.751 51.4184 489.305 53.2525 488.253C53.1379 489.305 54.0778 492.435 58.7547 496.539C64.9446 500.879 67.6957 505.614 66.6641 515.478Z" fill="black" stroke="black"/>
<path d="M50.9395 511.492C50.6622 512.929 50.6501 514.375 50.9395 515.79C50.9395 516.064 51.3406 516.653 51.5217 516.809C51.9873 517.21 52.5213 517.849 53.1836 517.898C53.7454 517.94 54.5061 518.053 54.8392 517.498C56.2388 513.598 55.5918 510.884 55.4415 510.013C55.0432 508.818 54.7045 508.318 54.3977 507.943C54.1128 507.594 53.7574 507.405 53.1836 507.375C52.8884 507.375 52.4083 507.783 52.2547 508.021C52.0577 508.327 52.0554 508.51 51.8563 508.818C51.5772 509.25 51.462 509.704 51.2775 510.184C51.1112 510.616 51.0267 511.04 50.9395 511.492Z" fill="#8BF2F2"/>
<path d="M51.1277 513.16C51.0392 513.702 51.0354 514.247 51.1277 514.781C51.1277 514.884 51.2556 515.107 51.3134 515.165C51.4619 515.317 51.6323 515.558 51.8436 515.576C52.0228 515.592 52.2655 515.634 52.3718 515.425C52.8183 513.954 52.6119 512.931 52.5639 512.602C52.4369 512.151 52.3288 511.963 52.2309 511.821C52.1401 511.69 52.0266 511.619 51.8436 511.607C51.7494 511.607 51.5963 511.761 51.5472 511.851C51.4844 511.966 51.4837 512.035 51.4202 512.151C51.3311 512.314 51.2943 512.486 51.2355 512.666C51.1825 512.829 51.1555 512.989 51.1277 513.16Z" fill="#BDFFFF"/>
<g style="mix-blend-mode:screen">
<circle cx="32.5" cy="32.5" r="32.5" transform="matrix(-1 0 0 1 260 491)" fill="url(#paint16_radial_24_47)"/>
</g>
<path d="M241.499 553.402C240.455 549.922 235.497 534.577 233.903 529L207.213 534.577C206.417 536.967 204.664 542.465 204.026 545.333C203.405 548.127 200.699 554.506 199.061 558.841C198.393 560.609 199.198 562.545 201.014 563.067C211.48 566.074 233.126 564.527 237.499 561.902C239.998 560.402 243 558.402 241.499 553.402Z" fill="#104D6B" stroke="#071118" stroke-width="3"/>
<path d="M204.578 540.153C207.709 538.747 207.908 534.549 207.697 533.238L218.697 533.738C218.192 537.127 216.239 546.545 211.818 551.58C206.292 557.873 199.435 552.356 198.804 548.423C198.173 544.489 200.664 541.911 204.578 540.153Z" fill="#104D6B" stroke="#071118" stroke-width="2"/>
<path d="M216.478 534.252C230.819 533.933 234.67 526.683 234.803 523.098L228.429 525.886C223.781 526.816 212.893 528.754 206.519 529.073C204.129 531.065 208.511 534.65 216.478 534.252Z" fill="#104D6B" stroke="#071118" stroke-width="3"/>
<path d="M252.729 496.399C261.334 521.495 244.629 524.781 235.201 523.287C231.616 527.09 220.86 533.717 206.519 529.806C188.592 524.917 193.373 507.399 194.17 496.399C194.966 485.399 204.925 476.029 213.291 471.955C231.616 464.215 253.526 481.325 257.509 490.696C260.696 498.192 258.041 498.708 256.314 498.029C255.65 497.486 252.331 495.177 252.729 496.399Z" fill="#104D6B" stroke="#071118" stroke-width="4"/>
<path d="M216.664 513.478C215.839 521.37 209.672 526.236 206.691 527.683C191.216 525.315 194.311 502.825 196.031 496.117C197.406 490.751 201.418 487.305 203.252 486.253C203.138 487.305 204.078 490.435 208.755 494.539C214.945 498.879 217.696 503.614 216.664 513.478Z" fill="black" stroke="black"/>
<path d="M200.94 509.492C200.662 510.929 200.65 512.375 200.94 513.79C200.94 514.064 201.341 514.653 201.522 514.809C201.987 515.21 202.521 515.849 203.184 515.898C203.745 515.94 204.506 516.053 204.839 515.498C206.239 511.598 205.592 508.884 205.442 508.013C205.043 506.818 204.704 506.318 204.398 505.943C204.113 505.594 203.757 505.405 203.184 505.375C202.888 505.375 202.408 505.783 202.255 506.021C202.058 506.327 202.055 506.51 201.856 506.818C201.577 507.25 201.462 507.704 201.278 508.184C201.111 508.616 201.027 509.04 200.94 509.492Z" fill="#8BF2F2"/>
<path d="M201.128 511.16C201.039 511.702 201.035 512.247 201.128 512.781C201.128 512.884 201.256 513.107 201.313 513.165C201.462 513.317 201.632 513.558 201.844 513.576C202.023 513.592 202.266 513.634 202.372 513.425C202.818 511.954 202.612 510.931 202.564 510.602C202.437 510.151 202.329 509.963 202.231 509.821C202.14 509.69 202.027 509.619 201.844 509.607C201.749 509.607 201.596 509.761 201.547 509.851C201.484 509.966 201.484 510.035 201.42 510.151C201.331 510.314 201.294 510.486 201.236 510.666C201.182 510.829 201.155 510.989 201.128 511.16Z" fill="#BDFFFF"/>
<path d="M241.7 533.965C240.922 530.427 236.242 528.342 234 527.742L237.963 541.4C239.533 540.396 242.477 537.502 241.7 533.965Z" fill="#104D6B" stroke="#071118" stroke-width="3"/>
<path d="M390.7 535.965C389.922 532.427 385.242 530.342 383 529.742L386.963 543.4C388.533 542.396 391.477 539.502 390.7 535.965Z" fill="#104D6B" stroke="#071118" stroke-width="3"/>
<g style="mix-blend-mode:screen">
<circle cx="32.5" cy="32.5" r="32.5" transform="matrix(-1 0 0 1 402 489)" fill="url(#paint17_radial_24_47)"/>
</g>
<path d="M392.5 554.402C391.352 550.955 386.997 535.577 385.404 530L358.714 535.577C357.917 537.967 356.164 543.465 355.527 546.333C354.903 549.142 352.477 557.11 351.456 561.148C351.123 562.465 351.913 563.65 353.233 563.976C375.605 569.505 386.257 565.375 390.5 561.902C391.999 560.675 394 558.902 392.5 554.402Z" fill="#104D6B" stroke="#071118" stroke-width="3"/>
<path d="M367.326 543.598C370.114 541.595 369.875 538.609 369.407 537.366L380 535.5C380.181 538.922 380.028 547.534 376.701 553.35C372.541 560.619 364.722 556.582 363.319 552.853C361.915 549.125 363.842 546.101 367.326 543.598Z" fill="#104D6B" stroke="#071118" stroke-width="2"/>
<path d="M366.478 538.252C380.819 537.933 384.67 530.683 384.803 527.098L378.429 529.886C373.781 530.816 362.893 532.754 356.519 533.073C354.129 535.065 358.511 538.65 366.478 538.252Z" fill="#104D6B" stroke="#071118" stroke-width="3"/>
<path d="M402.729 499.399C411.334 524.495 394.629 527.781 385.201 526.287C381.616 530.09 370.86 536.717 356.519 532.806C338.592 527.917 343.373 510.399 344.17 499.399C344.966 488.399 354.925 479.029 363.291 474.955C381.616 467.215 403.526 484.325 407.509 493.696C410.696 501.192 408.041 501.708 406.314 501.029C405.65 500.486 402.331 498.177 402.729 499.399Z" fill="#104D6B" stroke="#071118" stroke-width="4"/>
<path d="M366.664 516.478C365.839 524.37 359.672 529.236 356.691 530.683C341.216 528.315 344.311 505.825 346.031 499.117C347.406 493.751 351.418 490.305 353.252 489.253C353.138 490.305 354.078 493.435 358.755 497.539C364.945 501.879 367.696 506.614 366.664 516.478Z" fill="black" stroke="black"/>
<path d="M350.94 512.492C350.662 513.929 350.65 515.375 350.94 516.79C350.94 517.064 351.341 517.653 351.522 517.809C351.987 518.21 352.521 518.849 353.184 518.898C353.745 518.94 354.506 519.053 354.839 518.498C356.239 514.598 355.592 511.884 355.442 511.013C355.043 509.818 354.704 509.318 354.398 508.943C354.113 508.594 353.757 508.405 353.184 508.375C352.888 508.375 352.408 508.783 352.255 509.021C352.058 509.327 352.055 509.51 351.856 509.818C351.577 510.25 351.462 510.704 351.278 511.184C351.111 511.616 351.027 512.04 350.94 512.492Z" fill="#8BF2F2"/>
<path d="M351.128 514.16C351.039 514.702 351.035 515.247 351.128 515.781C351.128 515.884 351.256 516.107 351.313 516.165C351.462 516.317 351.632 516.558 351.844 516.576C352.023 516.592 352.266 516.634 352.372 516.425C352.818 514.954 352.612 513.931 352.564 513.602C352.437 513.151 352.329 512.963 352.231 512.821C352.14 512.69 352.027 512.619 351.844 512.607C351.749 512.607 351.596 512.761 351.547 512.851C351.484 512.966 351.484 513.035 351.42 513.151C351.331 513.314 351.294 513.486 351.236 513.666C351.182 513.829 351.155 513.989 351.128 514.16Z" fill="#BDFFFF"/>
<path d="M500.034 547C500.434 543.4 504.868 540.833 507.034 540L504.534 554C502.868 553.167 499.634 550.6 500.034 547Z" fill="#104D6B" stroke="#071118" stroke-width="3"/>
<path d="M514.338 514.294C515.213 518.606 513.203 519.762 511.244 520.626L498.652 520.236C496.529 519.624 494.19 517.83 494.268 515.311C494.372 511.933 498.348 510.885 499.115 513.445C499.229 513.826 502.125 510.465 501.446 507.341C500.343 502.266 500.153 500.243 504.733 498.873C509.313 497.502 515.756 505.137 512.285 503.265C508.814 501.393 506.524 502.079 505.494 502.803C502.248 505.854 507.093 508.146 509.343 508.72C511.594 509.294 513.7 511.146 514.338 514.294Z" fill="#03B3E3"/>
<path d="M506.249 515.052C509.973 515.268 508.79 518.449 507.734 520.013C506.767 520.025 504.406 520.011 502.697 519.857C501.744 518.063 501.594 514.782 506.249 515.052Z" fill="#BDFFFF"/>
<ellipse cx="1.59345" cy="1.59345" rx="1.59345" ry="1.59345" transform="matrix(-0.95801 0.286734 0.286734 0.95801 493.17 501.918)" fill="#03B3E3"/>
<ellipse cx="0.796726" cy="0.796726" rx="0.796726" ry="0.796726" transform="matrix(-0.95801 0.286734 0.286734 0.95801 506.49 486.769)" fill="#03B3E3"/>
<path d="M489.004 499.243C489.131 499.664 489.575 499.904 489.996 499.777C490.418 499.651 490.657 499.207 490.531 498.786C490.405 498.364 489.961 498.125 489.539 498.251C489.118 498.377 488.878 498.821 489.004 499.243Z" fill="#03B3E3"/>
<path d="M505.535 551.861C505.882 551.821 506.96 536.012 507.461 528.827L501.315 528.285C501.976 536.03 503.349 551.575 503.55 551.79C503.8 552.058 505.101 551.91 505.535 551.861Z" fill="#354E4F" stroke="#213D3E" stroke-width="3"/>
<path d="M510.058 526.386C510.707 525.776 509.601 524.86 508.991 524.211C512.441 523.511 511.854 521.275 510.596 521.236C508.917 521.184 504.979 521.087 502.659 521.116C499.759 521.152 497.115 521.062 497.087 521.952C497.009 524.47 499.796 524.052 498.879 525.158C498.146 526.043 500.327 527.22 500.823 527.487C502.502 527.539 505.856 527.353 507.004 527.3C508.645 527.225 509.409 526.996 510.058 526.386Z" fill="#142839" stroke="#142839" stroke-width="3"/>
<g style="mix-blend-mode:screen">
<circle cx="32.5" cy="32.5" r="32.5" transform="matrix(-0.973973 -0.226663 -0.226663 0.973973 546.221 486.912)" fill="url(#paint18_radial_24_47)"/>
</g>
<path d="M541.805 552.5C540.656 549.053 536.302 533.675 534.709 528.098L508.018 533.675C507.222 536.065 505.469 541.562 504.832 544.431C504.035 548.016 501.645 562.357 504.035 563.552C527.937 569.926 537.424 561.086 541.805 557.5C543.305 556.273 543.304 557 541.805 552.5Z" fill="#104D6B" stroke="#071118" stroke-width="3"/>
<path d="M527.593 544.553C528.868 541.366 527.062 538.975 526 538.179L535.561 533C537.553 535.789 540.421 541.047 540.739 547.739C541.138 556.105 532.374 556.902 529.187 554.512C526 552.121 526 548.536 527.593 544.553Z" fill="#104D6B" stroke="#071118" stroke-width="2"/>
<path d="M516.478 538.252C530.819 537.933 534.67 530.683 534.803 527.098L528.429 529.886C523.781 530.816 512.893 532.754 506.519 533.073C504.129 535.065 508.511 538.65 516.478 538.252Z" fill="#104D6B" stroke="#071118" stroke-width="3"/>
<path d="M552.729 499.399C561.334 524.495 544.629 527.781 535.201 526.287C531.616 530.09 520.86 536.717 506.519 532.806C488.592 527.917 493.373 510.399 494.17 499.399C494.966 488.399 504.925 479.029 513.291 474.955C531.616 467.215 553.526 484.325 557.509 493.696C560.696 501.192 558.041 501.708 556.314 501.029C555.65 500.486 552.331 498.177 552.729 499.399Z" fill="#104D6B" stroke="#071118" stroke-width="4"/>
<path d="M516.664 516.478C515.839 524.37 509.672 529.236 506.691 530.683C491.216 528.315 494.311 505.825 496.031 499.117C497.406 493.751 501.418 490.305 503.252 489.253C503.138 490.305 504.078 493.435 508.755 497.539C514.945 501.879 517.696 506.614 516.664 516.478Z" fill="black" stroke="black"/>
<path d="M500.94 512.492C500.662 513.929 500.65 515.375 500.94 516.79C500.94 517.064 501.341 517.653 501.522 517.809C501.987 518.21 502.521 518.849 503.184 518.898C503.745 518.94 504.506 519.053 504.839 518.498C506.239 514.598 505.592 511.884 505.442 511.013C505.043 509.818 504.704 509.318 504.398 508.943C504.113 508.594 503.757 508.405 503.184 508.375C502.888 508.375 502.408 508.783 502.255 509.021C502.058 509.327 502.055 509.51 501.856 509.818C501.577 510.25 501.462 510.704 501.278 511.184C501.111 511.616 501.027 512.04 500.94 512.492Z" fill="#8BF2F2"/>
<path d="M501.128 514.16C501.039 514.702 501.035 515.247 501.128 515.781C501.128 515.884 501.256 516.107 501.313 516.165C501.462 516.317 501.632 516.558 501.844 516.576C502.023 516.592 502.266 516.634 502.372 516.425C502.818 514.954 502.612 513.931 502.564 513.602C502.437 513.151 502.329 512.963 502.231 512.821C502.14 512.69 502.027 512.619 501.844 512.607C501.749 512.607 501.596 512.761 501.547 512.851C501.484 512.966 501.484 513.035 501.42 513.151C501.331 513.314 501.294 513.486 501.236 513.666C501.182 513.829 501.155 513.989 501.128 514.16Z" fill="#BDFFFF"/>
<path d="M647.466 549.419C647.643 545.801 651.909 542.966 654.021 542L652.39 556.128C650.675 555.399 647.289 553.037 647.466 549.419Z" fill="#104D6B" stroke="#071118" stroke-width="3"/>
<path d="M655.163 512.906C656.993 516.908 655.297 518.49 653.584 519.775L641.232 522.249C639.025 522.135 636.34 520.917 635.845 518.446C635.181 515.132 638.817 513.21 640.143 515.53C640.341 515.876 642.4 511.945 641.03 509.057C638.805 504.363 638.163 502.437 642.312 500.064C646.462 497.691 654.468 503.667 650.663 502.63C646.858 501.594 644.784 502.781 643.944 503.72C641.475 507.426 646.712 508.561 649.035 508.609C651.357 508.658 653.828 509.985 655.163 512.906Z" fill="#03B3E3"/>
<path d="M647.457 515.478C651.133 514.844 650.702 518.211 650.028 519.974C649.089 520.205 646.786 520.726 645.087 520.964C643.752 519.432 642.862 516.27 647.457 515.478Z" fill="#BDFFFF"/>
<ellipse cx="1.59345" cy="1.59345" rx="1.59345" ry="1.59345" transform="matrix(-0.868084 0.496417 0.496417 0.868084 631.74 505.65)" fill="#03B3E3"/>
<ellipse cx="0.796726" cy="0.796726" rx="0.796726" ry="0.796726" transform="matrix(-0.868084 0.496417 0.496417 0.868084 641.28 487.876)" fill="#03B3E3"/>
<path d="M627.077 503.989C627.296 504.371 627.783 504.503 628.165 504.285C628.547 504.067 628.679 503.58 628.461 503.198C628.242 502.816 627.756 502.683 627.374 502.902C626.992 503.12 626.859 503.607 627.077 503.989Z" fill="#03B3E3"/>
<path d="M655.105 551.491C655.434 551.374 652.9 535.731 651.759 528.62L645.651 529.485C648.05 536.879 652.911 551.708 653.155 551.871C653.459 552.076 654.693 551.637 655.105 551.491Z" fill="#354E4F" stroke="#213D3E" stroke-width="3"/>
<path d="M653.735 525.655C654.229 524.913 652.944 524.271 652.203 523.777C655.404 522.314 654.325 520.269 653.091 520.516C651.444 520.846 647.587 521.644 645.334 522.198C642.518 522.891 639.922 523.402 640.097 524.276C640.592 526.746 643.211 525.707 642.569 526.992C642.055 528.02 644.446 528.672 644.99 528.82C646.637 528.49 649.862 527.548 650.968 527.237C652.549 526.792 653.241 526.396 653.735 525.655Z" fill="#142839" stroke="#142839" stroke-width="3"/>
<g style="mix-blend-mode:screen">
<circle cx="32.5" cy="32.5" r="32.5" transform="matrix(-1 0 0 1 680.01 479.011)" fill="url(#paint19_radial_24_47)"/>
</g>
<path d="M691.973 548.414C689.742 545.546 685.997 533.675 684.404 528.098L657.714 533.675C656.917 536.065 655.164 541.562 654.527 544.431C653.73 548.016 651.34 562.357 653.73 563.552C677.632 569.926 687.989 560.365 692.371 556.78C696.753 553.195 694.761 551.999 691.973 548.414Z" fill="#104D6B" stroke="#071118" stroke-width="3"/>
<path d="M682.721 544.306C682.389 540.889 678.309 537.22 676.999 537L684.493 530.384C687.543 531.947 692.505 535.301 695.862 541.099C700.057 548.348 692.638 553.08 688.71 552.421C684.781 551.761 683.134 548.576 682.721 544.306Z" fill="#104D6B" stroke="#071118" stroke-width="2"/>
<path d="M666.478 538.252C680.819 537.933 684.67 530.683 684.803 527.098L678.429 529.886C673.781 530.816 662.893 532.754 656.519 533.073C654.129 535.065 658.511 538.65 666.478 538.252Z" fill="#104D6B" stroke="#071118" stroke-width="3"/>
<path d="M702.729 500.399C711.334 525.495 694.629 528.781 685.201 527.287C681.616 531.09 670.86 537.717 656.519 533.806C638.592 528.917 643.373 511.399 644.17 500.399C644.966 489.399 654.925 480.029 663.291 475.955C681.616 468.215 703.526 485.325 707.509 494.696C710.696 502.192 708.041 502.708 706.314 502.029C705.65 501.486 702.331 499.177 702.729 500.399Z" fill="#104D6B" stroke="#071118" stroke-width="4"/>
<path d="M666.664 517.478C665.839 525.37 659.672 530.236 656.691 531.683C641.216 529.315 644.311 506.825 646.031 500.117C647.406 494.751 651.418 491.305 653.252 490.253C653.138 491.305 654.078 494.435 658.755 498.539C664.945 502.879 667.696 507.614 666.664 517.478Z" fill="black" stroke="black"/>
<path d="M650.94 513.492C650.662 514.929 650.65 516.375 650.94 517.79C650.94 518.064 651.341 518.653 651.522 518.809C651.987 519.21 652.521 519.849 653.184 519.898C653.745 519.94 654.506 520.053 654.839 519.498C656.239 515.598 655.592 512.884 655.442 512.013C655.043 510.818 654.704 510.318 654.398 509.943C654.113 509.594 653.757 509.405 653.184 509.375C652.888 509.375 652.408 509.783 652.255 510.021C652.058 510.327 652.055 510.51 651.856 510.818C651.577 511.25 651.462 511.704 651.278 512.184C651.111 512.616 651.027 513.04 650.94 513.492Z" fill="#8BF2F2"/>
<path d="M651.128 515.16C651.039 515.702 651.035 516.247 651.128 516.781C651.128 516.884 651.256 517.107 651.313 517.165C651.462 517.317 651.632 517.558 651.844 517.576C652.023 517.592 652.266 517.634 652.372 517.425C652.818 515.954 652.612 514.931 652.564 514.602C652.437 514.151 652.329 513.963 652.231 513.821C652.14 513.69 652.027 513.619 651.844 513.607C651.749 513.607 651.596 513.761 651.547 513.851C651.484 513.966 651.484 514.035 651.42 514.151C651.331 514.314 651.294 514.486 651.236 514.666C651.182 514.829 651.155 514.989 651.128 515.16Z" fill="#BDFFFF"/>
</g>
<defs>
<radialGradient id="paint0_radial_24_47" cx="0" cy="0" r="1" gradientUnits="userSpaceOnUse" gradientTransform="translate(32.5 66.5) rotate(90) scale(32.5)">
<stop stop-color="#03B3E3"/>
<stop offset="1" stop-color="#112739" stop-opacity="0"/>
</radialGradient>
<radialGradient id="paint1_radial_24_47" cx="0" cy="0" r="1" gradientUnits="userSpaceOnUse" gradientTransform="translate(192.5 72.5) rotate(90) scale(32.5)">
<stop stop-color="#03B3E3"/>
<stop offset="1" stop-color="#112739" stop-opacity="0"/>
</radialGradient>
<radialGradient id="paint2_radial_24_47" cx="0" cy="0" r="1" gradientUnits="userSpaceOnUse" gradientTransform="translate(334.5 68.5) rotate(90) scale(32.5)">
<stop stop-color="#03B3E3"/>
<stop offset="1" stop-color="#112739" stop-opacity="0"/>
</radialGradient>
<radialGradient id="paint3_radial_24_47" cx="0" cy="0" r="1" gradientUnits="userSpaceOnUse" gradientTransform="translate(484.5 64.5) rotate(90) scale(32.5)">
<stop stop-color="#03B3E3"/>
<stop offset="1" stop-color="#112739" stop-opacity="0"/>
</radialGradient>
<radialGradient id="paint4_radial_24_47" cx="0" cy="0" r="1" gradientUnits="userSpaceOnUse" gradientTransform="translate(637.5 62.5) rotate(90) scale(32.5)">
<stop stop-color="#03B3E3"/>
<stop offset="1" stop-color="#112739" stop-opacity="0"/>
</radialGradient>
<radialGradient id="paint5_radial_24_47" cx="0" cy="0" r="1" gradientUnits="userSpaceOnUse" gradientTransform="translate(113.5 211.5) rotate(90) scale(32.5)">
<stop stop-color="#03B3E3"/>
<stop offset="1" stop-color="#112739" stop-opacity="0"/>
</radialGradient>
<radialGradient id="paint6_radial_24_47" cx="0" cy="0" r="1" gradientUnits="userSpaceOnUse" gradientTransform="translate(257.168 219.803) rotate(90) scale(32.5)">
<stop stop-color="#03B3E3"/>
<stop offset="1" stop-color="#112739" stop-opacity="0"/>
</radialGradient>
<radialGradient id="paint7_radial_24_47" cx="0" cy="0" r="1" gradientUnits="userSpaceOnUse" gradientTransform="translate(414.217 214.553) rotate(90) scale(32.5)">
<stop stop-color="#03B3E3"/>
<stop offset="1" stop-color="#112739" stop-opacity="0"/>
</radialGradient>
<radialGradient id="paint8_radial_24_47" cx="0" cy="0" r="1" gradientUnits="userSpaceOnUse" gradientTransform="translate(548.5 208.5) rotate(90) scale(32.5)">
<stop stop-color="#03B3E3"/>
<stop offset="1" stop-color="#112739" stop-opacity="0"/>
</radialGradient>
<radialGradient id="paint9_radial_24_47" cx="0" cy="0" r="1" gradientUnits="userSpaceOnUse" gradientTransform="translate(705.5 209.5) rotate(90) scale(32.5)">
<stop stop-color="#03B3E3"/>
<stop offset="1" stop-color="#112739" stop-opacity="0"/>
</radialGradient>
<radialGradient id="paint10_radial_24_47" cx="0" cy="0" r="1" gradientUnits="userSpaceOnUse" gradientTransform="translate(79.5 366.5) rotate(90) scale(32.5)">
<stop stop-color="#03B3E3"/>
<stop offset="1" stop-color="#112739" stop-opacity="0"/>
</radialGradient>
<radialGradient id="paint11_radial_24_47" cx="0" cy="0" r="1" gradientUnits="userSpaceOnUse" gradientTransform="translate(244.5 366.5) rotate(90) scale(32.5)">
<stop stop-color="#03B3E3"/>
<stop offset="1" stop-color="#112739" stop-opacity="0"/>
</radialGradient>
<radialGradient id="paint12_radial_24_47" cx="0" cy="0" r="1" gradientUnits="userSpaceOnUse" gradientTransform="translate(385.5 371.5) rotate(90) scale(32.5)">
<stop stop-color="#03B3E3"/>
<stop offset="1" stop-color="#112739" stop-opacity="0"/>
</radialGradient>
<radialGradient id="paint13_radial_24_47" cx="0" cy="0" r="1" gradientUnits="userSpaceOnUse" gradientTransform="translate(531.5 370.5) rotate(90) scale(32.5)">
<stop stop-color="#03B3E3"/>
<stop offset="1" stop-color="#112739" stop-opacity="0"/>
</radialGradient>
<radialGradient id="paint14_radial_24_47" cx="0" cy="0" r="1" gradientUnits="userSpaceOnUse" gradientTransform="translate(677.501 362.5) rotate(90) scale(32.5)">
<stop stop-color="#03B3E3"/>
<stop offset="1" stop-color="#112739" stop-opacity="0"/>
</radialGradient>
<radialGradient id="paint15_radial_24_47" cx="0" cy="0" r="1" gradientUnits="userSpaceOnUse" gradientTransform="translate(32.5 32.5) rotate(90) scale(32.5)">
<stop stop-color="#03B3E3"/>
<stop offset="1" stop-color="#112739" stop-opacity="0"/>
</radialGradient>
<radialGradient id="paint16_radial_24_47" cx="0" cy="0" r="1" gradientUnits="userSpaceOnUse" gradientTransform="translate(32.5 32.5) rotate(90) scale(32.5)">
<stop stop-color="#03B3E3"/>
<stop offset="1" stop-color="#112739" stop-opacity="0"/>
</radialGradient>
<radialGradient id="paint17_radial_24_47" cx="0" cy="0" r="1" gradientUnits="userSpaceOnUse" gradientTransform="translate(32.5 32.5) rotate(90) scale(32.5)">
<stop stop-color="#03B3E3"/>
<stop offset="1" stop-color="#112739" stop-opacity="0"/>
</radialGradient>
<radialGradient id="paint18_radial_24_47" cx="0" cy="0" r="1" gradientUnits="userSpaceOnUse" gradientTransform="translate(32.5 32.5) rotate(90) scale(32.5)">
<stop stop-color="#03B3E3"/>
<stop offset="1" stop-color="#112739" stop-opacity="0"/>
</radialGradient>
<radialGradient id="paint19_radial_24_47" cx="0" cy="0" r="1" gradientUnits="userSpaceOnUse" gradientTransform="translate(32.5 32.5) rotate(90) scale(32.5)">
<stop stop-color="#03B3E3"/>
<stop offset="1" stop-color="#112739" stop-opacity="0"/>
</radialGradient>
<clipPath id="clip0_24_47">
<rect width="750" height="600" fill="white"/>
</clipPath>
<clipPath id="clip1_24_47">
<rect width="750" height="150" fill="white"/>
</clipPath>
</defs>
</svg>
