<svg width="2200" height="100" viewBox="0 0 2200 100" fill="none" xmlns="http://www.w3.org/2000/svg">
<rect width="100" height="100" fill="#09141D"/>
<rect width="100" height="100" transform="translate(100)" fill="#09141D"/>
<path d="M107.387 13.0189C108.428 10.7686 110.555 10.3119 113.039 10.0529C117.159 9.62322 120.485 11.8397 122.015 15.6554C122.975 18.0472 123.64 20.2383 122.015 22.2465C120.498 24.1224 118.445 24.1294 116.031 23.8943C112.949 23.5942 111.178 22.1112 109.382 19.6101C107.81 17.4207 106.257 15.4617 107.387 13.0189Z" fill="#0E1E2B"/>
<path d="M149.582 77.5803C151.147 74.1661 154.346 73.4733 158.082 73.0803C164.278 72.4284 169.28 75.7911 171.582 81.5803C173.025 85.2091 174.025 88.5334 171.582 91.5803C169.3 94.4262 166.212 94.4369 162.582 94.0803C157.946 93.6249 155.283 91.375 152.582 87.5803C150.217 84.2585 147.882 81.2865 149.582 77.5803Z" fill="#0E1E2B"/>
<path d="M149.059 11.5275C149.474 9.18026 151.684 8.22424 154.059 8.02747C156.763 7.80352 159.222 8.9471 160.059 11.5275C160.674 13.4216 160.467 15.1194 159.059 16.5275C157.264 18.3224 154.791 17.7365 152.559 16.5275C150.464 15.3923 148.645 13.8747 149.059 11.5275Z" fill="#0E1E2B"/>
<path d="M177.059 66.5275C177.474 64.1803 179.684 63.2242 182.059 63.0275C184.763 62.8035 187.222 63.9471 188.059 66.5275C188.674 68.4216 188.467 70.1194 187.059 71.5275C185.264 73.3224 182.791 72.7365 180.559 71.5275C178.464 70.3923 176.645 68.8747 177.059 66.5275Z" fill="#0E1E2B"/>
<path d="M107.059 79.5275C107.474 77.1803 109.684 76.2242 112.059 76.0275C114.763 75.8035 117.222 76.9471 118.059 79.5275C118.674 81.4216 118.467 83.1194 117.059 84.5275C115.264 86.3224 112.791 85.7365 110.559 84.5275C108.464 83.3923 106.645 81.8747 107.059 79.5275Z" fill="#0E1E2B"/>
<path d="M180.5 17.4998C180.82 15.5934 182.227 14.7699 184 13.9998C186.533 12.8997 189.426 12.7308 191 14.9998C192.224 16.7646 191.865 18.5338 191 20.4998C190.222 22.2691 189.374 23.5251 187.5 23.9998C185.213 24.5792 183.485 23.3336 182 21.4998C180.951 20.2031 180.225 19.1452 180.5 17.4998Z" fill="#0E1E2B"/>
<path d="M156.059 43.283C156.378 41.3766 157.786 40.5531 159.559 39.783C162.092 38.6829 164.985 38.514 166.559 40.783C167.783 42.5478 167.424 44.317 166.559 46.283C165.78 48.0523 164.933 49.3083 163.059 49.783C160.772 50.3624 159.043 49.1168 157.559 47.283C156.509 45.9863 155.783 44.9284 156.059 43.283Z" fill="#0E1E2B"/>
<path d="M125.059 49.283C125.378 47.3766 126.786 46.5531 128.559 45.783C131.092 44.6829 133.985 44.514 135.559 46.783C136.783 48.5478 136.424 50.317 135.559 52.283C134.78 54.0523 133.933 55.3083 132.059 55.783C129.772 56.3624 128.043 55.1168 126.559 53.283C125.509 51.9863 124.783 50.9284 125.059 49.283Z" fill="#0E1E2B"/>
<path opacity="0.5" d="M131.031 35.3519C131.2 34.3051 131.944 33.8528 132.882 33.43C134.221 32.8259 135.751 32.7331 136.583 33.9791C137.23 34.9482 137.04 35.9197 136.583 36.9993C136.171 37.9709 135.723 38.6606 134.732 38.9213C133.523 39.2394 132.609 38.5554 131.824 37.5484C131.269 36.8364 130.885 36.2555 131.031 35.3519Z" fill="#0E1E2B"/>
<path opacity="0.5" d="M131.031 13.3519C131.2 12.3051 131.944 11.8528 132.882 11.43C134.221 10.8259 135.751 10.7331 136.583 11.9791C137.23 12.9482 137.04 13.9197 136.583 14.9993C136.171 15.9709 135.723 16.6606 134.732 16.9213C133.523 17.2394 132.609 16.5554 131.824 15.5484C131.269 14.8364 130.885 14.2555 131.031 13.3519Z" fill="#0E1E2B"/>
<path opacity="0.5" d="M143.031 52.3519C143.2 51.3051 143.944 50.8528 144.882 50.43C146.221 49.8259 147.751 49.7331 148.583 50.9791C149.23 51.9482 149.04 52.9197 148.583 53.9993C148.171 54.9709 147.723 55.6606 146.732 55.9213C145.523 56.2394 144.609 55.5554 143.824 54.5484C143.269 53.8364 142.885 53.2555 143.031 52.3519Z" fill="#0E1E2B"/>
<path opacity="0.5" d="M186.031 92.7439C186.2 91.5226 186.944 90.995 187.882 90.5016C189.221 89.7968 190.751 89.6887 191.583 91.1423C192.23 92.2729 192.04 93.4064 191.583 94.6659C191.171 95.7994 190.723 96.604 189.732 96.9082C188.523 97.2794 187.609 96.4814 186.824 95.3065C186.269 94.4758 185.885 93.798 186.031 92.7439Z" fill="#0E1E2B"/>
<path opacity="0.5" d="M122.031 3.74391C122.2 2.52256 122.944 1.99498 123.882 1.50163C125.221 0.796833 126.751 0.68867 127.583 2.14228C128.23 3.27292 128.04 4.40635 127.583 5.66587C127.171 6.79938 126.723 7.60404 125.732 7.90816C124.523 8.27935 123.609 7.48136 122.824 6.30653C122.269 5.47579 121.885 4.79803 122.031 3.74391Z" fill="#0E1E2B"/>
<path opacity="0.5" d="M100.031 37.7439C100.2 36.5226 100.944 35.995 101.882 35.5016C103.221 34.7968 104.751 34.6887 105.583 36.1423C106.23 37.2729 106.04 38.4064 105.583 39.6659C105.171 40.7994 104.723 41.604 103.732 41.9082C102.523 42.2794 101.609 41.4814 100.824 40.3065C100.269 39.4758 99.8853 38.798 100.031 37.7439Z" fill="#0E1E2B"/>
<path opacity="0.5" d="M183.499 43.4775C184.731 43.5416 185.32 44.2381 185.891 45.13C186.708 46.4041 186.946 47.9191 185.569 48.8722C184.497 49.6137 183.352 49.5211 182.058 49.1729C180.893 48.8595 180.054 48.4816 179.666 47.5205C179.193 46.3473 179.91 45.3687 181.014 44.4864C181.794 43.8625 182.437 43.4222 183.499 43.4775Z" fill="#0E1E2B"/>
<path opacity="0.5" d="M132.243 90.2651C133.475 90.3292 134.064 91.0257 134.635 91.9176C135.452 93.1917 135.69 94.7066 134.313 95.6598C133.242 96.4013 132.096 96.3087 130.802 95.9605C129.638 95.6471 128.798 95.2692 128.41 94.308C127.937 93.1349 128.654 92.1563 129.758 91.274C130.538 90.6501 131.181 90.2098 132.243 90.2651Z" fill="#0E1E2B"/>
<path opacity="0.5" d="M125.031 70.3519C125.2 69.3051 125.944 68.8528 126.882 68.43C128.221 67.8259 129.751 67.7331 130.583 68.9791C131.23 69.9482 131.04 70.9197 130.583 71.9993C130.171 72.9709 129.723 73.6606 128.732 73.9213C127.523 74.2394 126.609 73.5554 125.824 72.5484C125.269 71.8364 124.885 71.2555 125.031 70.3519Z" fill="#0E1E2B"/>
<path opacity="0.5" d="M167.031 14.3519C167.2 13.3051 167.944 12.8528 168.882 12.43C170.221 11.8259 171.751 11.7331 172.583 12.9791C173.23 13.9482 173.04 14.9197 172.583 15.9993C172.171 16.9709 171.723 17.6606 170.732 17.9213C169.523 18.2394 168.609 17.5554 167.824 16.5484C167.269 15.8364 166.885 15.2555 167.031 14.3519Z" fill="#0E1E2B"/>
<path opacity="0.25" d="M153.031 29.3519C153.2 28.3051 153.944 27.8528 154.882 27.43C156.221 26.8259 157.751 26.7331 158.583 27.9791C159.23 28.9482 159.04 29.9197 158.583 30.9993C158.171 31.9709 157.723 32.6606 156.732 32.9213C155.523 33.2394 154.609 32.5554 153.824 31.5484C153.269 30.8364 152.885 30.2555 153.031 29.3519Z" fill="#0E1E2B"/>
<path opacity="0.25" d="M136.031 78.3519C136.2 77.3051 136.944 76.8528 137.882 76.43C139.221 75.8259 140.751 75.7331 141.583 76.9791C142.23 77.9482 142.04 78.9197 141.583 79.9993C141.171 80.9709 140.723 81.6606 139.732 81.9213C138.523 82.2394 137.609 81.5554 136.824 80.5484C136.269 79.8364 135.885 79.2555 136.031 78.3519Z" fill="#0E1E2B"/>
<path opacity="0.5" d="M114.031 39.3519C114.2 38.3051 114.944 37.8528 115.882 37.43C117.221 36.8259 118.751 36.7331 119.583 37.9791C120.23 38.9482 120.04 39.9197 119.583 40.9993C119.171 41.9709 118.723 42.6606 117.732 42.9213C116.523 43.2394 115.609 42.5554 114.824 41.5484C114.269 40.8364 113.885 40.2555 114.031 39.3519Z" fill="#0E1E2B"/>
<path opacity="0.5" d="M155.031 65.3519C155.2 64.3051 155.944 63.8528 156.882 63.43C158.221 62.8259 159.751 62.7331 160.583 63.9791C161.23 64.9482 161.04 65.9197 160.583 66.9993C160.171 67.9709 159.723 68.6606 158.732 68.9213C157.523 69.2394 156.609 68.5554 155.824 67.5484C155.269 66.8364 154.885 66.2555 155.031 65.3519Z" fill="#0E1E2B"/>
<path opacity="0.25" d="M110.026 55.9599C110.167 55.0875 110.787 54.7107 111.568 54.3583C112.684 53.8549 113.959 53.7776 114.652 54.8159C115.192 55.6235 115.033 56.4331 114.652 57.3328C114.309 58.1424 113.936 58.7172 113.11 58.9344C112.102 59.1995 111.341 58.6295 110.687 57.7904C110.224 57.197 109.904 56.7129 110.026 55.9599Z" fill="#0E1E2B"/>
<path opacity="0.25" d="M194.026 33.9599C194.167 33.0875 194.787 32.7107 195.568 32.3583C196.684 31.8549 197.959 31.7776 198.652 32.8159C199.192 33.6235 199.033 34.4331 198.652 35.3328C198.309 36.1424 197.936 36.7172 197.11 36.9344C196.102 37.1995 195.341 36.6295 194.687 35.7904C194.224 35.197 193.904 34.7129 194.026 33.9599Z" fill="#0E1E2B"/>
<path opacity="0.25" d="M183.026 82.9599C183.167 82.0875 183.787 81.7107 184.568 81.3583C185.684 80.8549 186.959 80.7776 187.652 81.8159C188.192 82.6235 188.033 83.4331 187.652 84.3328C187.309 85.1424 186.936 85.7172 186.11 85.9344C185.102 86.1995 184.341 85.6295 183.687 84.7904C183.224 84.197 182.904 83.7129 183.026 82.9599Z" fill="#0E1E2B"/>
<g clip-path="url(#clip0_37_11237)">
<rect width="100" height="100" transform="translate(200)" fill="#09141D"/>
<path d="M268.582 42.5803C270.147 39.1661 273.346 38.4733 277.082 38.0803C283.278 37.4284 288.28 40.7911 290.582 46.5803C292.025 50.2091 293.025 53.5334 290.582 56.5803C288.3 59.4262 285.212 59.4369 281.582 59.0803C276.946 58.6249 274.283 56.375 271.582 52.5803C269.217 49.2585 266.882 46.2865 268.582 42.5803Z" fill="#0E1E2B"/>
<path d="M211.435 52.4502C212.606 49.8784 214.999 49.3565 217.794 49.0605C222.429 48.5694 226.17 51.1025 227.892 55.4633C228.972 58.1968 229.72 60.7009 227.892 62.996C226.185 65.1398 223.876 65.1479 221.16 64.8792C217.692 64.5362 215.7 62.8414 213.679 59.9829C211.911 57.4808 210.164 55.242 211.435 52.4502Z" fill="#0E1E2B"/>
<path d="M250.078 62.7449C250.624 59.5876 253.536 58.3016 256.665 58.0369C260.226 57.7357 263.467 59.274 264.569 62.7449C265.378 65.2928 265.107 67.5766 263.252 69.4706C260.887 71.885 257.629 71.0969 254.689 69.4706C251.928 67.9436 249.532 65.9022 250.078 62.7449Z" fill="#0E1E2B"/>
<path d="M279.059 89.5275C279.474 87.1803 281.684 86.2242 284.059 86.0275C286.763 85.8035 289.222 86.9471 290.059 89.5275C290.674 91.4216 290.467 93.1194 289.059 94.5275C287.264 96.3224 284.791 95.7365 282.559 94.5275C280.464 93.3923 278.645 91.8747 279.059 89.5275Z" fill="#0E1E2B"/>
<path d="M220.059 84.5275C220.474 82.1803 222.684 81.2242 225.059 81.0275C227.763 80.8035 230.222 81.9471 231.059 84.5275C231.674 86.4216 231.467 88.1194 230.059 89.5275C228.264 91.3224 225.791 90.7365 223.559 89.5275C221.464 88.3923 219.645 86.8747 220.059 84.5275Z" fill="#0E1E2B"/>
<path d="M288.059 17.283C288.378 15.3766 289.786 14.5531 291.559 13.783C294.092 12.6829 296.985 12.514 298.559 14.783C299.783 16.5478 299.424 18.317 298.559 20.283C297.78 22.0523 296.933 23.3083 295.059 23.783C292.772 24.3624 291.043 23.1168 289.559 21.283C288.509 19.9863 287.783 18.9284 288.059 17.283Z" fill="#0E1E2B"/>
<path d="M234.083 29.8798C234.533 27.2626 236.518 26.1321 239.018 25.0749C242.589 23.5646 246.668 23.3329 248.887 26.4477C250.613 28.8705 250.107 31.2993 248.887 33.9983C247.79 36.4272 246.594 38.1515 243.953 38.8032C240.728 39.5986 238.291 37.8886 236.198 35.3711C234.718 33.591 233.694 32.1386 234.083 29.8798Z" fill="#0E1E2B"/>
<path d="M214.059 6.28299C214.378 4.37657 215.786 3.55307 217.559 2.78299C220.092 1.68288 222.985 1.51404 224.559 3.78299C225.783 5.54782 225.424 7.317 224.559 9.28299C223.78 11.0523 222.933 12.3083 221.059 12.783C218.772 13.3624 217.043 12.1168 215.559 10.283C214.509 8.9863 213.783 7.92837 214.059 6.28299Z" fill="#0E1E2B"/>
<path opacity="0.25" d="M231.026 70.9599C231.167 70.0875 231.787 69.7107 232.568 69.3583C233.684 68.8549 234.959 68.7776 235.652 69.8159C236.192 70.6235 236.033 71.4331 235.652 72.3328C235.309 73.1424 234.936 73.7172 234.11 73.9344C233.102 74.1995 232.341 73.6295 231.687 72.7904C231.224 72.197 230.904 71.7129 231.026 70.9599Z" fill="#0E1E2B"/>
<path opacity="0.25" d="M211.057 74.7439C211.367 73.5226 212.731 72.995 214.45 72.5016C216.905 71.7968 219.709 71.6887 221.235 73.1423C222.422 74.2729 222.074 75.4064 221.235 76.6659C220.48 77.7994 219.659 78.604 217.842 78.9082C215.625 79.2794 213.95 78.4814 212.511 77.3065C211.494 76.4758 210.79 75.798 211.057 74.7439Z" fill="#0E1E2B"/>
<path opacity="0.25" d="M263.057 27.7439C263.367 26.5226 264.731 25.995 266.45 25.5016C268.905 24.7968 271.709 24.6887 273.235 26.1423C274.422 27.2729 274.074 28.4064 273.235 29.6659C272.48 30.7994 271.659 31.604 269.842 31.9082C267.625 32.2794 265.95 31.4814 264.511 30.3065C263.494 29.4758 262.79 28.798 263.057 27.7439Z" fill="#0E1E2B"/>
<path opacity="0.25" d="M220.271 35.2976C220.647 34.498 221.347 34.3071 222.195 34.1841C223.407 34.0084 224.653 34.2861 225.033 35.4755C225.329 36.4007 224.953 37.1351 224.338 37.8945C223.785 38.578 223.267 39.0273 222.414 39.0081C221.372 38.9847 220.798 38.2265 220.401 37.2394C220.12 36.5414 219.946 35.9878 220.271 35.2976Z" fill="#0E1E2B"/>
<path opacity="0.5" d="M209.865 22.8909C210.241 22.0913 210.941 21.9003 211.789 21.7773C213.001 21.6016 214.247 21.8794 214.627 23.0688C214.922 23.994 214.547 24.7284 213.932 25.4878C213.379 26.1713 212.861 26.6205 212.008 26.6013C210.966 26.5779 210.391 25.8198 209.994 24.8327C209.714 24.1346 209.54 23.581 209.865 22.8909Z" fill="#0E1E2B"/>
<path opacity="0.5" d="M235.865 49.8909C236.241 49.0913 236.941 48.9003 237.789 48.7773C239.001 48.6016 240.247 48.8794 240.627 50.0688C240.922 50.994 240.547 51.7284 239.932 52.4878C239.379 53.1713 238.861 53.6205 238.008 53.6013C236.966 53.5779 236.391 52.8198 235.994 51.8327C235.714 51.1346 235.54 50.581 235.865 49.8909Z" fill="#0E1E2B"/>
<path opacity="0.5" d="M239.865 10.8909C240.241 10.0913 240.941 9.90034 241.789 9.77735C243.001 9.60165 244.247 9.87939 244.627 11.0688C244.922 11.994 244.547 12.7284 243.932 13.4878C243.379 14.1713 242.861 14.6205 242.008 14.6013C240.966 14.5779 240.391 13.8198 239.994 12.8327C239.714 12.1346 239.54 11.581 239.865 10.8909Z" fill="#0E1E2B"/>
<path opacity="0.25" d="M265.295 10.206C265.672 9.4064 266.372 9.21546 267.22 9.09247C268.431 8.91676 269.678 9.1945 270.058 10.3839C270.353 11.3091 269.978 12.0435 269.363 12.8029C268.81 13.4864 267.516 13.0663 267.438 13.9165C267.22 16.3149 263.828 13.7903 263.431 12.8031C263.151 12.1051 264.971 10.8961 265.295 10.206Z" fill="#0E1E2B"/>
<path opacity="0.5" d="M260.142 47.9523C259.261 48.0208 258.749 47.5067 258.222 46.8304C257.471 45.8642 257.096 44.6434 257.942 43.725C258.6 43.0107 259.424 42.9741 260.388 43.1328C261.255 43.2757 261.53 44.6079 262.307 44.2548C264.5 43.2587 263.983 47.4551 263.321 48.2883C262.853 48.8774 260.902 47.8932 260.142 47.9523Z" fill="#0E1E2B"/>
<path opacity="0.5" d="M288.076 34.8346C287.195 34.9031 286.682 34.389 286.156 33.7127C285.404 32.7465 285.029 31.5257 285.875 30.6074C286.533 29.8931 287.357 29.8564 288.321 30.0151C289.189 30.158 289.464 31.4902 290.241 31.1371C292.434 30.141 291.916 34.3374 291.255 35.1706C290.787 35.7598 288.836 34.7755 288.076 34.8346Z" fill="#0E1E2B"/>
<path opacity="0.5" d="M296.076 5.83464C295.195 5.90311 294.682 5.38901 294.156 4.71268C293.404 3.74649 293.029 2.52569 293.875 1.60736C294.533 0.893064 295.357 0.856394 296.321 1.01514C297.189 1.15801 297.464 2.49019 298.241 2.1371C300.434 1.14099 299.916 5.33744 299.255 6.17061C298.787 6.75975 296.836 5.77554 296.076 5.83464Z" fill="#0E1E2B"/>
<path opacity="0.5" d="M252.076 88.8346C251.195 88.9031 250.682 88.389 250.156 87.7127C249.404 86.7465 249.029 85.5257 249.875 84.6074C250.533 83.8931 251.357 83.8564 252.321 84.0151C253.189 84.158 253.464 85.4902 254.241 85.1371C256.434 84.141 255.916 88.3374 255.255 89.1706C254.787 89.7598 252.836 88.7755 252.076 88.8346Z" fill="#0E1E2B"/>
<path opacity="0.5" d="M282.732 72.8888C283.29 72.2037 284.016 72.1873 284.868 72.2727C286.087 72.3946 287.229 72.965 287.311 74.211C287.374 75.1801 286.832 75.8021 286.052 76.3907C285.351 76.9204 284.197 76.2005 283.916 77.0068C283.125 79.2816 280.443 76.013 280.296 74.9592C280.192 74.2141 282.25 73.4802 282.732 72.8888Z" fill="#0E1E2B"/>
</g>
<rect width="100" height="100" transform="translate(300)" fill="#09141D"/>
<path d="M348.582 69.5803C350.147 66.1661 353.346 65.4733 357.082 65.0803C363.278 64.4284 368.28 67.7911 370.582 73.5803C372.025 77.2091 373.025 80.5334 370.582 83.5803C368.3 86.4262 365.212 86.4369 361.582 86.0803C356.946 85.6249 354.283 83.375 351.582 79.5803C349.217 76.2585 346.882 73.2865 348.582 69.5803Z" fill="#0E1E2B"/>
<path d="M350.059 24.5275C350.474 22.1803 352.684 21.2242 355.059 21.0275C357.763 20.8035 360.222 21.9471 361.059 24.5275C361.674 26.4216 361.467 28.1194 360.059 29.5275C358.264 31.3224 355.791 30.7365 353.559 29.5275C351.464 28.3923 349.645 26.8747 350.059 24.5275Z" fill="#0E1E2B"/>
<path d="M377.059 66.5275C377.474 64.1803 379.684 63.2242 382.059 63.0275C384.763 62.8035 387.222 63.9471 388.059 66.5275C388.674 68.4216 388.467 70.1194 387.059 71.5275C385.264 73.3224 382.791 72.7365 380.559 71.5275C378.464 70.3923 376.645 68.8747 377.059 66.5275Z" fill="#0E1E2B"/>
<path d="M320.059 84.5275C320.474 82.1803 322.684 81.2242 325.059 81.0275C327.763 80.8035 330.222 81.9471 331.059 84.5275C331.674 86.4216 331.467 88.1194 330.059 89.5275C328.264 91.3224 325.791 90.7365 323.559 89.5275C321.464 88.3923 319.645 86.8747 320.059 84.5275Z" fill="#0E1E2B"/>
<path d="M380.5 17.4998C380.82 15.5934 382.227 14.7699 384 13.9998C386.533 12.8997 389.426 12.7308 391 14.9998C392.224 16.7646 391.865 18.5338 391 20.4998C390.222 22.2691 389.374 23.5251 387.5 23.9998C385.213 24.5792 383.485 23.3336 382 21.4998C380.951 20.2031 380.225 19.1452 380.5 17.4998Z" fill="#0E1E2B"/>
<path d="M372.059 43.283C372.378 41.3766 373.786 40.5531 375.559 39.783C378.092 38.6829 380.985 38.514 382.559 40.783C383.783 42.5478 383.424 44.317 382.559 46.283C381.78 48.0523 380.933 49.3083 379.059 49.783C376.772 50.3624 375.043 49.1168 373.559 47.283C372.509 45.9863 371.783 44.9284 372.059 43.283Z" fill="#0E1E2B"/>
<path d="M331.059 51.283C331.378 49.3766 332.786 48.5531 334.559 47.783C337.092 46.6829 339.985 46.514 341.559 48.783C342.783 50.5478 342.424 52.317 341.559 54.283C340.78 56.0523 339.933 57.3083 338.059 57.783C335.772 58.3624 334.043 57.1168 332.559 55.283C331.509 53.9863 330.783 52.9284 331.059 51.283Z" fill="#0E1E2B"/>
<rect width="100" height="100" transform="translate(400)" fill="#09141D"/>
<path d="M438.582 43.5803C440.147 40.1661 443.346 39.4733 447.082 39.0803C453.278 38.4284 458.28 41.7911 460.582 47.5803C462.025 51.2091 463.025 54.5334 460.582 57.5803C458.3 60.4262 455.212 60.4369 451.582 60.0803C446.946 59.6249 444.283 57.375 441.582 53.5803C439.217 50.2585 436.882 47.2865 438.582 43.5803Z" fill="#0E1E2B"/>
<path d="M448.059 86.5275C448.474 84.1803 450.684 83.2242 453.059 83.0275C455.763 82.8035 458.222 83.9471 459.059 86.5275C459.674 88.4216 459.467 90.1194 458.059 91.5275C456.264 93.3224 453.791 92.7365 451.559 91.5275C449.464 90.3923 447.645 88.8747 448.059 86.5275Z" fill="#0E1E2B"/>
<path d="M418.059 87.5275C418.474 85.1803 420.684 84.2242 423.059 84.0275C425.763 83.8035 428.222 84.9471 429.059 87.5275C429.674 89.4216 429.467 91.1194 428.059 92.5275C426.264 94.3224 423.791 93.7365 421.559 92.5275C419.464 91.3923 417.645 89.8747 418.059 87.5275Z" fill="#0E1E2B"/>
<path d="M424.279 23.5435C424.693 21.1963 429.844 19.2129 432.22 19.0161C434.923 18.7922 438.883 20.9632 439.72 23.5435C440.334 25.4377 436.687 29.108 435.279 30.5161C433.484 32.311 427.952 33.2251 425.72 32.0161C423.624 30.8808 423.865 25.8907 424.279 23.5435Z" fill="#0E1E2B"/>
<path d="M478.059 87.5275C478.474 85.1803 480.684 84.2242 483.059 84.0275C485.763 83.8035 488.222 84.9471 489.059 87.5275C489.674 89.4216 489.467 91.1194 488.059 92.5275C486.264 94.3224 483.791 93.7365 481.559 92.5275C479.464 91.3923 477.645 89.8747 478.059 87.5275Z" fill="#0E1E2B"/>
<path d="M404.059 12.283C404.378 10.3766 405.786 9.55307 407.559 8.78299C410.092 7.68288 412.985 7.51404 414.559 9.78299C415.783 11.5478 415.424 13.317 414.559 15.283C413.78 17.0523 412.933 18.3083 411.059 18.783C408.772 19.3624 407.043 18.1168 405.559 16.283C404.509 14.9863 403.783 13.9284 404.059 12.283Z" fill="#0E1E2B"/>
<path d="M409.059 49.283C409.378 47.3766 410.786 46.5531 412.559 45.783C415.092 44.6829 417.985 44.514 419.559 46.783C420.783 48.5478 420.424 50.317 419.559 52.283C418.78 54.0523 417.933 55.3083 416.059 55.783C413.772 56.3624 412.043 55.1168 410.559 53.283C409.509 51.9863 408.783 50.9284 409.059 49.283Z" fill="#0E1E2B"/>
<path d="M424.059 67.283C424.378 65.3766 425.786 64.5531 427.559 63.783C430.092 62.6829 432.985 62.514 434.559 64.783C435.783 66.5478 435.424 68.317 434.559 70.283C433.78 72.0523 432.933 73.3083 431.059 73.783C428.772 74.3624 427.043 73.1168 425.559 71.283C424.509 69.9863 423.783 68.9284 424.059 67.283Z" fill="#0E1E2B"/>
<rect width="100" height="100" transform="translate(500)" fill="#09141D"/>
<path d="M548.582 31.5803C550.147 28.1661 553.346 27.4733 557.082 27.0803C563.278 26.4284 568.28 29.7911 570.582 35.5803C572.025 39.2091 573.025 42.5334 570.582 45.5803C568.3 48.4262 565.212 48.4369 561.582 48.0803C556.946 47.6249 554.283 45.375 551.582 41.5803C549.217 38.2585 546.882 35.2865 548.582 31.5803Z" fill="#0E1E2B"/>
<path d="M507.059 14.5275C507.474 12.1803 509.684 11.2242 512.059 11.0275C514.763 10.8035 517.222 11.9471 518.059 14.5275C518.674 16.4216 518.467 18.1194 517.059 19.5275C515.264 21.3224 512.791 20.7365 510.559 19.5275C508.464 18.3923 506.645 16.8747 507.059 14.5275Z" fill="#0E1E2B"/>
<path d="M518.059 86.5275C518.474 84.1803 520.684 83.2242 523.059 83.0275C525.763 82.8035 528.222 83.9471 529.059 86.5275C529.674 88.4216 529.467 90.1194 528.059 91.5275C526.264 93.3224 523.791 92.7365 521.559 91.5275C519.464 90.3923 517.645 88.8747 518.059 86.5275Z" fill="#0E1E2B"/>
<path d="M578.059 9.52747C578.474 7.18026 580.684 6.22424 583.059 6.02747C585.763 5.80352 588.222 6.9471 589.059 9.52747C589.674 11.4216 589.467 13.1194 588.059 14.5275C586.264 16.3224 583.791 15.7365 581.559 14.5275C579.464 13.3923 577.645 11.8747 578.059 9.52747Z" fill="#0E1E2B"/>
<path d="M533.059 14.283C533.378 12.3766 534.786 11.5531 536.559 10.783C539.092 9.68288 541.985 9.51404 543.559 11.783C544.783 13.5478 544.424 15.317 543.559 17.283C542.78 19.0523 541.933 20.3083 540.059 20.783C537.772 21.3624 536.043 20.1168 534.559 18.283C533.509 16.9863 532.783 15.9284 533.059 14.283Z" fill="#0E1E2B"/>
<path d="M507.059 64.283C507.378 62.3766 508.786 61.5531 510.559 60.783C513.092 59.6829 515.985 59.514 517.559 61.783C518.783 63.5478 518.424 65.317 517.559 67.283C516.78 69.0523 515.933 70.3083 514.059 70.783C511.772 71.3624 510.043 70.1168 508.559 68.283C507.509 66.9863 506.783 65.9284 507.059 64.283Z" fill="#0E1E2B"/>
<path d="M518.07 43.0114C516.948 41.4374 517.361 39.8598 518.07 38.0616C519.083 35.4927 521.01 33.3275 523.727 33.819C525.841 34.2012 526.838 35.7062 527.616 37.7081C528.317 39.5096 528.605 40.9972 527.616 42.6578C526.409 44.6847 524.306 45.0261 521.959 44.7791C520.3 44.6045 519.039 44.3698 518.07 43.0114Z" fill="#0E1E2B"/>
<path d="M537.059 59.283C537.378 57.3766 538.786 56.5531 540.559 55.783C543.092 54.6829 545.985 54.514 547.559 56.783C548.783 58.5478 548.424 60.317 547.559 62.283C546.78 64.0523 545.933 65.3083 544.059 65.783C541.772 66.3624 540.043 65.1168 538.559 63.283C537.509 61.9863 536.783 60.9284 537.059 59.283Z" fill="#0E1E2B"/>
<rect width="100" height="100" transform="translate(600)" fill="#09141D"/>
<path d="M648.582 31.5803C650.147 28.1661 653.346 27.4733 657.082 27.0803C663.278 26.4284 668.28 29.7911 670.582 35.5803C672.025 39.2091 673.025 42.5334 670.582 45.5803C668.3 48.4262 665.212 48.4369 661.582 48.0803C656.946 47.6249 654.283 45.375 651.582 41.5803C649.217 38.2585 646.882 35.2865 648.582 31.5803Z" fill="#0E1E2B"/>
<path d="M607.059 14.5275C607.474 12.1803 609.684 11.2242 612.059 11.0275C614.763 10.8035 617.222 11.9471 618.059 14.5275C618.674 16.4216 618.467 18.1194 617.059 19.5275C615.264 21.3224 612.791 20.7365 610.559 19.5275C608.464 18.3923 606.645 16.8747 607.059 14.5275Z" fill="#0E1E2B"/>
<path d="M680.059 86.5275C680.474 84.1803 682.684 83.2242 685.059 83.0275C687.763 82.8035 690.222 83.9471 691.059 86.5275C691.674 88.4216 691.467 90.1194 690.059 91.5275C688.264 93.3224 685.791 92.7365 683.559 91.5275C681.464 90.3923 679.645 88.8747 680.059 86.5275Z" fill="#0E1E2B"/>
<path d="M678.059 9.52747C678.474 7.18026 680.684 6.22424 683.059 6.02747C685.763 5.80352 688.222 6.9471 689.059 9.52747C689.674 11.4216 689.467 13.1194 688.059 14.5275C686.264 16.3224 683.791 15.7365 681.559 14.5275C679.464 13.3923 677.645 11.8747 678.059 9.52747Z" fill="#0E1E2B"/>
<path d="M644.059 13.283C644.378 11.3766 645.786 10.5531 647.559 9.78299C650.092 8.68288 652.985 8.51404 654.559 10.783C655.783 12.5478 655.424 14.317 654.559 16.283C653.78 18.0523 652.933 19.3083 651.059 19.783C648.772 20.3624 647.043 19.1168 645.559 17.283C644.509 15.9863 643.783 14.9284 644.059 13.283Z" fill="#0E1E2B"/>
<path d="M675.059 59.283C675.378 57.3766 676.786 56.5531 678.559 55.783C681.092 54.6829 683.985 54.514 685.559 56.783C686.783 58.5478 686.424 60.317 685.559 62.283C684.78 64.0523 683.933 65.3083 682.059 65.783C679.772 66.3624 678.043 65.1168 676.559 63.283C675.509 61.9863 674.783 60.9284 675.059 59.283Z" fill="#0E1E2B"/>
<path d="M618.07 43.0114C616.948 41.4374 617.361 39.8598 618.07 38.0616C619.083 35.4927 621.01 33.3275 623.727 33.819C625.841 34.2012 626.838 35.7062 627.616 37.7081C628.317 39.5096 628.605 40.9972 627.616 42.6578C626.409 44.6847 624.306 45.0261 621.959 44.7791C620.3 44.6045 619.039 44.3698 618.07 43.0114Z" fill="#0E1E2B"/>
<path d="M637.059 59.283C637.378 57.3766 638.786 56.5531 640.559 55.783C643.092 54.6829 645.985 54.514 647.559 56.783C648.783 58.5478 648.424 60.317 647.559 62.283C646.78 64.0523 645.933 65.3083 644.059 65.783C641.772 66.3624 640.043 65.1168 638.559 63.283C637.509 61.9863 636.783 60.9284 637.059 59.283Z" fill="#0E1E2B"/>
<rect width="100" height="100" transform="translate(700)" fill="#09141D"/>
<path opacity="0.25" d="M705.026 41.9599C705.167 41.0875 705.787 40.7107 706.568 40.3583C707.684 39.8549 708.959 39.7776 709.652 40.8159C710.192 41.6235 710.033 42.4331 709.652 43.3328C709.309 44.1424 708.936 44.7172 708.11 44.9344C707.102 45.1995 706.341 44.6295 705.687 43.7904C705.224 43.197 704.904 42.7129 705.026 41.9599Z" fill="#0E1E2B"/>
<path opacity="0.25" d="M708.057 71.7439C708.367 70.5226 709.731 69.995 711.45 69.5016C713.905 68.7968 716.709 68.6887 718.235 70.1423C719.422 71.2729 719.074 72.4064 718.235 73.6659C717.48 74.7994 716.659 75.604 714.842 75.9082C712.625 76.2794 710.95 75.4814 709.511 74.3065C708.494 73.4758 707.79 72.798 708.057 71.7439Z" fill="#0E1E2B"/>
<path opacity="0.25" d="M713.865 51.8909C714.241 51.0913 714.941 50.9003 715.789 50.7773C717.001 50.6016 718.247 50.8794 718.627 52.0688C718.922 52.994 718.547 53.7284 717.932 54.4878C717.379 55.1713 716.861 55.6205 716.008 55.6013C714.966 55.5779 714.391 54.8198 713.994 53.8327C713.714 53.1346 713.54 52.581 713.865 51.8909Z" fill="#0E1E2B"/>
<path opacity="0.25" d="M703.865 3.89089C704.241 3.09128 704.941 2.90034 705.789 2.77735C707.001 2.60165 708.247 2.87939 708.627 4.0688C708.922 4.99395 708.547 5.72837 707.932 6.4878C707.379 7.17126 706.861 7.62054 706.008 7.60135C704.966 7.57793 704.391 6.81981 703.994 5.83266C703.714 5.13464 703.54 4.58102 703.865 3.89089Z" fill="#0E1E2B"/>
<path opacity="0.5" d="M709.865 19.8909C710.241 19.0913 710.941 18.9003 711.789 18.7773C713.001 18.6016 714.247 18.8794 714.627 20.0688C714.922 20.994 714.547 21.7284 713.932 22.4878C713.379 23.1713 712.861 23.6205 712.008 23.6013C710.966 23.5779 710.391 22.8198 709.994 21.8327C709.714 21.1346 709.54 20.581 709.865 19.8909Z" fill="#0E1E2B"/>
<path opacity="0.5" d="M701.865 92.8909C702.241 92.0913 702.941 91.9003 703.789 91.7773C705.001 91.6016 706.247 91.8794 706.627 93.0688C706.922 93.994 706.547 94.7284 705.932 95.4878C705.379 96.1713 704.861 96.6205 704.008 96.6013C702.966 96.5779 702.391 95.8198 701.994 94.8327C701.714 94.1346 701.54 93.581 701.865 92.8909Z" fill="#0E1E2B"/>
<rect width="100" height="100" transform="translate(800)" fill="#09141D"/>
<path opacity="0.25" d="M886.026 48.0401C886.167 48.9125 886.787 49.2893 887.568 49.6417C888.684 50.1451 889.959 50.2224 890.652 49.1841C891.192 48.3765 891.033 47.5669 890.652 46.6672C890.309 45.8576 889.936 45.2828 889.11 45.0656C888.102 44.8005 887.341 45.3705 886.687 46.2096C886.224 46.803 885.904 47.2871 886.026 48.0401Z" fill="#0E1E2B"/>
<path opacity="0.25" d="M875.057 26.2561C875.367 27.4774 876.731 28.005 878.45 28.4984C880.905 29.2032 883.709 29.3113 885.235 27.8577C886.422 26.7271 886.074 25.5936 885.235 24.3341C884.48 23.2006 883.659 22.396 881.842 22.0918C879.625 21.7206 877.95 22.5186 876.511 23.6935C875.494 24.5242 874.79 25.202 875.057 26.2561Z" fill="#0E1E2B"/>
<path opacity="0.25" d="M892.271 63.8884C892.647 64.688 893.347 64.879 894.195 65.0019C895.407 65.1777 896.653 64.8999 897.033 63.7105C897.329 62.7853 896.953 62.0509 896.338 61.2915C895.785 60.608 895.267 60.1588 894.414 60.1779C893.372 60.2014 892.798 60.9595 892.401 61.9466C892.12 62.6447 891.946 63.1983 892.271 63.8884Z" fill="#0E1E2B"/>
<path opacity="0.25" d="M887.865 94.2951C888.241 95.0948 888.941 95.2857 889.789 95.4087C891.001 95.5844 892.247 95.3066 892.627 94.1172C892.922 93.1921 892.547 92.4577 891.932 91.6982C891.379 91.0148 890.861 90.5655 890.008 90.5847C888.966 90.6081 888.391 91.3662 887.994 92.3534C887.714 93.0514 887.54 93.605 887.865 94.2951Z" fill="#0E1E2B"/>
<path opacity="0.5" d="M881.865 79.2951C882.241 80.0948 882.941 80.2857 883.789 80.4087C885.001 80.5844 886.247 80.3066 886.627 79.1172C886.922 78.1921 886.547 77.4577 885.932 76.6982C885.379 76.0148 884.861 75.5655 884.008 75.5847C882.966 75.6081 882.391 76.3662 881.994 77.3534C881.714 78.0514 881.54 78.605 881.865 79.2951Z" fill="#0E1E2B"/>
<path opacity="0.5" d="M888.865 9.29514C889.241 10.0948 889.941 10.2857 890.789 10.4087C892.001 10.5844 893.247 10.3066 893.627 9.11723C893.922 8.19208 893.547 7.45767 892.932 6.69823C892.379 6.01477 891.861 5.56549 891.008 5.58469C889.966 5.60811 889.391 6.36623 888.994 7.35337C888.714 8.05139 888.54 8.60502 888.865 9.29514Z" fill="#0E1E2B"/>
<rect width="100" height="100" transform="translate(900)" fill="#09141D"/>
<rect width="100" height="8" transform="matrix(1 0 0 -1 900 43)" fill="#153042"/>
<rect x="0.5" y="-0.5" width="99" height="13" rx="1.5" transform="matrix(1 0 0 -1 900 34)" fill="#142839" stroke="#0E1E2B"/>
<path d="M902 33V28L905.5 30.5L918 33H902Z" fill="#142839"/>
<path d="M998 33V28L994.5 30.5L982 33H998Z" fill="#142839"/>
<rect width="98" height="5" transform="matrix(1 0 0 -1 901 27)" fill="url(#paint0_linear_37_11237)" fill-opacity="0.03"/>
<rect width="96" height="4" rx="1" transform="matrix(1 0 0 -1 902 27)" fill="#153042"/>
<rect width="100" height="21" transform="matrix(1 0 0 -1 900 21)" fill="#071118"/>
<line x1="998.707" y1="86.7071" x2="987.707" y2="97.7071" stroke="#0E1E2B" stroke-width="2"/>
<line x1="998.707" y1="70.7071" x2="987.707" y2="81.7071" stroke="#0E1E2B" stroke-width="2"/>
<line x1="998.707" y1="54.7071" x2="987.707" y2="65.7071" stroke="#0E1E2B" stroke-width="2"/>
<line x1="950.707" y1="86.7071" x2="939.707" y2="97.7071" stroke="#0E1E2B" stroke-width="2"/>
<line x1="950.707" y1="70.7071" x2="939.707" y2="81.7071" stroke="#0E1E2B" stroke-width="2"/>
<line x1="950.707" y1="54.7071" x2="939.707" y2="65.7071" stroke="#0E1E2B" stroke-width="2"/>
<line x1="974.707" y1="86.7071" x2="963.707" y2="97.7071" stroke="#0E1E2B" stroke-width="2"/>
<line x1="974.707" y1="70.7071" x2="963.707" y2="81.7071" stroke="#0E1E2B" stroke-width="2"/>
<line x1="974.707" y1="54.7071" x2="963.707" y2="65.7071" stroke="#0E1E2B" stroke-width="2"/>
<line x1="926.707" y1="86.7071" x2="915.707" y2="97.7071" stroke="#0E1E2B" stroke-width="2"/>
<line x1="926.707" y1="70.7071" x2="915.707" y2="81.7071" stroke="#0E1E2B" stroke-width="2"/>
<line x1="926.707" y1="54.7071" x2="915.707" y2="65.7071" stroke="#0E1E2B" stroke-width="2"/>
<line x1="986.707" y1="86.7071" x2="975.707" y2="97.7071" stroke="#0E1E2B" stroke-width="2"/>
<line x1="986.707" y1="70.7071" x2="975.707" y2="81.7071" stroke="#0E1E2B" stroke-width="2"/>
<line x1="986.707" y1="54.7071" x2="975.707" y2="65.7071" stroke="#0E1E2B" stroke-width="2"/>
<line x1="938.707" y1="86.7071" x2="927.707" y2="97.7071" stroke="#0E1E2B" stroke-width="2"/>
<line x1="938.707" y1="70.7071" x2="927.707" y2="81.7071" stroke="#0E1E2B" stroke-width="2"/>
<line x1="938.707" y1="54.7071" x2="927.707" y2="65.7071" stroke="#0E1E2B" stroke-width="2"/>
<line x1="962.707" y1="86.7071" x2="951.707" y2="97.7071" stroke="#0E1E2B" stroke-width="2"/>
<line x1="962.707" y1="70.7071" x2="951.707" y2="81.7071" stroke="#0E1E2B" stroke-width="2"/>
<line x1="962.707" y1="54.7071" x2="951.707" y2="65.7071" stroke="#0E1E2B" stroke-width="2"/>
<line x1="914.707" y1="86.7071" x2="903.707" y2="97.7071" stroke="#0E1E2B" stroke-width="2"/>
<line x1="914.707" y1="70.7071" x2="903.707" y2="81.7071" stroke="#0E1E2B" stroke-width="2"/>
<line x1="914.707" y1="54.7071" x2="903.707" y2="65.7071" stroke="#0E1E2B" stroke-width="2"/>
<rect width="100" height="100" transform="translate(1000)" fill="#09141D"/>
<rect x="1000" y="56.9995" width="100" height="8" fill="#153042"/>
<rect x="1000.5" y="65.4995" width="99" height="13" rx="1.5" fill="#142839" stroke="#0E1E2B"/>
<path d="M1002 66.9995V71.9995L1005.5 69.4995L1018 66.9995H1002Z" fill="#142839"/>
<path d="M1098 66.9995V71.9995L1094.5 69.4995L1082 66.9995H1098Z" fill="#142839"/>
<rect x="1001" y="72.9995" width="98" height="5" fill="url(#paint1_linear_37_11237)" fill-opacity="0.03"/>
<rect x="1002" y="72.9995" width="96" height="4" rx="1" fill="#153042"/>
<rect x="1000" y="78.9995" width="100" height="21" fill="#071118"/>
<line x1="1002.29" y1="13.2924" x2="1013.29" y2="2.29241" stroke="#0E1E2B" stroke-width="2"/>
<line x1="1002.29" y1="29.2924" x2="1013.29" y2="18.2924" stroke="#0E1E2B" stroke-width="2"/>
<line x1="1002.29" y1="45.2924" x2="1013.29" y2="34.2924" stroke="#0E1E2B" stroke-width="2"/>
<line x1="1050.29" y1="13.2924" x2="1061.29" y2="2.29241" stroke="#0E1E2B" stroke-width="2"/>
<line x1="1050.29" y1="29.2924" x2="1061.29" y2="18.2924" stroke="#0E1E2B" stroke-width="2"/>
<line x1="1050.29" y1="45.2924" x2="1061.29" y2="34.2924" stroke="#0E1E2B" stroke-width="2"/>
<line x1="1026.29" y1="13.2924" x2="1037.29" y2="2.29241" stroke="#0E1E2B" stroke-width="2"/>
<line x1="1026.29" y1="29.2924" x2="1037.29" y2="18.2924" stroke="#0E1E2B" stroke-width="2"/>
<line x1="1026.29" y1="45.2924" x2="1037.29" y2="34.2924" stroke="#0E1E2B" stroke-width="2"/>
<line x1="1074.29" y1="13.2924" x2="1085.29" y2="2.29241" stroke="#0E1E2B" stroke-width="2"/>
<line x1="1074.29" y1="29.2924" x2="1085.29" y2="18.2924" stroke="#0E1E2B" stroke-width="2"/>
<line x1="1074.29" y1="45.2924" x2="1085.29" y2="34.2924" stroke="#0E1E2B" stroke-width="2"/>
<line x1="1014.29" y1="13.2924" x2="1025.29" y2="2.29241" stroke="#0E1E2B" stroke-width="2"/>
<line x1="1014.29" y1="29.2924" x2="1025.29" y2="18.2924" stroke="#0E1E2B" stroke-width="2"/>
<line x1="1014.29" y1="45.2924" x2="1025.29" y2="34.2924" stroke="#0E1E2B" stroke-width="2"/>
<line x1="1062.29" y1="13.2924" x2="1073.29" y2="2.29241" stroke="#0E1E2B" stroke-width="2"/>
<line x1="1062.29" y1="29.2924" x2="1073.29" y2="18.2924" stroke="#0E1E2B" stroke-width="2"/>
<line x1="1062.29" y1="45.2924" x2="1073.29" y2="34.2924" stroke="#0E1E2B" stroke-width="2"/>
<line x1="1038.29" y1="13.2924" x2="1049.29" y2="2.29241" stroke="#0E1E2B" stroke-width="2"/>
<line x1="1038.29" y1="29.2924" x2="1049.29" y2="18.2924" stroke="#0E1E2B" stroke-width="2"/>
<line x1="1038.29" y1="45.2924" x2="1049.29" y2="34.2924" stroke="#0E1E2B" stroke-width="2"/>
<line x1="1086.29" y1="13.2924" x2="1097.29" y2="2.29241" stroke="#0E1E2B" stroke-width="2"/>
<line x1="1086.29" y1="29.2924" x2="1097.29" y2="18.2924" stroke="#0E1E2B" stroke-width="2"/>
<line x1="1086.29" y1="45.2924" x2="1097.29" y2="34.2924" stroke="#0E1E2B" stroke-width="2"/>
<rect width="100" height="100" transform="translate(1100)" fill="#09141D"/>
<rect width="100" height="8" transform="matrix(-4.37114e-08 -1 -1 4.37114e-08 1143 100)" fill="#153042"/>
<rect x="-0.5" y="-0.5" width="99" height="13" rx="1.5" transform="matrix(-4.37114e-08 -1 -1 4.37114e-08 1134 99)" fill="#142839" stroke="#0E1E2B"/>
<path d="M1133 98L1128 98L1130.5 94.5L1133 82L1133 98Z" fill="#142839"/>
<path d="M1133 2L1128 2L1130.5 5.5L1133 18L1133 2Z" fill="#142839"/>
<rect width="98" height="5" transform="matrix(-4.37114e-08 -1 -1 4.37114e-08 1127 99)" fill="url(#paint2_linear_37_11237)" fill-opacity="0.03"/>
<rect width="96" height="4" rx="1" transform="matrix(-4.37114e-08 -1 -1 4.37114e-08 1127 98)" fill="#153042"/>
<rect width="100" height="21" transform="matrix(-4.37114e-08 -1 -1 4.37114e-08 1121 100)" fill="#071118"/>
<line y1="-1" x2="15.5563" y2="-1" transform="matrix(0.707107 -0.707107 -0.707107 -0.707107 1186 97)" stroke="#0E1E2B" stroke-width="2"/>
<line y1="-1" x2="15.5563" y2="-1" transform="matrix(0.707107 -0.707107 -0.707107 -0.707107 1170 97)" stroke="#0E1E2B" stroke-width="2"/>
<line y1="-1" x2="15.5563" y2="-1" transform="matrix(0.707107 -0.707107 -0.707107 -0.707107 1154 97)" stroke="#0E1E2B" stroke-width="2"/>
<line y1="-1" x2="15.5563" y2="-1" transform="matrix(0.707107 -0.707107 -0.707107 -0.707107 1186 49)" stroke="#0E1E2B" stroke-width="2"/>
<line y1="-1" x2="15.5563" y2="-1" transform="matrix(0.707107 -0.707107 -0.707107 -0.707107 1170 49)" stroke="#0E1E2B" stroke-width="2"/>
<line y1="-1" x2="15.5563" y2="-1" transform="matrix(0.707107 -0.707107 -0.707107 -0.707107 1154 49)" stroke="#0E1E2B" stroke-width="2"/>
<line y1="-1" x2="15.5563" y2="-1" transform="matrix(0.707107 -0.707107 -0.707107 -0.707107 1186 73)" stroke="#0E1E2B" stroke-width="2"/>
<line y1="-1" x2="15.5563" y2="-1" transform="matrix(0.707107 -0.707107 -0.707107 -0.707107 1170 73)" stroke="#0E1E2B" stroke-width="2"/>
<line y1="-1" x2="15.5563" y2="-1" transform="matrix(0.707107 -0.707107 -0.707107 -0.707107 1154 73)" stroke="#0E1E2B" stroke-width="2"/>
<line y1="-1" x2="15.5563" y2="-1" transform="matrix(0.707107 -0.707107 -0.707107 -0.707107 1186 25)" stroke="#0E1E2B" stroke-width="2"/>
<line y1="-1" x2="15.5563" y2="-1" transform="matrix(0.707107 -0.707107 -0.707107 -0.707107 1170 25)" stroke="#0E1E2B" stroke-width="2"/>
<line y1="-1" x2="15.5563" y2="-1" transform="matrix(0.707107 -0.707107 -0.707107 -0.707107 1154 25)" stroke="#0E1E2B" stroke-width="2"/>
<line y1="-1" x2="15.5563" y2="-1" transform="matrix(0.707107 -0.707107 -0.707107 -0.707107 1186 85)" stroke="#0E1E2B" stroke-width="2"/>
<line y1="-1" x2="15.5563" y2="-1" transform="matrix(0.707107 -0.707107 -0.707107 -0.707107 1170 85)" stroke="#0E1E2B" stroke-width="2"/>
<line y1="-1" x2="15.5563" y2="-1" transform="matrix(0.707107 -0.707107 -0.707107 -0.707107 1154 85)" stroke="#0E1E2B" stroke-width="2"/>
<line y1="-1" x2="15.5563" y2="-1" transform="matrix(0.707107 -0.707107 -0.707107 -0.707107 1186 37)" stroke="#0E1E2B" stroke-width="2"/>
<line y1="-1" x2="15.5563" y2="-1" transform="matrix(0.707107 -0.707107 -0.707107 -0.707107 1170 37)" stroke="#0E1E2B" stroke-width="2"/>
<line y1="-1" x2="15.5563" y2="-1" transform="matrix(0.707107 -0.707107 -0.707107 -0.707107 1154 37)" stroke="#0E1E2B" stroke-width="2"/>
<line y1="-1" x2="15.5563" y2="-1" transform="matrix(0.707107 -0.707107 -0.707107 -0.707107 1186 61)" stroke="#0E1E2B" stroke-width="2"/>
<line y1="-1" x2="15.5563" y2="-1" transform="matrix(0.707107 -0.707107 -0.707107 -0.707107 1170 61)" stroke="#0E1E2B" stroke-width="2"/>
<line y1="-1" x2="15.5563" y2="-1" transform="matrix(0.707107 -0.707107 -0.707107 -0.707107 1154 61)" stroke="#0E1E2B" stroke-width="2"/>
<line y1="-1" x2="15.5563" y2="-1" transform="matrix(0.707107 -0.707107 -0.707107 -0.707107 1186 13)" stroke="#0E1E2B" stroke-width="2"/>
<line y1="-1" x2="15.5563" y2="-1" transform="matrix(0.707107 -0.707107 -0.707107 -0.707107 1170 13)" stroke="#0E1E2B" stroke-width="2"/>
<line y1="-1" x2="15.5563" y2="-1" transform="matrix(0.707107 -0.707107 -0.707107 -0.707107 1154 13)" stroke="#0E1E2B" stroke-width="2"/>
<rect width="100" height="100" transform="translate(1200)" fill="#09141D"/>
<rect x="1257" y="100" width="100" height="8" transform="rotate(-90 1257 100)" fill="#153042"/>
<rect x="1265.5" y="99.5" width="99" height="13" rx="1.5" transform="rotate(-90 1265.5 99.5)" fill="#142839" stroke="#0E1E2B"/>
<path d="M1267 98L1272 98L1269.5 94.5L1267 82L1267 98Z" fill="#142839"/>
<path d="M1267 2L1272 2L1269.5 5.5L1267 18L1267 2Z" fill="#142839"/>
<rect x="1273" y="99" width="98" height="5" transform="rotate(-90 1273 99)" fill="url(#paint3_linear_37_11237)" fill-opacity="0.03"/>
<rect x="1273" y="98" width="96" height="4" rx="1" transform="rotate(-90 1273 98)" fill="#153042"/>
<rect x="1279" y="100" width="100" height="21" transform="rotate(-90 1279 100)" fill="#071118"/>
<line y1="-1" x2="15.5563" y2="-1" transform="matrix(0.707107 -0.707107 -0.707107 -0.707107 1235 97)" stroke="#0E1E2B" stroke-width="2"/>
<line y1="-1" x2="15.5563" y2="-1" transform="matrix(0.707107 -0.707107 -0.707107 -0.707107 1219 97)" stroke="#0E1E2B" stroke-width="2"/>
<line y1="-1" x2="15.5563" y2="-1" transform="matrix(0.707107 -0.707107 -0.707107 -0.707107 1203 97)" stroke="#0E1E2B" stroke-width="2"/>
<line y1="-1" x2="15.5563" y2="-1" transform="matrix(0.707107 -0.707107 -0.707107 -0.707107 1235 49)" stroke="#0E1E2B" stroke-width="2"/>
<line y1="-1" x2="15.5563" y2="-1" transform="matrix(0.707107 -0.707107 -0.707107 -0.707107 1219 49)" stroke="#0E1E2B" stroke-width="2"/>
<line y1="-1" x2="15.5563" y2="-1" transform="matrix(0.707107 -0.707107 -0.707107 -0.707107 1203 49)" stroke="#0E1E2B" stroke-width="2"/>
<line y1="-1" x2="15.5563" y2="-1" transform="matrix(0.707107 -0.707107 -0.707107 -0.707107 1235 73)" stroke="#0E1E2B" stroke-width="2"/>
<line y1="-1" x2="15.5563" y2="-1" transform="matrix(0.707107 -0.707107 -0.707107 -0.707107 1219 73)" stroke="#0E1E2B" stroke-width="2"/>
<line y1="-1" x2="15.5563" y2="-1" transform="matrix(0.707107 -0.707107 -0.707107 -0.707107 1203 73)" stroke="#0E1E2B" stroke-width="2"/>
<line y1="-1" x2="15.5563" y2="-1" transform="matrix(0.707107 -0.707107 -0.707107 -0.707107 1235 25)" stroke="#0E1E2B" stroke-width="2"/>
<line y1="-1" x2="15.5563" y2="-1" transform="matrix(0.707107 -0.707107 -0.707107 -0.707107 1219 25)" stroke="#0E1E2B" stroke-width="2"/>
<line y1="-1" x2="15.5563" y2="-1" transform="matrix(0.707107 -0.707107 -0.707107 -0.707107 1203 25)" stroke="#0E1E2B" stroke-width="2"/>
<line y1="-1" x2="15.5563" y2="-1" transform="matrix(0.707107 -0.707107 -0.707107 -0.707107 1235 85)" stroke="#0E1E2B" stroke-width="2"/>
<line y1="-1" x2="15.5563" y2="-1" transform="matrix(0.707107 -0.707107 -0.707107 -0.707107 1219 85)" stroke="#0E1E2B" stroke-width="2"/>
<line y1="-1" x2="15.5563" y2="-1" transform="matrix(0.707107 -0.707107 -0.707107 -0.707107 1203 85)" stroke="#0E1E2B" stroke-width="2"/>
<line y1="-1" x2="15.5563" y2="-1" transform="matrix(0.707107 -0.707107 -0.707107 -0.707107 1235 37)" stroke="#0E1E2B" stroke-width="2"/>
<line y1="-1" x2="15.5563" y2="-1" transform="matrix(0.707107 -0.707107 -0.707107 -0.707107 1219 37)" stroke="#0E1E2B" stroke-width="2"/>
<line y1="-1" x2="15.5563" y2="-1" transform="matrix(0.707107 -0.707107 -0.707107 -0.707107 1203 37)" stroke="#0E1E2B" stroke-width="2"/>
<line y1="-1" x2="15.5563" y2="-1" transform="matrix(0.707107 -0.707107 -0.707107 -0.707107 1235 61)" stroke="#0E1E2B" stroke-width="2"/>
<line y1="-1" x2="15.5563" y2="-1" transform="matrix(0.707107 -0.707107 -0.707107 -0.707107 1219 61)" stroke="#0E1E2B" stroke-width="2"/>
<line y1="-1" x2="15.5563" y2="-1" transform="matrix(0.707107 -0.707107 -0.707107 -0.707107 1203 61)" stroke="#0E1E2B" stroke-width="2"/>
<line y1="-1" x2="15.5563" y2="-1" transform="matrix(0.707107 -0.707107 -0.707107 -0.707107 1235 13)" stroke="#0E1E2B" stroke-width="2"/>
<line y1="-1" x2="15.5563" y2="-1" transform="matrix(0.707107 -0.707107 -0.707107 -0.707107 1219 13)" stroke="#0E1E2B" stroke-width="2"/>
<line y1="-1" x2="15.5563" y2="-1" transform="matrix(0.707107 -0.707107 -0.707107 -0.707107 1203 13)" stroke="#0E1E2B" stroke-width="2"/>
<rect width="100" height="100" transform="translate(1300)" fill="#09141D"/>
<rect x="1357" y="100" width="41" height="8" transform="rotate(-90 1357 100)" fill="#153042"/>
<rect x="1365.5" y="99.5" width="34" height="13" rx="1.5" transform="rotate(-90 1365.5 99.5)" fill="#142839" stroke="#0E1E2B"/>
<path d="M1367 99.5801L1372 99.5801L1369.5 98.8451L1367 96.2201L1367 99.5801Z" fill="#142839"/>
<path d="M1367 81L1372 81L1369.5 81.735L1367 84.36L1367 81Z" fill="#142839"/>
<rect x="1373" y="99.79" width="20.58" height="5" transform="rotate(-90 1373 99.79)" fill="url(#paint4_linear_37_11237)" fill-opacity="0.03"/>
<rect x="1373" y="100" width="19" height="4" rx="1" transform="rotate(-90 1373 100)" fill="#153042"/>
<rect x="1379" y="100" width="21" height="21" transform="rotate(-90 1379 100)" fill="#071118"/>
<line y1="-1" x2="15.5563" y2="-1" transform="matrix(0.707107 -0.707107 -0.707107 -0.707107 1335 97)" stroke="#0E1E2B" stroke-width="2"/>
<line y1="-1" x2="15.5563" y2="-1" transform="matrix(0.707107 -0.707107 -0.707107 -0.707107 1319 97)" stroke="#0E1E2B" stroke-width="2"/>
<line y1="-1" x2="15.5563" y2="-1" transform="matrix(0.707107 -0.707107 -0.707107 -0.707107 1303 97)" stroke="#0E1E2B" stroke-width="2"/>
<line y1="-1" x2="15.5563" y2="-1" transform="matrix(0.707107 -0.707107 -0.707107 -0.707107 1335 49)" stroke="#0E1E2B" stroke-width="2"/>
<line y1="-1" x2="15.5563" y2="-1" transform="matrix(0.707107 -0.707107 -0.707107 -0.707107 1319 49)" stroke="#0E1E2B" stroke-width="2"/>
<line y1="-1" x2="15.5563" y2="-1" transform="matrix(0.707107 -0.707107 -0.707107 -0.707107 1303 49)" stroke="#0E1E2B" stroke-width="2"/>
<line y1="-1" x2="15.5563" y2="-1" transform="matrix(0.707107 -0.707107 -0.707107 -0.707107 1335 73)" stroke="#0E1E2B" stroke-width="2"/>
<line y1="-1" x2="15.5563" y2="-1" transform="matrix(0.707107 -0.707107 -0.707107 -0.707107 1319 73)" stroke="#0E1E2B" stroke-width="2"/>
<line y1="-1" x2="15.5563" y2="-1" transform="matrix(0.707107 -0.707107 -0.707107 -0.707107 1303 73)" stroke="#0E1E2B" stroke-width="2"/>
<line y1="-1" x2="15.5563" y2="-1" transform="matrix(0.707107 -0.707107 -0.707107 -0.707107 1335 25)" stroke="#0E1E2B" stroke-width="2"/>
<line y1="-1" x2="15.5563" y2="-1" transform="matrix(0.707107 -0.707107 -0.707107 -0.707107 1319 25)" stroke="#0E1E2B" stroke-width="2"/>
<line y1="-1" x2="15.5563" y2="-1" transform="matrix(0.707107 -0.707107 -0.707107 -0.707107 1303 25)" stroke="#0E1E2B" stroke-width="2"/>
<line y1="-1" x2="15.5563" y2="-1" transform="matrix(0.707107 -0.707107 -0.707107 -0.707107 1335 85)" stroke="#0E1E2B" stroke-width="2"/>
<line y1="-1" x2="15.5563" y2="-1" transform="matrix(0.707107 -0.707107 -0.707107 -0.707107 1319 85)" stroke="#0E1E2B" stroke-width="2"/>
<line y1="-1" x2="15.5563" y2="-1" transform="matrix(0.707107 -0.707107 -0.707107 -0.707107 1303 85)" stroke="#0E1E2B" stroke-width="2"/>
<line y1="-1" x2="15.5563" y2="-1" transform="matrix(0.707107 -0.707107 -0.707107 -0.707107 1335 37)" stroke="#0E1E2B" stroke-width="2"/>
<line y1="-1" x2="15.5563" y2="-1" transform="matrix(0.707107 -0.707107 -0.707107 -0.707107 1319 37)" stroke="#0E1E2B" stroke-width="2"/>
<line y1="-1" x2="15.5563" y2="-1" transform="matrix(0.707107 -0.707107 -0.707107 -0.707107 1303 37)" stroke="#0E1E2B" stroke-width="2"/>
<line y1="-1" x2="15.5563" y2="-1" transform="matrix(0.707107 -0.707107 -0.707107 -0.707107 1335 61)" stroke="#0E1E2B" stroke-width="2"/>
<line y1="-1" x2="15.5563" y2="-1" transform="matrix(0.707107 -0.707107 -0.707107 -0.707107 1319 61)" stroke="#0E1E2B" stroke-width="2"/>
<line y1="-1" x2="15.5563" y2="-1" transform="matrix(0.707107 -0.707107 -0.707107 -0.707107 1303 61)" stroke="#0E1E2B" stroke-width="2"/>
<line y1="-1" x2="15.5563" y2="-1" transform="matrix(0.707107 -0.707107 -0.707107 -0.707107 1335 13)" stroke="#0E1E2B" stroke-width="2"/>
<line y1="-1" x2="15.5563" y2="-1" transform="matrix(0.707107 -0.707107 -0.707107 -0.707107 1319 13)" stroke="#0E1E2B" stroke-width="2"/>
<line y1="-1" x2="15.5563" y2="-1" transform="matrix(0.707107 -0.707107 -0.707107 -0.707107 1303 13)" stroke="#0E1E2B" stroke-width="2"/>
<line y1="-1" x2="15.5563" y2="-1" transform="matrix(0.707107 -0.707107 -0.707107 -0.707107 1335 25)" stroke="#0E1E2B" stroke-width="2"/>
<line y1="-1" x2="15.5563" y2="-1" transform="matrix(0.707107 -0.707107 -0.707107 -0.707107 1319 25)" stroke="#0E1E2B" stroke-width="2"/>
<line y1="-1" x2="15.5563" y2="-1" transform="matrix(0.707107 -0.707107 -0.707107 -0.707107 1303 25)" stroke="#0E1E2B" stroke-width="2"/>
<line y1="-1" x2="15.5563" y2="-1" transform="matrix(0.707107 -0.707107 -0.707107 -0.707107 1335 13)" stroke="#0E1E2B" stroke-width="2"/>
<line y1="-1" x2="15.5563" y2="-1" transform="matrix(0.707107 -0.707107 -0.707107 -0.707107 1319 13)" stroke="#0E1E2B" stroke-width="2"/>
<line y1="-1" x2="15.5563" y2="-1" transform="matrix(0.707107 -0.707107 -0.707107 -0.707107 1303 13)" stroke="#0E1E2B" stroke-width="2"/>
<rect x="1357" y="57" width="43" height="8" fill="#153042"/>
<rect x="1365.5" y="65.5" width="34" height="13" rx="1.5" fill="#142839" stroke="#0E1E2B"/>
<path d="M1365.7 67V72L1366.92 69.5L1371.3 67H1365.7Z" fill="#142839"/>
<path d="M1399.3 67V72L1398.07 69.5L1393.7 67H1399.3Z" fill="#142839"/>
<rect x="1365.35" y="73" width="34.3" height="5" fill="url(#paint5_linear_37_11237)" fill-opacity="0.03"/>
<rect x="1367" y="73" width="31" height="4" rx="1" fill="#153042"/>
<line x1="1351.29" y1="13.2924" x2="1362.29" y2="2.29241" stroke="#0E1E2B" stroke-width="2"/>
<line x1="1351.29" y1="29.2924" x2="1362.29" y2="18.2924" stroke="#0E1E2B" stroke-width="2"/>
<line x1="1351.29" y1="45.2924" x2="1362.29" y2="34.2924" stroke="#0E1E2B" stroke-width="2"/>
<line x1="1375.29" y1="13.2924" x2="1386.29" y2="2.29241" stroke="#0E1E2B" stroke-width="2"/>
<line x1="1375.29" y1="29.2924" x2="1386.29" y2="18.2924" stroke="#0E1E2B" stroke-width="2"/>
<line x1="1375.29" y1="45.2924" x2="1386.29" y2="34.2924" stroke="#0E1E2B" stroke-width="2"/>
<line x1="1423.29" y1="13.2924" x2="1434.29" y2="2.29241" stroke="#0E1E2B" stroke-width="2"/>
<line x1="1423.29" y1="29.2924" x2="1434.29" y2="18.2924" stroke="#0E1E2B" stroke-width="2"/>
<line x1="1423.29" y1="45.2924" x2="1434.29" y2="34.2924" stroke="#0E1E2B" stroke-width="2"/>
<line x1="1363.29" y1="13.2924" x2="1374.29" y2="2.29241" stroke="#0E1E2B" stroke-width="2"/>
<line x1="1363.29" y1="29.2924" x2="1374.29" y2="18.2924" stroke="#0E1E2B" stroke-width="2"/>
<line x1="1363.29" y1="45.2924" x2="1374.29" y2="34.2924" stroke="#0E1E2B" stroke-width="2"/>
<line x1="1387.29" y1="13.2924" x2="1398.29" y2="2.29241" stroke="#0E1E2B" stroke-width="2"/>
<line x1="1387.29" y1="29.2924" x2="1398.29" y2="18.2924" stroke="#0E1E2B" stroke-width="2"/>
<line x1="1387.29" y1="45.2924" x2="1398.29" y2="34.2924" stroke="#0E1E2B" stroke-width="2"/>
<line x1="1435.29" y1="13.2924" x2="1446.29" y2="2.29241" stroke="#0E1E2B" stroke-width="2"/>
<line x1="1435.29" y1="29.2924" x2="1446.29" y2="18.2924" stroke="#0E1E2B" stroke-width="2"/>
<line x1="1435.29" y1="45.2924" x2="1446.29" y2="34.2924" stroke="#0E1E2B" stroke-width="2"/>
<rect width="100" height="100" transform="translate(1400)" fill="#09141D"/>
<rect width="41" height="8" transform="matrix(-4.37114e-08 -1 -1 4.37114e-08 1443 100)" fill="#153042"/>
<rect x="-0.5" y="-0.5" width="34" height="13" rx="1.5" transform="matrix(-4.37114e-08 -1 -1 4.37114e-08 1434 99)" fill="#142839" stroke="#0E1E2B"/>
<path d="M1433 99.5801L1428 99.5801L1430.5 98.8451L1433 96.2201L1433 99.5801Z" fill="#142839"/>
<path d="M1433 81L1428 81L1430.5 81.735L1433 84.36L1433 81Z" fill="#142839"/>
<rect width="20.58" height="5" transform="matrix(-4.37114e-08 -1 -1 4.37114e-08 1427 99.79)" fill="url(#paint6_linear_37_11237)" fill-opacity="0.03"/>
<rect width="19" height="4" rx="1" transform="matrix(-4.37114e-08 -1 -1 4.37114e-08 1427 100)" fill="#153042"/>
<rect width="21" height="21" transform="matrix(-4.37114e-08 -1 -1 4.37114e-08 1421 100)" fill="#071118"/>
<rect width="43" height="8" transform="matrix(-1 0 0 1 1443 57)" fill="#153042"/>
<rect x="-0.5" y="0.5" width="34" height="13" rx="1.5" transform="matrix(-1 0 0 1 1434 65)" fill="#142839" stroke="#0E1E2B"/>
<path d="M1434.3 67V72L1433.08 69.5L1428.7 67H1434.3Z" fill="#142839"/>
<path d="M1400.7 67V72L1401.93 69.5L1406.3 67H1400.7Z" fill="#142839"/>
<rect width="34.3" height="5" transform="matrix(-1 0 0 1 1434.65 73)" fill="url(#paint7_linear_37_11237)" fill-opacity="0.03"/>
<rect width="31" height="4" rx="1" transform="matrix(-1 0 0 1 1433 73)" fill="#153042"/>
<line y1="-1" x2="15.5563" y2="-1" transform="matrix(0.707107 -0.707107 -0.707107 -0.707107 1484 97)" stroke="#0E1E2B" stroke-width="2"/>
<line y1="-1" x2="15.5563" y2="-1" transform="matrix(0.707107 -0.707107 -0.707107 -0.707107 1468 97)" stroke="#0E1E2B" stroke-width="2"/>
<line y1="-1" x2="15.5563" y2="-1" transform="matrix(0.707107 -0.707107 -0.707107 -0.707107 1452 97)" stroke="#0E1E2B" stroke-width="2"/>
<line y1="-1" x2="15.5563" y2="-1" transform="matrix(0.707107 -0.707107 -0.707107 -0.707107 1484 49)" stroke="#0E1E2B" stroke-width="2"/>
<line y1="-1" x2="15.5563" y2="-1" transform="matrix(0.707107 -0.707107 -0.707107 -0.707107 1468 49)" stroke="#0E1E2B" stroke-width="2"/>
<line y1="-1" x2="15.5563" y2="-1" transform="matrix(0.707107 -0.707107 -0.707107 -0.707107 1452 49)" stroke="#0E1E2B" stroke-width="2"/>
<line y1="-1" x2="15.5563" y2="-1" transform="matrix(0.707107 -0.707107 -0.707107 -0.707107 1484 73)" stroke="#0E1E2B" stroke-width="2"/>
<line y1="-1" x2="15.5563" y2="-1" transform="matrix(0.707107 -0.707107 -0.707107 -0.707107 1468 73)" stroke="#0E1E2B" stroke-width="2"/>
<line y1="-1" x2="15.5563" y2="-1" transform="matrix(0.707107 -0.707107 -0.707107 -0.707107 1452 73)" stroke="#0E1E2B" stroke-width="2"/>
<line y1="-1" x2="15.5563" y2="-1" transform="matrix(0.707107 -0.707107 -0.707107 -0.707107 1484 25)" stroke="#0E1E2B" stroke-width="2"/>
<line y1="-1" x2="15.5563" y2="-1" transform="matrix(0.707107 -0.707107 -0.707107 -0.707107 1468 25)" stroke="#0E1E2B" stroke-width="2"/>
<line y1="-1" x2="15.5563" y2="-1" transform="matrix(0.707107 -0.707107 -0.707107 -0.707107 1452 25)" stroke="#0E1E2B" stroke-width="2"/>
<line y1="-1" x2="15.5563" y2="-1" transform="matrix(0.707107 -0.707107 -0.707107 -0.707107 1484 85)" stroke="#0E1E2B" stroke-width="2"/>
<line y1="-1" x2="15.5563" y2="-1" transform="matrix(0.707107 -0.707107 -0.707107 -0.707107 1468 85)" stroke="#0E1E2B" stroke-width="2"/>
<line y1="-1" x2="15.5563" y2="-1" transform="matrix(0.707107 -0.707107 -0.707107 -0.707107 1452 85)" stroke="#0E1E2B" stroke-width="2"/>
<line y1="-1" x2="15.5563" y2="-1" transform="matrix(0.707107 -0.707107 -0.707107 -0.707107 1484 37)" stroke="#0E1E2B" stroke-width="2"/>
<line y1="-1" x2="15.5563" y2="-1" transform="matrix(0.707107 -0.707107 -0.707107 -0.707107 1468 37)" stroke="#0E1E2B" stroke-width="2"/>
<line y1="-1" x2="15.5563" y2="-1" transform="matrix(0.707107 -0.707107 -0.707107 -0.707107 1452 37)" stroke="#0E1E2B" stroke-width="2"/>
<line y1="-1" x2="15.5563" y2="-1" transform="matrix(0.707107 -0.707107 -0.707107 -0.707107 1484 61)" stroke="#0E1E2B" stroke-width="2"/>
<line y1="-1" x2="15.5563" y2="-1" transform="matrix(0.707107 -0.707107 -0.707107 -0.707107 1468 61)" stroke="#0E1E2B" stroke-width="2"/>
<line y1="-1" x2="15.5563" y2="-1" transform="matrix(0.707107 -0.707107 -0.707107 -0.707107 1452 61)" stroke="#0E1E2B" stroke-width="2"/>
<line y1="-1" x2="15.5563" y2="-1" transform="matrix(0.707107 -0.707107 -0.707107 -0.707107 1484 13)" stroke="#0E1E2B" stroke-width="2"/>
<line y1="-1" x2="15.5563" y2="-1" transform="matrix(0.707107 -0.707107 -0.707107 -0.707107 1468 13)" stroke="#0E1E2B" stroke-width="2"/>
<line y1="-1" x2="15.5563" y2="-1" transform="matrix(0.707107 -0.707107 -0.707107 -0.707107 1452 13)" stroke="#0E1E2B" stroke-width="2"/>
<line y1="-1" x2="15.5563" y2="-1" transform="matrix(0.707107 -0.707107 -0.707107 -0.707107 1484 25)" stroke="#0E1E2B" stroke-width="2"/>
<line y1="-1" x2="15.5563" y2="-1" transform="matrix(0.707107 -0.707107 -0.707107 -0.707107 1468 25)" stroke="#0E1E2B" stroke-width="2"/>
<line y1="-1" x2="15.5563" y2="-1" transform="matrix(0.707107 -0.707107 -0.707107 -0.707107 1452 25)" stroke="#0E1E2B" stroke-width="2"/>
<line y1="-1" x2="15.5563" y2="-1" transform="matrix(0.707107 -0.707107 -0.707107 -0.707107 1484 13)" stroke="#0E1E2B" stroke-width="2"/>
<line y1="-1" x2="15.5563" y2="-1" transform="matrix(0.707107 -0.707107 -0.707107 -0.707107 1468 13)" stroke="#0E1E2B" stroke-width="2"/>
<line y1="-1" x2="15.5563" y2="-1" transform="matrix(0.707107 -0.707107 -0.707107 -0.707107 1452 13)" stroke="#0E1E2B" stroke-width="2"/>
<line x1="1401.29" y1="13.2924" x2="1412.29" y2="2.29241" stroke="#0E1E2B" stroke-width="2"/>
<line x1="1401.29" y1="29.2924" x2="1412.29" y2="18.2924" stroke="#0E1E2B" stroke-width="2"/>
<line x1="1401.29" y1="45.2924" x2="1412.29" y2="34.2924" stroke="#0E1E2B" stroke-width="2"/>
<line x1="1425.29" y1="13.2924" x2="1436.29" y2="2.29241" stroke="#0E1E2B" stroke-width="2"/>
<line x1="1425.29" y1="29.2924" x2="1436.29" y2="18.2924" stroke="#0E1E2B" stroke-width="2"/>
<line x1="1425.29" y1="45.2924" x2="1436.29" y2="34.2924" stroke="#0E1E2B" stroke-width="2"/>
<line x1="1413.29" y1="13.2924" x2="1424.29" y2="2.29241" stroke="#0E1E2B" stroke-width="2"/>
<line x1="1413.29" y1="29.2924" x2="1424.29" y2="18.2924" stroke="#0E1E2B" stroke-width="2"/>
<line x1="1413.29" y1="45.2924" x2="1424.29" y2="34.2924" stroke="#0E1E2B" stroke-width="2"/>
<line x1="1437.29" y1="13.2924" x2="1448.29" y2="2.29241" stroke="#0E1E2B" stroke-width="2"/>
<line x1="1437.29" y1="29.2924" x2="1448.29" y2="18.2924" stroke="#0E1E2B" stroke-width="2"/>
<line x1="1437.29" y1="45.2924" x2="1448.29" y2="34.2924" stroke="#0E1E2B" stroke-width="2"/>
<rect width="100" height="100" transform="translate(1500)" fill="#09141D"/>
<rect width="100" height="8" transform="matrix(-4.37114e-08 -1 -1 4.37114e-08 1543 100)" fill="#153042"/>
<rect width="65" height="8" transform="matrix(1 0 0 -1 1535 43)" fill="#153042"/>
<rect x="0.5" y="-0.5" width="78" height="13" rx="1.5" transform="matrix(1 0 0 -1 1521 34)" fill="#142839" stroke="#0E1E2B"/>
<path d="M1536.3 33V28L1538.58 30.5L1546.7 33H1536.3Z" fill="#142839"/>
<path d="M1598.7 33V28L1596.42 30.5L1588.3 33H1598.7Z" fill="#142839"/>
<rect width="77" height="5" transform="matrix(1 0 0 -1 1522 27)" fill="url(#paint8_linear_37_11237)" fill-opacity="0.03"/>
<rect width="76" height="4" rx="1" transform="matrix(1 0 0 -1 1523 27)" fill="#153042"/>
<rect width="100" height="21" transform="matrix(1 0 0 -1 1500 21)" fill="#071118"/>
<rect x="-0.5" y="-0.5" width="65" height="13" rx="1.5" transform="matrix(-4.37114e-08 -1 -1 4.37114e-08 1534 99)" fill="#142839" stroke="#0E1E2B"/>
<path d="M1533 98.4399L1528 98.4399L1530.5 95.7099L1533 85.9599L1533 98.4399Z" fill="#142839"/>
<rect width="76.44" height="5" transform="matrix(-4.37114e-08 -1 -1 4.37114e-08 1527 99.2202)" fill="url(#paint9_linear_37_11237)" fill-opacity="0.03"/>
<rect width="62" height="4" rx="1" transform="matrix(-4.37114e-08 -1 -1 4.37114e-08 1527 98)" fill="#153042"/>
<rect width="100" height="21" transform="matrix(-4.37114e-08 -1 -1 4.37114e-08 1521 100)" fill="#071118"/>
<line y1="-1" x2="15.5563" y2="-1" transform="matrix(0.707107 -0.707107 -0.707107 -0.707107 1586 97)" stroke="#0E1E2B" stroke-width="2"/>
<line y1="-1" x2="15.5563" y2="-1" transform="matrix(0.707107 -0.707107 -0.707107 -0.707107 1570 97)" stroke="#0E1E2B" stroke-width="2"/>
<line y1="-1" x2="15.5563" y2="-1" transform="matrix(0.707107 -0.707107 -0.707107 -0.707107 1554 97)" stroke="#0E1E2B" stroke-width="2"/>
<line y1="-1" x2="15.5563" y2="-1" transform="matrix(0.707107 -0.707107 -0.707107 -0.707107 1586 73)" stroke="#0E1E2B" stroke-width="2"/>
<line y1="-1" x2="15.5563" y2="-1" transform="matrix(0.707107 -0.707107 -0.707107 -0.707107 1570 73)" stroke="#0E1E2B" stroke-width="2"/>
<line y1="-1" x2="15.5563" y2="-1" transform="matrix(0.707107 -0.707107 -0.707107 -0.707107 1554 73)" stroke="#0E1E2B" stroke-width="2"/>
<line y1="-1" x2="15.5563" y2="-1" transform="matrix(0.707107 -0.707107 -0.707107 -0.707107 1586 85)" stroke="#0E1E2B" stroke-width="2"/>
<line y1="-1" x2="15.5563" y2="-1" transform="matrix(0.707107 -0.707107 -0.707107 -0.707107 1570 85)" stroke="#0E1E2B" stroke-width="2"/>
<line y1="-1" x2="15.5563" y2="-1" transform="matrix(0.707107 -0.707107 -0.707107 -0.707107 1554 85)" stroke="#0E1E2B" stroke-width="2"/>
<rect width="100" height="100" transform="translate(1600)" fill="#09141D"/>
<rect x="1657" y="100" width="100" height="8" transform="rotate(-90 1657 100)" fill="#153042"/>
<rect x="1665" y="43" width="65" height="8" transform="rotate(180 1665 43)" fill="#153042"/>
<rect x="1678.5" y="34.5" width="78" height="13" rx="1.5" transform="rotate(180 1678.5 34.5)" fill="#142839" stroke="#0E1E2B"/>
<path d="M1663.7 33V28L1661.42 30.5L1653.3 33H1663.7Z" fill="#142839"/>
<path d="M1601.3 33V28L1603.58 30.5L1611.7 33H1601.3Z" fill="#142839"/>
<rect x="1678" y="27" width="77" height="5" transform="rotate(180 1678 27)" fill="url(#paint10_linear_37_11237)" fill-opacity="0.03"/>
<rect x="1677" y="27" width="76" height="4" rx="1" transform="rotate(180 1677 27)" fill="#153042"/>
<rect x="1700" y="21" width="100" height="21" transform="rotate(180 1700 21)" fill="#071118"/>
<rect x="1665.5" y="99.5" width="65" height="13" rx="1.5" transform="rotate(-90 1665.5 99.5)" fill="#142839" stroke="#0E1E2B"/>
<path d="M1667 98.4399L1672 98.4399L1669.5 95.7099L1667 85.9599L1667 98.4399Z" fill="#142839"/>
<rect x="1673" y="99.2202" width="76.44" height="5" transform="rotate(-90 1673 99.2202)" fill="url(#paint11_linear_37_11237)" fill-opacity="0.03"/>
<rect x="1673" y="98" width="62" height="4" rx="1" transform="rotate(-90 1673 98)" fill="#153042"/>
<rect x="1679" y="100" width="100" height="21" transform="rotate(-90 1679 100)" fill="#071118"/>
<line y1="-1" x2="15.5563" y2="-1" transform="matrix(0.707107 -0.707107 -0.707107 -0.707107 1619 97)" stroke="#0E1E2B" stroke-width="2"/>
<line y1="-1" x2="15.5563" y2="-1" transform="matrix(0.707107 -0.707107 -0.707107 -0.707107 1603 97)" stroke="#0E1E2B" stroke-width="2"/>
<line y1="-1" x2="15.5563" y2="-1" transform="matrix(0.707107 -0.707107 -0.707107 -0.707107 1619 73)" stroke="#0E1E2B" stroke-width="2"/>
<line y1="-1" x2="15.5563" y2="-1" transform="matrix(0.707107 -0.707107 -0.707107 -0.707107 1603 73)" stroke="#0E1E2B" stroke-width="2"/>
<line y1="-1" x2="15.5563" y2="-1" transform="matrix(0.707107 -0.707107 -0.707107 -0.707107 1619 85)" stroke="#0E1E2B" stroke-width="2"/>
<line y1="-1" x2="15.5563" y2="-1" transform="matrix(0.707107 -0.707107 -0.707107 -0.707107 1603 85)" stroke="#0E1E2B" stroke-width="2"/>
<rect width="100" height="100" transform="translate(1700)" fill="#09141D"/>
<rect x="1743" width="100" height="8" transform="rotate(90 1743 0)" fill="#153042"/>
<rect x="1735" y="57" width="65" height="8" fill="#153042"/>
<rect x="1721.5" y="65.5" width="78" height="13" rx="1.5" fill="#142839" stroke="#0E1E2B"/>
<path d="M1736.3 67L1736.3 72L1738.58 69.5L1746.7 67L1736.3 67Z" fill="#142839"/>
<path d="M1798.7 67L1798.7 72L1796.42 69.5L1788.3 67L1798.7 67Z" fill="#142839"/>
<rect x="1722" y="73" width="77" height="5" fill="url(#paint12_linear_37_11237)" fill-opacity="0.03"/>
<rect x="1723" y="73" width="76" height="4" rx="1" fill="#153042"/>
<rect x="1700" y="79" width="100" height="21" fill="#071118"/>
<rect x="1734.5" y="0.5" width="65" height="13" rx="1.5" transform="rotate(90 1734.5 0.5)" fill="#142839" stroke="#0E1E2B"/>
<path d="M1733 1.56006L1728 1.56006L1730.5 4.29006L1733 14.0401L1733 1.56006Z" fill="#142839"/>
<rect x="1727" y="0.779785" width="76.44" height="5" transform="rotate(90 1727 0.779785)" fill="url(#paint13_linear_37_11237)" fill-opacity="0.03"/>
<rect x="1727" y="2" width="62" height="4" rx="1" transform="rotate(90 1727 2)" fill="#153042"/>
<rect x="1721" width="100" height="21" transform="rotate(90 1721 0)" fill="#071118"/>
<line y1="-1" x2="15.5563" y2="-1" transform="matrix(0.707107 -0.707107 -0.707107 -0.707107 1786 38)" stroke="#0E1E2B" stroke-width="2"/>
<line y1="-1" x2="15.5563" y2="-1" transform="matrix(0.707107 -0.707107 -0.707107 -0.707107 1770 38)" stroke="#0E1E2B" stroke-width="2"/>
<line y1="-1" x2="15.5563" y2="-1" transform="matrix(0.707107 -0.707107 -0.707107 -0.707107 1786 14)" stroke="#0E1E2B" stroke-width="2"/>
<line y1="-1" x2="15.5563" y2="-1" transform="matrix(0.707107 -0.707107 -0.707107 -0.707107 1770 14)" stroke="#0E1E2B" stroke-width="2"/>
<line y1="-1" x2="15.5563" y2="-1" transform="matrix(0.707107 -0.707107 -0.707107 -0.707107 1786 26)" stroke="#0E1E2B" stroke-width="2"/>
<line y1="-1" x2="15.5563" y2="-1" transform="matrix(0.707107 -0.707107 -0.707107 -0.707107 1770 26)" stroke="#0E1E2B" stroke-width="2"/>
<rect width="100" height="100" transform="translate(1800)" fill="#09141D"/>
<rect x="1800" y="57" width="100" height="8" fill="#153042"/>
<rect x="1857" y="65" width="65" height="8" transform="rotate(-90 1857 65)" fill="#153042"/>
<rect x="1865.5" y="78.5" width="78" height="13" rx="1.5" transform="rotate(-90 1865.5 78.5)" fill="#142839" stroke="#0E1E2B"/>
<path d="M1867 63.7002L1872 63.7002L1869.5 61.4252L1867 53.3002L1867 63.7002Z" fill="#142839"/>
<path d="M1867 1.2998L1872 1.2998L1869.5 3.5748L1867 11.6998L1867 1.2998Z" fill="#142839"/>
<rect x="1873" y="78" width="77" height="5" transform="rotate(-90 1873 78)" fill="url(#paint14_linear_37_11237)" fill-opacity="0.03"/>
<rect x="1873" y="77" width="76" height="4" rx="1" transform="rotate(-90 1873 77)" fill="#153042"/>
<rect x="1879" y="100" width="100" height="21" transform="rotate(-90 1879 100)" fill="#071118"/>
<rect x="1800.5" y="65.5" width="65" height="13" rx="1.5" fill="#142839" stroke="#0E1E2B"/>
<path d="M1801.56 67L1801.56 72L1804.29 69.5L1814.04 67L1801.56 67Z" fill="#142839"/>
<rect x="1800.78" y="73" width="76.44" height="5" fill="url(#paint15_linear_37_11237)" fill-opacity="0.03"/>
<rect x="1802" y="73" width="62" height="4" rx="1" fill="#153042"/>
<rect x="1800" y="79" width="100" height="21" fill="#071118"/>
<line y1="-1" x2="15.5563" y2="-1" transform="matrix(0.707107 -0.707107 -0.707107 -0.707107 1823 42)" stroke="#0E1E2B" stroke-width="2"/>
<line y1="-1" x2="15.5563" y2="-1" transform="matrix(0.707107 -0.707107 -0.707107 -0.707107 1807 42)" stroke="#0E1E2B" stroke-width="2"/>
<line y1="-1" x2="15.5563" y2="-1" transform="matrix(0.707107 -0.707107 -0.707107 -0.707107 1823 18)" stroke="#0E1E2B" stroke-width="2"/>
<line y1="-1" x2="15.5563" y2="-1" transform="matrix(0.707107 -0.707107 -0.707107 -0.707107 1807 18)" stroke="#0E1E2B" stroke-width="2"/>
<line y1="-1" x2="15.5563" y2="-1" transform="matrix(0.707107 -0.707107 -0.707107 -0.707107 1823 30)" stroke="#0E1E2B" stroke-width="2"/>
<line y1="-1" x2="15.5563" y2="-1" transform="matrix(0.707107 -0.707107 -0.707107 -0.707107 1807 30)" stroke="#0E1E2B" stroke-width="2"/>
<rect width="100" height="100" transform="translate(1900)" fill="#09141D"/>
<rect width="41" height="8" transform="matrix(1 0 0 -1 1900 43)" fill="#153042"/>
<rect x="0.5" y="-0.5" width="34" height="13" rx="1.5" transform="matrix(1 0 0 -1 1900 34)" fill="#142839" stroke="#0E1E2B"/>
<path d="M1900.42 33V28L1901.15 30.5L1903.78 33H1900.42Z" fill="#142839"/>
<path d="M1919 33V28L1918.26 30.5L1915.64 33H1919Z" fill="#142839"/>
<rect width="20.58" height="5" transform="matrix(1 0 0 -1 1900.21 27)" fill="url(#paint16_linear_37_11237)" fill-opacity="0.03"/>
<rect width="19" height="4" rx="1" transform="matrix(1 0 0 -1 1900 27)" fill="#153042"/>
<rect width="21" height="21" transform="matrix(1 0 0 -1 1900 21)" fill="#071118"/>
<rect width="43" height="8" transform="matrix(4.37114e-08 -1 -1 -4.37114e-08 1943 43)" fill="#153042"/>
<rect x="-0.5" y="-0.5" width="34" height="13" rx="1.5" transform="matrix(4.37114e-08 -1 -1 -4.37114e-08 1934 34)" fill="#142839" stroke="#0E1E2B"/>
<path d="M1933 34.3003L1928 34.3003L1930.5 33.0753L1933 28.7003L1933 34.3003Z" fill="#142839"/>
<path d="M1933 0.700195L1928 0.700195L1930.5 1.9252L1933 6.3002L1933 0.700195Z" fill="#142839"/>
<rect width="34.3" height="5" transform="matrix(4.37114e-08 -1 -1 -4.37114e-08 1927 34.6504)" fill="url(#paint17_linear_37_11237)" fill-opacity="0.03"/>
<rect width="31" height="4" rx="1" transform="matrix(4.37114e-08 -1 -1 -4.37114e-08 1927 33.0005)" fill="#153042"/>
<line x1="1998.71" y1="84.7071" x2="1987.71" y2="95.7071" stroke="#0E1E2B" stroke-width="2"/>
<line x1="1998.71" y1="68.7071" x2="1987.71" y2="79.7071" stroke="#0E1E2B" stroke-width="2"/>
<line x1="1998.71" y1="52.7071" x2="1987.71" y2="63.7071" stroke="#0E1E2B" stroke-width="2"/>
<line x1="1950.71" y1="84.7071" x2="1939.71" y2="95.7071" stroke="#0E1E2B" stroke-width="2"/>
<line x1="1950.71" y1="68.7071" x2="1939.71" y2="79.7071" stroke="#0E1E2B" stroke-width="2"/>
<line x1="1950.71" y1="52.7071" x2="1939.71" y2="63.7071" stroke="#0E1E2B" stroke-width="2"/>
<line x1="1974.71" y1="84.7071" x2="1963.71" y2="95.7071" stroke="#0E1E2B" stroke-width="2"/>
<line x1="1974.71" y1="68.7071" x2="1963.71" y2="79.7071" stroke="#0E1E2B" stroke-width="2"/>
<line x1="1974.71" y1="52.7071" x2="1963.71" y2="63.7071" stroke="#0E1E2B" stroke-width="2"/>
<line x1="1926.71" y1="84.7071" x2="1915.71" y2="95.7071" stroke="#0E1E2B" stroke-width="2"/>
<line x1="1926.71" y1="68.7071" x2="1915.71" y2="79.7071" stroke="#0E1E2B" stroke-width="2"/>
<line x1="1926.71" y1="52.7071" x2="1915.71" y2="63.7071" stroke="#0E1E2B" stroke-width="2"/>
<line x1="1986.71" y1="84.7071" x2="1975.71" y2="95.7071" stroke="#0E1E2B" stroke-width="2"/>
<line x1="1986.71" y1="68.7071" x2="1975.71" y2="79.7071" stroke="#0E1E2B" stroke-width="2"/>
<line x1="1986.71" y1="52.7071" x2="1975.71" y2="63.7071" stroke="#0E1E2B" stroke-width="2"/>
<line x1="1938.71" y1="84.7071" x2="1927.71" y2="95.7071" stroke="#0E1E2B" stroke-width="2"/>
<line x1="1938.71" y1="68.7071" x2="1927.71" y2="79.7071" stroke="#0E1E2B" stroke-width="2"/>
<line x1="1938.71" y1="52.7071" x2="1927.71" y2="63.7071" stroke="#0E1E2B" stroke-width="2"/>
<line x1="1962.71" y1="84.7071" x2="1951.71" y2="95.7071" stroke="#0E1E2B" stroke-width="2"/>
<line x1="1962.71" y1="68.7071" x2="1951.71" y2="79.7071" stroke="#0E1E2B" stroke-width="2"/>
<line x1="1962.71" y1="52.7071" x2="1951.71" y2="63.7071" stroke="#0E1E2B" stroke-width="2"/>
<line x1="1914.71" y1="84.7071" x2="1903.71" y2="95.7071" stroke="#0E1E2B" stroke-width="2"/>
<line x1="1914.71" y1="68.7071" x2="1903.71" y2="79.7071" stroke="#0E1E2B" stroke-width="2"/>
<line x1="1914.71" y1="52.7071" x2="1903.71" y2="63.7071" stroke="#0E1E2B" stroke-width="2"/>
<line x1="1926.71" y1="84.7071" x2="1915.71" y2="95.7071" stroke="#0E1E2B" stroke-width="2"/>
<line x1="1926.71" y1="68.7071" x2="1915.71" y2="79.7071" stroke="#0E1E2B" stroke-width="2"/>
<line x1="1926.71" y1="52.7071" x2="1915.71" y2="63.7071" stroke="#0E1E2B" stroke-width="2"/>
<line x1="1914.71" y1="84.7071" x2="1903.71" y2="95.7071" stroke="#0E1E2B" stroke-width="2"/>
<line x1="1914.71" y1="68.7071" x2="1903.71" y2="79.7071" stroke="#0E1E2B" stroke-width="2"/>
<line x1="1914.71" y1="52.7071" x2="1903.71" y2="63.7071" stroke="#0E1E2B" stroke-width="2"/>
<line y1="-1" x2="15.5563" y2="-1" transform="matrix(-0.707107 0.707107 0.707107 0.707107 1965 2)" stroke="#0E1E2B" stroke-width="2"/>
<line y1="-1" x2="15.5563" y2="-1" transform="matrix(-0.707107 0.707107 0.707107 0.707107 1981 2)" stroke="#0E1E2B" stroke-width="2"/>
<line y1="-1" x2="15.5563" y2="-1" transform="matrix(-0.707107 0.707107 0.707107 0.707107 1997 2)" stroke="#0E1E2B" stroke-width="2"/>
<line y1="-1" x2="15.5563" y2="-1" transform="matrix(-0.707107 0.707107 0.707107 0.707107 1965 26)" stroke="#0E1E2B" stroke-width="2"/>
<line y1="-1" x2="15.5563" y2="-1" transform="matrix(-0.707107 0.707107 0.707107 0.707107 1981 26)" stroke="#0E1E2B" stroke-width="2"/>
<line y1="-1" x2="15.5563" y2="-1" transform="matrix(-0.707107 0.707107 0.707107 0.707107 1997 26)" stroke="#0E1E2B" stroke-width="2"/>
<line y1="-1" x2="15.5563" y2="-1" transform="matrix(-0.707107 0.707107 0.707107 0.707107 1965 14)" stroke="#0E1E2B" stroke-width="2"/>
<line y1="-1" x2="15.5563" y2="-1" transform="matrix(-0.707107 0.707107 0.707107 0.707107 1981 14)" stroke="#0E1E2B" stroke-width="2"/>
<line y1="-1" x2="15.5563" y2="-1" transform="matrix(-0.707107 0.707107 0.707107 0.707107 1997 14)" stroke="#0E1E2B" stroke-width="2"/>
<line y1="-1" x2="15.5563" y2="-1" transform="matrix(-0.707107 0.707107 0.707107 0.707107 1965 38)" stroke="#0E1E2B" stroke-width="2"/>
<line y1="-1" x2="15.5563" y2="-1" transform="matrix(-0.707107 0.707107 0.707107 0.707107 1981 38)" stroke="#0E1E2B" stroke-width="2"/>
<line y1="-1" x2="15.5563" y2="-1" transform="matrix(-0.707107 0.707107 0.707107 0.707107 1997 38)" stroke="#0E1E2B" stroke-width="2"/>
<rect width="100" height="100" transform="translate(2000)" fill="#09141D"/>
<rect width="41" height="8" transform="matrix(-4.37114e-08 1 1 4.37114e-08 2057 0)" fill="#153042"/>
<rect x="0.5" y="0.5" width="34" height="13" rx="1.5" transform="matrix(-4.37114e-08 1 1 4.37114e-08 2065 2.18557e-08)" fill="#142839" stroke="#0E1E2B"/>
<path d="M2067 0.419922L2072 0.419922L2069.5 1.15492L2067 3.77992L2067 0.419922Z" fill="#142839"/>
<path d="M2067 19L2072 19L2069.5 18.265L2067 15.64L2067 19Z" fill="#142839"/>
<rect width="20.58" height="5" transform="matrix(-4.37114e-08 1 1 4.37114e-08 2073 0.209961)" fill="url(#paint18_linear_37_11237)" fill-opacity="0.03"/>
<rect width="19" height="4" rx="1" transform="matrix(-4.37114e-08 1 1 4.37114e-08 2073 0)" fill="#153042"/>
<rect width="21" height="21" transform="matrix(-4.37114e-08 1 1 4.37114e-08 2079 0)" fill="#071118"/>
<rect width="43" height="8" transform="matrix(1 8.74228e-08 8.74228e-08 -1 2057 43)" fill="#153042"/>
<rect x="0.5" y="-0.5" width="34" height="13" rx="1.5" transform="matrix(1 8.74228e-08 8.74228e-08 -1 2065 34)" fill="#142839" stroke="#0E1E2B"/>
<path d="M2065.7 33L2065.7 28L2066.92 30.5L2071.3 33L2065.7 33Z" fill="#142839"/>
<path d="M2099.3 33L2099.3 28L2098.07 30.5L2093.7 33L2099.3 33Z" fill="#142839"/>
<rect width="34.3" height="5" transform="matrix(1 8.74228e-08 8.74228e-08 -1 2065.35 27)" fill="url(#paint19_linear_37_11237)" fill-opacity="0.03"/>
<rect width="31" height="4" rx="1" transform="matrix(1 8.74228e-08 8.74228e-08 -1 2067 27)" fill="#153042"/>
<line y1="-1" x2="15.5563" y2="-1" transform="matrix(0.707107 -0.707107 -0.707107 -0.707107 2033.5 97.5)" stroke="#0E1E2B" stroke-width="2"/>
<line y1="-1" x2="15.5563" y2="-1" transform="matrix(0.707107 -0.707107 -0.707107 -0.707107 2017.5 97.5)" stroke="#0E1E2B" stroke-width="2"/>
<line y1="-1" x2="15.5563" y2="-1" transform="matrix(0.707107 -0.707107 -0.707107 -0.707107 2001.5 97.5)" stroke="#0E1E2B" stroke-width="2"/>
<line y1="-1" x2="15.5563" y2="-1" transform="matrix(0.707107 -0.707107 -0.707107 -0.707107 2033.5 49.5)" stroke="#0E1E2B" stroke-width="2"/>
<line y1="-1" x2="15.5563" y2="-1" transform="matrix(0.707107 -0.707107 -0.707107 -0.707107 2017.5 49.5)" stroke="#0E1E2B" stroke-width="2"/>
<line y1="-1" x2="15.5563" y2="-1" transform="matrix(0.707107 -0.707107 -0.707107 -0.707107 2001.5 49.5)" stroke="#0E1E2B" stroke-width="2"/>
<line y1="-1" x2="15.5563" y2="-1" transform="matrix(0.707107 -0.707107 -0.707107 -0.707107 2033.5 73.5)" stroke="#0E1E2B" stroke-width="2"/>
<line y1="-1" x2="15.5563" y2="-1" transform="matrix(0.707107 -0.707107 -0.707107 -0.707107 2017.5 73.5)" stroke="#0E1E2B" stroke-width="2"/>
<line y1="-1" x2="15.5563" y2="-1" transform="matrix(0.707107 -0.707107 -0.707107 -0.707107 2001.5 73.5)" stroke="#0E1E2B" stroke-width="2"/>
<line y1="-1" x2="15.5563" y2="-1" transform="matrix(0.707107 -0.707107 -0.707107 -0.707107 2033.5 25.5)" stroke="#0E1E2B" stroke-width="2"/>
<line y1="-1" x2="15.5563" y2="-1" transform="matrix(0.707107 -0.707107 -0.707107 -0.707107 2017.5 25.5)" stroke="#0E1E2B" stroke-width="2"/>
<line y1="-1" x2="15.5563" y2="-1" transform="matrix(0.707107 -0.707107 -0.707107 -0.707107 2001.5 25.5)" stroke="#0E1E2B" stroke-width="2"/>
<line y1="-1" x2="15.5563" y2="-1" transform="matrix(0.707107 -0.707107 -0.707107 -0.707107 2033.5 85.5)" stroke="#0E1E2B" stroke-width="2"/>
<line y1="-1" x2="15.5563" y2="-1" transform="matrix(0.707107 -0.707107 -0.707107 -0.707107 2017.5 85.5)" stroke="#0E1E2B" stroke-width="2"/>
<line y1="-1" x2="15.5563" y2="-1" transform="matrix(0.707107 -0.707107 -0.707107 -0.707107 2001.5 85.5)" stroke="#0E1E2B" stroke-width="2"/>
<line y1="-1" x2="15.5563" y2="-1" transform="matrix(0.707107 -0.707107 -0.707107 -0.707107 2033.5 37.5)" stroke="#0E1E2B" stroke-width="2"/>
<line y1="-1" x2="15.5563" y2="-1" transform="matrix(0.707107 -0.707107 -0.707107 -0.707107 2017.5 37.5)" stroke="#0E1E2B" stroke-width="2"/>
<line y1="-1" x2="15.5563" y2="-1" transform="matrix(0.707107 -0.707107 -0.707107 -0.707107 2001.5 37.5)" stroke="#0E1E2B" stroke-width="2"/>
<line y1="-1" x2="15.5563" y2="-1" transform="matrix(0.707107 -0.707107 -0.707107 -0.707107 2033.5 61.5)" stroke="#0E1E2B" stroke-width="2"/>
<line y1="-1" x2="15.5563" y2="-1" transform="matrix(0.707107 -0.707107 -0.707107 -0.707107 2017.5 61.5)" stroke="#0E1E2B" stroke-width="2"/>
<line y1="-1" x2="15.5563" y2="-1" transform="matrix(0.707107 -0.707107 -0.707107 -0.707107 2001.5 61.5)" stroke="#0E1E2B" stroke-width="2"/>
<line y1="-1" x2="15.5563" y2="-1" transform="matrix(0.707107 -0.707107 -0.707107 -0.707107 2033.5 13.5)" stroke="#0E1E2B" stroke-width="2"/>
<line y1="-1" x2="15.5563" y2="-1" transform="matrix(0.707107 -0.707107 -0.707107 -0.707107 2017.5 13.5)" stroke="#0E1E2B" stroke-width="2"/>
<line y1="-1" x2="15.5563" y2="-1" transform="matrix(0.707107 -0.707107 -0.707107 -0.707107 2001.5 13.5)" stroke="#0E1E2B" stroke-width="2"/>
<line y1="-1" x2="15.5563" y2="-1" transform="matrix(0.707107 -0.707107 -0.707107 -0.707107 2033.5 25.5)" stroke="#0E1E2B" stroke-width="2"/>
<line y1="-1" x2="15.5563" y2="-1" transform="matrix(0.707107 -0.707107 -0.707107 -0.707107 2017.5 25.5)" stroke="#0E1E2B" stroke-width="2"/>
<line y1="-1" x2="15.5563" y2="-1" transform="matrix(0.707107 -0.707107 -0.707107 -0.707107 2001.5 25.5)" stroke="#0E1E2B" stroke-width="2"/>
<line y1="-1" x2="15.5563" y2="-1" transform="matrix(0.707107 -0.707107 -0.707107 -0.707107 2033.5 13.5)" stroke="#0E1E2B" stroke-width="2"/>
<line y1="-1" x2="15.5563" y2="-1" transform="matrix(0.707107 -0.707107 -0.707107 -0.707107 2017.5 13.5)" stroke="#0E1E2B" stroke-width="2"/>
<line y1="-1" x2="15.5563" y2="-1" transform="matrix(0.707107 -0.707107 -0.707107 -0.707107 2001.5 13.5)" stroke="#0E1E2B" stroke-width="2"/>
<line x1="2069.29" y1="63.7929" x2="2080.29" y2="52.7929" stroke="#0E1E2B" stroke-width="2"/>
<line x1="2069.29" y1="79.7929" x2="2080.29" y2="68.7929" stroke="#0E1E2B" stroke-width="2"/>
<line x1="2069.29" y1="95.7929" x2="2080.29" y2="84.7929" stroke="#0E1E2B" stroke-width="2"/>
<line x1="2052.29" y1="63.7929" x2="2063.29" y2="52.7929" stroke="#0E1E2B" stroke-width="2"/>
<line x1="2052.29" y1="79.7929" x2="2063.29" y2="68.7929" stroke="#0E1E2B" stroke-width="2"/>
<line x1="2052.29" y1="95.7929" x2="2063.29" y2="84.7929" stroke="#0E1E2B" stroke-width="2"/>
<line x1="2087.29" y1="63.7929" x2="2098.29" y2="52.7929" stroke="#0E1E2B" stroke-width="2"/>
<line x1="2087.29" y1="79.7929" x2="2098.29" y2="68.7929" stroke="#0E1E2B" stroke-width="2"/>
<line x1="2087.29" y1="95.7929" x2="2098.29" y2="84.7929" stroke="#0E1E2B" stroke-width="2"/>
<rect width="100" height="100" transform="translate(2100)" fill="#09141D"/>
<rect width="100" height="8" transform="matrix(-4.37114e-08 -1 -1 4.37114e-08 2143 100)" fill="#153042"/>
<rect x="-0.5" y="-0.5" width="99" height="13" rx="1.5" transform="matrix(-4.37114e-08 -1 -1 4.37114e-08 2134 99)" fill="#142839" stroke="#0E1E2B"/>
<path d="M2133 98L2128 98L2130.5 94.5L2133 82L2133 98Z" fill="#142839"/>
<path d="M2133 2L2128 2L2130.5 5.5L2133 18L2133 2Z" fill="#142839"/>
<rect width="98" height="5" transform="matrix(-4.37114e-08 -1 -1 4.37114e-08 2127 99)" fill="url(#paint20_linear_37_11237)" fill-opacity="0.03"/>
<rect width="96" height="4" rx="1" transform="matrix(-4.37114e-08 -1 -1 4.37114e-08 2127 98)" fill="#153042"/>
<rect width="100" height="21" transform="matrix(-4.37114e-08 -1 -1 4.37114e-08 2121 100)" fill="#071118"/>
<line y1="-1" x2="15.5563" y2="-1" transform="matrix(0.707107 -0.707107 -0.707107 -0.707107 2186 97)" stroke="#0E1E2B" stroke-width="2"/>
<line y1="-1" x2="15.5563" y2="-1" transform="matrix(0.707107 -0.707107 -0.707107 -0.707107 2170 97)" stroke="#0E1E2B" stroke-width="2"/>
<line y1="-1" x2="15.5563" y2="-1" transform="matrix(0.707107 -0.707107 -0.707107 -0.707107 2154 97)" stroke="#0E1E2B" stroke-width="2"/>
<line y1="-1" x2="15.5563" y2="-1" transform="matrix(0.707107 -0.707107 -0.707107 -0.707107 2186 49)" stroke="#0E1E2B" stroke-width="2"/>
<line y1="-1" x2="15.5563" y2="-1" transform="matrix(0.707107 -0.707107 -0.707107 -0.707107 2170 49)" stroke="#0E1E2B" stroke-width="2"/>
<line y1="-1" x2="15.5563" y2="-1" transform="matrix(0.707107 -0.707107 -0.707107 -0.707107 2154 49)" stroke="#0E1E2B" stroke-width="2"/>
<line y1="-1" x2="15.5563" y2="-1" transform="matrix(0.707107 -0.707107 -0.707107 -0.707107 2186 73)" stroke="#0E1E2B" stroke-width="2"/>
<line y1="-1" x2="15.5563" y2="-1" transform="matrix(0.707107 -0.707107 -0.707107 -0.707107 2170 73)" stroke="#0E1E2B" stroke-width="2"/>
<line y1="-1" x2="15.5563" y2="-1" transform="matrix(0.707107 -0.707107 -0.707107 -0.707107 2154 73)" stroke="#0E1E2B" stroke-width="2"/>
<line y1="-1" x2="15.5563" y2="-1" transform="matrix(0.707107 -0.707107 -0.707107 -0.707107 2186 25)" stroke="#0E1E2B" stroke-width="2"/>
<line y1="-1" x2="15.5563" y2="-1" transform="matrix(0.707107 -0.707107 -0.707107 -0.707107 2170 25)" stroke="#0E1E2B" stroke-width="2"/>
<line y1="-1" x2="15.5563" y2="-1" transform="matrix(0.707107 -0.707107 -0.707107 -0.707107 2154 25)" stroke="#0E1E2B" stroke-width="2"/>
<line y1="-1" x2="15.5563" y2="-1" transform="matrix(0.707107 -0.707107 -0.707107 -0.707107 2186 85)" stroke="#0E1E2B" stroke-width="2"/>
<line y1="-1" x2="15.5563" y2="-1" transform="matrix(0.707107 -0.707107 -0.707107 -0.707107 2170 85)" stroke="#0E1E2B" stroke-width="2"/>
<line y1="-1" x2="15.5563" y2="-1" transform="matrix(0.707107 -0.707107 -0.707107 -0.707107 2154 85)" stroke="#0E1E2B" stroke-width="2"/>
<line y1="-1" x2="15.5563" y2="-1" transform="matrix(0.707107 -0.707107 -0.707107 -0.707107 2186 37)" stroke="#0E1E2B" stroke-width="2"/>
<line y1="-1" x2="15.5563" y2="-1" transform="matrix(0.707107 -0.707107 -0.707107 -0.707107 2170 37)" stroke="#0E1E2B" stroke-width="2"/>
<line y1="-1" x2="15.5563" y2="-1" transform="matrix(0.707107 -0.707107 -0.707107 -0.707107 2154 37)" stroke="#0E1E2B" stroke-width="2"/>
<line y1="-1" x2="15.5563" y2="-1" transform="matrix(0.707107 -0.707107 -0.707107 -0.707107 2186 61)" stroke="#0E1E2B" stroke-width="2"/>
<line y1="-1" x2="15.5563" y2="-1" transform="matrix(0.707107 -0.707107 -0.707107 -0.707107 2170 61)" stroke="#0E1E2B" stroke-width="2"/>
<line y1="-1" x2="15.5563" y2="-1" transform="matrix(0.707107 -0.707107 -0.707107 -0.707107 2154 61)" stroke="#0E1E2B" stroke-width="2"/>
<line y1="-1" x2="15.5563" y2="-1" transform="matrix(0.707107 -0.707107 -0.707107 -0.707107 2186 13)" stroke="#0E1E2B" stroke-width="2"/>
<line y1="-1" x2="15.5563" y2="-1" transform="matrix(0.707107 -0.707107 -0.707107 -0.707107 2170 13)" stroke="#0E1E2B" stroke-width="2"/>
<line y1="-1" x2="15.5563" y2="-1" transform="matrix(0.707107 -0.707107 -0.707107 -0.707107 2154 13)" stroke="#0E1E2B" stroke-width="2"/>
<rect width="58" height="53" transform="matrix(-4.37114e-08 -1 -1 4.37114e-08 2157 86)" fill="#153042"/>
<path d="M2157 86L2157 83L2104 83L2104 86L2115.24 97L2150.58 97L2157 86Z" fill="#142839"/>
<rect width="3" height="53" transform="matrix(-4.37114e-08 -1 -1 4.37114e-08 2157 31)" fill="#142839"/>
<path d="M2120.64 40.0225C2119.98 43.8537 2121.79 44.8233 2123.54 45.5358L2134.65 44.8689C2136.51 44.2741 2138.53 42.6289 2138.39 40.4066C2138.22 37.4253 2134.68 36.6018 2134.07 38.8825C2133.98 39.2225 2131.33 36.3276 2131.85 33.5515C2132.69 29.0406 2132.81 27.2496 2128.73 26.1564C2124.65 25.0633 2119.16 31.9717 2122.17 30.2295C2125.19 28.4873 2127.23 29.0344 2128.16 29.6474C2131.1 32.2584 2126.88 34.407 2124.91 34.9715C2122.94 35.5359 2121.13 37.2262 2120.64 40.0225Z" fill="#03B3E3"/>
<path d="M2127.81 40.4853C2124.52 40.7716 2125.65 43.5511 2126.62 44.9051C2127.48 44.8911 2129.56 44.818 2131.07 44.6384C2131.86 43.0296 2131.91 40.1274 2127.81 40.4853Z" fill="#BDFFFF"/>
<ellipse cx="2140.02" cy="30.2732" rx="1.40793" ry="1.40793" transform="rotate(15 2140.02 30.2732)" fill="#03B3E3"/>
<ellipse cx="2144.16" cy="17.537" rx="0.703965" ry="0.703965" transform="rotate(15 2144.16 17.537)" fill="#03B3E3"/>
<ellipse cx="2144.64" cy="29.3265" rx="0.703965" ry="0.703965" transform="rotate(15 2144.64 29.3265)" fill="#03B3E3"/>
<path d="M2129.38 72.9761C2129.07 72.9501 2127.72 59.0149 2127.09 52.6822L2132.5 52.0457C2132.12 58.9034 2131.3 72.6675 2131.13 72.8624C2130.92 73.106 2129.77 73.0086 2129.38 72.9761Z" fill="#354E4F" stroke="#213D3E" stroke-width="3"/>
<path d="M2124.74 50.5931C2124.15 50.0709 2125.1 49.2331 2125.62 48.6442C2122.56 48.1145 2123.02 46.1246 2124.13 46.0578C2125.61 45.9688 2129.09 45.7825 2131.14 45.7486C2133.7 45.7064 2136.03 45.5588 2136.08 46.3444C2136.21 48.5664 2133.74 48.2685 2134.58 49.2217C2135.25 49.9844 2133.35 51.0798 2132.92 51.3287C2131.44 51.4176 2128.47 51.3391 2127.46 51.322C2126.01 51.2976 2125.32 51.1152 2124.74 50.5931Z" fill="#142839" stroke="#142839" stroke-width="3"/>
<defs>
<linearGradient id="paint0_linear_37_11237" x1="49" y1="0" x2="49" y2="5" gradientUnits="userSpaceOnUse">
<stop stop-color="white" stop-opacity="0"/>
<stop offset="1" stop-color="white"/>
</linearGradient>
<linearGradient id="paint1_linear_37_11237" x1="1050" y1="72.9995" x2="1050" y2="77.9995" gradientUnits="userSpaceOnUse">
<stop stop-color="white" stop-opacity="0"/>
<stop offset="1" stop-color="white"/>
</linearGradient>
<linearGradient id="paint2_linear_37_11237" x1="49" y1="0" x2="49" y2="5" gradientUnits="userSpaceOnUse">
<stop stop-color="white" stop-opacity="0"/>
<stop offset="1" stop-color="white"/>
</linearGradient>
<linearGradient id="paint3_linear_37_11237" x1="1322" y1="99" x2="1322" y2="104" gradientUnits="userSpaceOnUse">
<stop stop-color="white" stop-opacity="0"/>
<stop offset="1" stop-color="white"/>
</linearGradient>
<linearGradient id="paint4_linear_37_11237" x1="1383.29" y1="99.79" x2="1383.29" y2="104.79" gradientUnits="userSpaceOnUse">
<stop stop-color="white" stop-opacity="0"/>
<stop offset="1" stop-color="white"/>
</linearGradient>
<linearGradient id="paint5_linear_37_11237" x1="1382.5" y1="73" x2="1382.5" y2="78" gradientUnits="userSpaceOnUse">
<stop stop-color="white" stop-opacity="0"/>
<stop offset="1" stop-color="white"/>
</linearGradient>
<linearGradient id="paint6_linear_37_11237" x1="10.29" y1="0" x2="10.29" y2="5" gradientUnits="userSpaceOnUse">
<stop stop-color="white" stop-opacity="0"/>
<stop offset="1" stop-color="white"/>
</linearGradient>
<linearGradient id="paint7_linear_37_11237" x1="17.15" y1="0" x2="17.15" y2="5" gradientUnits="userSpaceOnUse">
<stop stop-color="white" stop-opacity="0"/>
<stop offset="1" stop-color="white"/>
</linearGradient>
<linearGradient id="paint8_linear_37_11237" x1="38.5" y1="0" x2="38.5" y2="5" gradientUnits="userSpaceOnUse">
<stop stop-color="white" stop-opacity="0"/>
<stop offset="1" stop-color="white"/>
</linearGradient>
<linearGradient id="paint9_linear_37_11237" x1="38.22" y1="0" x2="38.22" y2="5" gradientUnits="userSpaceOnUse">
<stop stop-color="white" stop-opacity="0"/>
<stop offset="1" stop-color="white"/>
</linearGradient>
<linearGradient id="paint10_linear_37_11237" x1="1716.5" y1="27" x2="1716.5" y2="32" gradientUnits="userSpaceOnUse">
<stop stop-color="white" stop-opacity="0"/>
<stop offset="1" stop-color="white"/>
</linearGradient>
<linearGradient id="paint11_linear_37_11237" x1="1711.22" y1="99.2202" x2="1711.22" y2="104.22" gradientUnits="userSpaceOnUse">
<stop stop-color="white" stop-opacity="0"/>
<stop offset="1" stop-color="white"/>
</linearGradient>
<linearGradient id="paint12_linear_37_11237" x1="1760.5" y1="73" x2="1760.5" y2="78" gradientUnits="userSpaceOnUse">
<stop stop-color="white" stop-opacity="0"/>
<stop offset="1" stop-color="white"/>
</linearGradient>
<linearGradient id="paint13_linear_37_11237" x1="1765.22" y1="0.779785" x2="1765.22" y2="5.77979" gradientUnits="userSpaceOnUse">
<stop stop-color="white" stop-opacity="0"/>
<stop offset="1" stop-color="white"/>
</linearGradient>
<linearGradient id="paint14_linear_37_11237" x1="1911.5" y1="78" x2="1911.5" y2="83" gradientUnits="userSpaceOnUse">
<stop stop-color="white" stop-opacity="0"/>
<stop offset="1" stop-color="white"/>
</linearGradient>
<linearGradient id="paint15_linear_37_11237" x1="1839" y1="73" x2="1839" y2="78" gradientUnits="userSpaceOnUse">
<stop stop-color="white" stop-opacity="0"/>
<stop offset="1" stop-color="white"/>
</linearGradient>
<linearGradient id="paint16_linear_37_11237" x1="10.29" y1="0" x2="10.29" y2="5" gradientUnits="userSpaceOnUse">
<stop stop-color="white" stop-opacity="0"/>
<stop offset="1" stop-color="white"/>
</linearGradient>
<linearGradient id="paint17_linear_37_11237" x1="17.15" y1="0" x2="17.15" y2="5" gradientUnits="userSpaceOnUse">
<stop stop-color="white" stop-opacity="0"/>
<stop offset="1" stop-color="white"/>
</linearGradient>
<linearGradient id="paint18_linear_37_11237" x1="10.29" y1="0" x2="10.29" y2="5" gradientUnits="userSpaceOnUse">
<stop stop-color="white" stop-opacity="0"/>
<stop offset="1" stop-color="white"/>
</linearGradient>
<linearGradient id="paint19_linear_37_11237" x1="17.15" y1="0" x2="17.15" y2="5" gradientUnits="userSpaceOnUse">
<stop stop-color="white" stop-opacity="0"/>
<stop offset="1" stop-color="white"/>
</linearGradient>
<linearGradient id="paint20_linear_37_11237" x1="49" y1="0" x2="49" y2="5" gradientUnits="userSpaceOnUse">
<stop stop-color="white" stop-opacity="0"/>
<stop offset="1" stop-color="white"/>
</linearGradient>
<clipPath id="clip0_37_11237">
<rect width="100" height="100" fill="white" transform="translate(200)"/>
</clipPath>
</defs>
</svg>
