<svg width="2300" height="109" viewBox="0 0 2300 109" fill="none" xmlns="http://www.w3.org/2000/svg">
<rect width="100" height="100" transform="translate(0 9)" fill="#09141D"/>
<rect width="100" height="100" transform="translate(100 9)" fill="#09141D"/>
<rect width="100" height="100" transform="translate(200 9)" fill="#09141D"/>
<path d="M207.387 22.0189C208.428 19.7686 210.555 19.3119 213.039 19.0529C217.159 18.6232 220.485 20.8397 222.015 24.6554C222.975 27.0472 223.64 29.2383 222.015 31.2465C220.498 33.1224 218.445 33.1294 216.031 32.8943C212.949 32.5942 211.178 31.1112 209.382 28.6101C207.81 26.4207 206.257 24.4617 207.387 22.0189Z" fill="#0E1E2B"/>
<path d="M249.582 86.5803C251.147 83.1661 254.346 82.4733 258.082 82.0803C264.278 81.4284 269.28 84.7911 271.582 90.5803C273.025 94.2091 274.025 97.5334 271.582 100.58C269.3 103.426 266.212 103.437 262.582 103.08C257.946 102.625 255.283 100.375 252.582 96.5803C250.217 93.2585 247.882 90.2865 249.582 86.5803Z" fill="#0E1E2B"/>
<path d="M249.059 20.5275C249.474 18.1803 251.684 17.2242 254.059 17.0275C256.763 16.8035 259.222 17.9471 260.059 20.5275C260.674 22.4216 260.467 24.1194 259.059 25.5275C257.264 27.3224 254.791 26.7365 252.559 25.5275C250.464 24.3923 248.645 22.8747 249.059 20.5275Z" fill="#0E1E2B"/>
<path d="M277.059 75.5275C277.474 73.1803 279.684 72.2242 282.059 72.0275C284.763 71.8035 287.222 72.9471 288.059 75.5275C288.674 77.4216 288.467 79.1194 287.059 80.5275C285.264 82.3224 282.791 81.7365 280.559 80.5275C278.464 79.3923 276.645 77.8747 277.059 75.5275Z" fill="#0E1E2B"/>
<path d="M207.059 88.5275C207.474 86.1803 209.684 85.2242 212.059 85.0275C214.763 84.8035 217.222 85.9471 218.059 88.5275C218.674 90.4216 218.467 92.1194 217.059 93.5275C215.264 95.3224 212.791 94.7365 210.559 93.5275C208.464 92.3923 206.645 90.8747 207.059 88.5275Z" fill="#0E1E2B"/>
<path d="M280.5 26.4998C280.82 24.5934 282.227 23.7699 284 22.9998C286.533 21.8997 289.426 21.7308 291 23.9998C292.224 25.7646 291.865 27.5338 291 29.4998C290.222 31.2691 289.374 32.5251 287.5 32.9998C285.213 33.5792 283.485 32.3336 282 30.4998C280.951 29.2031 280.225 28.1452 280.5 26.4998Z" fill="#0E1E2B"/>
<path d="M256.059 52.283C256.378 50.3766 257.786 49.5531 259.559 48.783C262.092 47.6829 264.985 47.514 266.559 49.783C267.783 51.5478 267.424 53.317 266.559 55.283C265.78 57.0523 264.933 58.3083 263.059 58.783C260.772 59.3624 259.043 58.1168 257.559 56.283C256.509 54.9863 255.783 53.9284 256.059 52.283Z" fill="#0E1E2B"/>
<path d="M225.059 58.283C225.378 56.3766 226.786 55.5531 228.559 54.783C231.092 53.6829 233.985 53.514 235.559 55.783C236.783 57.5478 236.424 59.317 235.559 61.283C234.78 63.0523 233.933 64.3083 232.059 64.783C229.772 65.3624 228.043 64.1168 226.559 62.283C225.509 60.9863 224.783 59.9284 225.059 58.283Z" fill="#0E1E2B"/>
<path opacity="0.5" d="M231.031 44.3519C231.2 43.3051 231.944 42.8528 232.882 42.43C234.221 41.8259 235.751 41.7331 236.583 42.9791C237.23 43.9482 237.04 44.9197 236.583 45.9993C236.171 46.9709 235.723 47.6606 234.732 47.9213C233.523 48.2394 232.609 47.5554 231.824 46.5484C231.269 45.8364 230.885 45.2555 231.031 44.3519Z" fill="#0E1E2B"/>
<path opacity="0.5" d="M231.031 22.3519C231.2 21.3051 231.944 20.8528 232.882 20.43C234.221 19.8259 235.751 19.7331 236.583 20.9791C237.23 21.9482 237.04 22.9197 236.583 23.9993C236.171 24.9709 235.723 25.6606 234.732 25.9213C233.523 26.2394 232.609 25.5554 231.824 24.5484C231.269 23.8364 230.885 23.2555 231.031 22.3519Z" fill="#0E1E2B"/>
<path opacity="0.5" d="M243.031 61.3519C243.2 60.3051 243.944 59.8528 244.882 59.43C246.221 58.8259 247.751 58.7331 248.583 59.9791C249.23 60.9482 249.04 61.9197 248.583 62.9993C248.171 63.9709 247.723 64.6606 246.732 64.9213C245.523 65.2394 244.609 64.5554 243.824 63.5484C243.269 62.8364 242.885 62.2555 243.031 61.3519Z" fill="#0E1E2B"/>
<path opacity="0.5" d="M286.031 101.744C286.2 100.523 286.944 99.995 287.882 99.5016C289.221 98.7968 290.751 98.6887 291.583 100.142C292.23 101.273 292.04 102.406 291.583 103.666C291.171 104.799 290.723 105.604 289.732 105.908C288.523 106.279 287.609 105.481 286.824 104.307C286.269 103.476 285.885 102.798 286.031 101.744Z" fill="#0E1E2B"/>
<path opacity="0.5" d="M222.031 12.7439C222.2 11.5226 222.944 10.995 223.882 10.5016C225.221 9.79683 226.751 9.68867 227.583 11.1423C228.23 12.2729 228.04 13.4064 227.583 14.6659C227.171 15.7994 226.723 16.604 225.732 16.9082C224.523 17.2794 223.609 16.4814 222.824 15.3065C222.269 14.4758 221.885 13.798 222.031 12.7439Z" fill="#0E1E2B"/>
<path opacity="0.5" d="M200.031 46.7439C200.2 45.5226 200.944 44.995 201.882 44.5016C203.221 43.7968 204.751 43.6887 205.583 45.1423C206.23 46.2729 206.04 47.4064 205.583 48.6659C205.171 49.7994 204.723 50.604 203.732 50.9082C202.523 51.2794 201.609 50.4814 200.824 49.3065C200.269 48.4758 199.885 47.798 200.031 46.7439Z" fill="#0E1E2B"/>
<path opacity="0.5" d="M283.499 52.4775C284.731 52.5416 285.32 53.2381 285.891 54.13C286.708 55.4041 286.946 56.9191 285.569 57.8722C284.497 58.6137 283.352 58.5211 282.058 58.1729C280.893 57.8595 280.054 57.4816 279.666 56.5205C279.193 55.3473 279.91 54.3687 281.014 53.4864C281.794 52.8625 282.437 52.4222 283.499 52.4775Z" fill="#0E1E2B"/>
<path opacity="0.5" d="M232.243 99.2651C233.475 99.3292 234.064 100.026 234.635 100.918C235.452 102.192 235.69 103.707 234.313 104.66C233.242 105.401 232.096 105.309 230.802 104.961C229.638 104.647 228.798 104.269 228.41 103.308C227.937 102.135 228.654 101.156 229.758 100.274C230.538 99.6501 231.181 99.2098 232.243 99.2651Z" fill="#0E1E2B"/>
<path opacity="0.5" d="M225.031 79.3519C225.2 78.3051 225.944 77.8528 226.882 77.43C228.221 76.8259 229.751 76.7331 230.583 77.9791C231.23 78.9482 231.04 79.9197 230.583 80.9993C230.171 81.9709 229.723 82.6606 228.732 82.9213C227.523 83.2394 226.609 82.5554 225.824 81.5484C225.269 80.8364 224.885 80.2555 225.031 79.3519Z" fill="#0E1E2B"/>
<path opacity="0.5" d="M267.031 23.3519C267.2 22.3051 267.944 21.8528 268.882 21.43C270.221 20.8259 271.751 20.7331 272.583 21.9791C273.23 22.9482 273.04 23.9197 272.583 24.9993C272.171 25.9709 271.723 26.6606 270.732 26.9213C269.523 27.2394 268.609 26.5554 267.824 25.5484C267.269 24.8364 266.885 24.2555 267.031 23.3519Z" fill="#0E1E2B"/>
<path opacity="0.25" d="M253.031 38.3519C253.2 37.3051 253.944 36.8528 254.882 36.43C256.221 35.8259 257.751 35.7331 258.583 36.9791C259.23 37.9482 259.04 38.9197 258.583 39.9993C258.171 40.9709 257.723 41.6606 256.732 41.9213C255.523 42.2394 254.609 41.5554 253.824 40.5484C253.269 39.8364 252.885 39.2555 253.031 38.3519Z" fill="#0E1E2B"/>
<path opacity="0.25" d="M236.031 87.3519C236.2 86.3051 236.944 85.8528 237.882 85.43C239.221 84.8259 240.751 84.7331 241.583 85.9791C242.23 86.9482 242.04 87.9197 241.583 88.9993C241.171 89.9709 240.723 90.6606 239.732 90.9213C238.523 91.2394 237.609 90.5554 236.824 89.5484C236.269 88.8364 235.885 88.2555 236.031 87.3519Z" fill="#0E1E2B"/>
<path opacity="0.5" d="M214.031 48.3519C214.2 47.3051 214.944 46.8528 215.882 46.43C217.221 45.8259 218.751 45.7331 219.583 46.9791C220.23 47.9482 220.04 48.9197 219.583 49.9993C219.171 50.9709 218.723 51.6606 217.732 51.9213C216.523 52.2394 215.609 51.5554 214.824 50.5484C214.269 49.8364 213.885 49.2555 214.031 48.3519Z" fill="#0E1E2B"/>
<path opacity="0.5" d="M255.031 74.3519C255.2 73.3051 255.944 72.8528 256.882 72.43C258.221 71.8259 259.751 71.7331 260.583 72.9791C261.23 73.9482 261.04 74.9197 260.583 75.9993C260.171 76.9709 259.723 77.6606 258.732 77.9213C257.523 78.2394 256.609 77.5554 255.824 76.5484C255.269 75.8364 254.885 75.2555 255.031 74.3519Z" fill="#0E1E2B"/>
<path opacity="0.25" d="M210.026 64.9599C210.167 64.0875 210.787 63.7107 211.568 63.3583C212.684 62.8549 213.959 62.7776 214.652 63.8159C215.192 64.6235 215.033 65.4331 214.652 66.3328C214.309 67.1424 213.936 67.7172 213.11 67.9344C212.102 68.1995 211.341 67.6295 210.687 66.7904C210.224 66.197 209.904 65.7129 210.026 64.9599Z" fill="#0E1E2B"/>
<path opacity="0.25" d="M294.026 42.9599C294.167 42.0875 294.787 41.7107 295.568 41.3583C296.684 40.8549 297.959 40.7776 298.652 41.8159C299.192 42.6235 299.033 43.4331 298.652 44.3328C298.309 45.1424 297.936 45.7172 297.11 45.9344C296.102 46.1995 295.341 45.6295 294.687 44.7904C294.224 44.197 293.904 43.7129 294.026 42.9599Z" fill="#0E1E2B"/>
<path opacity="0.25" d="M283.026 91.9599C283.167 91.0875 283.787 90.7107 284.568 90.3583C285.684 89.8549 286.959 89.7776 287.652 90.8159C288.192 91.6235 288.033 92.4331 287.652 93.3328C287.309 94.1424 286.936 94.7172 286.11 94.9344C285.102 95.1995 284.341 94.6295 283.687 93.7904C283.224 93.197 282.904 92.7129 283.026 91.9599Z" fill="#0E1E2B"/>
<g clip-path="url(#clip0_37_11237)">
<rect width="100" height="100" transform="translate(300 9)" fill="#09141D"/>
<path d="M368.582 51.5803C370.147 48.1661 373.346 47.4733 377.082 47.0803C383.278 46.4284 388.28 49.7911 390.582 55.5803C392.025 59.2091 393.025 62.5334 390.582 65.5803C388.3 68.4262 385.212 68.4369 381.582 68.0803C376.946 67.6249 374.283 65.375 371.582 61.5803C369.217 58.2585 366.882 55.2865 368.582 51.5803Z" fill="#0E1E2B"/>
<path d="M311.435 61.4502C312.606 58.8784 314.999 58.3565 317.794 58.0605C322.429 57.5694 326.17 60.1025 327.892 64.4633C328.972 67.1968 329.72 69.7009 327.892 71.996C326.185 74.1398 323.876 74.1479 321.16 73.8792C317.692 73.5362 315.7 71.8414 313.679 68.9829C311.911 66.4808 310.164 64.242 311.435 61.4502Z" fill="#0E1E2B"/>
<path d="M350.078 71.7449C350.624 68.5876 353.536 67.3016 356.665 67.0369C360.226 66.7357 363.467 68.274 364.569 71.7449C365.378 74.2928 365.107 76.5766 363.252 78.4706C360.887 80.885 357.629 80.0969 354.689 78.4706C351.928 76.9436 349.532 74.9022 350.078 71.7449Z" fill="#0E1E2B"/>
<path d="M379.059 98.5275C379.474 96.1803 381.684 95.2242 384.059 95.0275C386.763 94.8035 389.222 95.9471 390.059 98.5275C390.674 100.422 390.467 102.119 389.059 103.527C387.264 105.322 384.791 104.736 382.559 103.527C380.464 102.392 378.645 100.875 379.059 98.5275Z" fill="#0E1E2B"/>
<path d="M320.059 93.5275C320.474 91.1803 322.684 90.2242 325.059 90.0275C327.763 89.8035 330.222 90.9471 331.059 93.5275C331.674 95.4216 331.467 97.1194 330.059 98.5275C328.264 100.322 325.791 99.7365 323.559 98.5275C321.464 97.3923 319.645 95.8747 320.059 93.5275Z" fill="#0E1E2B"/>
<path d="M388.059 26.283C388.378 24.3766 389.786 23.5531 391.559 22.783C394.092 21.6829 396.985 21.514 398.559 23.783C399.783 25.5478 399.424 27.317 398.559 29.283C397.78 31.0523 396.933 32.3083 395.059 32.783C392.772 33.3624 391.043 32.1168 389.559 30.283C388.509 28.9863 387.783 27.9284 388.059 26.283Z" fill="#0E1E2B"/>
<path d="M334.083 38.8798C334.533 36.2626 336.518 35.1321 339.018 34.0749C342.589 32.5646 346.668 32.3329 348.887 35.4477C350.613 37.8705 350.107 40.2993 348.887 42.9983C347.79 45.4272 346.594 47.1515 343.953 47.8032C340.728 48.5986 338.291 46.8886 336.198 44.3711C334.718 42.591 333.694 41.1386 334.083 38.8798Z" fill="#0E1E2B"/>
<path d="M314.059 15.283C314.378 13.3766 315.786 12.5531 317.559 11.783C320.092 10.6829 322.985 10.514 324.559 12.783C325.783 14.5478 325.424 16.317 324.559 18.283C323.78 20.0523 322.933 21.3083 321.059 21.783C318.772 22.3624 317.043 21.1168 315.559 19.283C314.509 17.9863 313.783 16.9284 314.059 15.283Z" fill="#0E1E2B"/>
<path opacity="0.25" d="M331.026 79.9599C331.167 79.0875 331.787 78.7107 332.568 78.3583C333.684 77.8549 334.959 77.7776 335.652 78.8159C336.192 79.6235 336.033 80.4331 335.652 81.3328C335.309 82.1424 334.936 82.7172 334.11 82.9344C333.102 83.1995 332.341 82.6295 331.687 81.7904C331.224 81.197 330.904 80.7129 331.026 79.9599Z" fill="#0E1E2B"/>
<path opacity="0.25" d="M311.057 83.7439C311.367 82.5226 312.731 81.995 314.45 81.5016C316.905 80.7968 319.709 80.6887 321.235 82.1423C322.422 83.2729 322.074 84.4064 321.235 85.6659C320.48 86.7994 319.659 87.604 317.842 87.9082C315.625 88.2794 313.95 87.4814 312.511 86.3065C311.494 85.4758 310.79 84.798 311.057 83.7439Z" fill="#0E1E2B"/>
<path opacity="0.25" d="M363.057 36.7439C363.367 35.5226 364.731 34.995 366.45 34.5016C368.905 33.7968 371.709 33.6887 373.235 35.1423C374.422 36.2729 374.074 37.4064 373.235 38.6659C372.48 39.7994 371.659 40.604 369.842 40.9082C367.625 41.2794 365.95 40.4814 364.511 39.3065C363.494 38.4758 362.79 37.798 363.057 36.7439Z" fill="#0E1E2B"/>
<path opacity="0.25" d="M320.271 44.2976C320.647 43.498 321.347 43.3071 322.195 43.1841C323.407 43.0084 324.653 43.2861 325.033 44.4755C325.329 45.4007 324.953 46.1351 324.338 46.8945C323.785 47.578 323.267 48.0273 322.414 48.0081C321.372 47.9847 320.798 47.2265 320.401 46.2394C320.12 45.5414 319.946 44.9878 320.271 44.2976Z" fill="#0E1E2B"/>
<path opacity="0.5" d="M309.865 31.8909C310.241 31.0913 310.941 30.9003 311.789 30.7773C313.001 30.6016 314.247 30.8794 314.627 32.0688C314.922 32.994 314.547 33.7284 313.932 34.4878C313.379 35.1713 312.861 35.6205 312.008 35.6013C310.966 35.5779 310.391 34.8198 309.994 33.8327C309.714 33.1346 309.54 32.581 309.865 31.8909Z" fill="#0E1E2B"/>
<path opacity="0.5" d="M335.865 58.8909C336.241 58.0913 336.941 57.9003 337.789 57.7773C339.001 57.6016 340.247 57.8794 340.627 59.0688C340.922 59.994 340.547 60.7284 339.932 61.4878C339.379 62.1713 338.861 62.6205 338.008 62.6013C336.966 62.5779 336.391 61.8198 335.994 60.8327C335.714 60.1346 335.54 59.581 335.865 58.8909Z" fill="#0E1E2B"/>
<path opacity="0.5" d="M339.865 19.8909C340.241 19.0913 340.941 18.9003 341.789 18.7773C343.001 18.6016 344.247 18.8794 344.627 20.0688C344.922 20.994 344.547 21.7284 343.932 22.4878C343.379 23.1713 342.861 23.6205 342.008 23.6013C340.966 23.5779 340.391 22.8198 339.994 21.8327C339.714 21.1346 339.54 20.581 339.865 19.8909Z" fill="#0E1E2B"/>
<path opacity="0.25" d="M365.295 19.206C365.672 18.4064 366.372 18.2155 367.22 18.0925C368.431 17.9168 369.678 18.1945 370.058 19.3839C370.353 20.3091 369.978 21.0435 369.363 21.8029C368.81 22.4864 367.516 22.0663 367.438 22.9165C367.22 25.3149 363.828 22.7903 363.431 21.8031C363.151 21.1051 364.971 19.8961 365.295 19.206Z" fill="#0E1E2B"/>
<path opacity="0.5" d="M360.142 56.9523C359.261 57.0208 358.749 56.5067 358.222 55.8304C357.471 54.8642 357.096 53.6434 357.942 52.725C358.6 52.0107 359.424 51.9741 360.388 52.1328C361.255 52.2757 361.53 53.6079 362.307 53.2548C364.5 52.2587 363.983 56.4551 363.321 57.2883C362.853 57.8774 360.902 56.8932 360.142 56.9523Z" fill="#0E1E2B"/>
<path opacity="0.5" d="M388.076 43.8346C387.195 43.9031 386.682 43.389 386.156 42.7127C385.404 41.7465 385.029 40.5257 385.875 39.6074C386.533 38.8931 387.357 38.8564 388.321 39.0151C389.189 39.158 389.464 40.4902 390.241 40.1371C392.434 39.141 391.916 43.3374 391.255 44.1706C390.787 44.7598 388.836 43.7755 388.076 43.8346Z" fill="#0E1E2B"/>
<path opacity="0.5" d="M396.076 14.8346C395.195 14.9031 394.682 14.389 394.156 13.7127C393.404 12.7465 393.029 11.5257 393.875 10.6074C394.533 9.89306 395.357 9.85639 396.321 10.0151C397.189 10.158 397.464 11.4902 398.241 11.1371C400.434 10.141 399.916 14.3374 399.255 15.1706C398.787 15.7598 396.836 14.7755 396.076 14.8346Z" fill="#0E1E2B"/>
<path opacity="0.5" d="M352.076 97.8346C351.195 97.9031 350.682 97.389 350.156 96.7127C349.404 95.7465 349.029 94.5257 349.875 93.6074C350.533 92.8931 351.357 92.8564 352.321 93.0151C353.189 93.158 353.464 94.4902 354.241 94.1371C356.434 93.141 355.916 97.3374 355.255 98.1706C354.787 98.7598 352.836 97.7755 352.076 97.8346Z" fill="#0E1E2B"/>
<path opacity="0.5" d="M382.732 81.8888C383.29 81.2037 384.016 81.1873 384.868 81.2727C386.087 81.3946 387.229 81.965 387.311 83.211C387.374 84.1801 386.832 84.8021 386.052 85.3907C385.351 85.9204 384.197 85.2005 383.916 86.0068C383.125 88.2816 380.443 85.013 380.296 83.9592C380.192 83.2141 382.25 82.4802 382.732 81.8888Z" fill="#0E1E2B"/>
</g>
<rect width="100" height="100" transform="translate(400 9)" fill="#09141D"/>
<path d="M448.582 78.5803C450.147 75.1661 453.346 74.4733 457.082 74.0803C463.278 73.4284 468.28 76.7911 470.582 82.5803C472.025 86.2091 473.025 89.5334 470.582 92.5803C468.3 95.4262 465.212 95.4369 461.582 95.0803C456.946 94.6249 454.283 92.375 451.582 88.5803C449.217 85.2585 446.882 82.2865 448.582 78.5803Z" fill="#0E1E2B"/>
<path d="M450.059 33.5275C450.474 31.1803 452.684 30.2242 455.059 30.0275C457.763 29.8035 460.222 30.9471 461.059 33.5275C461.674 35.4216 461.467 37.1194 460.059 38.5275C458.264 40.3224 455.791 39.7365 453.559 38.5275C451.464 37.3923 449.645 35.8747 450.059 33.5275Z" fill="#0E1E2B"/>
<path d="M477.059 75.5275C477.474 73.1803 479.684 72.2242 482.059 72.0275C484.763 71.8035 487.222 72.9471 488.059 75.5275C488.674 77.4216 488.467 79.1194 487.059 80.5275C485.264 82.3224 482.791 81.7365 480.559 80.5275C478.464 79.3923 476.645 77.8747 477.059 75.5275Z" fill="#0E1E2B"/>
<path d="M420.059 93.5275C420.474 91.1803 422.684 90.2242 425.059 90.0275C427.763 89.8035 430.222 90.9471 431.059 93.5275C431.674 95.4216 431.467 97.1194 430.059 98.5275C428.264 100.322 425.791 99.7365 423.559 98.5275C421.464 97.3923 419.645 95.8747 420.059 93.5275Z" fill="#0E1E2B"/>
<path d="M480.5 26.4998C480.82 24.5934 482.227 23.7699 484 22.9998C486.533 21.8997 489.426 21.7308 491 23.9998C492.224 25.7646 491.865 27.5338 491 29.4998C490.222 31.2691 489.374 32.5251 487.5 32.9998C485.213 33.5792 483.485 32.3336 482 30.4998C480.951 29.2031 480.225 28.1452 480.5 26.4998Z" fill="#0E1E2B"/>
<path d="M472.059 52.283C472.378 50.3766 473.786 49.5531 475.559 48.783C478.092 47.6829 480.985 47.514 482.559 49.783C483.783 51.5478 483.424 53.317 482.559 55.283C481.78 57.0523 480.933 58.3083 479.059 58.783C476.772 59.3624 475.043 58.1168 473.559 56.283C472.509 54.9863 471.783 53.9284 472.059 52.283Z" fill="#0E1E2B"/>
<path d="M431.059 60.283C431.378 58.3766 432.786 57.5531 434.559 56.783C437.092 55.6829 439.985 55.514 441.559 57.783C442.783 59.5478 442.424 61.317 441.559 63.283C440.78 65.0523 439.933 66.3083 438.059 66.783C435.772 67.3624 434.043 66.1168 432.559 64.283C431.509 62.9863 430.783 61.9284 431.059 60.283Z" fill="#0E1E2B"/>
<rect width="100" height="100" transform="translate(500 9)" fill="#09141D"/>
<path d="M538.582 52.5803C540.147 49.1661 543.346 48.4733 547.082 48.0803C553.278 47.4284 558.28 50.7911 560.582 56.5803C562.025 60.2091 563.025 63.5334 560.582 66.5803C558.3 69.4262 555.212 69.4369 551.582 69.0803C546.946 68.6249 544.283 66.375 541.582 62.5803C539.217 59.2585 536.882 56.2865 538.582 52.5803Z" fill="#0E1E2B"/>
<path d="M548.059 95.5275C548.474 93.1803 550.684 92.2242 553.059 92.0275C555.763 91.8035 558.222 92.9471 559.059 95.5275C559.674 97.4216 559.467 99.1194 558.059 100.527C556.264 102.322 553.791 101.736 551.559 100.527C549.464 99.3923 547.645 97.8747 548.059 95.5275Z" fill="#0E1E2B"/>
<path d="M518.059 96.5275C518.474 94.1803 520.684 93.2242 523.059 93.0275C525.763 92.8035 528.222 93.9471 529.059 96.5275C529.674 98.4216 529.467 100.119 528.059 101.527C526.264 103.322 523.791 102.736 521.559 101.527C519.464 100.392 517.645 98.8747 518.059 96.5275Z" fill="#0E1E2B"/>
<path d="M524.279 32.5435C524.693 30.1963 529.844 28.2129 532.22 28.0161C534.923 27.7922 538.883 29.9632 539.72 32.5435C540.334 34.4377 536.687 38.108 535.279 39.5161C533.484 41.311 527.952 42.2251 525.72 41.0161C523.624 39.8808 523.865 34.8907 524.279 32.5435Z" fill="#0E1E2B"/>
<path d="M578.059 96.5275C578.474 94.1803 580.684 93.2242 583.059 93.0275C585.763 92.8035 588.222 93.9471 589.059 96.5275C589.674 98.4216 589.467 100.119 588.059 101.527C586.264 103.322 583.791 102.736 581.559 101.527C579.464 100.392 577.645 98.8747 578.059 96.5275Z" fill="#0E1E2B"/>
<path d="M504.059 21.283C504.378 19.3766 505.786 18.5531 507.559 17.783C510.092 16.6829 512.985 16.514 514.559 18.783C515.783 20.5478 515.424 22.317 514.559 24.283C513.78 26.0523 512.933 27.3083 511.059 27.783C508.772 28.3624 507.043 27.1168 505.559 25.283C504.509 23.9863 503.783 22.9284 504.059 21.283Z" fill="#0E1E2B"/>
<path d="M509.059 58.283C509.378 56.3766 510.786 55.5531 512.559 54.783C515.092 53.6829 517.985 53.514 519.559 55.783C520.783 57.5478 520.424 59.317 519.559 61.283C518.78 63.0523 517.933 64.3083 516.059 64.783C513.772 65.3624 512.043 64.1168 510.559 62.283C509.509 60.9863 508.783 59.9284 509.059 58.283Z" fill="#0E1E2B"/>
<path d="M524.059 76.283C524.378 74.3766 525.786 73.5531 527.559 72.783C530.092 71.6829 532.985 71.514 534.559 73.783C535.783 75.5478 535.424 77.317 534.559 79.283C533.78 81.0523 532.933 82.3083 531.059 82.783C528.772 83.3624 527.043 82.1168 525.559 80.283C524.509 78.9863 523.783 77.9284 524.059 76.283Z" fill="#0E1E2B"/>
<rect width="100" height="100" transform="translate(600 9)" fill="#09141D"/>
<path d="M648.582 40.5803C650.147 37.1661 653.346 36.4733 657.082 36.0803C663.278 35.4284 668.28 38.7911 670.582 44.5803C672.025 48.2091 673.025 51.5334 670.582 54.5803C668.3 57.4262 665.212 57.4369 661.582 57.0803C656.946 56.6249 654.283 54.375 651.582 50.5803C649.217 47.2585 646.882 44.2865 648.582 40.5803Z" fill="#0E1E2B"/>
<path d="M607.059 23.5275C607.474 21.1803 609.684 20.2242 612.059 20.0275C614.763 19.8035 617.222 20.9471 618.059 23.5275C618.674 25.4216 618.467 27.1194 617.059 28.5275C615.264 30.3224 612.791 29.7365 610.559 28.5275C608.464 27.3923 606.645 25.8747 607.059 23.5275Z" fill="#0E1E2B"/>
<path d="M618.059 95.5275C618.474 93.1803 620.684 92.2242 623.059 92.0275C625.763 91.8035 628.222 92.9471 629.059 95.5275C629.674 97.4216 629.467 99.1194 628.059 100.527C626.264 102.322 623.791 101.736 621.559 100.527C619.464 99.3923 617.645 97.8747 618.059 95.5275Z" fill="#0E1E2B"/>
<path d="M678.059 18.5275C678.474 16.1803 680.684 15.2242 683.059 15.0275C685.763 14.8035 688.222 15.9471 689.059 18.5275C689.674 20.4216 689.467 22.1194 688.059 23.5275C686.264 25.3224 683.791 24.7365 681.559 23.5275C679.464 22.3923 677.645 20.8747 678.059 18.5275Z" fill="#0E1E2B"/>
<path d="M633.059 23.283C633.378 21.3766 634.786 20.5531 636.559 19.783C639.092 18.6829 641.985 18.514 643.559 20.783C644.783 22.5478 644.424 24.317 643.559 26.283C642.78 28.0523 641.933 29.3083 640.059 29.783C637.772 30.3624 636.043 29.1168 634.559 27.283C633.509 25.9863 632.783 24.9284 633.059 23.283Z" fill="#0E1E2B"/>
<path d="M607.059 73.283C607.378 71.3766 608.786 70.5531 610.559 69.783C613.092 68.6829 615.985 68.514 617.559 70.783C618.783 72.5478 618.424 74.317 617.559 76.283C616.78 78.0523 615.933 79.3083 614.059 79.783C611.772 80.3624 610.043 79.1168 608.559 77.283C607.509 75.9863 606.783 74.9284 607.059 73.283Z" fill="#0E1E2B"/>
<path d="M618.07 52.0114C616.948 50.4374 617.361 48.8598 618.07 47.0616C619.083 44.4927 621.01 42.3275 623.727 42.819C625.841 43.2012 626.838 44.7062 627.616 46.7081C628.317 48.5096 628.605 49.9972 627.616 51.6578C626.409 53.6847 624.306 54.0261 621.959 53.7791C620.3 53.6045 619.039 53.3698 618.07 52.0114Z" fill="#0E1E2B"/>
<path d="M637.059 68.283C637.378 66.3766 638.786 65.5531 640.559 64.783C643.092 63.6829 645.985 63.514 647.559 65.783C648.783 67.5478 648.424 69.317 647.559 71.283C646.78 73.0523 645.933 74.3083 644.059 74.783C641.772 75.3624 640.043 74.1168 638.559 72.283C637.509 70.9863 636.783 69.9284 637.059 68.283Z" fill="#0E1E2B"/>
<rect width="100" height="100" transform="translate(700 9)" fill="#09141D"/>
<path d="M748.582 40.5803C750.147 37.1661 753.346 36.4733 757.082 36.0803C763.278 35.4284 768.28 38.7911 770.582 44.5803C772.025 48.2091 773.025 51.5334 770.582 54.5803C768.3 57.4262 765.212 57.4369 761.582 57.0803C756.946 56.6249 754.283 54.375 751.582 50.5803C749.217 47.2585 746.882 44.2865 748.582 40.5803Z" fill="#0E1E2B"/>
<path d="M707.059 23.5275C707.474 21.1803 709.684 20.2242 712.059 20.0275C714.763 19.8035 717.222 20.9471 718.059 23.5275C718.674 25.4216 718.467 27.1194 717.059 28.5275C715.264 30.3224 712.791 29.7365 710.559 28.5275C708.464 27.3923 706.645 25.8747 707.059 23.5275Z" fill="#0E1E2B"/>
<path d="M780.059 95.5275C780.474 93.1803 782.684 92.2242 785.059 92.0275C787.763 91.8035 790.222 92.9471 791.059 95.5275C791.674 97.4216 791.467 99.1194 790.059 100.527C788.264 102.322 785.791 101.736 783.559 100.527C781.464 99.3923 779.645 97.8747 780.059 95.5275Z" fill="#0E1E2B"/>
<path d="M778.059 18.5275C778.474 16.1803 780.684 15.2242 783.059 15.0275C785.763 14.8035 788.222 15.9471 789.059 18.5275C789.674 20.4216 789.467 22.1194 788.059 23.5275C786.264 25.3224 783.791 24.7365 781.559 23.5275C779.464 22.3923 777.645 20.8747 778.059 18.5275Z" fill="#0E1E2B"/>
<path d="M744.059 22.283C744.378 20.3766 745.786 19.5531 747.559 18.783C750.092 17.6829 752.985 17.514 754.559 19.783C755.783 21.5478 755.424 23.317 754.559 25.283C753.78 27.0523 752.933 28.3083 751.059 28.783C748.772 29.3624 747.043 28.1168 745.559 26.283C744.509 24.9863 743.783 23.9284 744.059 22.283Z" fill="#0E1E2B"/>
<path d="M775.059 68.283C775.378 66.3766 776.786 65.5531 778.559 64.783C781.092 63.6829 783.985 63.514 785.559 65.783C786.783 67.5478 786.424 69.317 785.559 71.283C784.78 73.0523 783.933 74.3083 782.059 74.783C779.772 75.3624 778.043 74.1168 776.559 72.283C775.509 70.9863 774.783 69.9284 775.059 68.283Z" fill="#0E1E2B"/>
<path d="M718.07 52.0114C716.948 50.4374 717.361 48.8598 718.07 47.0616C719.083 44.4927 721.01 42.3275 723.727 42.819C725.841 43.2012 726.838 44.7062 727.616 46.7081C728.317 48.5096 728.605 49.9972 727.616 51.6578C726.409 53.6847 724.306 54.0261 721.959 53.7791C720.3 53.6045 719.039 53.3698 718.07 52.0114Z" fill="#0E1E2B"/>
<path d="M737.059 68.283C737.378 66.3766 738.786 65.5531 740.559 64.783C743.092 63.6829 745.985 63.514 747.559 65.783C748.783 67.5478 748.424 69.317 747.559 71.283C746.78 73.0523 745.933 74.3083 744.059 74.783C741.772 75.3624 740.043 74.1168 738.559 72.283C737.509 70.9863 736.783 69.9284 737.059 68.283Z" fill="#0E1E2B"/>
<rect width="100" height="100" transform="translate(800 9)" fill="#09141D"/>
<path opacity="0.25" d="M805.026 50.9599C805.167 50.0875 805.787 49.7107 806.568 49.3583C807.684 48.8549 808.959 48.7776 809.652 49.8159C810.192 50.6235 810.033 51.4331 809.652 52.3328C809.309 53.1424 808.936 53.7172 808.11 53.9344C807.102 54.1995 806.341 53.6295 805.687 52.7904C805.224 52.197 804.904 51.7129 805.026 50.9599Z" fill="#0E1E2B"/>
<path opacity="0.25" d="M808.057 80.7439C808.367 79.5226 809.731 78.995 811.45 78.5016C813.905 77.7968 816.709 77.6887 818.235 79.1423C819.422 80.2729 819.074 81.4064 818.235 82.6659C817.48 83.7994 816.659 84.604 814.842 84.9082C812.625 85.2794 810.95 84.4814 809.511 83.3065C808.494 82.4758 807.79 81.798 808.057 80.7439Z" fill="#0E1E2B"/>
<path opacity="0.25" d="M813.865 60.8909C814.241 60.0913 814.941 59.9003 815.789 59.7773C817.001 59.6016 818.247 59.8794 818.627 61.0688C818.922 61.994 818.547 62.7284 817.932 63.4878C817.379 64.1713 816.861 64.6205 816.008 64.6013C814.966 64.5779 814.391 63.8198 813.994 62.8327C813.714 62.1346 813.54 61.581 813.865 60.8909Z" fill="#0E1E2B"/>
<path opacity="0.25" d="M803.865 12.8909C804.241 12.0913 804.941 11.9003 805.789 11.7773C807.001 11.6016 808.247 11.8794 808.627 13.0688C808.922 13.994 808.547 14.7284 807.932 15.4878C807.379 16.1713 806.861 16.6205 806.008 16.6013C804.966 16.5779 804.391 15.8198 803.994 14.8327C803.714 14.1346 803.54 13.581 803.865 12.8909Z" fill="#0E1E2B"/>
<path opacity="0.5" d="M809.865 28.8909C810.241 28.0913 810.941 27.9003 811.789 27.7773C813.001 27.6016 814.247 27.8794 814.627 29.0688C814.922 29.994 814.547 30.7284 813.932 31.4878C813.379 32.1713 812.861 32.6205 812.008 32.6013C810.966 32.5779 810.391 31.8198 809.994 30.8327C809.714 30.1346 809.54 29.581 809.865 28.8909Z" fill="#0E1E2B"/>
<path opacity="0.5" d="M801.865 101.891C802.241 101.091 802.941 100.9 803.789 100.777C805.001 100.602 806.247 100.879 806.627 102.069C806.922 102.994 806.547 103.728 805.932 104.488C805.379 105.171 804.861 105.621 804.008 105.601C802.966 105.578 802.391 104.82 801.994 103.833C801.714 103.135 801.54 102.581 801.865 101.891Z" fill="#0E1E2B"/>
<rect width="100" height="100" transform="translate(900 9)" fill="#09141D"/>
<path opacity="0.25" d="M986.026 57.0401C986.167 57.9125 986.787 58.2893 987.568 58.6417C988.684 59.1451 989.959 59.2224 990.652 58.1841C991.192 57.3765 991.033 56.5669 990.652 55.6672C990.309 54.8576 989.936 54.2828 989.11 54.0656C988.102 53.8005 987.341 54.3705 986.687 55.2096C986.224 55.803 985.904 56.2871 986.026 57.0401Z" fill="#0E1E2B"/>
<path opacity="0.25" d="M975.057 35.2561C975.367 36.4774 976.731 37.005 978.45 37.4984C980.905 38.2032 983.709 38.3113 985.235 36.8577C986.422 35.7271 986.074 34.5936 985.235 33.3341C984.48 32.2006 983.659 31.396 981.842 31.0918C979.625 30.7206 977.95 31.5186 976.511 32.6935C975.494 33.5242 974.79 34.202 975.057 35.2561Z" fill="#0E1E2B"/>
<path opacity="0.25" d="M992.271 72.8884C992.647 73.688 993.347 73.879 994.195 74.0019C995.407 74.1777 996.653 73.8999 997.033 72.7105C997.329 71.7853 996.953 71.0509 996.338 70.2915C995.785 69.608 995.267 69.1588 994.414 69.1779C993.372 69.2014 992.798 69.9595 992.401 70.9466C992.12 71.6447 991.946 72.1983 992.271 72.8884Z" fill="#0E1E2B"/>
<path opacity="0.25" d="M987.865 103.295C988.241 104.095 988.941 104.286 989.789 104.409C991.001 104.584 992.247 104.307 992.627 103.117C992.922 102.192 992.547 101.458 991.932 100.698C991.379 100.015 990.861 99.5655 990.008 99.5847C988.966 99.6081 988.391 100.366 987.994 101.353C987.714 102.051 987.54 102.605 987.865 103.295Z" fill="#0E1E2B"/>
<path opacity="0.5" d="M981.865 88.2951C982.241 89.0948 982.941 89.2857 983.789 89.4087C985.001 89.5844 986.247 89.3066 986.627 88.1172C986.922 87.1921 986.547 86.4577 985.932 85.6982C985.379 85.0148 984.861 84.5655 984.008 84.5847C982.966 84.6081 982.391 85.3662 981.994 86.3534C981.714 87.0514 981.54 87.605 981.865 88.2951Z" fill="#0E1E2B"/>
<path opacity="0.5" d="M988.865 18.2951C989.241 19.0948 989.941 19.2857 990.789 19.4087C992.001 19.5844 993.247 19.3066 993.627 18.1172C993.922 17.1921 993.547 16.4577 992.932 15.6982C992.379 15.0148 991.861 14.5655 991.008 14.5847C989.966 14.6081 989.391 15.3662 988.994 16.3534C988.714 17.0514 988.54 17.605 988.865 18.2951Z" fill="#0E1E2B"/>
<rect width="100" height="100" transform="translate(1000 9)" fill="#09141D"/>
<rect width="100" height="8" transform="matrix(1 0 0 -1 1000 52)" fill="#153042"/>
<rect x="0.5" y="-0.5" width="99" height="13" rx="1.5" transform="matrix(1 0 0 -1 1000 43)" fill="#142839" stroke="#0E1E2B"/>
<path d="M1002 42V37L1005.5 39.5L1018 42H1002Z" fill="#142839"/>
<path d="M1098 42V37L1094.5 39.5L1082 42H1098Z" fill="#142839"/>
<rect width="98" height="5" transform="matrix(1 0 0 -1 1001 36)" fill="url(#paint0_linear_37_11237)" fill-opacity="0.03"/>
<rect width="96" height="4" rx="1" transform="matrix(1 0 0 -1 1002 36)" fill="#153042"/>
<rect width="100" height="21" transform="matrix(1 0 0 -1 1000 30)" fill="#071118"/>
<line x1="1098.71" y1="95.7071" x2="1087.71" y2="106.707" stroke="#0E1E2B" stroke-width="2"/>
<line x1="1098.71" y1="79.7071" x2="1087.71" y2="90.7071" stroke="#0E1E2B" stroke-width="2"/>
<line x1="1098.71" y1="63.7071" x2="1087.71" y2="74.7071" stroke="#0E1E2B" stroke-width="2"/>
<line x1="1050.71" y1="95.7071" x2="1039.71" y2="106.707" stroke="#0E1E2B" stroke-width="2"/>
<line x1="1050.71" y1="79.7071" x2="1039.71" y2="90.7071" stroke="#0E1E2B" stroke-width="2"/>
<line x1="1050.71" y1="63.7071" x2="1039.71" y2="74.7071" stroke="#0E1E2B" stroke-width="2"/>
<line x1="1074.71" y1="95.7071" x2="1063.71" y2="106.707" stroke="#0E1E2B" stroke-width="2"/>
<line x1="1074.71" y1="79.7071" x2="1063.71" y2="90.7071" stroke="#0E1E2B" stroke-width="2"/>
<line x1="1074.71" y1="63.7071" x2="1063.71" y2="74.7071" stroke="#0E1E2B" stroke-width="2"/>
<line x1="1026.71" y1="95.7071" x2="1015.71" y2="106.707" stroke="#0E1E2B" stroke-width="2"/>
<line x1="1026.71" y1="79.7071" x2="1015.71" y2="90.7071" stroke="#0E1E2B" stroke-width="2"/>
<line x1="1026.71" y1="63.7071" x2="1015.71" y2="74.7071" stroke="#0E1E2B" stroke-width="2"/>
<line x1="1086.71" y1="95.7071" x2="1075.71" y2="106.707" stroke="#0E1E2B" stroke-width="2"/>
<line x1="1086.71" y1="79.7071" x2="1075.71" y2="90.7071" stroke="#0E1E2B" stroke-width="2"/>
<line x1="1086.71" y1="63.7071" x2="1075.71" y2="74.7071" stroke="#0E1E2B" stroke-width="2"/>
<line x1="1038.71" y1="95.7071" x2="1027.71" y2="106.707" stroke="#0E1E2B" stroke-width="2"/>
<line x1="1038.71" y1="79.7071" x2="1027.71" y2="90.7071" stroke="#0E1E2B" stroke-width="2"/>
<line x1="1038.71" y1="63.7071" x2="1027.71" y2="74.7071" stroke="#0E1E2B" stroke-width="2"/>
<line x1="1062.71" y1="95.7071" x2="1051.71" y2="106.707" stroke="#0E1E2B" stroke-width="2"/>
<line x1="1062.71" y1="79.7071" x2="1051.71" y2="90.7071" stroke="#0E1E2B" stroke-width="2"/>
<line x1="1062.71" y1="63.7071" x2="1051.71" y2="74.7071" stroke="#0E1E2B" stroke-width="2"/>
<line x1="1014.71" y1="95.7071" x2="1003.71" y2="106.707" stroke="#0E1E2B" stroke-width="2"/>
<line x1="1014.71" y1="79.7071" x2="1003.71" y2="90.7071" stroke="#0E1E2B" stroke-width="2"/>
<line x1="1014.71" y1="63.7071" x2="1003.71" y2="74.7071" stroke="#0E1E2B" stroke-width="2"/>
<rect width="100" height="100" transform="translate(1100 9)" fill="#09141D"/>
<rect x="1100" y="65.9995" width="100" height="8" fill="#153042"/>
<rect x="1100.5" y="74.4995" width="99" height="13" rx="1.5" fill="#142839" stroke="#0E1E2B"/>
<path d="M1102 75.9995V80.9995L1105.5 78.4995L1118 75.9995H1102Z" fill="#142839"/>
<path d="M1198 75.9995V80.9995L1194.5 78.4995L1182 75.9995H1198Z" fill="#142839"/>
<rect x="1101" y="81.9995" width="98" height="5" fill="url(#paint1_linear_37_11237)" fill-opacity="0.03"/>
<rect x="1102" y="81.9995" width="96" height="4" rx="1" fill="#153042"/>
<rect x="1100" y="87.9995" width="100" height="21" fill="#071118"/>
<line x1="1102.29" y1="22.2924" x2="1113.29" y2="11.2924" stroke="#0E1E2B" stroke-width="2"/>
<line x1="1102.29" y1="38.2924" x2="1113.29" y2="27.2924" stroke="#0E1E2B" stroke-width="2"/>
<line x1="1102.29" y1="54.2924" x2="1113.29" y2="43.2924" stroke="#0E1E2B" stroke-width="2"/>
<line x1="1150.29" y1="22.2924" x2="1161.29" y2="11.2924" stroke="#0E1E2B" stroke-width="2"/>
<line x1="1150.29" y1="38.2924" x2="1161.29" y2="27.2924" stroke="#0E1E2B" stroke-width="2"/>
<line x1="1150.29" y1="54.2924" x2="1161.29" y2="43.2924" stroke="#0E1E2B" stroke-width="2"/>
<line x1="1126.29" y1="22.2924" x2="1137.29" y2="11.2924" stroke="#0E1E2B" stroke-width="2"/>
<line x1="1126.29" y1="38.2924" x2="1137.29" y2="27.2924" stroke="#0E1E2B" stroke-width="2"/>
<line x1="1126.29" y1="54.2924" x2="1137.29" y2="43.2924" stroke="#0E1E2B" stroke-width="2"/>
<line x1="1174.29" y1="22.2924" x2="1185.29" y2="11.2924" stroke="#0E1E2B" stroke-width="2"/>
<line x1="1174.29" y1="38.2924" x2="1185.29" y2="27.2924" stroke="#0E1E2B" stroke-width="2"/>
<line x1="1174.29" y1="54.2924" x2="1185.29" y2="43.2924" stroke="#0E1E2B" stroke-width="2"/>
<line x1="1114.29" y1="22.2924" x2="1125.29" y2="11.2924" stroke="#0E1E2B" stroke-width="2"/>
<line x1="1114.29" y1="38.2924" x2="1125.29" y2="27.2924" stroke="#0E1E2B" stroke-width="2"/>
<line x1="1114.29" y1="54.2924" x2="1125.29" y2="43.2924" stroke="#0E1E2B" stroke-width="2"/>
<line x1="1162.29" y1="22.2924" x2="1173.29" y2="11.2924" stroke="#0E1E2B" stroke-width="2"/>
<line x1="1162.29" y1="38.2924" x2="1173.29" y2="27.2924" stroke="#0E1E2B" stroke-width="2"/>
<line x1="1162.29" y1="54.2924" x2="1173.29" y2="43.2924" stroke="#0E1E2B" stroke-width="2"/>
<line x1="1138.29" y1="22.2924" x2="1149.29" y2="11.2924" stroke="#0E1E2B" stroke-width="2"/>
<line x1="1138.29" y1="38.2924" x2="1149.29" y2="27.2924" stroke="#0E1E2B" stroke-width="2"/>
<line x1="1138.29" y1="54.2924" x2="1149.29" y2="43.2924" stroke="#0E1E2B" stroke-width="2"/>
<line x1="1186.29" y1="22.2924" x2="1197.29" y2="11.2924" stroke="#0E1E2B" stroke-width="2"/>
<line x1="1186.29" y1="38.2924" x2="1197.29" y2="27.2924" stroke="#0E1E2B" stroke-width="2"/>
<line x1="1186.29" y1="54.2924" x2="1197.29" y2="43.2924" stroke="#0E1E2B" stroke-width="2"/>
<rect width="100" height="100" transform="translate(1200 9)" fill="#09141D"/>
<rect width="100" height="8" transform="matrix(-4.37114e-08 -1 -1 4.37114e-08 1243 109)" fill="#153042"/>
<rect x="-0.5" y="-0.5" width="99" height="13" rx="1.5" transform="matrix(-4.37114e-08 -1 -1 4.37114e-08 1234 108)" fill="#142839" stroke="#0E1E2B"/>
<path d="M1233 107L1228 107L1230.5 103.5L1233 91L1233 107Z" fill="#142839"/>
<path d="M1233 11L1228 11L1230.5 14.5L1233 27L1233 11Z" fill="#142839"/>
<rect width="98" height="5" transform="matrix(-4.37114e-08 -1 -1 4.37114e-08 1227 108)" fill="url(#paint2_linear_37_11237)" fill-opacity="0.03"/>
<rect width="96" height="4" rx="1" transform="matrix(-4.37114e-08 -1 -1 4.37114e-08 1227 107)" fill="#153042"/>
<rect width="100" height="21" transform="matrix(-4.37114e-08 -1 -1 4.37114e-08 1221 109)" fill="#071118"/>
<line y1="-1" x2="15.5563" y2="-1" transform="matrix(0.707107 -0.707107 -0.707107 -0.707107 1286 106)" stroke="#0E1E2B" stroke-width="2"/>
<line y1="-1" x2="15.5563" y2="-1" transform="matrix(0.707107 -0.707107 -0.707107 -0.707107 1270 106)" stroke="#0E1E2B" stroke-width="2"/>
<line y1="-1" x2="15.5563" y2="-1" transform="matrix(0.707107 -0.707107 -0.707107 -0.707107 1254 106)" stroke="#0E1E2B" stroke-width="2"/>
<line y1="-1" x2="15.5563" y2="-1" transform="matrix(0.707107 -0.707107 -0.707107 -0.707107 1286 58)" stroke="#0E1E2B" stroke-width="2"/>
<line y1="-1" x2="15.5563" y2="-1" transform="matrix(0.707107 -0.707107 -0.707107 -0.707107 1270 58)" stroke="#0E1E2B" stroke-width="2"/>
<line y1="-1" x2="15.5563" y2="-1" transform="matrix(0.707107 -0.707107 -0.707107 -0.707107 1254 58)" stroke="#0E1E2B" stroke-width="2"/>
<line y1="-1" x2="15.5563" y2="-1" transform="matrix(0.707107 -0.707107 -0.707107 -0.707107 1286 82)" stroke="#0E1E2B" stroke-width="2"/>
<line y1="-1" x2="15.5563" y2="-1" transform="matrix(0.707107 -0.707107 -0.707107 -0.707107 1270 82)" stroke="#0E1E2B" stroke-width="2"/>
<line y1="-1" x2="15.5563" y2="-1" transform="matrix(0.707107 -0.707107 -0.707107 -0.707107 1254 82)" stroke="#0E1E2B" stroke-width="2"/>
<line y1="-1" x2="15.5563" y2="-1" transform="matrix(0.707107 -0.707107 -0.707107 -0.707107 1286 34)" stroke="#0E1E2B" stroke-width="2"/>
<line y1="-1" x2="15.5563" y2="-1" transform="matrix(0.707107 -0.707107 -0.707107 -0.707107 1270 34)" stroke="#0E1E2B" stroke-width="2"/>
<line y1="-1" x2="15.5563" y2="-1" transform="matrix(0.707107 -0.707107 -0.707107 -0.707107 1254 34)" stroke="#0E1E2B" stroke-width="2"/>
<line y1="-1" x2="15.5563" y2="-1" transform="matrix(0.707107 -0.707107 -0.707107 -0.707107 1286 94)" stroke="#0E1E2B" stroke-width="2"/>
<line y1="-1" x2="15.5563" y2="-1" transform="matrix(0.707107 -0.707107 -0.707107 -0.707107 1270 94)" stroke="#0E1E2B" stroke-width="2"/>
<line y1="-1" x2="15.5563" y2="-1" transform="matrix(0.707107 -0.707107 -0.707107 -0.707107 1254 94)" stroke="#0E1E2B" stroke-width="2"/>
<line y1="-1" x2="15.5563" y2="-1" transform="matrix(0.707107 -0.707107 -0.707107 -0.707107 1286 46)" stroke="#0E1E2B" stroke-width="2"/>
<line y1="-1" x2="15.5563" y2="-1" transform="matrix(0.707107 -0.707107 -0.707107 -0.707107 1270 46)" stroke="#0E1E2B" stroke-width="2"/>
<line y1="-1" x2="15.5563" y2="-1" transform="matrix(0.707107 -0.707107 -0.707107 -0.707107 1254 46)" stroke="#0E1E2B" stroke-width="2"/>
<line y1="-1" x2="15.5563" y2="-1" transform="matrix(0.707107 -0.707107 -0.707107 -0.707107 1286 70)" stroke="#0E1E2B" stroke-width="2"/>
<line y1="-1" x2="15.5563" y2="-1" transform="matrix(0.707107 -0.707107 -0.707107 -0.707107 1270 70)" stroke="#0E1E2B" stroke-width="2"/>
<line y1="-1" x2="15.5563" y2="-1" transform="matrix(0.707107 -0.707107 -0.707107 -0.707107 1254 70)" stroke="#0E1E2B" stroke-width="2"/>
<line y1="-1" x2="15.5563" y2="-1" transform="matrix(0.707107 -0.707107 -0.707107 -0.707107 1286 22)" stroke="#0E1E2B" stroke-width="2"/>
<line y1="-1" x2="15.5563" y2="-1" transform="matrix(0.707107 -0.707107 -0.707107 -0.707107 1270 22)" stroke="#0E1E2B" stroke-width="2"/>
<line y1="-1" x2="15.5563" y2="-1" transform="matrix(0.707107 -0.707107 -0.707107 -0.707107 1254 22)" stroke="#0E1E2B" stroke-width="2"/>
<rect width="100" height="100" transform="translate(1300 9)" fill="#09141D"/>
<rect x="1357" y="109" width="100" height="8" transform="rotate(-90 1357 109)" fill="#153042"/>
<rect x="1365.5" y="108.5" width="99" height="13" rx="1.5" transform="rotate(-90 1365.5 108.5)" fill="#142839" stroke="#0E1E2B"/>
<path d="M1367 107L1372 107L1369.5 103.5L1367 91L1367 107Z" fill="#142839"/>
<path d="M1367 11L1372 11L1369.5 14.5L1367 27L1367 11Z" fill="#142839"/>
<rect x="1373" y="108" width="98" height="5" transform="rotate(-90 1373 108)" fill="url(#paint3_linear_37_11237)" fill-opacity="0.03"/>
<rect x="1373" y="107" width="96" height="4" rx="1" transform="rotate(-90 1373 107)" fill="#153042"/>
<rect x="1379" y="109" width="100" height="21" transform="rotate(-90 1379 109)" fill="#071118"/>
<line y1="-1" x2="15.5563" y2="-1" transform="matrix(0.707107 -0.707107 -0.707107 -0.707107 1335 106)" stroke="#0E1E2B" stroke-width="2"/>
<line y1="-1" x2="15.5563" y2="-1" transform="matrix(0.707107 -0.707107 -0.707107 -0.707107 1319 106)" stroke="#0E1E2B" stroke-width="2"/>
<line y1="-1" x2="15.5563" y2="-1" transform="matrix(0.707107 -0.707107 -0.707107 -0.707107 1303 106)" stroke="#0E1E2B" stroke-width="2"/>
<line y1="-1" x2="15.5563" y2="-1" transform="matrix(0.707107 -0.707107 -0.707107 -0.707107 1335 58)" stroke="#0E1E2B" stroke-width="2"/>
<line y1="-1" x2="15.5563" y2="-1" transform="matrix(0.707107 -0.707107 -0.707107 -0.707107 1319 58)" stroke="#0E1E2B" stroke-width="2"/>
<line y1="-1" x2="15.5563" y2="-1" transform="matrix(0.707107 -0.707107 -0.707107 -0.707107 1303 58)" stroke="#0E1E2B" stroke-width="2"/>
<line y1="-1" x2="15.5563" y2="-1" transform="matrix(0.707107 -0.707107 -0.707107 -0.707107 1335 82)" stroke="#0E1E2B" stroke-width="2"/>
<line y1="-1" x2="15.5563" y2="-1" transform="matrix(0.707107 -0.707107 -0.707107 -0.707107 1319 82)" stroke="#0E1E2B" stroke-width="2"/>
<line y1="-1" x2="15.5563" y2="-1" transform="matrix(0.707107 -0.707107 -0.707107 -0.707107 1303 82)" stroke="#0E1E2B" stroke-width="2"/>
<line y1="-1" x2="15.5563" y2="-1" transform="matrix(0.707107 -0.707107 -0.707107 -0.707107 1335 34)" stroke="#0E1E2B" stroke-width="2"/>
<line y1="-1" x2="15.5563" y2="-1" transform="matrix(0.707107 -0.707107 -0.707107 -0.707107 1319 34)" stroke="#0E1E2B" stroke-width="2"/>
<line y1="-1" x2="15.5563" y2="-1" transform="matrix(0.707107 -0.707107 -0.707107 -0.707107 1303 34)" stroke="#0E1E2B" stroke-width="2"/>
<line y1="-1" x2="15.5563" y2="-1" transform="matrix(0.707107 -0.707107 -0.707107 -0.707107 1335 94)" stroke="#0E1E2B" stroke-width="2"/>
<line y1="-1" x2="15.5563" y2="-1" transform="matrix(0.707107 -0.707107 -0.707107 -0.707107 1319 94)" stroke="#0E1E2B" stroke-width="2"/>
<line y1="-1" x2="15.5563" y2="-1" transform="matrix(0.707107 -0.707107 -0.707107 -0.707107 1303 94)" stroke="#0E1E2B" stroke-width="2"/>
<line y1="-1" x2="15.5563" y2="-1" transform="matrix(0.707107 -0.707107 -0.707107 -0.707107 1335 46)" stroke="#0E1E2B" stroke-width="2"/>
<line y1="-1" x2="15.5563" y2="-1" transform="matrix(0.707107 -0.707107 -0.707107 -0.707107 1319 46)" stroke="#0E1E2B" stroke-width="2"/>
<line y1="-1" x2="15.5563" y2="-1" transform="matrix(0.707107 -0.707107 -0.707107 -0.707107 1303 46)" stroke="#0E1E2B" stroke-width="2"/>
<line y1="-1" x2="15.5563" y2="-1" transform="matrix(0.707107 -0.707107 -0.707107 -0.707107 1335 70)" stroke="#0E1E2B" stroke-width="2"/>
<line y1="-1" x2="15.5563" y2="-1" transform="matrix(0.707107 -0.707107 -0.707107 -0.707107 1319 70)" stroke="#0E1E2B" stroke-width="2"/>
<line y1="-1" x2="15.5563" y2="-1" transform="matrix(0.707107 -0.707107 -0.707107 -0.707107 1303 70)" stroke="#0E1E2B" stroke-width="2"/>
<line y1="-1" x2="15.5563" y2="-1" transform="matrix(0.707107 -0.707107 -0.707107 -0.707107 1335 22)" stroke="#0E1E2B" stroke-width="2"/>
<line y1="-1" x2="15.5563" y2="-1" transform="matrix(0.707107 -0.707107 -0.707107 -0.707107 1319 22)" stroke="#0E1E2B" stroke-width="2"/>
<line y1="-1" x2="15.5563" y2="-1" transform="matrix(0.707107 -0.707107 -0.707107 -0.707107 1303 22)" stroke="#0E1E2B" stroke-width="2"/>
<rect width="100" height="100" transform="translate(1400 9)" fill="#09141D"/>
<rect x="1457" y="109" width="41" height="8" transform="rotate(-90 1457 109)" fill="#153042"/>
<rect x="1465.5" y="108.5" width="34" height="13" rx="1.5" transform="rotate(-90 1465.5 108.5)" fill="#142839" stroke="#0E1E2B"/>
<path d="M1467 108.58L1472 108.58L1469.5 107.845L1467 105.22L1467 108.58Z" fill="#142839"/>
<path d="M1467 90L1472 90L1469.5 90.735L1467 93.36L1467 90Z" fill="#142839"/>
<rect x="1473" y="108.79" width="20.58" height="5" transform="rotate(-90 1473 108.79)" fill="url(#paint4_linear_37_11237)" fill-opacity="0.03"/>
<rect x="1473" y="109" width="19" height="4" rx="1" transform="rotate(-90 1473 109)" fill="#153042"/>
<rect x="1479" y="109" width="21" height="21" transform="rotate(-90 1479 109)" fill="#071118"/>
<line y1="-1" x2="15.5563" y2="-1" transform="matrix(0.707107 -0.707107 -0.707107 -0.707107 1435 106)" stroke="#0E1E2B" stroke-width="2"/>
<line y1="-1" x2="15.5563" y2="-1" transform="matrix(0.707107 -0.707107 -0.707107 -0.707107 1419 106)" stroke="#0E1E2B" stroke-width="2"/>
<line y1="-1" x2="15.5563" y2="-1" transform="matrix(0.707107 -0.707107 -0.707107 -0.707107 1403 106)" stroke="#0E1E2B" stroke-width="2"/>
<line y1="-1" x2="15.5563" y2="-1" transform="matrix(0.707107 -0.707107 -0.707107 -0.707107 1435 58)" stroke="#0E1E2B" stroke-width="2"/>
<line y1="-1" x2="15.5563" y2="-1" transform="matrix(0.707107 -0.707107 -0.707107 -0.707107 1419 58)" stroke="#0E1E2B" stroke-width="2"/>
<line y1="-1" x2="15.5563" y2="-1" transform="matrix(0.707107 -0.707107 -0.707107 -0.707107 1403 58)" stroke="#0E1E2B" stroke-width="2"/>
<line y1="-1" x2="15.5563" y2="-1" transform="matrix(0.707107 -0.707107 -0.707107 -0.707107 1435 82)" stroke="#0E1E2B" stroke-width="2"/>
<line y1="-1" x2="15.5563" y2="-1" transform="matrix(0.707107 -0.707107 -0.707107 -0.707107 1419 82)" stroke="#0E1E2B" stroke-width="2"/>
<line y1="-1" x2="15.5563" y2="-1" transform="matrix(0.707107 -0.707107 -0.707107 -0.707107 1403 82)" stroke="#0E1E2B" stroke-width="2"/>
<line y1="-1" x2="15.5563" y2="-1" transform="matrix(0.707107 -0.707107 -0.707107 -0.707107 1435 34)" stroke="#0E1E2B" stroke-width="2"/>
<line y1="-1" x2="15.5563" y2="-1" transform="matrix(0.707107 -0.707107 -0.707107 -0.707107 1419 34)" stroke="#0E1E2B" stroke-width="2"/>
<line y1="-1" x2="15.5563" y2="-1" transform="matrix(0.707107 -0.707107 -0.707107 -0.707107 1403 34)" stroke="#0E1E2B" stroke-width="2"/>
<line y1="-1" x2="15.5563" y2="-1" transform="matrix(0.707107 -0.707107 -0.707107 -0.707107 1435 94)" stroke="#0E1E2B" stroke-width="2"/>
<line y1="-1" x2="15.5563" y2="-1" transform="matrix(0.707107 -0.707107 -0.707107 -0.707107 1419 94)" stroke="#0E1E2B" stroke-width="2"/>
<line y1="-1" x2="15.5563" y2="-1" transform="matrix(0.707107 -0.707107 -0.707107 -0.707107 1403 94)" stroke="#0E1E2B" stroke-width="2"/>
<line y1="-1" x2="15.5563" y2="-1" transform="matrix(0.707107 -0.707107 -0.707107 -0.707107 1435 46)" stroke="#0E1E2B" stroke-width="2"/>
<line y1="-1" x2="15.5563" y2="-1" transform="matrix(0.707107 -0.707107 -0.707107 -0.707107 1419 46)" stroke="#0E1E2B" stroke-width="2"/>
<line y1="-1" x2="15.5563" y2="-1" transform="matrix(0.707107 -0.707107 -0.707107 -0.707107 1403 46)" stroke="#0E1E2B" stroke-width="2"/>
<line y1="-1" x2="15.5563" y2="-1" transform="matrix(0.707107 -0.707107 -0.707107 -0.707107 1435 70)" stroke="#0E1E2B" stroke-width="2"/>
<line y1="-1" x2="15.5563" y2="-1" transform="matrix(0.707107 -0.707107 -0.707107 -0.707107 1419 70)" stroke="#0E1E2B" stroke-width="2"/>
<line y1="-1" x2="15.5563" y2="-1" transform="matrix(0.707107 -0.707107 -0.707107 -0.707107 1403 70)" stroke="#0E1E2B" stroke-width="2"/>
<line y1="-1" x2="15.5563" y2="-1" transform="matrix(0.707107 -0.707107 -0.707107 -0.707107 1435 22)" stroke="#0E1E2B" stroke-width="2"/>
<line y1="-1" x2="15.5563" y2="-1" transform="matrix(0.707107 -0.707107 -0.707107 -0.707107 1419 22)" stroke="#0E1E2B" stroke-width="2"/>
<line y1="-1" x2="15.5563" y2="-1" transform="matrix(0.707107 -0.707107 -0.707107 -0.707107 1403 22)" stroke="#0E1E2B" stroke-width="2"/>
<line y1="-1" x2="15.5563" y2="-1" transform="matrix(0.707107 -0.707107 -0.707107 -0.707107 1435 34)" stroke="#0E1E2B" stroke-width="2"/>
<line y1="-1" x2="15.5563" y2="-1" transform="matrix(0.707107 -0.707107 -0.707107 -0.707107 1419 34)" stroke="#0E1E2B" stroke-width="2"/>
<line y1="-1" x2="15.5563" y2="-1" transform="matrix(0.707107 -0.707107 -0.707107 -0.707107 1403 34)" stroke="#0E1E2B" stroke-width="2"/>
<line y1="-1" x2="15.5563" y2="-1" transform="matrix(0.707107 -0.707107 -0.707107 -0.707107 1435 22)" stroke="#0E1E2B" stroke-width="2"/>
<line y1="-1" x2="15.5563" y2="-1" transform="matrix(0.707107 -0.707107 -0.707107 -0.707107 1419 22)" stroke="#0E1E2B" stroke-width="2"/>
<line y1="-1" x2="15.5563" y2="-1" transform="matrix(0.707107 -0.707107 -0.707107 -0.707107 1403 22)" stroke="#0E1E2B" stroke-width="2"/>
<rect x="1457" y="66" width="43" height="8" fill="#153042"/>
<rect x="1465.5" y="74.5" width="34" height="13" rx="1.5" fill="#142839" stroke="#0E1E2B"/>
<path d="M1465.7 76V81L1466.92 78.5L1471.3 76H1465.7Z" fill="#142839"/>
<path d="M1499.3 76V81L1498.07 78.5L1493.7 76H1499.3Z" fill="#142839"/>
<rect x="1465.35" y="82" width="34.3" height="5" fill="url(#paint5_linear_37_11237)" fill-opacity="0.03"/>
<rect x="1467" y="82" width="31" height="4" rx="1" fill="#153042"/>
<line x1="1451.29" y1="22.2924" x2="1462.29" y2="11.2924" stroke="#0E1E2B" stroke-width="2"/>
<line x1="1451.29" y1="38.2924" x2="1462.29" y2="27.2924" stroke="#0E1E2B" stroke-width="2"/>
<line x1="1451.29" y1="54.2924" x2="1462.29" y2="43.2924" stroke="#0E1E2B" stroke-width="2"/>
<line x1="1475.29" y1="22.2924" x2="1486.29" y2="11.2924" stroke="#0E1E2B" stroke-width="2"/>
<line x1="1475.29" y1="38.2924" x2="1486.29" y2="27.2924" stroke="#0E1E2B" stroke-width="2"/>
<line x1="1475.29" y1="54.2924" x2="1486.29" y2="43.2924" stroke="#0E1E2B" stroke-width="2"/>
<line x1="1523.29" y1="22.2924" x2="1534.29" y2="11.2924" stroke="#0E1E2B" stroke-width="2"/>
<line x1="1523.29" y1="38.2924" x2="1534.29" y2="27.2924" stroke="#0E1E2B" stroke-width="2"/>
<line x1="1523.29" y1="54.2924" x2="1534.29" y2="43.2924" stroke="#0E1E2B" stroke-width="2"/>
<line x1="1463.29" y1="22.2924" x2="1474.29" y2="11.2924" stroke="#0E1E2B" stroke-width="2"/>
<line x1="1463.29" y1="38.2924" x2="1474.29" y2="27.2924" stroke="#0E1E2B" stroke-width="2"/>
<line x1="1463.29" y1="54.2924" x2="1474.29" y2="43.2924" stroke="#0E1E2B" stroke-width="2"/>
<line x1="1487.29" y1="22.2924" x2="1498.29" y2="11.2924" stroke="#0E1E2B" stroke-width="2"/>
<line x1="1487.29" y1="38.2924" x2="1498.29" y2="27.2924" stroke="#0E1E2B" stroke-width="2"/>
<line x1="1487.29" y1="54.2924" x2="1498.29" y2="43.2924" stroke="#0E1E2B" stroke-width="2"/>
<line x1="1535.29" y1="22.2924" x2="1546.29" y2="11.2924" stroke="#0E1E2B" stroke-width="2"/>
<line x1="1535.29" y1="38.2924" x2="1546.29" y2="27.2924" stroke="#0E1E2B" stroke-width="2"/>
<line x1="1535.29" y1="54.2924" x2="1546.29" y2="43.2924" stroke="#0E1E2B" stroke-width="2"/>
<rect width="100" height="100" transform="translate(1500 9)" fill="#09141D"/>
<rect width="41" height="8" transform="matrix(-4.37114e-08 -1 -1 4.37114e-08 1543 109)" fill="#153042"/>
<rect x="-0.5" y="-0.5" width="34" height="13" rx="1.5" transform="matrix(-4.37114e-08 -1 -1 4.37114e-08 1534 108)" fill="#142839" stroke="#0E1E2B"/>
<path d="M1533 108.58L1528 108.58L1530.5 107.845L1533 105.22L1533 108.58Z" fill="#142839"/>
<path d="M1533 90L1528 90L1530.5 90.735L1533 93.36L1533 90Z" fill="#142839"/>
<rect width="20.58" height="5" transform="matrix(-4.37114e-08 -1 -1 4.37114e-08 1527 108.79)" fill="url(#paint6_linear_37_11237)" fill-opacity="0.03"/>
<rect width="19" height="4" rx="1" transform="matrix(-4.37114e-08 -1 -1 4.37114e-08 1527 109)" fill="#153042"/>
<rect width="21" height="21" transform="matrix(-4.37114e-08 -1 -1 4.37114e-08 1521 109)" fill="#071118"/>
<rect width="43" height="8" transform="matrix(-1 0 0 1 1543 66)" fill="#153042"/>
<rect x="-0.5" y="0.5" width="34" height="13" rx="1.5" transform="matrix(-1 0 0 1 1534 74)" fill="#142839" stroke="#0E1E2B"/>
<path d="M1534.3 76V81L1533.08 78.5L1528.7 76H1534.3Z" fill="#142839"/>
<path d="M1500.7 76V81L1501.93 78.5L1506.3 76H1500.7Z" fill="#142839"/>
<rect width="34.3" height="5" transform="matrix(-1 0 0 1 1534.65 82)" fill="url(#paint7_linear_37_11237)" fill-opacity="0.03"/>
<rect width="31" height="4" rx="1" transform="matrix(-1 0 0 1 1533 82)" fill="#153042"/>
<line y1="-1" x2="15.5563" y2="-1" transform="matrix(0.707107 -0.707107 -0.707107 -0.707107 1584 106)" stroke="#0E1E2B" stroke-width="2"/>
<line y1="-1" x2="15.5563" y2="-1" transform="matrix(0.707107 -0.707107 -0.707107 -0.707107 1568 106)" stroke="#0E1E2B" stroke-width="2"/>
<line y1="-1" x2="15.5563" y2="-1" transform="matrix(0.707107 -0.707107 -0.707107 -0.707107 1552 106)" stroke="#0E1E2B" stroke-width="2"/>
<line y1="-1" x2="15.5563" y2="-1" transform="matrix(0.707107 -0.707107 -0.707107 -0.707107 1584 58)" stroke="#0E1E2B" stroke-width="2"/>
<line y1="-1" x2="15.5563" y2="-1" transform="matrix(0.707107 -0.707107 -0.707107 -0.707107 1568 58)" stroke="#0E1E2B" stroke-width="2"/>
<line y1="-1" x2="15.5563" y2="-1" transform="matrix(0.707107 -0.707107 -0.707107 -0.707107 1552 58)" stroke="#0E1E2B" stroke-width="2"/>
<line y1="-1" x2="15.5563" y2="-1" transform="matrix(0.707107 -0.707107 -0.707107 -0.707107 1584 82)" stroke="#0E1E2B" stroke-width="2"/>
<line y1="-1" x2="15.5563" y2="-1" transform="matrix(0.707107 -0.707107 -0.707107 -0.707107 1568 82)" stroke="#0E1E2B" stroke-width="2"/>
<line y1="-1" x2="15.5563" y2="-1" transform="matrix(0.707107 -0.707107 -0.707107 -0.707107 1552 82)" stroke="#0E1E2B" stroke-width="2"/>
<line y1="-1" x2="15.5563" y2="-1" transform="matrix(0.707107 -0.707107 -0.707107 -0.707107 1584 34)" stroke="#0E1E2B" stroke-width="2"/>
<line y1="-1" x2="15.5563" y2="-1" transform="matrix(0.707107 -0.707107 -0.707107 -0.707107 1568 34)" stroke="#0E1E2B" stroke-width="2"/>
<line y1="-1" x2="15.5563" y2="-1" transform="matrix(0.707107 -0.707107 -0.707107 -0.707107 1552 34)" stroke="#0E1E2B" stroke-width="2"/>
<line y1="-1" x2="15.5563" y2="-1" transform="matrix(0.707107 -0.707107 -0.707107 -0.707107 1584 94)" stroke="#0E1E2B" stroke-width="2"/>
<line y1="-1" x2="15.5563" y2="-1" transform="matrix(0.707107 -0.707107 -0.707107 -0.707107 1568 94)" stroke="#0E1E2B" stroke-width="2"/>
<line y1="-1" x2="15.5563" y2="-1" transform="matrix(0.707107 -0.707107 -0.707107 -0.707107 1552 94)" stroke="#0E1E2B" stroke-width="2"/>
<line y1="-1" x2="15.5563" y2="-1" transform="matrix(0.707107 -0.707107 -0.707107 -0.707107 1584 46)" stroke="#0E1E2B" stroke-width="2"/>
<line y1="-1" x2="15.5563" y2="-1" transform="matrix(0.707107 -0.707107 -0.707107 -0.707107 1568 46)" stroke="#0E1E2B" stroke-width="2"/>
<line y1="-1" x2="15.5563" y2="-1" transform="matrix(0.707107 -0.707107 -0.707107 -0.707107 1552 46)" stroke="#0E1E2B" stroke-width="2"/>
<line y1="-1" x2="15.5563" y2="-1" transform="matrix(0.707107 -0.707107 -0.707107 -0.707107 1584 70)" stroke="#0E1E2B" stroke-width="2"/>
<line y1="-1" x2="15.5563" y2="-1" transform="matrix(0.707107 -0.707107 -0.707107 -0.707107 1568 70)" stroke="#0E1E2B" stroke-width="2"/>
<line y1="-1" x2="15.5563" y2="-1" transform="matrix(0.707107 -0.707107 -0.707107 -0.707107 1552 70)" stroke="#0E1E2B" stroke-width="2"/>
<line y1="-1" x2="15.5563" y2="-1" transform="matrix(0.707107 -0.707107 -0.707107 -0.707107 1584 22)" stroke="#0E1E2B" stroke-width="2"/>
<line y1="-1" x2="15.5563" y2="-1" transform="matrix(0.707107 -0.707107 -0.707107 -0.707107 1568 22)" stroke="#0E1E2B" stroke-width="2"/>
<line y1="-1" x2="15.5563" y2="-1" transform="matrix(0.707107 -0.707107 -0.707107 -0.707107 1552 22)" stroke="#0E1E2B" stroke-width="2"/>
<line y1="-1" x2="15.5563" y2="-1" transform="matrix(0.707107 -0.707107 -0.707107 -0.707107 1584 34)" stroke="#0E1E2B" stroke-width="2"/>
<line y1="-1" x2="15.5563" y2="-1" transform="matrix(0.707107 -0.707107 -0.707107 -0.707107 1568 34)" stroke="#0E1E2B" stroke-width="2"/>
<line y1="-1" x2="15.5563" y2="-1" transform="matrix(0.707107 -0.707107 -0.707107 -0.707107 1552 34)" stroke="#0E1E2B" stroke-width="2"/>
<line y1="-1" x2="15.5563" y2="-1" transform="matrix(0.707107 -0.707107 -0.707107 -0.707107 1584 22)" stroke="#0E1E2B" stroke-width="2"/>
<line y1="-1" x2="15.5563" y2="-1" transform="matrix(0.707107 -0.707107 -0.707107 -0.707107 1568 22)" stroke="#0E1E2B" stroke-width="2"/>
<line y1="-1" x2="15.5563" y2="-1" transform="matrix(0.707107 -0.707107 -0.707107 -0.707107 1552 22)" stroke="#0E1E2B" stroke-width="2"/>
<line x1="1501.29" y1="22.2924" x2="1512.29" y2="11.2924" stroke="#0E1E2B" stroke-width="2"/>
<line x1="1501.29" y1="38.2924" x2="1512.29" y2="27.2924" stroke="#0E1E2B" stroke-width="2"/>
<line x1="1501.29" y1="54.2924" x2="1512.29" y2="43.2924" stroke="#0E1E2B" stroke-width="2"/>
<line x1="1525.29" y1="22.2924" x2="1536.29" y2="11.2924" stroke="#0E1E2B" stroke-width="2"/>
<line x1="1525.29" y1="38.2924" x2="1536.29" y2="27.2924" stroke="#0E1E2B" stroke-width="2"/>
<line x1="1525.29" y1="54.2924" x2="1536.29" y2="43.2924" stroke="#0E1E2B" stroke-width="2"/>
<line x1="1513.29" y1="22.2924" x2="1524.29" y2="11.2924" stroke="#0E1E2B" stroke-width="2"/>
<line x1="1513.29" y1="38.2924" x2="1524.29" y2="27.2924" stroke="#0E1E2B" stroke-width="2"/>
<line x1="1513.29" y1="54.2924" x2="1524.29" y2="43.2924" stroke="#0E1E2B" stroke-width="2"/>
<line x1="1537.29" y1="22.2924" x2="1548.29" y2="11.2924" stroke="#0E1E2B" stroke-width="2"/>
<line x1="1537.29" y1="38.2924" x2="1548.29" y2="27.2924" stroke="#0E1E2B" stroke-width="2"/>
<line x1="1537.29" y1="54.2924" x2="1548.29" y2="43.2924" stroke="#0E1E2B" stroke-width="2"/>
<rect width="100" height="100" transform="translate(1600 9)" fill="#09141D"/>
<rect width="100" height="8" transform="matrix(-4.37114e-08 -1 -1 4.37114e-08 1643 109)" fill="#153042"/>
<rect width="65" height="8" transform="matrix(1 0 0 -1 1635 52)" fill="#153042"/>
<rect x="0.5" y="-0.5" width="78" height="13" rx="1.5" transform="matrix(1 0 0 -1 1621 43)" fill="#142839" stroke="#0E1E2B"/>
<path d="M1636.3 42V37L1638.58 39.5L1646.7 42H1636.3Z" fill="#142839"/>
<path d="M1698.7 42V37L1696.42 39.5L1688.3 42H1698.7Z" fill="#142839"/>
<rect width="77" height="5" transform="matrix(1 0 0 -1 1622 36)" fill="url(#paint8_linear_37_11237)" fill-opacity="0.03"/>
<rect width="76" height="4" rx="1" transform="matrix(1 0 0 -1 1623 36)" fill="#153042"/>
<rect width="100" height="21" transform="matrix(1 0 0 -1 1600 30)" fill="#071118"/>
<rect x="-0.5" y="-0.5" width="65" height="13" rx="1.5" transform="matrix(-4.37114e-08 -1 -1 4.37114e-08 1634 108)" fill="#142839" stroke="#0E1E2B"/>
<path d="M1633 107.44L1628 107.44L1630.5 104.71L1633 94.9599L1633 107.44Z" fill="#142839"/>
<rect width="76.44" height="5" transform="matrix(-4.37114e-08 -1 -1 4.37114e-08 1627 108.22)" fill="url(#paint9_linear_37_11237)" fill-opacity="0.03"/>
<rect width="62" height="4" rx="1" transform="matrix(-4.37114e-08 -1 -1 4.37114e-08 1627 107)" fill="#153042"/>
<rect width="100" height="21" transform="matrix(-4.37114e-08 -1 -1 4.37114e-08 1621 109)" fill="#071118"/>
<line y1="-1" x2="15.5563" y2="-1" transform="matrix(0.707107 -0.707107 -0.707107 -0.707107 1686 106)" stroke="#0E1E2B" stroke-width="2"/>
<line y1="-1" x2="15.5563" y2="-1" transform="matrix(0.707107 -0.707107 -0.707107 -0.707107 1670 106)" stroke="#0E1E2B" stroke-width="2"/>
<line y1="-1" x2="15.5563" y2="-1" transform="matrix(0.707107 -0.707107 -0.707107 -0.707107 1654 106)" stroke="#0E1E2B" stroke-width="2"/>
<line y1="-1" x2="15.5563" y2="-1" transform="matrix(0.707107 -0.707107 -0.707107 -0.707107 1686 82)" stroke="#0E1E2B" stroke-width="2"/>
<line y1="-1" x2="15.5563" y2="-1" transform="matrix(0.707107 -0.707107 -0.707107 -0.707107 1670 82)" stroke="#0E1E2B" stroke-width="2"/>
<line y1="-1" x2="15.5563" y2="-1" transform="matrix(0.707107 -0.707107 -0.707107 -0.707107 1654 82)" stroke="#0E1E2B" stroke-width="2"/>
<line y1="-1" x2="15.5563" y2="-1" transform="matrix(0.707107 -0.707107 -0.707107 -0.707107 1686 94)" stroke="#0E1E2B" stroke-width="2"/>
<line y1="-1" x2="15.5563" y2="-1" transform="matrix(0.707107 -0.707107 -0.707107 -0.707107 1670 94)" stroke="#0E1E2B" stroke-width="2"/>
<line y1="-1" x2="15.5563" y2="-1" transform="matrix(0.707107 -0.707107 -0.707107 -0.707107 1654 94)" stroke="#0E1E2B" stroke-width="2"/>
<rect width="100" height="100" transform="translate(1700 9)" fill="#09141D"/>
<rect x="1757" y="109" width="100" height="8" transform="rotate(-90 1757 109)" fill="#153042"/>
<rect x="1765" y="52" width="65" height="8" transform="rotate(180 1765 52)" fill="#153042"/>
<rect x="1778.5" y="43.5" width="78" height="13" rx="1.5" transform="rotate(180 1778.5 43.5)" fill="#142839" stroke="#0E1E2B"/>
<path d="M1763.7 42V37L1761.42 39.5L1753.3 42H1763.7Z" fill="#142839"/>
<path d="M1701.3 42V37L1703.58 39.5L1711.7 42H1701.3Z" fill="#142839"/>
<rect x="1778" y="36" width="77" height="5" transform="rotate(180 1778 36)" fill="url(#paint10_linear_37_11237)" fill-opacity="0.03"/>
<rect x="1777" y="36" width="76" height="4" rx="1" transform="rotate(180 1777 36)" fill="#153042"/>
<rect x="1800" y="30" width="100" height="21" transform="rotate(180 1800 30)" fill="#071118"/>
<rect x="1765.5" y="108.5" width="65" height="13" rx="1.5" transform="rotate(-90 1765.5 108.5)" fill="#142839" stroke="#0E1E2B"/>
<path d="M1767 107.44L1772 107.44L1769.5 104.71L1767 94.9599L1767 107.44Z" fill="#142839"/>
<rect x="1773" y="108.22" width="76.44" height="5" transform="rotate(-90 1773 108.22)" fill="url(#paint11_linear_37_11237)" fill-opacity="0.03"/>
<rect x="1773" y="107" width="62" height="4" rx="1" transform="rotate(-90 1773 107)" fill="#153042"/>
<rect x="1779" y="109" width="100" height="21" transform="rotate(-90 1779 109)" fill="#071118"/>
<line y1="-1" x2="15.5563" y2="-1" transform="matrix(0.707107 -0.707107 -0.707107 -0.707107 1719 106)" stroke="#0E1E2B" stroke-width="2"/>
<line y1="-1" x2="15.5563" y2="-1" transform="matrix(0.707107 -0.707107 -0.707107 -0.707107 1703 106)" stroke="#0E1E2B" stroke-width="2"/>
<line y1="-1" x2="15.5563" y2="-1" transform="matrix(0.707107 -0.707107 -0.707107 -0.707107 1719 82)" stroke="#0E1E2B" stroke-width="2"/>
<line y1="-1" x2="15.5563" y2="-1" transform="matrix(0.707107 -0.707107 -0.707107 -0.707107 1703 82)" stroke="#0E1E2B" stroke-width="2"/>
<line y1="-1" x2="15.5563" y2="-1" transform="matrix(0.707107 -0.707107 -0.707107 -0.707107 1719 94)" stroke="#0E1E2B" stroke-width="2"/>
<line y1="-1" x2="15.5563" y2="-1" transform="matrix(0.707107 -0.707107 -0.707107 -0.707107 1703 94)" stroke="#0E1E2B" stroke-width="2"/>
<rect width="100" height="100" transform="translate(1800 9)" fill="#09141D"/>
<rect x="1843" y="9" width="100" height="8" transform="rotate(90 1843 9)" fill="#153042"/>
<rect x="1835" y="66" width="65" height="8" fill="#153042"/>
<rect x="1821.5" y="74.5" width="78" height="13" rx="1.5" fill="#142839" stroke="#0E1E2B"/>
<path d="M1836.3 76L1836.3 81L1838.58 78.5L1846.7 76L1836.3 76Z" fill="#142839"/>
<path d="M1898.7 76L1898.7 81L1896.42 78.5L1888.3 76L1898.7 76Z" fill="#142839"/>
<rect x="1822" y="82" width="77" height="5" fill="url(#paint12_linear_37_11237)" fill-opacity="0.03"/>
<rect x="1823" y="82" width="76" height="4" rx="1" fill="#153042"/>
<rect x="1800" y="88" width="100" height="21" fill="#071118"/>
<rect x="1834.5" y="9.5" width="65" height="13" rx="1.5" transform="rotate(90 1834.5 9.5)" fill="#142839" stroke="#0E1E2B"/>
<path d="M1833 10.5601L1828 10.5601L1830.5 13.2901L1833 23.0401L1833 10.5601Z" fill="#142839"/>
<rect x="1827" y="9.77979" width="76.44" height="5" transform="rotate(90 1827 9.77979)" fill="url(#paint13_linear_37_11237)" fill-opacity="0.03"/>
<rect x="1827" y="11" width="62" height="4" rx="1" transform="rotate(90 1827 11)" fill="#153042"/>
<rect x="1821" y="9" width="100" height="21" transform="rotate(90 1821 9)" fill="#071118"/>
<line y1="-1" x2="15.5563" y2="-1" transform="matrix(0.707107 -0.707107 -0.707107 -0.707107 1886 47)" stroke="#0E1E2B" stroke-width="2"/>
<line y1="-1" x2="15.5563" y2="-1" transform="matrix(0.707107 -0.707107 -0.707107 -0.707107 1870 47)" stroke="#0E1E2B" stroke-width="2"/>
<line y1="-1" x2="15.5563" y2="-1" transform="matrix(0.707107 -0.707107 -0.707107 -0.707107 1886 23)" stroke="#0E1E2B" stroke-width="2"/>
<line y1="-1" x2="15.5563" y2="-1" transform="matrix(0.707107 -0.707107 -0.707107 -0.707107 1870 23)" stroke="#0E1E2B" stroke-width="2"/>
<line y1="-1" x2="15.5563" y2="-1" transform="matrix(0.707107 -0.707107 -0.707107 -0.707107 1886 35)" stroke="#0E1E2B" stroke-width="2"/>
<line y1="-1" x2="15.5563" y2="-1" transform="matrix(0.707107 -0.707107 -0.707107 -0.707107 1870 35)" stroke="#0E1E2B" stroke-width="2"/>
<rect width="100" height="100" transform="translate(1900 9)" fill="#09141D"/>
<rect x="1900" y="66" width="100" height="8" fill="#153042"/>
<rect x="1957" y="74" width="65" height="8" transform="rotate(-90 1957 74)" fill="#153042"/>
<rect x="1965.5" y="87.5" width="78" height="13" rx="1.5" transform="rotate(-90 1965.5 87.5)" fill="#142839" stroke="#0E1E2B"/>
<path d="M1967 72.7002L1972 72.7002L1969.5 70.4252L1967 62.3002L1967 72.7002Z" fill="#142839"/>
<path d="M1967 10.2998L1972 10.2998L1969.5 12.5748L1967 20.6998L1967 10.2998Z" fill="#142839"/>
<rect x="1973" y="87" width="77" height="5" transform="rotate(-90 1973 87)" fill="url(#paint14_linear_37_11237)" fill-opacity="0.03"/>
<rect x="1973" y="86" width="76" height="4" rx="1" transform="rotate(-90 1973 86)" fill="#153042"/>
<rect x="1979" y="109" width="100" height="21" transform="rotate(-90 1979 109)" fill="#071118"/>
<rect x="1900.5" y="74.5" width="65" height="13" rx="1.5" fill="#142839" stroke="#0E1E2B"/>
<path d="M1901.56 76L1901.56 81L1904.29 78.5L1914.04 76L1901.56 76Z" fill="#142839"/>
<rect x="1900.78" y="82" width="76.44" height="5" fill="url(#paint15_linear_37_11237)" fill-opacity="0.03"/>
<rect x="1902" y="82" width="62" height="4" rx="1" fill="#153042"/>
<rect x="1900" y="88" width="100" height="21" fill="#071118"/>
<line y1="-1" x2="15.5563" y2="-1" transform="matrix(0.707107 -0.707107 -0.707107 -0.707107 1923 51)" stroke="#0E1E2B" stroke-width="2"/>
<line y1="-1" x2="15.5563" y2="-1" transform="matrix(0.707107 -0.707107 -0.707107 -0.707107 1907 51)" stroke="#0E1E2B" stroke-width="2"/>
<line y1="-1" x2="15.5563" y2="-1" transform="matrix(0.707107 -0.707107 -0.707107 -0.707107 1923 27)" stroke="#0E1E2B" stroke-width="2"/>
<line y1="-1" x2="15.5563" y2="-1" transform="matrix(0.707107 -0.707107 -0.707107 -0.707107 1907 27)" stroke="#0E1E2B" stroke-width="2"/>
<line y1="-1" x2="15.5563" y2="-1" transform="matrix(0.707107 -0.707107 -0.707107 -0.707107 1923 39)" stroke="#0E1E2B" stroke-width="2"/>
<line y1="-1" x2="15.5563" y2="-1" transform="matrix(0.707107 -0.707107 -0.707107 -0.707107 1907 39)" stroke="#0E1E2B" stroke-width="2"/>
<rect width="100" height="100" transform="translate(2000 9)" fill="#09141D"/>
<rect width="41" height="8" transform="matrix(1 0 0 -1 2000 52)" fill="#153042"/>
<rect x="0.5" y="-0.5" width="34" height="13" rx="1.5" transform="matrix(1 0 0 -1 2000 43)" fill="#142839" stroke="#0E1E2B"/>
<path d="M2000.42 42V37L2001.15 39.5L2003.78 42H2000.42Z" fill="#142839"/>
<path d="M2019 42V37L2018.26 39.5L2015.64 42H2019Z" fill="#142839"/>
<rect width="20.58" height="5" transform="matrix(1 0 0 -1 2000.21 36)" fill="url(#paint16_linear_37_11237)" fill-opacity="0.03"/>
<rect width="19" height="4" rx="1" transform="matrix(1 0 0 -1 2000 36)" fill="#153042"/>
<rect width="21" height="21" transform="matrix(1 0 0 -1 2000 30)" fill="#071118"/>
<rect width="43" height="8" transform="matrix(4.37114e-08 -1 -1 -4.37114e-08 2043 52)" fill="#153042"/>
<rect x="-0.5" y="-0.5" width="34" height="13" rx="1.5" transform="matrix(4.37114e-08 -1 -1 -4.37114e-08 2034 43)" fill="#142839" stroke="#0E1E2B"/>
<path d="M2033 43.3003L2028 43.3003L2030.5 42.0753L2033 37.7003L2033 43.3003Z" fill="#142839"/>
<path d="M2033 9.7002L2028 9.7002L2030.5 10.9252L2033 15.3002L2033 9.7002Z" fill="#142839"/>
<rect width="34.3" height="5" transform="matrix(4.37114e-08 -1 -1 -4.37114e-08 2027 43.6504)" fill="url(#paint17_linear_37_11237)" fill-opacity="0.03"/>
<rect width="31" height="4" rx="1" transform="matrix(4.37114e-08 -1 -1 -4.37114e-08 2027 42.0005)" fill="#153042"/>
<line x1="2098.71" y1="93.7071" x2="2087.71" y2="104.707" stroke="#0E1E2B" stroke-width="2"/>
<line x1="2098.71" y1="77.7071" x2="2087.71" y2="88.7071" stroke="#0E1E2B" stroke-width="2"/>
<line x1="2098.71" y1="61.7071" x2="2087.71" y2="72.7071" stroke="#0E1E2B" stroke-width="2"/>
<line x1="2050.71" y1="93.7071" x2="2039.71" y2="104.707" stroke="#0E1E2B" stroke-width="2"/>
<line x1="2050.71" y1="77.7071" x2="2039.71" y2="88.7071" stroke="#0E1E2B" stroke-width="2"/>
<line x1="2050.71" y1="61.7071" x2="2039.71" y2="72.7071" stroke="#0E1E2B" stroke-width="2"/>
<line x1="2074.71" y1="93.7071" x2="2063.71" y2="104.707" stroke="#0E1E2B" stroke-width="2"/>
<line x1="2074.71" y1="77.7071" x2="2063.71" y2="88.7071" stroke="#0E1E2B" stroke-width="2"/>
<line x1="2074.71" y1="61.7071" x2="2063.71" y2="72.7071" stroke="#0E1E2B" stroke-width="2"/>
<line x1="2026.71" y1="93.7071" x2="2015.71" y2="104.707" stroke="#0E1E2B" stroke-width="2"/>
<line x1="2026.71" y1="77.7071" x2="2015.71" y2="88.7071" stroke="#0E1E2B" stroke-width="2"/>
<line x1="2026.71" y1="61.7071" x2="2015.71" y2="72.7071" stroke="#0E1E2B" stroke-width="2"/>
<line x1="2086.71" y1="93.7071" x2="2075.71" y2="104.707" stroke="#0E1E2B" stroke-width="2"/>
<line x1="2086.71" y1="77.7071" x2="2075.71" y2="88.7071" stroke="#0E1E2B" stroke-width="2"/>
<line x1="2086.71" y1="61.7071" x2="2075.71" y2="72.7071" stroke="#0E1E2B" stroke-width="2"/>
<line x1="2038.71" y1="93.7071" x2="2027.71" y2="104.707" stroke="#0E1E2B" stroke-width="2"/>
<line x1="2038.71" y1="77.7071" x2="2027.71" y2="88.7071" stroke="#0E1E2B" stroke-width="2"/>
<line x1="2038.71" y1="61.7071" x2="2027.71" y2="72.7071" stroke="#0E1E2B" stroke-width="2"/>
<line x1="2062.71" y1="93.7071" x2="2051.71" y2="104.707" stroke="#0E1E2B" stroke-width="2"/>
<line x1="2062.71" y1="77.7071" x2="2051.71" y2="88.7071" stroke="#0E1E2B" stroke-width="2"/>
<line x1="2062.71" y1="61.7071" x2="2051.71" y2="72.7071" stroke="#0E1E2B" stroke-width="2"/>
<line x1="2014.71" y1="93.7071" x2="2003.71" y2="104.707" stroke="#0E1E2B" stroke-width="2"/>
<line x1="2014.71" y1="77.7071" x2="2003.71" y2="88.7071" stroke="#0E1E2B" stroke-width="2"/>
<line x1="2014.71" y1="61.7071" x2="2003.71" y2="72.7071" stroke="#0E1E2B" stroke-width="2"/>
<line x1="2026.71" y1="93.7071" x2="2015.71" y2="104.707" stroke="#0E1E2B" stroke-width="2"/>
<line x1="2026.71" y1="77.7071" x2="2015.71" y2="88.7071" stroke="#0E1E2B" stroke-width="2"/>
<line x1="2026.71" y1="61.7071" x2="2015.71" y2="72.7071" stroke="#0E1E2B" stroke-width="2"/>
<line x1="2014.71" y1="93.7071" x2="2003.71" y2="104.707" stroke="#0E1E2B" stroke-width="2"/>
<line x1="2014.71" y1="77.7071" x2="2003.71" y2="88.7071" stroke="#0E1E2B" stroke-width="2"/>
<line x1="2014.71" y1="61.7071" x2="2003.71" y2="72.7071" stroke="#0E1E2B" stroke-width="2"/>
<line y1="-1" x2="15.5563" y2="-1" transform="matrix(-0.707107 0.707107 0.707107 0.707107 2065 11)" stroke="#0E1E2B" stroke-width="2"/>
<line y1="-1" x2="15.5563" y2="-1" transform="matrix(-0.707107 0.707107 0.707107 0.707107 2081 11)" stroke="#0E1E2B" stroke-width="2"/>
<line y1="-1" x2="15.5563" y2="-1" transform="matrix(-0.707107 0.707107 0.707107 0.707107 2097 11)" stroke="#0E1E2B" stroke-width="2"/>
<line y1="-1" x2="15.5563" y2="-1" transform="matrix(-0.707107 0.707107 0.707107 0.707107 2065 35)" stroke="#0E1E2B" stroke-width="2"/>
<line y1="-1" x2="15.5563" y2="-1" transform="matrix(-0.707107 0.707107 0.707107 0.707107 2081 35)" stroke="#0E1E2B" stroke-width="2"/>
<line y1="-1" x2="15.5563" y2="-1" transform="matrix(-0.707107 0.707107 0.707107 0.707107 2097 35)" stroke="#0E1E2B" stroke-width="2"/>
<line y1="-1" x2="15.5563" y2="-1" transform="matrix(-0.707107 0.707107 0.707107 0.707107 2065 23)" stroke="#0E1E2B" stroke-width="2"/>
<line y1="-1" x2="15.5563" y2="-1" transform="matrix(-0.707107 0.707107 0.707107 0.707107 2081 23)" stroke="#0E1E2B" stroke-width="2"/>
<line y1="-1" x2="15.5563" y2="-1" transform="matrix(-0.707107 0.707107 0.707107 0.707107 2097 23)" stroke="#0E1E2B" stroke-width="2"/>
<line y1="-1" x2="15.5563" y2="-1" transform="matrix(-0.707107 0.707107 0.707107 0.707107 2065 47)" stroke="#0E1E2B" stroke-width="2"/>
<line y1="-1" x2="15.5563" y2="-1" transform="matrix(-0.707107 0.707107 0.707107 0.707107 2081 47)" stroke="#0E1E2B" stroke-width="2"/>
<line y1="-1" x2="15.5563" y2="-1" transform="matrix(-0.707107 0.707107 0.707107 0.707107 2097 47)" stroke="#0E1E2B" stroke-width="2"/>
<rect width="100" height="100" transform="translate(2100 9)" fill="#09141D"/>
<rect width="41" height="8" transform="matrix(-4.37114e-08 1 1 4.37114e-08 2157 9)" fill="#153042"/>
<rect x="0.5" y="0.5" width="34" height="13" rx="1.5" transform="matrix(-4.37114e-08 1 1 4.37114e-08 2165 9)" fill="#142839" stroke="#0E1E2B"/>
<path d="M2167 9.41992L2172 9.41992L2169.5 10.1549L2167 12.7799L2167 9.41992Z" fill="#142839"/>
<path d="M2167 28L2172 28L2169.5 27.265L2167 24.64L2167 28Z" fill="#142839"/>
<rect width="20.58" height="5" transform="matrix(-4.37114e-08 1 1 4.37114e-08 2173 9.20996)" fill="url(#paint18_linear_37_11237)" fill-opacity="0.03"/>
<rect width="19" height="4" rx="1" transform="matrix(-4.37114e-08 1 1 4.37114e-08 2173 9)" fill="#153042"/>
<rect width="21" height="21" transform="matrix(-4.37114e-08 1 1 4.37114e-08 2179 9)" fill="#071118"/>
<rect width="43" height="8" transform="matrix(1 8.74228e-08 8.74228e-08 -1 2157 52)" fill="#153042"/>
<rect x="0.5" y="-0.5" width="34" height="13" rx="1.5" transform="matrix(1 8.74228e-08 8.74228e-08 -1 2165 43)" fill="#142839" stroke="#0E1E2B"/>
<path d="M2165.7 42L2165.7 37L2166.92 39.5L2171.3 42L2165.7 42Z" fill="#142839"/>
<path d="M2199.3 42L2199.3 37L2198.07 39.5L2193.7 42L2199.3 42Z" fill="#142839"/>
<rect width="34.3" height="5" transform="matrix(1 8.74228e-08 8.74228e-08 -1 2165.35 36)" fill="url(#paint19_linear_37_11237)" fill-opacity="0.03"/>
<rect width="31" height="4" rx="1" transform="matrix(1 8.74228e-08 8.74228e-08 -1 2167 36)" fill="#153042"/>
<line y1="-1" x2="15.5563" y2="-1" transform="matrix(0.707107 -0.707107 -0.707107 -0.707107 2133.5 106.5)" stroke="#0E1E2B" stroke-width="2"/>
<line y1="-1" x2="15.5563" y2="-1" transform="matrix(0.707107 -0.707107 -0.707107 -0.707107 2117.5 106.5)" stroke="#0E1E2B" stroke-width="2"/>
<line y1="-1" x2="15.5563" y2="-1" transform="matrix(0.707107 -0.707107 -0.707107 -0.707107 2101.5 106.5)" stroke="#0E1E2B" stroke-width="2"/>
<line y1="-1" x2="15.5563" y2="-1" transform="matrix(0.707107 -0.707107 -0.707107 -0.707107 2133.5 58.5)" stroke="#0E1E2B" stroke-width="2"/>
<line y1="-1" x2="15.5563" y2="-1" transform="matrix(0.707107 -0.707107 -0.707107 -0.707107 2117.5 58.5)" stroke="#0E1E2B" stroke-width="2"/>
<line y1="-1" x2="15.5563" y2="-1" transform="matrix(0.707107 -0.707107 -0.707107 -0.707107 2101.5 58.5)" stroke="#0E1E2B" stroke-width="2"/>
<line y1="-1" x2="15.5563" y2="-1" transform="matrix(0.707107 -0.707107 -0.707107 -0.707107 2133.5 82.5)" stroke="#0E1E2B" stroke-width="2"/>
<line y1="-1" x2="15.5563" y2="-1" transform="matrix(0.707107 -0.707107 -0.707107 -0.707107 2117.5 82.5)" stroke="#0E1E2B" stroke-width="2"/>
<line y1="-1" x2="15.5563" y2="-1" transform="matrix(0.707107 -0.707107 -0.707107 -0.707107 2101.5 82.5)" stroke="#0E1E2B" stroke-width="2"/>
<line y1="-1" x2="15.5563" y2="-1" transform="matrix(0.707107 -0.707107 -0.707107 -0.707107 2133.5 34.5)" stroke="#0E1E2B" stroke-width="2"/>
<line y1="-1" x2="15.5563" y2="-1" transform="matrix(0.707107 -0.707107 -0.707107 -0.707107 2117.5 34.5)" stroke="#0E1E2B" stroke-width="2"/>
<line y1="-1" x2="15.5563" y2="-1" transform="matrix(0.707107 -0.707107 -0.707107 -0.707107 2101.5 34.5)" stroke="#0E1E2B" stroke-width="2"/>
<line y1="-1" x2="15.5563" y2="-1" transform="matrix(0.707107 -0.707107 -0.707107 -0.707107 2133.5 94.5)" stroke="#0E1E2B" stroke-width="2"/>
<line y1="-1" x2="15.5563" y2="-1" transform="matrix(0.707107 -0.707107 -0.707107 -0.707107 2117.5 94.5)" stroke="#0E1E2B" stroke-width="2"/>
<line y1="-1" x2="15.5563" y2="-1" transform="matrix(0.707107 -0.707107 -0.707107 -0.707107 2101.5 94.5)" stroke="#0E1E2B" stroke-width="2"/>
<line y1="-1" x2="15.5563" y2="-1" transform="matrix(0.707107 -0.707107 -0.707107 -0.707107 2133.5 46.5)" stroke="#0E1E2B" stroke-width="2"/>
<line y1="-1" x2="15.5563" y2="-1" transform="matrix(0.707107 -0.707107 -0.707107 -0.707107 2117.5 46.5)" stroke="#0E1E2B" stroke-width="2"/>
<line y1="-1" x2="15.5563" y2="-1" transform="matrix(0.707107 -0.707107 -0.707107 -0.707107 2101.5 46.5)" stroke="#0E1E2B" stroke-width="2"/>
<line y1="-1" x2="15.5563" y2="-1" transform="matrix(0.707107 -0.707107 -0.707107 -0.707107 2133.5 70.5)" stroke="#0E1E2B" stroke-width="2"/>
<line y1="-1" x2="15.5563" y2="-1" transform="matrix(0.707107 -0.707107 -0.707107 -0.707107 2117.5 70.5)" stroke="#0E1E2B" stroke-width="2"/>
<line y1="-1" x2="15.5563" y2="-1" transform="matrix(0.707107 -0.707107 -0.707107 -0.707107 2101.5 70.5)" stroke="#0E1E2B" stroke-width="2"/>
<line y1="-1" x2="15.5563" y2="-1" transform="matrix(0.707107 -0.707107 -0.707107 -0.707107 2133.5 22.5)" stroke="#0E1E2B" stroke-width="2"/>
<line y1="-1" x2="15.5563" y2="-1" transform="matrix(0.707107 -0.707107 -0.707107 -0.707107 2117.5 22.5)" stroke="#0E1E2B" stroke-width="2"/>
<line y1="-1" x2="15.5563" y2="-1" transform="matrix(0.707107 -0.707107 -0.707107 -0.707107 2101.5 22.5)" stroke="#0E1E2B" stroke-width="2"/>
<line y1="-1" x2="15.5563" y2="-1" transform="matrix(0.707107 -0.707107 -0.707107 -0.707107 2133.5 34.5)" stroke="#0E1E2B" stroke-width="2"/>
<line y1="-1" x2="15.5563" y2="-1" transform="matrix(0.707107 -0.707107 -0.707107 -0.707107 2117.5 34.5)" stroke="#0E1E2B" stroke-width="2"/>
<line y1="-1" x2="15.5563" y2="-1" transform="matrix(0.707107 -0.707107 -0.707107 -0.707107 2101.5 34.5)" stroke="#0E1E2B" stroke-width="2"/>
<line y1="-1" x2="15.5563" y2="-1" transform="matrix(0.707107 -0.707107 -0.707107 -0.707107 2133.5 22.5)" stroke="#0E1E2B" stroke-width="2"/>
<line y1="-1" x2="15.5563" y2="-1" transform="matrix(0.707107 -0.707107 -0.707107 -0.707107 2117.5 22.5)" stroke="#0E1E2B" stroke-width="2"/>
<line y1="-1" x2="15.5563" y2="-1" transform="matrix(0.707107 -0.707107 -0.707107 -0.707107 2101.5 22.5)" stroke="#0E1E2B" stroke-width="2"/>
<line x1="2169.29" y1="72.7929" x2="2180.29" y2="61.7929" stroke="#0E1E2B" stroke-width="2"/>
<line x1="2169.29" y1="88.7929" x2="2180.29" y2="77.7929" stroke="#0E1E2B" stroke-width="2"/>
<line x1="2169.29" y1="104.793" x2="2180.29" y2="93.7929" stroke="#0E1E2B" stroke-width="2"/>
<line x1="2152.29" y1="72.7929" x2="2163.29" y2="61.7929" stroke="#0E1E2B" stroke-width="2"/>
<line x1="2152.29" y1="88.7929" x2="2163.29" y2="77.7929" stroke="#0E1E2B" stroke-width="2"/>
<line x1="2152.29" y1="104.793" x2="2163.29" y2="93.7929" stroke="#0E1E2B" stroke-width="2"/>
<line x1="2187.29" y1="72.7929" x2="2198.29" y2="61.7929" stroke="#0E1E2B" stroke-width="2"/>
<line x1="2187.29" y1="88.7929" x2="2198.29" y2="77.7929" stroke="#0E1E2B" stroke-width="2"/>
<line x1="2187.29" y1="104.793" x2="2198.29" y2="93.7929" stroke="#0E1E2B" stroke-width="2"/>
<rect width="100" height="100" transform="translate(2200 9)" fill="#09141D"/>
<rect width="100" height="8" transform="matrix(-4.37114e-08 -1 -1 4.37114e-08 2243 109)" fill="#153042"/>
<rect x="-0.5" y="-0.5" width="99" height="13" rx="1.5" transform="matrix(-4.37114e-08 -1 -1 4.37114e-08 2234 108)" fill="#142839" stroke="#0E1E2B"/>
<path d="M2233 107L2228 107L2230.5 103.5L2233 91L2233 107Z" fill="#142839"/>
<path d="M2233 11L2228 11L2230.5 14.5L2233 27L2233 11Z" fill="#142839"/>
<rect width="98" height="5" transform="matrix(-4.37114e-08 -1 -1 4.37114e-08 2227 108)" fill="url(#paint20_linear_37_11237)" fill-opacity="0.03"/>
<rect width="96" height="4" rx="1" transform="matrix(-4.37114e-08 -1 -1 4.37114e-08 2227 107)" fill="#153042"/>
<rect width="100" height="21" transform="matrix(-4.37114e-08 -1 -1 4.37114e-08 2221 109)" fill="#071118"/>
<line y1="-1" x2="15.5563" y2="-1" transform="matrix(0.707107 -0.707107 -0.707107 -0.707107 2286 106)" stroke="#0E1E2B" stroke-width="2"/>
<line y1="-1" x2="15.5563" y2="-1" transform="matrix(0.707107 -0.707107 -0.707107 -0.707107 2270 106)" stroke="#0E1E2B" stroke-width="2"/>
<line y1="-1" x2="15.5563" y2="-1" transform="matrix(0.707107 -0.707107 -0.707107 -0.707107 2254 106)" stroke="#0E1E2B" stroke-width="2"/>
<line y1="-1" x2="15.5563" y2="-1" transform="matrix(0.707107 -0.707107 -0.707107 -0.707107 2286 58)" stroke="#0E1E2B" stroke-width="2"/>
<line y1="-1" x2="15.5563" y2="-1" transform="matrix(0.707107 -0.707107 -0.707107 -0.707107 2270 58)" stroke="#0E1E2B" stroke-width="2"/>
<line y1="-1" x2="15.5563" y2="-1" transform="matrix(0.707107 -0.707107 -0.707107 -0.707107 2254 58)" stroke="#0E1E2B" stroke-width="2"/>
<line y1="-1" x2="15.5563" y2="-1" transform="matrix(0.707107 -0.707107 -0.707107 -0.707107 2286 82)" stroke="#0E1E2B" stroke-width="2"/>
<line y1="-1" x2="15.5563" y2="-1" transform="matrix(0.707107 -0.707107 -0.707107 -0.707107 2270 82)" stroke="#0E1E2B" stroke-width="2"/>
<line y1="-1" x2="15.5563" y2="-1" transform="matrix(0.707107 -0.707107 -0.707107 -0.707107 2254 82)" stroke="#0E1E2B" stroke-width="2"/>
<line y1="-1" x2="15.5563" y2="-1" transform="matrix(0.707107 -0.707107 -0.707107 -0.707107 2286 34)" stroke="#0E1E2B" stroke-width="2"/>
<line y1="-1" x2="15.5563" y2="-1" transform="matrix(0.707107 -0.707107 -0.707107 -0.707107 2270 34)" stroke="#0E1E2B" stroke-width="2"/>
<line y1="-1" x2="15.5563" y2="-1" transform="matrix(0.707107 -0.707107 -0.707107 -0.707107 2254 34)" stroke="#0E1E2B" stroke-width="2"/>
<line y1="-1" x2="15.5563" y2="-1" transform="matrix(0.707107 -0.707107 -0.707107 -0.707107 2286 94)" stroke="#0E1E2B" stroke-width="2"/>
<line y1="-1" x2="15.5563" y2="-1" transform="matrix(0.707107 -0.707107 -0.707107 -0.707107 2270 94)" stroke="#0E1E2B" stroke-width="2"/>
<line y1="-1" x2="15.5563" y2="-1" transform="matrix(0.707107 -0.707107 -0.707107 -0.707107 2254 94)" stroke="#0E1E2B" stroke-width="2"/>
<line y1="-1" x2="15.5563" y2="-1" transform="matrix(0.707107 -0.707107 -0.707107 -0.707107 2286 46)" stroke="#0E1E2B" stroke-width="2"/>
<line y1="-1" x2="15.5563" y2="-1" transform="matrix(0.707107 -0.707107 -0.707107 -0.707107 2270 46)" stroke="#0E1E2B" stroke-width="2"/>
<line y1="-1" x2="15.5563" y2="-1" transform="matrix(0.707107 -0.707107 -0.707107 -0.707107 2254 46)" stroke="#0E1E2B" stroke-width="2"/>
<line y1="-1" x2="15.5563" y2="-1" transform="matrix(0.707107 -0.707107 -0.707107 -0.707107 2286 70)" stroke="#0E1E2B" stroke-width="2"/>
<line y1="-1" x2="15.5563" y2="-1" transform="matrix(0.707107 -0.707107 -0.707107 -0.707107 2270 70)" stroke="#0E1E2B" stroke-width="2"/>
<line y1="-1" x2="15.5563" y2="-1" transform="matrix(0.707107 -0.707107 -0.707107 -0.707107 2254 70)" stroke="#0E1E2B" stroke-width="2"/>
<line y1="-1" x2="15.5563" y2="-1" transform="matrix(0.707107 -0.707107 -0.707107 -0.707107 2286 22)" stroke="#0E1E2B" stroke-width="2"/>
<line y1="-1" x2="15.5563" y2="-1" transform="matrix(0.707107 -0.707107 -0.707107 -0.707107 2270 22)" stroke="#0E1E2B" stroke-width="2"/>
<line y1="-1" x2="15.5563" y2="-1" transform="matrix(0.707107 -0.707107 -0.707107 -0.707107 2254 22)" stroke="#0E1E2B" stroke-width="2"/>
<rect width="58" height="53" transform="matrix(-4.37114e-08 -1 -1 4.37114e-08 2257 95)" fill="#153042"/>
<path d="M2257 95L2257 92L2204 92L2204 95L2215.24 106L2250.58 106L2257 95Z" fill="#142839"/>
<rect width="3" height="53" transform="matrix(-4.37114e-08 -1 -1 4.37114e-08 2257 40)" fill="#142839"/>
<path d="M2216.52 36.3246C2215.49 42.2479 2218.29 43.7469 2220.99 44.8485L2238.17 43.8175C2241.05 42.8978 2244.17 40.3543 2243.96 36.9186C2243.69 32.3093 2238.22 31.036 2237.27 34.5621C2237.13 35.0878 2233.04 30.6121 2233.85 26.3201C2235.15 19.3459 2235.33 16.577 2229.02 14.8869C2222.72 13.1968 2214.22 23.8777 2218.89 21.1841C2223.55 18.4905 2226.7 19.3364 2228.14 20.2842C2232.69 24.3208 2226.17 27.6428 2223.12 28.5155C2220.07 29.3882 2217.27 32.0014 2216.52 36.3246Z" fill="#03B3E3"/>
<path d="M2227.59 37.0399C2222.52 37.4825 2224.26 41.7799 2225.76 43.8733C2227.08 43.8515 2230.31 43.7386 2232.63 43.4609C2233.86 40.9736 2233.94 36.4867 2227.59 37.0399Z" fill="#BDFFFF"/>
<ellipse cx="2246.47" cy="21.2514" rx="2.17674" ry="2.17674" transform="rotate(15 2246.47 21.2514)" fill="#03B3E3"/>
<ellipse cx="2252.88" cy="1.56052" rx="1.08837" ry="1.08837" transform="rotate(15 2252.88 1.56052)" fill="#03B3E3"/>
<ellipse cx="2253.62" cy="19.7881" rx="1.08837" ry="1.08837" transform="rotate(15 2253.62 19.7881)" fill="#03B3E3"/>
<path d="M2230.03 87.2724C2229.55 87.2322 2227.46 65.6875 2226.49 55.8969L2234.86 54.9128C2234.26 65.5152 2233 86.7953 2232.74 87.0966C2232.41 87.4731 2230.62 87.3226 2230.03 87.2724Z" fill="#354E4F" stroke="#213D3E" stroke-width="3"/>
<path d="M2222.85 52.667C2221.93 51.8597 2223.41 50.5644 2224.22 49.654C2219.48 48.8349 2220.19 45.7585 2221.91 45.6552C2224.2 45.5177 2229.57 45.2295 2232.74 45.1772C2236.7 45.1119 2240.31 44.8837 2240.38 46.0983C2240.59 49.5336 2236.77 49.073 2238.06 50.5469C2239.1 51.7259 2236.17 53.4196 2235.5 53.8044C2233.21 53.9418 2228.62 53.8204 2227.05 53.794C2224.81 53.7562 2223.76 53.4743 2222.85 52.667Z" fill="#142839" stroke="#142839" stroke-width="3"/>
<defs>
<linearGradient id="paint0_linear_37_11237" x1="49" y1="0" x2="49" y2="5" gradientUnits="userSpaceOnUse">
<stop stop-color="white" stop-opacity="0"/>
<stop offset="1" stop-color="white"/>
</linearGradient>
<linearGradient id="paint1_linear_37_11237" x1="1150" y1="81.9995" x2="1150" y2="86.9995" gradientUnits="userSpaceOnUse">
<stop stop-color="white" stop-opacity="0"/>
<stop offset="1" stop-color="white"/>
</linearGradient>
<linearGradient id="paint2_linear_37_11237" x1="49" y1="0" x2="49" y2="5" gradientUnits="userSpaceOnUse">
<stop stop-color="white" stop-opacity="0"/>
<stop offset="1" stop-color="white"/>
</linearGradient>
<linearGradient id="paint3_linear_37_11237" x1="1422" y1="108" x2="1422" y2="113" gradientUnits="userSpaceOnUse">
<stop stop-color="white" stop-opacity="0"/>
<stop offset="1" stop-color="white"/>
</linearGradient>
<linearGradient id="paint4_linear_37_11237" x1="1483.29" y1="108.79" x2="1483.29" y2="113.79" gradientUnits="userSpaceOnUse">
<stop stop-color="white" stop-opacity="0"/>
<stop offset="1" stop-color="white"/>
</linearGradient>
<linearGradient id="paint5_linear_37_11237" x1="1482.5" y1="82" x2="1482.5" y2="87" gradientUnits="userSpaceOnUse">
<stop stop-color="white" stop-opacity="0"/>
<stop offset="1" stop-color="white"/>
</linearGradient>
<linearGradient id="paint6_linear_37_11237" x1="10.29" y1="0" x2="10.29" y2="5" gradientUnits="userSpaceOnUse">
<stop stop-color="white" stop-opacity="0"/>
<stop offset="1" stop-color="white"/>
</linearGradient>
<linearGradient id="paint7_linear_37_11237" x1="17.15" y1="0" x2="17.15" y2="5" gradientUnits="userSpaceOnUse">
<stop stop-color="white" stop-opacity="0"/>
<stop offset="1" stop-color="white"/>
</linearGradient>
<linearGradient id="paint8_linear_37_11237" x1="38.5" y1="0" x2="38.5" y2="5" gradientUnits="userSpaceOnUse">
<stop stop-color="white" stop-opacity="0"/>
<stop offset="1" stop-color="white"/>
</linearGradient>
<linearGradient id="paint9_linear_37_11237" x1="38.22" y1="0" x2="38.22" y2="5" gradientUnits="userSpaceOnUse">
<stop stop-color="white" stop-opacity="0"/>
<stop offset="1" stop-color="white"/>
</linearGradient>
<linearGradient id="paint10_linear_37_11237" x1="1816.5" y1="36" x2="1816.5" y2="41" gradientUnits="userSpaceOnUse">
<stop stop-color="white" stop-opacity="0"/>
<stop offset="1" stop-color="white"/>
</linearGradient>
<linearGradient id="paint11_linear_37_11237" x1="1811.22" y1="108.22" x2="1811.22" y2="113.22" gradientUnits="userSpaceOnUse">
<stop stop-color="white" stop-opacity="0"/>
<stop offset="1" stop-color="white"/>
</linearGradient>
<linearGradient id="paint12_linear_37_11237" x1="1860.5" y1="82" x2="1860.5" y2="87" gradientUnits="userSpaceOnUse">
<stop stop-color="white" stop-opacity="0"/>
<stop offset="1" stop-color="white"/>
</linearGradient>
<linearGradient id="paint13_linear_37_11237" x1="1865.22" y1="9.77979" x2="1865.22" y2="14.7798" gradientUnits="userSpaceOnUse">
<stop stop-color="white" stop-opacity="0"/>
<stop offset="1" stop-color="white"/>
</linearGradient>
<linearGradient id="paint14_linear_37_11237" x1="2011.5" y1="87" x2="2011.5" y2="92" gradientUnits="userSpaceOnUse">
<stop stop-color="white" stop-opacity="0"/>
<stop offset="1" stop-color="white"/>
</linearGradient>
<linearGradient id="paint15_linear_37_11237" x1="1939" y1="82" x2="1939" y2="87" gradientUnits="userSpaceOnUse">
<stop stop-color="white" stop-opacity="0"/>
<stop offset="1" stop-color="white"/>
</linearGradient>
<linearGradient id="paint16_linear_37_11237" x1="10.29" y1="0" x2="10.29" y2="5" gradientUnits="userSpaceOnUse">
<stop stop-color="white" stop-opacity="0"/>
<stop offset="1" stop-color="white"/>
</linearGradient>
<linearGradient id="paint17_linear_37_11237" x1="17.15" y1="0" x2="17.15" y2="5" gradientUnits="userSpaceOnUse">
<stop stop-color="white" stop-opacity="0"/>
<stop offset="1" stop-color="white"/>
</linearGradient>
<linearGradient id="paint18_linear_37_11237" x1="10.29" y1="0" x2="10.29" y2="5" gradientUnits="userSpaceOnUse">
<stop stop-color="white" stop-opacity="0"/>
<stop offset="1" stop-color="white"/>
</linearGradient>
<linearGradient id="paint19_linear_37_11237" x1="17.15" y1="0" x2="17.15" y2="5" gradientUnits="userSpaceOnUse">
<stop stop-color="white" stop-opacity="0"/>
<stop offset="1" stop-color="white"/>
</linearGradient>
<linearGradient id="paint20_linear_37_11237" x1="49" y1="0" x2="49" y2="5" gradientUnits="userSpaceOnUse">
<stop stop-color="white" stop-opacity="0"/>
<stop offset="1" stop-color="white"/>
</linearGradient>
<clipPath id="clip0_37_11237">
<rect width="100" height="100" fill="white" transform="translate(300 9)"/>
</clipPath>
</defs>
</svg>
